<?xml version="1.0" encoding="utf-8" standalone="no"?>
<!DOCTYPE svg PUBLIC "-//W3C//DTD SVG 1.1//EN"
  "http://www.w3.org/Graphics/SVG/1.1/DTD/svg11.dtd">
<svg xmlns:xlink="http://www.w3.org/1999/xlink" width="710.627845pt" height="494.889687pt" viewBox="0 0 710.627845 494.889687" xmlns="http://www.w3.org/2000/svg" version="1.1">
 <metadata>
  <rdf:RDF xmlns:dc="http://purl.org/dc/elements/1.1/" xmlns:cc="http://creativecommons.org/ns#" xmlns:rdf="http://www.w3.org/1999/02/22-rdf-syntax-ns#">
   <cc:Work>
    <dc:type rdf:resource="http://purl.org/dc/dcmitype/StillImage"/>
    <dc:date>2025-10-17T05:36:40.211458</dc:date>
    <dc:format>image/svg+xml</dc:format>
    <dc:creator>
     <cc:Agent>
      <dc:title>Matplotlib v3.8.0, https://matplotlib.org/</dc:title>
     </cc:Agent>
    </dc:creator>
   </cc:Work>
  </rdf:RDF>
 </metadata>
 <defs>
  <style type="text/css">*{stroke-linejoin: round; stroke-linecap: butt}</style>
 </defs>
 <g id="figure_1">
  <g id="patch_1">
   <path d="M 0 494.889687 
L 710.627845 494.889687 
L 710.627845 0 
L 0 0 
z
" style="fill: #ffffff"/>
  </g>
  <g id="axes_1">
   <g id="patch_2">
    <path d="M 67.98875 455.397812 
L 703.068067 455.397812 
L 703.068067 37.837812 
L 67.98875 37.837812 
z
" style="fill: #ffffff"/>
   </g>
   <g id="PathCollection_1">
    <defs>
     <path id="m61e466d221" d="M 0 7.071068 
C 1.875269 7.071068 3.673985 6.326016 5 5 
C 6.326016 3.673985 7.071068 1.875269 7.071068 0 
C 7.071068 -1.875269 6.326016 -3.673985 5 -5 
C 3.673985 -6.326016 1.875269 -7.071068 0 -7.071068 
C -1.875269 -7.071068 -3.673985 -6.326016 -5 -5 
C -6.326016 -3.673985 -7.071068 -1.875269 -7.071068 0 
C -7.071068 1.875269 -6.326016 3.673985 -5 5 
C -3.673985 6.326016 -1.875269 7.071068 0 7.071068 
z
" style="stroke: #000000; stroke-opacity: 0.7; stroke-width: 1.5"/>
    </defs>
    <g clip-path="url(#pcbd15c21c5)">
     <use xlink:href="#m61e466d221" x="152.388385" y="420.468299" style="fill: #2e86ab; fill-opacity: 0.7; stroke: #000000; stroke-opacity: 0.7; stroke-width: 1.5"/>
    </g>
   </g>
   <g id="PathCollection_2">
    <defs>
     <path id="m1994070628" d="M -7.071068 7.071068 
L 7.071068 7.071068 
L 7.071068 -7.071068 
L -7.071068 -7.071068 
z
" style="stroke: #000000; stroke-opacity: 0.7; stroke-width: 1.5"/>
    </defs>
    <g clip-path="url(#pcbd15c21c5)">
     <use xlink:href="#m1994070628" x="577.976686" y="283.808891" style="fill: #a23b72; fill-opacity: 0.7; stroke: #000000; stroke-opacity: 0.7; stroke-width: 1.5"/>
    </g>
   </g>
   <g id="PathCollection_3">
    <defs>
     <path id="m65b9ad0c98" d="M 0 -7.071068 
L -7.071068 7.071068 
L 7.071068 7.071068 
z
" style="stroke: #000000; stroke-opacity: 0.7; stroke-width: 1.5"/>
    </defs>
    <g clip-path="url(#pcbd15c21c5)">
     <use xlink:href="#m65b9ad0c98" x="320.244007" y="398.179975" style="fill: #f18f01; fill-opacity: 0.7; stroke: #000000; stroke-opacity: 0.7; stroke-width: 1.5"/>
    </g>
   </g>
   <g id="matplotlib.axis_1">
    <g id="xtick_1">
     <g id="line2d_1">
      <path d="M 96.855992 455.397812 
L 96.855992 37.837812 
" clip-path="url(#pcbd15c21c5)" style="fill: none; stroke-dasharray: 0.8,1.32; stroke-dashoffset: 0; stroke: #b0b0b0; stroke-opacity: 0.3; stroke-width: 0.8"/>
     </g>
     <g id="line2d_2">
      <defs>
       <path id="ma573c842be" d="M 0 0 
L 0 3.5 
" style="stroke: #000000; stroke-width: 0.8"/>
      </defs>
      <g>
       <use xlink:href="#ma573c842be" x="96.855992" y="455.397812" style="stroke: #000000; stroke-width: 0.8"/>
      </g>
     </g>
     <g id="text_1">
      <!-- 0 -->
      <g transform="translate(93.674742 469.99625) scale(0.1 -0.1)">
       <defs>
        <path id="DejaVuSans-30" d="M 2034 4250 
Q 1547 4250 1301 3770 
Q 1056 3291 1056 2328 
Q 1056 1369 1301 889 
Q 1547 409 2034 409 
Q 2525 409 2770 889 
Q 3016 1369 3016 2328 
Q 3016 3291 2770 3770 
Q 2525 4250 2034 4250 
z
M 2034 4750 
Q 2819 4750 3233 4129 
Q 3647 3509 3647 2328 
Q 3647 1150 3233 529 
Q 2819 -91 2034 -91 
Q 1250 -91 836 529 
Q 422 1150 422 2328 
Q 422 3509 836 4129 
Q 1250 4750 2034 4750 
z
" transform="scale(0.015625)"/>
       </defs>
       <use xlink:href="#DejaVuSans-30"/>
      </g>
     </g>
    </g>
    <g id="xtick_2">
     <g id="line2d_3">
      <path d="M 171.484505 455.397812 
L 171.484505 37.837812 
" clip-path="url(#pcbd15c21c5)" style="fill: none; stroke-dasharray: 0.8,1.32; stroke-dashoffset: 0; stroke: #b0b0b0; stroke-opacity: 0.3; stroke-width: 0.8"/>
     </g>
     <g id="line2d_4">
      <g>
       <use xlink:href="#ma573c842be" x="171.484505" y="455.397812" style="stroke: #000000; stroke-width: 0.8"/>
      </g>
     </g>
     <g id="text_2">
      <!-- 20 -->
      <g transform="translate(165.122005 469.99625) scale(0.1 -0.1)">
       <defs>
        <path id="DejaVuSans-32" d="M 1228 531 
L 3431 531 
L 3431 0 
L 469 0 
L 469 531 
Q 828 903 1448 1529 
Q 2069 2156 2228 2338 
Q 2531 2678 2651 2914 
Q 2772 3150 2772 3378 
Q 2772 3750 2511 3984 
Q 2250 4219 1831 4219 
Q 1534 4219 1204 4116 
Q 875 4013 500 3803 
L 500 4441 
Q 881 4594 1212 4672 
Q 1544 4750 1819 4750 
Q 2544 4750 2975 4387 
Q 3406 4025 3406 3419 
Q 3406 3131 3298 2873 
Q 3191 2616 2906 2266 
Q 2828 2175 2409 1742 
Q 1991 1309 1228 531 
z
" transform="scale(0.015625)"/>
       </defs>
       <use xlink:href="#DejaVuSans-32"/>
       <use xlink:href="#DejaVuSans-30" x="63.623047"/>
      </g>
     </g>
    </g>
    <g id="xtick_3">
     <g id="line2d_5">
      <path d="M 246.113018 455.397812 
L 246.113018 37.837812 
" clip-path="url(#pcbd15c21c5)" style="fill: none; stroke-dasharray: 0.8,1.32; stroke-dashoffset: 0; stroke: #b0b0b0; stroke-opacity: 0.3; stroke-width: 0.8"/>
     </g>
     <g id="line2d_6">
      <g>
       <use xlink:href="#ma573c842be" x="246.113018" y="455.397812" style="stroke: #000000; stroke-width: 0.8"/>
      </g>
     </g>
     <g id="text_3">
      <!-- 40 -->
      <g transform="translate(239.750518 469.99625) scale(0.1 -0.1)">
       <defs>
        <path id="DejaVuSans-34" d="M 2419 4116 
L 825 1625 
L 2419 1625 
L 2419 4116 
z
M 2253 4666 
L 3047 4666 
L 3047 1625 
L 3713 1625 
L 3713 1100 
L 3047 1100 
L 3047 0 
L 2419 0 
L 2419 1100 
L 313 1100 
L 313 1709 
L 2253 4666 
z
" transform="scale(0.015625)"/>
       </defs>
       <use xlink:href="#DejaVuSans-34"/>
       <use xlink:href="#DejaVuSans-30" x="63.623047"/>
      </g>
     </g>
    </g>
    <g id="xtick_4">
     <g id="line2d_7">
      <path d="M 320.74153 455.397812 
L 320.74153 37.837812 
" clip-path="url(#pcbd15c21c5)" style="fill: none; stroke-dasharray: 0.8,1.32; stroke-dashoffset: 0; stroke: #b0b0b0; stroke-opacity: 0.3; stroke-width: 0.8"/>
     </g>
     <g id="line2d_8">
      <g>
       <use xlink:href="#ma573c842be" x="320.74153" y="455.397812" style="stroke: #000000; stroke-width: 0.8"/>
      </g>
     </g>
     <g id="text_4">
      <!-- 60 -->
      <g transform="translate(314.37903 469.99625) scale(0.1 -0.1)">
       <defs>
        <path id="DejaVuSans-36" d="M 2113 2584 
Q 1688 2584 1439 2293 
Q 1191 2003 1191 1497 
Q 1191 994 1439 701 
Q 1688 409 2113 409 
Q 2538 409 2786 701 
Q 3034 994 3034 1497 
Q 3034 2003 2786 2293 
Q 2538 2584 2113 2584 
z
M 3366 4563 
L 3366 3988 
Q 3128 4100 2886 4159 
Q 2644 4219 2406 4219 
Q 1781 4219 1451 3797 
Q 1122 3375 1075 2522 
Q 1259 2794 1537 2939 
Q 1816 3084 2150 3084 
Q 2853 3084 3261 2657 
Q 3669 2231 3669 1497 
Q 3669 778 3244 343 
Q 2819 -91 2113 -91 
Q 1303 -91 875 529 
Q 447 1150 447 2328 
Q 447 3434 972 4092 
Q 1497 4750 2381 4750 
Q 2619 4750 2861 4703 
Q 3103 4656 3366 4563 
z
" transform="scale(0.015625)"/>
       </defs>
       <use xlink:href="#DejaVuSans-36"/>
       <use xlink:href="#DejaVuSans-30" x="63.623047"/>
      </g>
     </g>
    </g>
    <g id="xtick_5">
     <g id="line2d_9">
      <path d="M 395.370043 455.397812 
L 395.370043 37.837812 
" clip-path="url(#pcbd15c21c5)" style="fill: none; stroke-dasharray: 0.8,1.32; stroke-dashoffset: 0; stroke: #b0b0b0; stroke-opacity: 0.3; stroke-width: 0.8"/>
     </g>
     <g id="line2d_10">
      <g>
       <use xlink:href="#ma573c842be" x="395.370043" y="455.397812" style="stroke: #000000; stroke-width: 0.8"/>
      </g>
     </g>
     <g id="text_5">
      <!-- 80 -->
      <g transform="translate(389.007543 469.99625) scale(0.1 -0.1)">
       <defs>
        <path id="DejaVuSans-38" d="M 2034 2216 
Q 1584 2216 1326 1975 
Q 1069 1734 1069 1313 
Q 1069 891 1326 650 
Q 1584 409 2034 409 
Q 2484 409 2743 651 
Q 3003 894 3003 1313 
Q 3003 1734 2745 1975 
Q 2488 2216 2034 2216 
z
M 1403 2484 
Q 997 2584 770 2862 
Q 544 3141 544 3541 
Q 544 4100 942 4425 
Q 1341 4750 2034 4750 
Q 2731 4750 3128 4425 
Q 3525 4100 3525 3541 
Q 3525 3141 3298 2862 
Q 3072 2584 2669 2484 
Q 3125 2378 3379 2068 
Q 3634 1759 3634 1313 
Q 3634 634 3220 271 
Q 2806 -91 2034 -91 
Q 1263 -91 848 271 
Q 434 634 434 1313 
Q 434 1759 690 2068 
Q 947 2378 1403 2484 
z
M 1172 3481 
Q 1172 3119 1398 2916 
Q 1625 2713 2034 2713 
Q 2441 2713 2670 2916 
Q 2900 3119 2900 3481 
Q 2900 3844 2670 4047 
Q 2441 4250 2034 4250 
Q 1625 4250 1398 4047 
Q 1172 3844 1172 3481 
z
" transform="scale(0.015625)"/>
       </defs>
       <use xlink:href="#DejaVuSans-38"/>
       <use xlink:href="#DejaVuSans-30" x="63.623047"/>
      </g>
     </g>
    </g>
    <g id="xtick_6">
     <g id="line2d_11">
      <path d="M 469.998556 455.397812 
L 469.998556 37.837812 
" clip-path="url(#pcbd15c21c5)" style="fill: none; stroke-dasharray: 0.8,1.32; stroke-dashoffset: 0; stroke: #b0b0b0; stroke-opacity: 0.3; stroke-width: 0.8"/>
     </g>
     <g id="line2d_12">
      <g>
       <use xlink:href="#ma573c842be" x="469.998556" y="455.397812" style="stroke: #000000; stroke-width: 0.8"/>
      </g>
     </g>
     <g id="text_6">
      <!-- 100 -->
      <g transform="translate(460.454806 469.99625) scale(0.1 -0.1)">
       <defs>
        <path id="DejaVuSans-31" d="M 794 531 
L 1825 531 
L 1825 4091 
L 703 3866 
L 703 4441 
L 1819 4666 
L 2450 4666 
L 2450 531 
L 3481 531 
L 3481 0 
L 794 0 
L 794 531 
z
" transform="scale(0.015625)"/>
       </defs>
       <use xlink:href="#DejaVuSans-31"/>
       <use xlink:href="#DejaVuSans-30" x="63.623047"/>
       <use xlink:href="#DejaVuSans-30" x="127.246094"/>
      </g>
     </g>
    </g>
    <g id="xtick_7">
     <g id="line2d_13">
      <path d="M 544.627069 455.397812 
L 544.627069 37.837812 
" clip-path="url(#pcbd15c21c5)" style="fill: none; stroke-dasharray: 0.8,1.32; stroke-dashoffset: 0; stroke: #b0b0b0; stroke-opacity: 0.3; stroke-width: 0.8"/>
     </g>
     <g id="line2d_14">
      <g>
       <use xlink:href="#ma573c842be" x="544.627069" y="455.397812" style="stroke: #000000; stroke-width: 0.8"/>
      </g>
     </g>
     <g id="text_7">
      <!-- 120 -->
      <g transform="translate(535.083319 469.99625) scale(0.1 -0.1)">
       <use xlink:href="#DejaVuSans-31"/>
       <use xlink:href="#DejaVuSans-32" x="63.623047"/>
       <use xlink:href="#DejaVuSans-30" x="127.246094"/>
      </g>
     </g>
    </g>
    <g id="xtick_8">
     <g id="line2d_15">
      <path d="M 619.255582 455.397812 
L 619.255582 37.837812 
" clip-path="url(#pcbd15c21c5)" style="fill: none; stroke-dasharray: 0.8,1.32; stroke-dashoffset: 0; stroke: #b0b0b0; stroke-opacity: 0.3; stroke-width: 0.8"/>
     </g>
     <g id="line2d_16">
      <g>
       <use xlink:href="#ma573c842be" x="619.255582" y="455.397812" style="stroke: #000000; stroke-width: 0.8"/>
      </g>
     </g>
     <g id="text_8">
      <!-- 140 -->
      <g transform="translate(609.711832 469.99625) scale(0.1 -0.1)">
       <use xlink:href="#DejaVuSans-31"/>
       <use xlink:href="#DejaVuSans-34" x="63.623047"/>
       <use xlink:href="#DejaVuSans-30" x="127.246094"/>
      </g>
     </g>
    </g>
    <g id="xtick_9">
     <g id="line2d_17">
      <path d="M 693.884095 455.397812 
L 693.884095 37.837812 
" clip-path="url(#pcbd15c21c5)" style="fill: none; stroke-dasharray: 0.8,1.32; stroke-dashoffset: 0; stroke: #b0b0b0; stroke-opacity: 0.3; stroke-width: 0.8"/>
     </g>
     <g id="line2d_18">
      <g>
       <use xlink:href="#ma573c842be" x="693.884095" y="455.397812" style="stroke: #000000; stroke-width: 0.8"/>
      </g>
     </g>
     <g id="text_9">
      <!-- 160 -->
      <g transform="translate(684.340345 469.99625) scale(0.1 -0.1)">
       <use xlink:href="#DejaVuSans-31"/>
       <use xlink:href="#DejaVuSans-36" x="63.623047"/>
       <use xlink:href="#DejaVuSans-30" x="127.246094"/>
      </g>
     </g>
    </g>
    <g id="text_10">
     <!-- API Calls (count) -->
     <g transform="translate(329.366533 485.194062) scale(0.12 -0.12)">
      <defs>
       <path id="DejaVuSans-Bold-41" d="M 3419 850 
L 1538 850 
L 1241 0 
L 31 0 
L 1759 4666 
L 3194 4666 
L 4922 0 
L 3713 0 
L 3419 850 
z
M 1838 1716 
L 3116 1716 
L 2478 3572 
L 1838 1716 
z
" transform="scale(0.015625)"/>
       <path id="DejaVuSans-Bold-50" d="M 588 4666 
L 2584 4666 
Q 3475 4666 3951 4270 
Q 4428 3875 4428 3144 
Q 4428 2409 3951 2014 
Q 3475 1619 2584 1619 
L 1791 1619 
L 1791 0 
L 588 0 
L 588 4666 
z
M 1791 3794 
L 1791 2491 
L 2456 2491 
Q 2806 2491 2997 2661 
Q 3188 2831 3188 3144 
Q 3188 3456 2997 3625 
Q 2806 3794 2456 3794 
L 1791 3794 
z
" transform="scale(0.015625)"/>
       <path id="DejaVuSans-Bold-49" d="M 588 4666 
L 1791 4666 
L 1791 0 
L 588 0 
L 588 4666 
z
" transform="scale(0.015625)"/>
       <path id="DejaVuSans-Bold-20" transform="scale(0.015625)"/>
       <path id="DejaVuSans-Bold-43" d="M 4288 256 
Q 3956 84 3597 -3 
Q 3238 -91 2847 -91 
Q 1681 -91 1000 561 
Q 319 1213 319 2328 
Q 319 3447 1000 4098 
Q 1681 4750 2847 4750 
Q 3238 4750 3597 4662 
Q 3956 4575 4288 4403 
L 4288 3438 
Q 3953 3666 3628 3772 
Q 3303 3878 2944 3878 
Q 2300 3878 1931 3465 
Q 1563 3053 1563 2328 
Q 1563 1606 1931 1193 
Q 2300 781 2944 781 
Q 3303 781 3628 887 
Q 3953 994 4288 1222 
L 4288 256 
z
" transform="scale(0.015625)"/>
       <path id="DejaVuSans-Bold-61" d="M 2106 1575 
Q 1756 1575 1579 1456 
Q 1403 1338 1403 1106 
Q 1403 894 1545 773 
Q 1688 653 1941 653 
Q 2256 653 2472 879 
Q 2688 1106 2688 1447 
L 2688 1575 
L 2106 1575 
z
M 3816 1997 
L 3816 0 
L 2688 0 
L 2688 519 
Q 2463 200 2181 54 
Q 1900 -91 1497 -91 
Q 953 -91 614 226 
Q 275 544 275 1050 
Q 275 1666 698 1953 
Q 1122 2241 2028 2241 
L 2688 2241 
L 2688 2328 
Q 2688 2594 2478 2717 
Q 2269 2841 1825 2841 
Q 1466 2841 1156 2769 
Q 847 2697 581 2553 
L 581 3406 
Q 941 3494 1303 3539 
Q 1666 3584 2028 3584 
Q 2975 3584 3395 3211 
Q 3816 2838 3816 1997 
z
" transform="scale(0.015625)"/>
       <path id="DejaVuSans-Bold-6c" d="M 538 4863 
L 1656 4863 
L 1656 0 
L 538 0 
L 538 4863 
z
" transform="scale(0.015625)"/>
       <path id="DejaVuSans-Bold-73" d="M 3272 3391 
L 3272 2541 
Q 2913 2691 2578 2766 
Q 2244 2841 1947 2841 
Q 1628 2841 1473 2761 
Q 1319 2681 1319 2516 
Q 1319 2381 1436 2309 
Q 1553 2238 1856 2203 
L 2053 2175 
Q 2913 2066 3209 1816 
Q 3506 1566 3506 1031 
Q 3506 472 3093 190 
Q 2681 -91 1863 -91 
Q 1516 -91 1145 -36 
Q 775 19 384 128 
L 384 978 
Q 719 816 1070 734 
Q 1422 653 1784 653 
Q 2113 653 2278 743 
Q 2444 834 2444 1013 
Q 2444 1163 2330 1236 
Q 2216 1309 1875 1350 
L 1678 1375 
Q 931 1469 631 1722 
Q 331 1975 331 2491 
Q 331 3047 712 3315 
Q 1094 3584 1881 3584 
Q 2191 3584 2531 3537 
Q 2872 3491 3272 3391 
z
" transform="scale(0.015625)"/>
       <path id="DejaVuSans-Bold-28" d="M 2413 -844 
L 1484 -844 
Q 1006 -72 778 623 
Q 550 1319 550 2003 
Q 550 2688 779 3389 
Q 1009 4091 1484 4856 
L 2413 4856 
Q 2013 4116 1813 3408 
Q 1613 2700 1613 2009 
Q 1613 1319 1811 609 
Q 2009 -100 2413 -844 
z
" transform="scale(0.015625)"/>
       <path id="DejaVuSans-Bold-63" d="M 3366 3391 
L 3366 2478 
Q 3138 2634 2908 2709 
Q 2678 2784 2431 2784 
Q 1963 2784 1702 2511 
Q 1441 2238 1441 1747 
Q 1441 1256 1702 982 
Q 1963 709 2431 709 
Q 2694 709 2930 787 
Q 3166 866 3366 1019 
L 3366 103 
Q 3103 6 2833 -42 
Q 2563 -91 2291 -91 
Q 1344 -91 809 395 
Q 275 881 275 1747 
Q 275 2613 809 3098 
Q 1344 3584 2291 3584 
Q 2566 3584 2833 3536 
Q 3100 3488 3366 3391 
z
" transform="scale(0.015625)"/>
       <path id="DejaVuSans-Bold-6f" d="M 2203 2784 
Q 1831 2784 1636 2517 
Q 1441 2250 1441 1747 
Q 1441 1244 1636 976 
Q 1831 709 2203 709 
Q 2569 709 2762 976 
Q 2956 1244 2956 1747 
Q 2956 2250 2762 2517 
Q 2569 2784 2203 2784 
z
M 2203 3584 
Q 3106 3584 3614 3096 
Q 4122 2609 4122 1747 
Q 4122 884 3614 396 
Q 3106 -91 2203 -91 
Q 1297 -91 786 396 
Q 275 884 275 1747 
Q 275 2609 786 3096 
Q 1297 3584 2203 3584 
z
" transform="scale(0.015625)"/>
       <path id="DejaVuSans-Bold-75" d="M 500 1363 
L 500 3500 
L 1625 3500 
L 1625 3150 
Q 1625 2866 1622 2436 
Q 1619 2006 1619 1863 
Q 1619 1441 1641 1255 
Q 1663 1069 1716 984 
Q 1784 875 1895 815 
Q 2006 756 2150 756 
Q 2500 756 2700 1025 
Q 2900 1294 2900 1772 
L 2900 3500 
L 4019 3500 
L 4019 0 
L 2900 0 
L 2900 506 
Q 2647 200 2364 54 
Q 2081 -91 1741 -91 
Q 1134 -91 817 281 
Q 500 653 500 1363 
z
" transform="scale(0.015625)"/>
       <path id="DejaVuSans-Bold-6e" d="M 4056 2131 
L 4056 0 
L 2931 0 
L 2931 347 
L 2931 1631 
Q 2931 2084 2911 2256 
Q 2891 2428 2841 2509 
Q 2775 2619 2662 2680 
Q 2550 2741 2406 2741 
Q 2056 2741 1856 2470 
Q 1656 2200 1656 1722 
L 1656 0 
L 538 0 
L 538 3500 
L 1656 3500 
L 1656 2988 
Q 1909 3294 2193 3439 
Q 2478 3584 2822 3584 
Q 3428 3584 3742 3212 
Q 4056 2841 4056 2131 
z
" transform="scale(0.015625)"/>
       <path id="DejaVuSans-Bold-74" d="M 1759 4494 
L 1759 3500 
L 2913 3500 
L 2913 2700 
L 1759 2700 
L 1759 1216 
Q 1759 972 1856 886 
Q 1953 800 2241 800 
L 2816 800 
L 2816 0 
L 1856 0 
Q 1194 0 917 276 
Q 641 553 641 1216 
L 641 2700 
L 84 2700 
L 84 3500 
L 641 3500 
L 641 4494 
L 1759 4494 
z
" transform="scale(0.015625)"/>
       <path id="DejaVuSans-Bold-29" d="M 513 -844 
Q 913 -100 1113 609 
Q 1313 1319 1313 2009 
Q 1313 2700 1113 3408 
Q 913 4116 513 4856 
L 1441 4856 
Q 1916 4091 2145 3389 
Q 2375 2688 2375 2003 
Q 2375 1319 2147 623 
Q 1919 -72 1441 -844 
L 513 -844 
z
" transform="scale(0.015625)"/>
      </defs>
      <use xlink:href="#DejaVuSans-Bold-41"/>
      <use xlink:href="#DejaVuSans-Bold-50" x="77.392578"/>
      <use xlink:href="#DejaVuSans-Bold-49" x="150.683594"/>
      <use xlink:href="#DejaVuSans-Bold-20" x="187.890625"/>
      <use xlink:href="#DejaVuSans-Bold-43" x="222.705078"/>
      <use xlink:href="#DejaVuSans-Bold-61" x="296.09375"/>
      <use xlink:href="#DejaVuSans-Bold-6c" x="363.574219"/>
      <use xlink:href="#DejaVuSans-Bold-6c" x="397.851562"/>
      <use xlink:href="#DejaVuSans-Bold-73" x="432.128906"/>
      <use xlink:href="#DejaVuSans-Bold-20" x="491.650391"/>
      <use xlink:href="#DejaVuSans-Bold-28" x="526.464844"/>
      <use xlink:href="#DejaVuSans-Bold-63" x="572.167969"/>
      <use xlink:href="#DejaVuSans-Bold-6f" x="631.445312"/>
      <use xlink:href="#DejaVuSans-Bold-75" x="700.146484"/>
      <use xlink:href="#DejaVuSans-Bold-6e" x="771.337891"/>
      <use xlink:href="#DejaVuSans-Bold-74" x="842.529297"/>
      <use xlink:href="#DejaVuSans-Bold-29" x="890.332031"/>
     </g>
    </g>
   </g>
   <g id="matplotlib.axis_2">
    <g id="ytick_1">
     <g id="line2d_19">
      <path d="M 67.98875 436.417812 
L 703.068067 436.417812 
" clip-path="url(#pcbd15c21c5)" style="fill: none; stroke-dasharray: 0.8,1.32; stroke-dashoffset: 0; stroke: #b0b0b0; stroke-opacity: 0.3; stroke-width: 0.8"/>
     </g>
     <g id="line2d_20">
      <defs>
       <path id="md96062aae7" d="M 0 0 
L -3.5 0 
" style="stroke: #000000; stroke-width: 0.8"/>
      </defs>
      <g>
       <use xlink:href="#md96062aae7" x="67.98875" y="436.417812" style="stroke: #000000; stroke-width: 0.8"/>
      </g>
     </g>
     <g id="text_11">
      <!-- 0 -->
      <g transform="translate(54.62625 440.217031) scale(0.1 -0.1)">
       <use xlink:href="#DejaVuSans-30"/>
      </g>
     </g>
    </g>
    <g id="ytick_2">
     <g id="line2d_21">
      <path d="M 67.98875 387.350112 
L 703.068067 387.350112 
" clip-path="url(#pcbd15c21c5)" style="fill: none; stroke-dasharray: 0.8,1.32; stroke-dashoffset: 0; stroke: #b0b0b0; stroke-opacity: 0.3; stroke-width: 0.8"/>
     </g>
     <g id="line2d_22">
      <g>
       <use xlink:href="#md96062aae7" x="67.98875" y="387.350112" style="stroke: #000000; stroke-width: 0.8"/>
      </g>
     </g>
     <g id="text_12">
      <!-- 100000 -->
      <g transform="translate(22.81375 391.14933) scale(0.1 -0.1)">
       <use xlink:href="#DejaVuSans-31"/>
       <use xlink:href="#DejaVuSans-30" x="63.623047"/>
       <use xlink:href="#DejaVuSans-30" x="127.246094"/>
       <use xlink:href="#DejaVuSans-30" x="190.869141"/>
       <use xlink:href="#DejaVuSans-30" x="254.492188"/>
       <use xlink:href="#DejaVuSans-30" x="318.115234"/>
      </g>
     </g>
    </g>
    <g id="ytick_3">
     <g id="line2d_23">
      <path d="M 67.98875 338.282411 
L 703.068067 338.282411 
" clip-path="url(#pcbd15c21c5)" style="fill: none; stroke-dasharray: 0.8,1.32; stroke-dashoffset: 0; stroke: #b0b0b0; stroke-opacity: 0.3; stroke-width: 0.8"/>
     </g>
     <g id="line2d_24">
      <g>
       <use xlink:href="#md96062aae7" x="67.98875" y="338.282411" style="stroke: #000000; stroke-width: 0.8"/>
      </g>
     </g>
     <g id="text_13">
      <!-- 200000 -->
      <g transform="translate(22.81375 342.08163) scale(0.1 -0.1)">
       <use xlink:href="#DejaVuSans-32"/>
       <use xlink:href="#DejaVuSans-30" x="63.623047"/>
       <use xlink:href="#DejaVuSans-30" x="127.246094"/>
       <use xlink:href="#DejaVuSans-30" x="190.869141"/>
       <use xlink:href="#DejaVuSans-30" x="254.492188"/>
       <use xlink:href="#DejaVuSans-30" x="318.115234"/>
      </g>
     </g>
    </g>
    <g id="ytick_4">
     <g id="line2d_25">
      <path d="M 67.98875 289.21471 
L 703.068067 289.21471 
" clip-path="url(#pcbd15c21c5)" style="fill: none; stroke-dasharray: 0.8,1.32; stroke-dashoffset: 0; stroke: #b0b0b0; stroke-opacity: 0.3; stroke-width: 0.8"/>
     </g>
     <g id="line2d_26">
      <g>
       <use xlink:href="#md96062aae7" x="67.98875" y="289.21471" style="stroke: #000000; stroke-width: 0.8"/>
      </g>
     </g>
     <g id="text_14">
      <!-- 300000 -->
      <g transform="translate(22.81375 293.013929) scale(0.1 -0.1)">
       <defs>
        <path id="DejaVuSans-33" d="M 2597 2516 
Q 3050 2419 3304 2112 
Q 3559 1806 3559 1356 
Q 3559 666 3084 287 
Q 2609 -91 1734 -91 
Q 1441 -91 1130 -33 
Q 819 25 488 141 
L 488 750 
Q 750 597 1062 519 
Q 1375 441 1716 441 
Q 2309 441 2620 675 
Q 2931 909 2931 1356 
Q 2931 1769 2642 2001 
Q 2353 2234 1838 2234 
L 1294 2234 
L 1294 2753 
L 1863 2753 
Q 2328 2753 2575 2939 
Q 2822 3125 2822 3475 
Q 2822 3834 2567 4026 
Q 2313 4219 1838 4219 
Q 1578 4219 1281 4162 
Q 984 4106 628 3988 
L 628 4550 
Q 988 4650 1302 4700 
Q 1616 4750 1894 4750 
Q 2613 4750 3031 4423 
Q 3450 4097 3450 3541 
Q 3450 3153 3228 2886 
Q 3006 2619 2597 2516 
z
" transform="scale(0.015625)"/>
       </defs>
       <use xlink:href="#DejaVuSans-33"/>
       <use xlink:href="#DejaVuSans-30" x="63.623047"/>
       <use xlink:href="#DejaVuSans-30" x="127.246094"/>
       <use xlink:href="#DejaVuSans-30" x="190.869141"/>
       <use xlink:href="#DejaVuSans-30" x="254.492188"/>
       <use xlink:href="#DejaVuSans-30" x="318.115234"/>
      </g>
     </g>
    </g>
    <g id="ytick_5">
     <g id="line2d_27">
      <path d="M 67.98875 240.147009 
L 703.068067 240.147009 
" clip-path="url(#pcbd15c21c5)" style="fill: none; stroke-dasharray: 0.8,1.32; stroke-dashoffset: 0; stroke: #b0b0b0; stroke-opacity: 0.3; stroke-width: 0.8"/>
     </g>
     <g id="line2d_28">
      <g>
       <use xlink:href="#md96062aae7" x="67.98875" y="240.147009" style="stroke: #000000; stroke-width: 0.8"/>
      </g>
     </g>
     <g id="text_15">
      <!-- 400000 -->
      <g transform="translate(22.81375 243.946228) scale(0.1 -0.1)">
       <use xlink:href="#DejaVuSans-34"/>
       <use xlink:href="#DejaVuSans-30" x="63.623047"/>
       <use xlink:href="#DejaVuSans-30" x="127.246094"/>
       <use xlink:href="#DejaVuSans-30" x="190.869141"/>
       <use xlink:href="#DejaVuSans-30" x="254.492188"/>
       <use xlink:href="#DejaVuSans-30" x="318.115234"/>
      </g>
     </g>
    </g>
    <g id="ytick_6">
     <g id="line2d_29">
      <path d="M 67.98875 191.079309 
L 703.068067 191.079309 
" clip-path="url(#pcbd15c21c5)" style="fill: none; stroke-dasharray: 0.8,1.32; stroke-dashoffset: 0; stroke: #b0b0b0; stroke-opacity: 0.3; stroke-width: 0.8"/>
     </g>
     <g id="line2d_30">
      <g>
       <use xlink:href="#md96062aae7" x="67.98875" y="191.079309" style="stroke: #000000; stroke-width: 0.8"/>
      </g>
     </g>
     <g id="text_16">
      <!-- 500000 -->
      <g transform="translate(22.81375 194.878527) scale(0.1 -0.1)">
       <defs>
        <path id="DejaVuSans-35" d="M 691 4666 
L 3169 4666 
L 3169 4134 
L 1269 4134 
L 1269 2991 
Q 1406 3038 1543 3061 
Q 1681 3084 1819 3084 
Q 2600 3084 3056 2656 
Q 3513 2228 3513 1497 
Q 3513 744 3044 326 
Q 2575 -91 1722 -91 
Q 1428 -91 1123 -41 
Q 819 9 494 109 
L 494 744 
Q 775 591 1075 516 
Q 1375 441 1709 441 
Q 2250 441 2565 725 
Q 2881 1009 2881 1497 
Q 2881 1984 2565 2268 
Q 2250 2553 1709 2553 
Q 1456 2553 1204 2497 
Q 953 2441 691 2322 
L 691 4666 
z
" transform="scale(0.015625)"/>
       </defs>
       <use xlink:href="#DejaVuSans-35"/>
       <use xlink:href="#DejaVuSans-30" x="63.623047"/>
       <use xlink:href="#DejaVuSans-30" x="127.246094"/>
       <use xlink:href="#DejaVuSans-30" x="190.869141"/>
       <use xlink:href="#DejaVuSans-30" x="254.492188"/>
       <use xlink:href="#DejaVuSans-30" x="318.115234"/>
      </g>
     </g>
    </g>
    <g id="ytick_7">
     <g id="line2d_31">
      <path d="M 67.98875 142.011608 
L 703.068067 142.011608 
" clip-path="url(#pcbd15c21c5)" style="fill: none; stroke-dasharray: 0.8,1.32; stroke-dashoffset: 0; stroke: #b0b0b0; stroke-opacity: 0.3; stroke-width: 0.8"/>
     </g>
     <g id="line2d_32">
      <g>
       <use xlink:href="#md96062aae7" x="67.98875" y="142.011608" style="stroke: #000000; stroke-width: 0.8"/>
      </g>
     </g>
     <g id="text_17">
      <!-- 600000 -->
      <g transform="translate(22.81375 145.810827) scale(0.1 -0.1)">
       <use xlink:href="#DejaVuSans-36"/>
       <use xlink:href="#DejaVuSans-30" x="63.623047"/>
       <use xlink:href="#DejaVuSans-30" x="127.246094"/>
       <use xlink:href="#DejaVuSans-30" x="190.869141"/>
       <use xlink:href="#DejaVuSans-30" x="254.492188"/>
       <use xlink:href="#DejaVuSans-30" x="318.115234"/>
      </g>
     </g>
    </g>
    <g id="ytick_8">
     <g id="line2d_33">
      <path d="M 67.98875 92.943907 
L 703.068067 92.943907 
" clip-path="url(#pcbd15c21c5)" style="fill: none; stroke-dasharray: 0.8,1.32; stroke-dashoffset: 0; stroke: #b0b0b0; stroke-opacity: 0.3; stroke-width: 0.8"/>
     </g>
     <g id="line2d_34">
      <g>
       <use xlink:href="#md96062aae7" x="67.98875" y="92.943907" style="stroke: #000000; stroke-width: 0.8"/>
      </g>
     </g>
     <g id="text_18">
      <!-- 700000 -->
      <g transform="translate(22.81375 96.743126) scale(0.1 -0.1)">
       <defs>
        <path id="DejaVuSans-37" d="M 525 4666 
L 3525 4666 
L 3525 4397 
L 1831 0 
L 1172 0 
L 2766 4134 
L 525 4134 
L 525 4666 
z
" transform="scale(0.015625)"/>
       </defs>
       <use xlink:href="#DejaVuSans-37"/>
       <use xlink:href="#DejaVuSans-30" x="63.623047"/>
       <use xlink:href="#DejaVuSans-30" x="127.246094"/>
       <use xlink:href="#DejaVuSans-30" x="190.869141"/>
       <use xlink:href="#DejaVuSans-30" x="254.492188"/>
       <use xlink:href="#DejaVuSans-30" x="318.115234"/>
      </g>
     </g>
    </g>
    <g id="ytick_9">
     <g id="line2d_35">
      <path d="M 67.98875 43.876206 
L 703.068067 43.876206 
" clip-path="url(#pcbd15c21c5)" style="fill: none; stroke-dasharray: 0.8,1.32; stroke-dashoffset: 0; stroke: #b0b0b0; stroke-opacity: 0.3; stroke-width: 0.8"/>
     </g>
     <g id="line2d_36">
      <g>
       <use xlink:href="#md96062aae7" x="67.98875" y="43.876206" style="stroke: #000000; stroke-width: 0.8"/>
      </g>
     </g>
     <g id="text_19">
      <!-- 800000 -->
      <g transform="translate(22.81375 47.675425) scale(0.1 -0.1)">
       <use xlink:href="#DejaVuSans-38"/>
       <use xlink:href="#DejaVuSans-30" x="63.623047"/>
       <use xlink:href="#DejaVuSans-30" x="127.246094"/>
       <use xlink:href="#DejaVuSans-30" x="190.869141"/>
       <use xlink:href="#DejaVuSans-30" x="254.492188"/>
       <use xlink:href="#DejaVuSans-30" x="318.115234"/>
      </g>
     </g>
    </g>
    <g id="text_20">
     <!-- Total Tokens (Input + Output) -->
     <g transform="translate(16.318125 346.654687) rotate(-90) scale(0.12 -0.12)">
      <defs>
       <path id="DejaVuSans-Bold-54" d="M 31 4666 
L 4331 4666 
L 4331 3756 
L 2784 3756 
L 2784 0 
L 1581 0 
L 1581 3756 
L 31 3756 
L 31 4666 
z
" transform="scale(0.015625)"/>
       <path id="DejaVuSans-Bold-6b" d="M 538 4863 
L 1656 4863 
L 1656 2216 
L 2944 3500 
L 4244 3500 
L 2534 1894 
L 4378 0 
L 3022 0 
L 1656 1459 
L 1656 0 
L 538 0 
L 538 4863 
z
" transform="scale(0.015625)"/>
       <path id="DejaVuSans-Bold-65" d="M 4031 1759 
L 4031 1441 
L 1416 1441 
Q 1456 1047 1700 850 
Q 1944 653 2381 653 
Q 2734 653 3104 758 
Q 3475 863 3866 1075 
L 3866 213 
Q 3469 63 3072 -14 
Q 2675 -91 2278 -91 
Q 1328 -91 801 392 
Q 275 875 275 1747 
Q 275 2603 792 3093 
Q 1309 3584 2216 3584 
Q 3041 3584 3536 3087 
Q 4031 2591 4031 1759 
z
M 2881 2131 
Q 2881 2450 2695 2645 
Q 2509 2841 2209 2841 
Q 1884 2841 1681 2658 
Q 1478 2475 1428 2131 
L 2881 2131 
z
" transform="scale(0.015625)"/>
       <path id="DejaVuSans-Bold-70" d="M 1656 506 
L 1656 -1331 
L 538 -1331 
L 538 3500 
L 1656 3500 
L 1656 2988 
Q 1888 3294 2169 3439 
Q 2450 3584 2816 3584 
Q 3463 3584 3878 3070 
Q 4294 2556 4294 1747 
Q 4294 938 3878 423 
Q 3463 -91 2816 -91 
Q 2450 -91 2169 54 
Q 1888 200 1656 506 
z
M 2400 2772 
Q 2041 2772 1848 2508 
Q 1656 2244 1656 1747 
Q 1656 1250 1848 986 
Q 2041 722 2400 722 
Q 2759 722 2948 984 
Q 3138 1247 3138 1747 
Q 3138 2247 2948 2509 
Q 2759 2772 2400 2772 
z
" transform="scale(0.015625)"/>
       <path id="DejaVuSans-Bold-2b" d="M 3053 4013 
L 3053 2375 
L 4684 2375 
L 4684 1638 
L 3053 1638 
L 3053 0 
L 2309 0 
L 2309 1638 
L 678 1638 
L 678 2375 
L 2309 2375 
L 2309 4013 
L 3053 4013 
z
" transform="scale(0.015625)"/>
       <path id="DejaVuSans-Bold-4f" d="M 2719 3878 
Q 2169 3878 1866 3472 
Q 1563 3066 1563 2328 
Q 1563 1594 1866 1187 
Q 2169 781 2719 781 
Q 3272 781 3575 1187 
Q 3878 1594 3878 2328 
Q 3878 3066 3575 3472 
Q 3272 3878 2719 3878 
z
M 2719 4750 
Q 3844 4750 4481 4106 
Q 5119 3463 5119 2328 
Q 5119 1197 4481 553 
Q 3844 -91 2719 -91 
Q 1597 -91 958 553 
Q 319 1197 319 2328 
Q 319 3463 958 4106 
Q 1597 4750 2719 4750 
z
" transform="scale(0.015625)"/>
      </defs>
      <use xlink:href="#DejaVuSans-Bold-54"/>
      <use xlink:href="#DejaVuSans-Bold-6f" x="54.962891"/>
      <use xlink:href="#DejaVuSans-Bold-74" x="123.664062"/>
      <use xlink:href="#DejaVuSans-Bold-61" x="171.466797"/>
      <use xlink:href="#DejaVuSans-Bold-6c" x="238.947266"/>
      <use xlink:href="#DejaVuSans-Bold-20" x="273.224609"/>
      <use xlink:href="#DejaVuSans-Bold-54" x="308.039062"/>
      <use xlink:href="#DejaVuSans-Bold-6f" x="363.001953"/>
      <use xlink:href="#DejaVuSans-Bold-6b" x="431.703125"/>
      <use xlink:href="#DejaVuSans-Bold-65" x="495.582031"/>
      <use xlink:href="#DejaVuSans-Bold-6e" x="563.404297"/>
      <use xlink:href="#DejaVuSans-Bold-73" x="634.595703"/>
      <use xlink:href="#DejaVuSans-Bold-20" x="694.117188"/>
      <use xlink:href="#DejaVuSans-Bold-28" x="728.931641"/>
      <use xlink:href="#DejaVuSans-Bold-49" x="774.634766"/>
      <use xlink:href="#DejaVuSans-Bold-6e" x="811.841797"/>
      <use xlink:href="#DejaVuSans-Bold-70" x="883.033203"/>
      <use xlink:href="#DejaVuSans-Bold-75" x="954.615234"/>
      <use xlink:href="#DejaVuSans-Bold-74" x="1025.806641"/>
      <use xlink:href="#DejaVuSans-Bold-20" x="1073.609375"/>
      <use xlink:href="#DejaVuSans-Bold-2b" x="1108.423828"/>
      <use xlink:href="#DejaVuSans-Bold-20" x="1192.212891"/>
      <use xlink:href="#DejaVuSans-Bold-4f" x="1227.027344"/>
      <use xlink:href="#DejaVuSans-Bold-75" x="1312.037109"/>
      <use xlink:href="#DejaVuSans-Bold-74" x="1383.228516"/>
      <use xlink:href="#DejaVuSans-Bold-70" x="1431.03125"/>
      <use xlink:href="#DejaVuSans-Bold-75" x="1502.613281"/>
      <use xlink:href="#DejaVuSans-Bold-74" x="1573.804688"/>
      <use xlink:href="#DejaVuSans-Bold-29" x="1621.607422"/>
     </g>
    </g>
   </g>
   <g id="line2d_37">
    <path d="M 96.855992 436.417812 
L 102.687758 436.034378 
L 108.519524 435.650944 
L 114.35129 435.267509 
L 120.183056 434.884075 
L 126.014822 434.500641 
L 131.846588 434.117206 
L 137.678354 433.733772 
L 143.51012 433.350338 
L 149.341886 432.966903 
L 155.173652 432.583469 
L 161.005418 432.200035 
L 166.837184 431.8166 
L 172.66895 431.433166 
L 178.500716 431.049732 
L 184.332482 430.666297 
L 190.164248 430.282863 
L 195.996014 429.899429 
L 201.82778 429.515994 
L 207.659546 429.13256 
L 213.491312 428.749126 
L 219.323077 428.365691 
L 225.154843 427.982257 
L 230.986609 427.598823 
L 236.818375 427.215388 
L 242.650141 426.831954 
L 248.481907 426.44852 
L 254.313673 426.065085 
L 260.145439 425.681651 
L 265.977205 425.298217 
L 271.808971 424.914782 
L 277.640737 424.531348 
L 283.472503 424.147914 
L 289.304269 423.764479 
L 295.136035 423.381045 
L 300.967801 422.99761 
L 306.799567 422.614176 
L 312.631333 422.230742 
L 318.463099 421.847307 
L 324.294865 421.463873 
L 330.126631 421.080439 
L 335.958397 420.697004 
L 341.790163 420.31357 
L 347.621929 419.930136 
L 353.453695 419.546701 
L 359.285461 419.163267 
L 365.117227 418.779833 
L 370.948993 418.396398 
L 376.780759 418.012964 
L 382.612525 417.62953 
L 388.444291 417.246095 
L 394.276057 416.862661 
L 400.107823 416.479227 
L 405.939589 416.095792 
L 411.771355 415.712358 
L 417.603121 415.328924 
L 423.434887 414.945489 
L 429.266653 414.562055 
L 435.098419 414.178621 
L 440.930185 413.795186 
L 446.761951 413.411752 
L 452.593717 413.028318 
L 458.425483 412.644883 
L 464.257249 412.261449 
L 470.089015 411.878015 
L 475.920781 411.49458 
L 481.752547 411.111146 
L 487.584313 410.727711 
L 493.416079 410.344277 
L 499.247845 409.960843 
L 505.079611 409.577408 
L 510.911377 409.193974 
L 516.743143 408.81054 
L 522.574909 408.427105 
L 528.406675 408.043671 
L 534.238441 407.660237 
L 540.070207 407.276802 
L 545.901973 406.893368 
L 551.733739 406.509934 
L 557.565505 406.126499 
L 563.397271 405.743065 
L 569.229037 405.359631 
L 575.060803 404.976196 
L 580.892569 404.592762 
L 586.724335 404.209328 
L 592.556101 403.825893 
L 598.387867 403.442459 
L 604.219633 403.059025 
L 610.051399 402.67559 
L 615.883165 402.292156 
L 621.714931 401.908722 
L 627.546697 401.525287 
L 633.378463 401.141853 
L 639.210229 400.758419 
L 645.041995 400.374984 
L 650.873761 399.99155 
L 656.705527 399.608116 
L 662.537293 399.224681 
L 668.369059 398.841247 
L 674.200825 398.457812 
" clip-path="url(#pcbd15c21c5)" style="fill: none; stroke-dasharray: 3.7,1.6; stroke-dashoffset: 0; stroke: #808080; stroke-opacity: 0.3"/>
   </g>
   <g id="line2d_38">
    <path d="M 96.855992 436.417812 
L 102.687758 435.650944 
L 108.519524 434.884075 
L 114.35129 434.117206 
L 120.183056 433.350338 
L 126.014822 432.583469 
L 131.846588 431.8166 
L 137.678354 431.049732 
L 143.51012 430.282863 
L 149.341886 429.515994 
L 155.173652 428.749126 
L 161.005418 427.982257 
L 166.837184 427.215388 
L 172.66895 426.44852 
L 178.500716 425.681651 
L 184.332482 424.914782 
L 190.164248 424.147914 
L 195.996014 423.381045 
L 201.82778 422.614176 
L 207.659546 421.847307 
L 213.491312 421.080439 
L 219.323077 420.31357 
L 225.154843 419.546701 
L 230.986609 418.779833 
L 236.818375 418.012964 
L 242.650141 417.246095 
L 248.481907 416.479227 
L 254.313673 415.712358 
L 260.145439 414.945489 
L 265.977205 414.178621 
L 271.808971 413.411752 
L 277.640737 412.644883 
L 283.472503 411.878015 
L 289.304269 411.111146 
L 295.136035 410.344277 
L 300.967801 409.577408 
L 306.799567 408.81054 
L 312.631333 408.043671 
L 318.463099 407.276802 
L 324.294865 406.509934 
L 330.126631 405.743065 
L 335.958397 404.976196 
L 341.790163 404.209328 
L 347.621929 403.442459 
L 353.453695 402.67559 
L 359.285461 401.908722 
L 365.117227 401.141853 
L 370.948993 400.374984 
L 376.780759 399.608116 
L 382.612525 398.841247 
L 388.444291 398.074378 
L 394.276057 397.307509 
L 400.107823 396.540641 
L 405.939589 395.773772 
L 411.771355 395.006903 
L 417.603121 394.240035 
L 423.434887 393.473166 
L 429.266653 392.706297 
L 435.098419 391.939429 
L 440.930185 391.17256 
L 446.761951 390.405691 
L 452.593717 389.638823 
L 458.425483 388.871954 
L 464.257249 388.105085 
L 470.089015 387.338217 
L 475.920781 386.571348 
L 481.752547 385.804479 
L 487.584313 385.03761 
L 493.416079 384.270742 
L 499.247845 383.503873 
L 505.079611 382.737004 
L 510.911377 381.970136 
L 516.743143 381.203267 
L 522.574909 380.436398 
L 528.406675 379.66953 
L 534.238441 378.902661 
L 540.070207 378.135792 
L 545.901973 377.368924 
L 551.733739 376.602055 
L 557.565505 375.835186 
L 563.397271 375.068318 
L 569.229037 374.301449 
L 575.060803 373.53458 
L 580.892569 372.767711 
L 586.724335 372.000843 
L 592.556101 371.233974 
L 598.387867 370.467105 
L 604.219633 369.700237 
L 610.051399 368.933368 
L 615.883165 368.166499 
L 621.714931 367.399631 
L 627.546697 366.632762 
L 633.378463 365.865893 
L 639.210229 365.099025 
L 645.041995 364.332156 
L 650.873761 363.565287 
L 656.705527 362.798419 
L 662.537293 362.03155 
L 668.369059 361.264681 
L 674.200825 360.497812 
" clip-path="url(#pcbd15c21c5)" style="fill: none; stroke-dasharray: 3.7,1.6; stroke-dashoffset: 0; stroke: #808080; stroke-opacity: 0.3"/>
   </g>
   <g id="line2d_39">
    <path d="M 96.855992 436.417812 
L 102.687758 434.884075 
L 108.519524 433.350338 
L 114.35129 431.8166 
L 120.183056 430.282863 
L 126.014822 428.749126 
L 131.846588 427.215388 
L 137.678354 425.681651 
L 143.51012 424.147914 
L 149.341886 422.614176 
L 155.173652 421.080439 
L 161.005418 419.546701 
L 166.837184 418.012964 
L 172.66895 416.479227 
L 178.500716 414.945489 
L 184.332482 413.411752 
L 190.164248 411.878015 
L 195.996014 410.344277 
L 201.82778 408.81054 
L 207.659546 407.276802 
L 213.491312 405.743065 
L 219.323077 404.209328 
L 225.154843 402.67559 
L 230.986609 401.141853 
L 236.818375 399.608116 
L 242.650141 398.074378 
L 248.481907 396.540641 
L 254.313673 395.006903 
L 260.145439 393.473166 
L 265.977205 391.939429 
L 271.808971 390.405691 
L 277.640737 388.871954 
L 283.472503 387.338217 
L 289.304269 385.804479 
L 295.136035 384.270742 
L 300.967801 382.737004 
L 306.799567 381.203267 
L 312.631333 379.66953 
L 318.463099 378.135792 
L 324.294865 376.602055 
L 330.126631 375.068318 
L 335.958397 373.53458 
L 341.790163 372.000843 
L 347.621929 370.467105 
L 353.453695 368.933368 
L 359.285461 367.399631 
L 365.117227 365.865893 
L 370.948993 364.332156 
L 376.780759 362.798419 
L 382.612525 361.264681 
L 388.444291 359.730944 
L 394.276057 358.197206 
L 400.107823 356.663469 
L 405.939589 355.129732 
L 411.771355 353.595994 
L 417.603121 352.062257 
L 423.434887 350.52852 
L 429.266653 348.994782 
L 435.098419 347.461045 
L 440.930185 345.927307 
L 446.761951 344.39357 
L 452.593717 342.859833 
L 458.425483 341.326095 
L 464.257249 339.792358 
L 470.089015 338.258621 
L 475.920781 336.724883 
L 481.752547 335.191146 
L 487.584313 333.657408 
L 493.416079 332.123671 
L 499.247845 330.589934 
L 505.079611 329.056196 
L 510.911377 327.522459 
L 516.743143 325.988722 
L 522.574909 324.454984 
L 528.406675 322.921247 
L 534.238441 321.387509 
L 540.070207 319.853772 
L 545.901973 318.320035 
L 551.733739 316.786297 
L 557.565505 315.25256 
L 563.397271 313.718823 
L 569.229037 312.185085 
L 575.060803 310.651348 
L 580.892569 309.11761 
L 586.724335 307.583873 
L 592.556101 306.050136 
L 598.387867 304.516398 
L 604.219633 302.982661 
L 610.051399 301.448924 
L 615.883165 299.915186 
L 621.714931 298.381449 
L 627.546697 296.847711 
L 633.378463 295.313974 
L 639.210229 293.780237 
L 645.041995 292.246499 
L 650.873761 290.712762 
L 656.705527 289.179025 
L 662.537293 287.645287 
L 668.369059 286.11155 
L 674.200825 284.577812 
" clip-path="url(#pcbd15c21c5)" style="fill: none; stroke-dasharray: 3.7,1.6; stroke-dashoffset: 0; stroke: #808080; stroke-opacity: 0.3"/>
   </g>
   <g id="line2d_40">
    <path d="M 96.855992 436.417812 
L 102.687758 432.583469 
L 108.519524 428.749126 
L 114.35129 424.914782 
L 120.183056 421.080439 
L 126.014822 417.246095 
L 131.846588 413.411752 
L 137.678354 409.577408 
L 143.51012 405.743065 
L 149.341886 401.908722 
L 155.173652 398.074378 
L 161.005418 394.240035 
L 166.837184 390.405691 
L 172.66895 386.571348 
L 178.500716 382.737004 
L 184.332482 378.902661 
L 190.164248 375.068318 
L 195.996014 371.233974 
L 201.82778 367.399631 
L 207.659546 363.565287 
L 213.491312 359.730944 
L 219.323077 355.8966 
L 225.154843 352.062257 
L 230.986609 348.227914 
L 236.818375 344.39357 
L 242.650141 340.559227 
L 248.481907 336.724883 
L 254.313673 332.89054 
L 260.145439 329.056196 
L 265.977205 325.221853 
L 271.808971 321.387509 
L 277.640737 317.553166 
L 283.472503 313.718823 
L 289.304269 309.884479 
L 295.136035 306.050136 
L 300.967801 302.215792 
L 306.799567 298.381449 
L 312.631333 294.547105 
L 318.463099 290.712762 
L 324.294865 286.878419 
L 330.126631 283.044075 
L 335.958397 279.209732 
L 341.790163 275.375388 
L 347.621929 271.541045 
L 353.453695 267.706701 
L 359.285461 263.872358 
L 365.117227 260.038015 
L 370.948993 256.203671 
L 376.780759 252.369328 
L 382.612525 248.534984 
L 388.444291 244.700641 
L 394.276057 240.866297 
L 400.107823 237.031954 
L 405.939589 233.19761 
L 411.771355 229.363267 
L 417.603121 225.528924 
L 423.434887 221.69458 
L 429.266653 217.860237 
L 435.098419 214.025893 
L 440.930185 210.19155 
L 446.761951 206.357206 
L 452.593717 202.522863 
L 458.425483 198.68852 
L 464.257249 194.854176 
L 470.089015 191.019833 
L 475.920781 187.185489 
L 481.752547 183.351146 
L 487.584313 179.516802 
L 493.416079 175.682459 
L 499.247845 171.848116 
L 505.079611 168.013772 
L 510.911377 164.179429 
L 516.743143 160.345085 
L 522.574909 156.510742 
L 528.406675 152.676398 
L 534.238441 148.842055 
L 540.070207 145.007711 
L 545.901973 141.173368 
L 551.733739 137.339025 
L 557.565505 133.504681 
L 563.397271 129.670338 
L 569.229037 125.835994 
L 575.060803 122.001651 
L 580.892569 118.167307 
L 586.724335 114.332964 
L 592.556101 110.498621 
L 598.387867 106.664277 
L 604.219633 102.829934 
L 610.051399 98.99559 
L 615.883165 95.161247 
L 621.714931 91.326903 
L 627.546697 87.49256 
L 633.378463 83.658217 
L 639.210229 79.823873 
L 645.041995 75.98953 
L 650.873761 72.155186 
L 656.705527 68.320843 
L 662.537293 64.486499 
L 668.369059 60.652156 
L 674.200825 56.817812 
" clip-path="url(#pcbd15c21c5)" style="fill: none; stroke-dasharray: 3.7,1.6; stroke-dashoffset: 0; stroke: #808080; stroke-opacity: 0.3"/>
   </g>
   <g id="patch_3">
    <path d="M 67.98875 455.397812 
L 67.98875 37.837812 
" style="fill: none; stroke: #000000; stroke-width: 0.8; stroke-linejoin: miter; stroke-linecap: square"/>
   </g>
   <g id="patch_4">
    <path d="M 703.068067 455.397812 
L 703.068067 37.837812 
" style="fill: none; stroke: #000000; stroke-width: 0.8; stroke-linejoin: miter; stroke-linecap: square"/>
   </g>
   <g id="patch_5">
    <path d="M 67.98875 455.397812 
L 703.068067 455.397812 
" style="fill: none; stroke: #000000; stroke-width: 0.8; stroke-linejoin: miter; stroke-linecap: square"/>
   </g>
   <g id="patch_6">
    <path d="M 67.98875 37.837812 
L 703.068067 37.837812 
" style="fill: none; stroke: #000000; stroke-width: 0.8; stroke-linejoin: miter; stroke-linecap: square"/>
   </g>
   <g id="text_21">
    <g id="patch_7">
     <path d="M 162.388385 415.040017 
L 223.757135 415.040017 
Q 226.457135 415.040017 226.457135 412.340017 
L 226.457135 403.629705 
Q 226.457135 400.929705 223.757135 400.929705 
L 162.388385 400.929705 
Q 159.688385 400.929705 159.688385 403.629705 
L 159.688385 412.340017 
Q 159.688385 415.040017 162.388385 415.040017 
z
" style="fill: #2e86ab; opacity: 0.2; stroke: #000000; stroke-linejoin: miter"/>
    </g>
    <!-- 2,184 tok/call -->
    <g style="opacity: 0.8" transform="translate(162.388385 410.468299) scale(0.09 -0.09)">
     <defs>
      <path id="DejaVuSans-2c" d="M 750 794 
L 1409 794 
L 1409 256 
L 897 -744 
L 494 -744 
L 750 256 
L 750 794 
z
" transform="scale(0.015625)"/>
      <path id="DejaVuSans-20" transform="scale(0.015625)"/>
      <path id="DejaVuSans-74" d="M 1172 4494 
L 1172 3500 
L 2356 3500 
L 2356 3053 
L 1172 3053 
L 1172 1153 
Q 1172 725 1289 603 
Q 1406 481 1766 481 
L 2356 481 
L 2356 0 
L 1766 0 
Q 1100 0 847 248 
Q 594 497 594 1153 
L 594 3053 
L 172 3053 
L 172 3500 
L 594 3500 
L 594 4494 
L 1172 4494 
z
" transform="scale(0.015625)"/>
      <path id="DejaVuSans-6f" d="M 1959 3097 
Q 1497 3097 1228 2736 
Q 959 2375 959 1747 
Q 959 1119 1226 758 
Q 1494 397 1959 397 
Q 2419 397 2687 759 
Q 2956 1122 2956 1747 
Q 2956 2369 2687 2733 
Q 2419 3097 1959 3097 
z
M 1959 3584 
Q 2709 3584 3137 3096 
Q 3566 2609 3566 1747 
Q 3566 888 3137 398 
Q 2709 -91 1959 -91 
Q 1206 -91 779 398 
Q 353 888 353 1747 
Q 353 2609 779 3096 
Q 1206 3584 1959 3584 
z
" transform="scale(0.015625)"/>
      <path id="DejaVuSans-6b" d="M 581 4863 
L 1159 4863 
L 1159 1991 
L 2875 3500 
L 3609 3500 
L 1753 1863 
L 3688 0 
L 2938 0 
L 1159 1709 
L 1159 0 
L 581 0 
L 581 4863 
z
" transform="scale(0.015625)"/>
      <path id="DejaVuSans-2f" d="M 1625 4666 
L 2156 4666 
L 531 -594 
L 0 -594 
L 1625 4666 
z
" transform="scale(0.015625)"/>
      <path id="DejaVuSans-63" d="M 3122 3366 
L 3122 2828 
Q 2878 2963 2633 3030 
Q 2388 3097 2138 3097 
Q 1578 3097 1268 2742 
Q 959 2388 959 1747 
Q 959 1106 1268 751 
Q 1578 397 2138 397 
Q 2388 397 2633 464 
Q 2878 531 3122 666 
L 3122 134 
Q 2881 22 2623 -34 
Q 2366 -91 2075 -91 
Q 1284 -91 818 406 
Q 353 903 353 1747 
Q 353 2603 823 3093 
Q 1294 3584 2113 3584 
Q 2378 3584 2631 3529 
Q 2884 3475 3122 3366 
z
" transform="scale(0.015625)"/>
      <path id="DejaVuSans-61" d="M 2194 1759 
Q 1497 1759 1228 1600 
Q 959 1441 959 1056 
Q 959 750 1161 570 
Q 1363 391 1709 391 
Q 2188 391 2477 730 
Q 2766 1069 2766 1631 
L 2766 1759 
L 2194 1759 
z
M 3341 1997 
L 3341 0 
L 2766 0 
L 2766 531 
Q 2569 213 2275 61 
Q 1981 -91 1556 -91 
Q 1019 -91 701 211 
Q 384 513 384 1019 
Q 384 1609 779 1909 
Q 1175 2209 1959 2209 
L 2766 2209 
L 2766 2266 
Q 2766 2663 2505 2880 
Q 2244 3097 1772 3097 
Q 1472 3097 1187 3025 
Q 903 2953 641 2809 
L 641 3341 
Q 956 3463 1253 3523 
Q 1550 3584 1831 3584 
Q 2591 3584 2966 3190 
Q 3341 2797 3341 1997 
z
" transform="scale(0.015625)"/>
      <path id="DejaVuSans-6c" d="M 603 4863 
L 1178 4863 
L 1178 0 
L 603 0 
L 603 4863 
z
" transform="scale(0.015625)"/>
     </defs>
     <use xlink:href="#DejaVuSans-32"/>
     <use xlink:href="#DejaVuSans-2c" x="63.623047"/>
     <use xlink:href="#DejaVuSans-31" x="95.410156"/>
     <use xlink:href="#DejaVuSans-38" x="159.033203"/>
     <use xlink:href="#DejaVuSans-34" x="222.65625"/>
     <use xlink:href="#DejaVuSans-20" x="286.279297"/>
     <use xlink:href="#DejaVuSans-74" x="318.066406"/>
     <use xlink:href="#DejaVuSans-6f" x="357.275391"/>
     <use xlink:href="#DejaVuSans-6b" x="418.457031"/>
     <use xlink:href="#DejaVuSans-2f" x="476.367188"/>
     <use xlink:href="#DejaVuSans-63" x="510.058594"/>
     <use xlink:href="#DejaVuSans-61" x="565.039062"/>
     <use xlink:href="#DejaVuSans-6c" x="626.318359"/>
     <use xlink:href="#DejaVuSans-6c" x="654.101562"/>
    </g>
   </g>
   <g id="text_22">
    <g id="patch_8">
     <path d="M 587.976686 278.38061 
L 649.345436 278.38061 
Q 652.045436 278.38061 652.045436 275.68061 
L 652.045436 266.970297 
Q 652.045436 264.270297 649.345436 264.270297 
L 587.976686 264.270297 
Q 585.276686 264.270297 585.276686 266.970297 
L 585.276686 275.68061 
Q 585.276686 278.38061 587.976686 278.38061 
z
" style="fill: #a23b72; opacity: 0.2; stroke: #000000; stroke-linejoin: miter"/>
    </g>
    <!-- 2,412 tok/call -->
    <g style="opacity: 0.8" transform="translate(587.976686 273.808891) scale(0.09 -0.09)">
     <use xlink:href="#DejaVuSans-32"/>
     <use xlink:href="#DejaVuSans-2c" x="63.623047"/>
     <use xlink:href="#DejaVuSans-34" x="95.410156"/>
     <use xlink:href="#DejaVuSans-31" x="159.033203"/>
     <use xlink:href="#DejaVuSans-32" x="222.65625"/>
     <use xlink:href="#DejaVuSans-20" x="286.279297"/>
     <use xlink:href="#DejaVuSans-74" x="318.066406"/>
     <use xlink:href="#DejaVuSans-6f" x="357.275391"/>
     <use xlink:href="#DejaVuSans-6b" x="418.457031"/>
     <use xlink:href="#DejaVuSans-2f" x="476.367188"/>
     <use xlink:href="#DejaVuSans-63" x="510.058594"/>
     <use xlink:href="#DejaVuSans-61" x="565.039062"/>
     <use xlink:href="#DejaVuSans-6c" x="626.318359"/>
     <use xlink:href="#DejaVuSans-6c" x="654.101562"/>
    </g>
   </g>
   <g id="text_23">
    <g id="patch_9">
     <path d="M 330.244007 392.751694 
L 391.612757 392.751694 
Q 394.312757 392.751694 394.312757 390.051694 
L 394.312757 381.341381 
Q 394.312757 378.641381 391.612757 378.641381 
L 330.244007 378.641381 
Q 327.544007 378.641381 327.544007 381.341381 
L 327.544007 390.051694 
Q 327.544007 392.751694 330.244007 392.751694 
z
" style="fill: #f18f01; opacity: 0.2; stroke: #000000; stroke-linejoin: miter"/>
    </g>
    <!-- 1,302 tok/call -->
    <g style="opacity: 0.8" transform="translate(330.244007 388.179975) scale(0.09 -0.09)">
     <use xlink:href="#DejaVuSans-31"/>
     <use xlink:href="#DejaVuSans-2c" x="63.623047"/>
     <use xlink:href="#DejaVuSans-33" x="95.410156"/>
     <use xlink:href="#DejaVuSans-30" x="159.033203"/>
     <use xlink:href="#DejaVuSans-32" x="222.65625"/>
     <use xlink:href="#DejaVuSans-20" x="286.279297"/>
     <use xlink:href="#DejaVuSans-74" x="318.066406"/>
     <use xlink:href="#DejaVuSans-6f" x="357.275391"/>
     <use xlink:href="#DejaVuSans-6b" x="418.457031"/>
     <use xlink:href="#DejaVuSans-2f" x="476.367188"/>
     <use xlink:href="#DejaVuSans-63" x="510.058594"/>
     <use xlink:href="#DejaVuSans-61" x="565.039062"/>
     <use xlink:href="#DejaVuSans-6c" x="626.318359"/>
     <use xlink:href="#DejaVuSans-6c" x="654.101562"/>
    </g>
   </g>
   <g id="text_24">
    <!-- 500 tok/call -->
    <g style="opacity: 0.5" transform="translate(534.162942 406.771364) rotate(-45) scale(0.08 -0.08)">
     <use xlink:href="#DejaVuSans-35"/>
     <use xlink:href="#DejaVuSans-30" x="63.623047"/>
     <use xlink:href="#DejaVuSans-30" x="127.246094"/>
     <use xlink:href="#DejaVuSans-20" x="190.869141"/>
     <use xlink:href="#DejaVuSans-74" x="222.65625"/>
     <use xlink:href="#DejaVuSans-6f" x="261.865234"/>
     <use xlink:href="#DejaVuSans-6b" x="323.046875"/>
     <use xlink:href="#DejaVuSans-2f" x="380.957031"/>
     <use xlink:href="#DejaVuSans-63" x="414.648438"/>
     <use xlink:href="#DejaVuSans-61" x="469.628906"/>
     <use xlink:href="#DejaVuSans-6c" x="530.908203"/>
     <use xlink:href="#DejaVuSans-6c" x="558.691406"/>
    </g>
   </g>
   <g id="text_25">
    <!-- 1,000 tok/call -->
    <g style="opacity: 0.5" transform="translate(534.162942 378.301364) rotate(-45) scale(0.08 -0.08)">
     <use xlink:href="#DejaVuSans-31"/>
     <use xlink:href="#DejaVuSans-2c" x="63.623047"/>
     <use xlink:href="#DejaVuSans-30" x="95.410156"/>
     <use xlink:href="#DejaVuSans-30" x="159.033203"/>
     <use xlink:href="#DejaVuSans-30" x="222.65625"/>
     <use xlink:href="#DejaVuSans-20" x="286.279297"/>
     <use xlink:href="#DejaVuSans-74" x="318.066406"/>
     <use xlink:href="#DejaVuSans-6f" x="357.275391"/>
     <use xlink:href="#DejaVuSans-6b" x="418.457031"/>
     <use xlink:href="#DejaVuSans-2f" x="476.367188"/>
     <use xlink:href="#DejaVuSans-63" x="510.058594"/>
     <use xlink:href="#DejaVuSans-61" x="565.039062"/>
     <use xlink:href="#DejaVuSans-6c" x="626.318359"/>
     <use xlink:href="#DejaVuSans-6c" x="654.101562"/>
    </g>
   </g>
   <g id="text_26">
    <!-- 2,000 tok/call -->
    <g style="opacity: 0.5" transform="translate(534.162942 321.361364) rotate(-45) scale(0.08 -0.08)">
     <use xlink:href="#DejaVuSans-32"/>
     <use xlink:href="#DejaVuSans-2c" x="63.623047"/>
     <use xlink:href="#DejaVuSans-30" x="95.410156"/>
     <use xlink:href="#DejaVuSans-30" x="159.033203"/>
     <use xlink:href="#DejaVuSans-30" x="222.65625"/>
     <use xlink:href="#DejaVuSans-20" x="286.279297"/>
     <use xlink:href="#DejaVuSans-74" x="318.066406"/>
     <use xlink:href="#DejaVuSans-6f" x="357.275391"/>
     <use xlink:href="#DejaVuSans-6b" x="418.457031"/>
     <use xlink:href="#DejaVuSans-2f" x="476.367188"/>
     <use xlink:href="#DejaVuSans-63" x="510.058594"/>
     <use xlink:href="#DejaVuSans-61" x="565.039062"/>
     <use xlink:href="#DejaVuSans-6c" x="626.318359"/>
     <use xlink:href="#DejaVuSans-6c" x="654.101562"/>
    </g>
   </g>
   <g id="text_27">
    <g id="patch_10">
     <path d="M 466.28398 451.046612 
L 690.36648 451.046612 
Q 694.36648 451.046612 694.36648 447.046612 
L 694.36648 421.387612 
Q 694.36648 417.387612 690.36648 417.387612 
L 466.28398 417.387612 
Q 462.28398 417.387612 462.28398 421.387612 
L 462.28398 447.046612 
Q 462.28398 451.046612 466.28398 451.046612 
z
" style="fill: #f5deb3; opacity: 0.3; stroke: #000000; stroke-linejoin: miter"/>
    </g>
    <!--  Lower left = More efficient (fewer calls, fewer tokens) -->
    <g style="opacity: 0.6" transform="translate(466.57898 427.466362) scale(0.08 -0.08)">
     <defs>
      <path id="DejaVuSans-2190" d="M 313 1866 
L 313 2147 
L 1541 3375 
L 1916 3000 
L 1188 2272 
L 4997 2272 
L 4997 1741 
L 1188 1741 
L 1916 1013 
L 1541 638 
L 313 1866 
z
" transform="scale(0.015625)"/>
      <path id="DejaVuSans-4c" d="M 628 4666 
L 1259 4666 
L 1259 531 
L 3531 531 
L 3531 0 
L 628 0 
L 628 4666 
z
" transform="scale(0.015625)"/>
      <path id="DejaVuSans-77" d="M 269 3500 
L 844 3500 
L 1563 769 
L 2278 3500 
L 2956 3500 
L 3675 769 
L 4391 3500 
L 4966 3500 
L 4050 0 
L 3372 0 
L 2619 2869 
L 1863 0 
L 1184 0 
L 269 3500 
z
" transform="scale(0.015625)"/>
      <path id="DejaVuSans-65" d="M 3597 1894 
L 3597 1613 
L 953 1613 
Q 991 1019 1311 708 
Q 1631 397 2203 397 
Q 2534 397 2845 478 
Q 3156 559 3463 722 
L 3463 178 
Q 3153 47 2828 -22 
Q 2503 -91 2169 -91 
Q 1331 -91 842 396 
Q 353 884 353 1716 
Q 353 2575 817 3079 
Q 1281 3584 2069 3584 
Q 2775 3584 3186 3129 
Q 3597 2675 3597 1894 
z
M 3022 2063 
Q 3016 2534 2758 2815 
Q 2500 3097 2075 3097 
Q 1594 3097 1305 2825 
Q 1016 2553 972 2059 
L 3022 2063 
z
" transform="scale(0.015625)"/>
      <path id="DejaVuSans-72" d="M 2631 2963 
Q 2534 3019 2420 3045 
Q 2306 3072 2169 3072 
Q 1681 3072 1420 2755 
Q 1159 2438 1159 1844 
L 1159 0 
L 581 0 
L 581 3500 
L 1159 3500 
L 1159 2956 
Q 1341 3275 1631 3429 
Q 1922 3584 2338 3584 
Q 2397 3584 2469 3576 
Q 2541 3569 2628 3553 
L 2631 2963 
z
" transform="scale(0.015625)"/>
      <path id="DejaVuSans-66" d="M 2375 4863 
L 2375 4384 
L 1825 4384 
Q 1516 4384 1395 4259 
Q 1275 4134 1275 3809 
L 1275 3500 
L 2222 3500 
L 2222 3053 
L 1275 3053 
L 1275 0 
L 697 0 
L 697 3053 
L 147 3053 
L 147 3500 
L 697 3500 
L 697 3744 
Q 697 4328 969 4595 
Q 1241 4863 1831 4863 
L 2375 4863 
z
" transform="scale(0.015625)"/>
      <path id="DejaVuSans-3d" d="M 678 2906 
L 4684 2906 
L 4684 2381 
L 678 2381 
L 678 2906 
z
M 678 1631 
L 4684 1631 
L 4684 1100 
L 678 1100 
L 678 1631 
z
" transform="scale(0.015625)"/>
      <path id="DejaVuSans-4d" d="M 628 4666 
L 1569 4666 
L 2759 1491 
L 3956 4666 
L 4897 4666 
L 4897 0 
L 4281 0 
L 4281 4097 
L 3078 897 
L 2444 897 
L 1241 4097 
L 1241 0 
L 628 0 
L 628 4666 
z
" transform="scale(0.015625)"/>
      <path id="DejaVuSans-69" d="M 603 3500 
L 1178 3500 
L 1178 0 
L 603 0 
L 603 3500 
z
M 603 4863 
L 1178 4863 
L 1178 4134 
L 603 4134 
L 603 4863 
z
" transform="scale(0.015625)"/>
      <path id="DejaVuSans-6e" d="M 3513 2113 
L 3513 0 
L 2938 0 
L 2938 2094 
Q 2938 2591 2744 2837 
Q 2550 3084 2163 3084 
Q 1697 3084 1428 2787 
Q 1159 2491 1159 1978 
L 1159 0 
L 581 0 
L 581 3500 
L 1159 3500 
L 1159 2956 
Q 1366 3272 1645 3428 
Q 1925 3584 2291 3584 
Q 2894 3584 3203 3211 
Q 3513 2838 3513 2113 
z
" transform="scale(0.015625)"/>
      <path id="DejaVuSans-28" d="M 1984 4856 
Q 1566 4138 1362 3434 
Q 1159 2731 1159 2009 
Q 1159 1288 1364 580 
Q 1569 -128 1984 -844 
L 1484 -844 
Q 1016 -109 783 600 
Q 550 1309 550 2009 
Q 550 2706 781 3412 
Q 1013 4119 1484 4856 
L 1984 4856 
z
" transform="scale(0.015625)"/>
      <path id="DejaVuSans-73" d="M 2834 3397 
L 2834 2853 
Q 2591 2978 2328 3040 
Q 2066 3103 1784 3103 
Q 1356 3103 1142 2972 
Q 928 2841 928 2578 
Q 928 2378 1081 2264 
Q 1234 2150 1697 2047 
L 1894 2003 
Q 2506 1872 2764 1633 
Q 3022 1394 3022 966 
Q 3022 478 2636 193 
Q 2250 -91 1575 -91 
Q 1294 -91 989 -36 
Q 684 19 347 128 
L 347 722 
Q 666 556 975 473 
Q 1284 391 1588 391 
Q 1994 391 2212 530 
Q 2431 669 2431 922 
Q 2431 1156 2273 1281 
Q 2116 1406 1581 1522 
L 1381 1569 
Q 847 1681 609 1914 
Q 372 2147 372 2553 
Q 372 3047 722 3315 
Q 1072 3584 1716 3584 
Q 2034 3584 2315 3537 
Q 2597 3491 2834 3397 
z
" transform="scale(0.015625)"/>
      <path id="DejaVuSans-29" d="M 513 4856 
L 1013 4856 
Q 1481 4119 1714 3412 
Q 1947 2706 1947 2009 
Q 1947 1309 1714 600 
Q 1481 -109 1013 -844 
L 513 -844 
Q 928 -128 1133 580 
Q 1338 1288 1338 2009 
Q 1338 2731 1133 3434 
Q 928 4138 513 4856 
z
" transform="scale(0.015625)"/>
     </defs>
     <use xlink:href="#DejaVuSans-2190"/>
     <use xlink:href="#DejaVuSans-20" x="83.789062"/>
     <use xlink:href="#DejaVuSans-4c" x="115.576172"/>
     <use xlink:href="#DejaVuSans-6f" x="169.539062"/>
     <use xlink:href="#DejaVuSans-77" x="230.720703"/>
     <use xlink:href="#DejaVuSans-65" x="312.507812"/>
     <use xlink:href="#DejaVuSans-72" x="374.03125"/>
     <use xlink:href="#DejaVuSans-20" x="415.144531"/>
     <use xlink:href="#DejaVuSans-6c" x="446.931641"/>
     <use xlink:href="#DejaVuSans-65" x="474.714844"/>
     <use xlink:href="#DejaVuSans-66" x="536.238281"/>
     <use xlink:href="#DejaVuSans-74" x="569.693359"/>
     <use xlink:href="#DejaVuSans-20" x="608.902344"/>
     <use xlink:href="#DejaVuSans-3d" x="640.689453"/>
     <use xlink:href="#DejaVuSans-20" x="724.478516"/>
     <use xlink:href="#DejaVuSans-4d" x="756.265625"/>
     <use xlink:href="#DejaVuSans-6f" x="842.544922"/>
     <use xlink:href="#DejaVuSans-72" x="903.726562"/>
     <use xlink:href="#DejaVuSans-65" x="942.589844"/>
     <use xlink:href="#DejaVuSans-20" x="1004.113281"/>
     <use xlink:href="#DejaVuSans-65" x="1035.900391"/>
     <use xlink:href="#DejaVuSans-66" x="1097.423828"/>
     <use xlink:href="#DejaVuSans-66" x="1132.628906"/>
     <use xlink:href="#DejaVuSans-69" x="1167.833984"/>
     <use xlink:href="#DejaVuSans-63" x="1195.617188"/>
     <use xlink:href="#DejaVuSans-69" x="1250.597656"/>
     <use xlink:href="#DejaVuSans-65" x="1278.380859"/>
     <use xlink:href="#DejaVuSans-6e" x="1339.904297"/>
     <use xlink:href="#DejaVuSans-74" x="1403.283203"/>
     <use xlink:href="#DejaVuSans-20" x="1442.492188"/>
     <use xlink:href="#DejaVuSans-28" x="1474.279297"/>
     <use xlink:href="#DejaVuSans-66" x="1513.292969"/>
     <use xlink:href="#DejaVuSans-65" x="1548.498047"/>
     <use xlink:href="#DejaVuSans-77" x="1610.021484"/>
     <use xlink:href="#DejaVuSans-65" x="1691.808594"/>
     <use xlink:href="#DejaVuSans-72" x="1753.332031"/>
     <use xlink:href="#DejaVuSans-20" x="1794.445312"/>
     <use xlink:href="#DejaVuSans-63" x="1826.232422"/>
     <use xlink:href="#DejaVuSans-61" x="1881.212891"/>
     <use xlink:href="#DejaVuSans-6c" x="1942.492188"/>
     <use xlink:href="#DejaVuSans-6c" x="1970.275391"/>
     <use xlink:href="#DejaVuSans-73" x="1998.058594"/>
     <use xlink:href="#DejaVuSans-2c" x="2050.158203"/>
     <use xlink:href="#DejaVuSans-20" x="2081.945312"/>
     <use xlink:href="#DejaVuSans-66" x="2113.732422"/>
     <use xlink:href="#DejaVuSans-65" x="2148.9375"/>
     <use xlink:href="#DejaVuSans-77" x="2210.460938"/>
     <use xlink:href="#DejaVuSans-65" x="2292.248047"/>
     <use xlink:href="#DejaVuSans-72" x="2353.771484"/>
     <use xlink:href="#DejaVuSans-20" x="2394.884766"/>
     <use xlink:href="#DejaVuSans-74" x="2426.671875"/>
     <use xlink:href="#DejaVuSans-6f" x="2465.880859"/>
     <use xlink:href="#DejaVuSans-6b" x="2527.0625"/>
     <use xlink:href="#DejaVuSans-65" x="2581.347656"/>
     <use xlink:href="#DejaVuSans-6e" x="2642.871094"/>
     <use xlink:href="#DejaVuSans-73" x="2706.25"/>
     <use xlink:href="#DejaVuSans-29" x="2758.349609"/>
    </g>
    <!--  Upper right = Less efficient (more calls, more tokens) -->
    <g style="opacity: 0.6" transform="translate(466.28398 436.424612) scale(0.08 -0.08)">
     <defs>
      <path id="DejaVuSans-2192" d="M 5050 2147 
L 5050 1866 
L 3822 638 
L 3447 1013 
L 4175 1741 
L 366 1741 
L 366 2272 
L 4175 2272 
L 3447 3000 
L 3822 3375 
L 5050 2147 
z
" transform="scale(0.015625)"/>
      <path id="DejaVuSans-55" d="M 556 4666 
L 1191 4666 
L 1191 1831 
Q 1191 1081 1462 751 
Q 1734 422 2344 422 
Q 2950 422 3222 751 
Q 3494 1081 3494 1831 
L 3494 4666 
L 4128 4666 
L 4128 1753 
Q 4128 841 3676 375 
Q 3225 -91 2344 -91 
Q 1459 -91 1007 375 
Q 556 841 556 1753 
L 556 4666 
z
" transform="scale(0.015625)"/>
      <path id="DejaVuSans-70" d="M 1159 525 
L 1159 -1331 
L 581 -1331 
L 581 3500 
L 1159 3500 
L 1159 2969 
Q 1341 3281 1617 3432 
Q 1894 3584 2278 3584 
Q 2916 3584 3314 3078 
Q 3713 2572 3713 1747 
Q 3713 922 3314 415 
Q 2916 -91 2278 -91 
Q 1894 -91 1617 61 
Q 1341 213 1159 525 
z
M 3116 1747 
Q 3116 2381 2855 2742 
Q 2594 3103 2138 3103 
Q 1681 3103 1420 2742 
Q 1159 2381 1159 1747 
Q 1159 1113 1420 752 
Q 1681 391 2138 391 
Q 2594 391 2855 752 
Q 3116 1113 3116 1747 
z
" transform="scale(0.015625)"/>
      <path id="DejaVuSans-67" d="M 2906 1791 
Q 2906 2416 2648 2759 
Q 2391 3103 1925 3103 
Q 1463 3103 1205 2759 
Q 947 2416 947 1791 
Q 947 1169 1205 825 
Q 1463 481 1925 481 
Q 2391 481 2648 825 
Q 2906 1169 2906 1791 
z
M 3481 434 
Q 3481 -459 3084 -895 
Q 2688 -1331 1869 -1331 
Q 1566 -1331 1297 -1286 
Q 1028 -1241 775 -1147 
L 775 -588 
Q 1028 -725 1275 -790 
Q 1522 -856 1778 -856 
Q 2344 -856 2625 -561 
Q 2906 -266 2906 331 
L 2906 616 
Q 2728 306 2450 153 
Q 2172 0 1784 0 
Q 1141 0 747 490 
Q 353 981 353 1791 
Q 353 2603 747 3093 
Q 1141 3584 1784 3584 
Q 2172 3584 2450 3431 
Q 2728 3278 2906 2969 
L 2906 3500 
L 3481 3500 
L 3481 434 
z
" transform="scale(0.015625)"/>
      <path id="DejaVuSans-68" d="M 3513 2113 
L 3513 0 
L 2938 0 
L 2938 2094 
Q 2938 2591 2744 2837 
Q 2550 3084 2163 3084 
Q 1697 3084 1428 2787 
Q 1159 2491 1159 1978 
L 1159 0 
L 581 0 
L 581 4863 
L 1159 4863 
L 1159 2956 
Q 1366 3272 1645 3428 
Q 1925 3584 2291 3584 
Q 2894 3584 3203 3211 
Q 3513 2838 3513 2113 
z
" transform="scale(0.015625)"/>
      <path id="DejaVuSans-6d" d="M 3328 2828 
Q 3544 3216 3844 3400 
Q 4144 3584 4550 3584 
Q 5097 3584 5394 3201 
Q 5691 2819 5691 2113 
L 5691 0 
L 5113 0 
L 5113 2094 
Q 5113 2597 4934 2840 
Q 4756 3084 4391 3084 
Q 3944 3084 3684 2787 
Q 3425 2491 3425 1978 
L 3425 0 
L 2847 0 
L 2847 2094 
Q 2847 2600 2669 2842 
Q 2491 3084 2119 3084 
Q 1678 3084 1418 2786 
Q 1159 2488 1159 1978 
L 1159 0 
L 581 0 
L 581 3500 
L 1159 3500 
L 1159 2956 
Q 1356 3278 1631 3431 
Q 1906 3584 2284 3584 
Q 2666 3584 2933 3390 
Q 3200 3197 3328 2828 
z
" transform="scale(0.015625)"/>
     </defs>
     <use xlink:href="#DejaVuSans-2192"/>
     <use xlink:href="#DejaVuSans-20" x="83.789062"/>
     <use xlink:href="#DejaVuSans-55" x="115.576172"/>
     <use xlink:href="#DejaVuSans-70" x="188.769531"/>
     <use xlink:href="#DejaVuSans-70" x="252.246094"/>
     <use xlink:href="#DejaVuSans-65" x="315.722656"/>
     <use xlink:href="#DejaVuSans-72" x="377.246094"/>
     <use xlink:href="#DejaVuSans-20" x="418.359375"/>
     <use xlink:href="#DejaVuSans-72" x="450.146484"/>
     <use xlink:href="#DejaVuSans-69" x="491.259766"/>
     <use xlink:href="#DejaVuSans-67" x="519.042969"/>
     <use xlink:href="#DejaVuSans-68" x="582.519531"/>
     <use xlink:href="#DejaVuSans-74" x="645.898438"/>
     <use xlink:href="#DejaVuSans-20" x="685.107422"/>
     <use xlink:href="#DejaVuSans-3d" x="716.894531"/>
     <use xlink:href="#DejaVuSans-20" x="800.683594"/>
     <use xlink:href="#DejaVuSans-4c" x="832.470703"/>
     <use xlink:href="#DejaVuSans-65" x="886.433594"/>
     <use xlink:href="#DejaVuSans-73" x="947.957031"/>
     <use xlink:href="#DejaVuSans-73" x="1000.056641"/>
     <use xlink:href="#DejaVuSans-20" x="1052.15625"/>
     <use xlink:href="#DejaVuSans-65" x="1083.943359"/>
     <use xlink:href="#DejaVuSans-66" x="1145.466797"/>
     <use xlink:href="#DejaVuSans-66" x="1180.671875"/>
     <use xlink:href="#DejaVuSans-69" x="1215.876953"/>
     <use xlink:href="#DejaVuSans-63" x="1243.660156"/>
     <use xlink:href="#DejaVuSans-69" x="1298.640625"/>
     <use xlink:href="#DejaVuSans-65" x="1326.423828"/>
     <use xlink:href="#DejaVuSans-6e" x="1387.947266"/>
     <use xlink:href="#DejaVuSans-74" x="1451.326172"/>
     <use xlink:href="#DejaVuSans-20" x="1490.535156"/>
     <use xlink:href="#DejaVuSans-28" x="1522.322266"/>
     <use xlink:href="#DejaVuSans-6d" x="1561.335938"/>
     <use xlink:href="#DejaVuSans-6f" x="1658.748047"/>
     <use xlink:href="#DejaVuSans-72" x="1719.929688"/>
     <use xlink:href="#DejaVuSans-65" x="1758.792969"/>
     <use xlink:href="#DejaVuSans-20" x="1820.316406"/>
     <use xlink:href="#DejaVuSans-63" x="1852.103516"/>
     <use xlink:href="#DejaVuSans-61" x="1907.083984"/>
     <use xlink:href="#DejaVuSans-6c" x="1968.363281"/>
     <use xlink:href="#DejaVuSans-6c" x="1996.146484"/>
     <use xlink:href="#DejaVuSans-73" x="2023.929688"/>
     <use xlink:href="#DejaVuSans-2c" x="2076.029297"/>
     <use xlink:href="#DejaVuSans-20" x="2107.816406"/>
     <use xlink:href="#DejaVuSans-6d" x="2139.603516"/>
     <use xlink:href="#DejaVuSans-6f" x="2237.015625"/>
     <use xlink:href="#DejaVuSans-72" x="2298.197266"/>
     <use xlink:href="#DejaVuSans-65" x="2337.060547"/>
     <use xlink:href="#DejaVuSans-20" x="2398.583984"/>
     <use xlink:href="#DejaVuSans-74" x="2430.371094"/>
     <use xlink:href="#DejaVuSans-6f" x="2469.580078"/>
     <use xlink:href="#DejaVuSans-6b" x="2530.761719"/>
     <use xlink:href="#DejaVuSans-65" x="2585.046875"/>
     <use xlink:href="#DejaVuSans-6e" x="2646.570312"/>
     <use xlink:href="#DejaVuSans-73" x="2709.949219"/>
     <use xlink:href="#DejaVuSans-29" x="2762.048828"/>
    </g>
    <!-- Slope = Tokens per call -->
    <g style="opacity: 0.6" transform="translate(597.33523 445.382862) scale(0.08 -0.08)">
     <defs>
      <path id="DejaVuSans-53" d="M 3425 4513 
L 3425 3897 
Q 3066 4069 2747 4153 
Q 2428 4238 2131 4238 
Q 1616 4238 1336 4038 
Q 1056 3838 1056 3469 
Q 1056 3159 1242 3001 
Q 1428 2844 1947 2747 
L 2328 2669 
Q 3034 2534 3370 2195 
Q 3706 1856 3706 1288 
Q 3706 609 3251 259 
Q 2797 -91 1919 -91 
Q 1588 -91 1214 -16 
Q 841 59 441 206 
L 441 856 
Q 825 641 1194 531 
Q 1563 422 1919 422 
Q 2459 422 2753 634 
Q 3047 847 3047 1241 
Q 3047 1584 2836 1778 
Q 2625 1972 2144 2069 
L 1759 2144 
Q 1053 2284 737 2584 
Q 422 2884 422 3419 
Q 422 4038 858 4394 
Q 1294 4750 2059 4750 
Q 2388 4750 2728 4690 
Q 3069 4631 3425 4513 
z
" transform="scale(0.015625)"/>
      <path id="DejaVuSans-54" d="M -19 4666 
L 3928 4666 
L 3928 4134 
L 2272 4134 
L 2272 0 
L 1638 0 
L 1638 4134 
L -19 4134 
L -19 4666 
z
" transform="scale(0.015625)"/>
     </defs>
     <use xlink:href="#DejaVuSans-53"/>
     <use xlink:href="#DejaVuSans-6c" x="63.476562"/>
     <use xlink:href="#DejaVuSans-6f" x="91.259766"/>
     <use xlink:href="#DejaVuSans-70" x="152.441406"/>
     <use xlink:href="#DejaVuSans-65" x="215.917969"/>
     <use xlink:href="#DejaVuSans-20" x="277.441406"/>
     <use xlink:href="#DejaVuSans-3d" x="309.228516"/>
     <use xlink:href="#DejaVuSans-20" x="393.017578"/>
     <use xlink:href="#DejaVuSans-54" x="424.804688"/>
     <use xlink:href="#DejaVuSans-6f" x="468.888672"/>
     <use xlink:href="#DejaVuSans-6b" x="530.070312"/>
     <use xlink:href="#DejaVuSans-65" x="584.355469"/>
     <use xlink:href="#DejaVuSans-6e" x="645.878906"/>
     <use xlink:href="#DejaVuSans-73" x="709.257812"/>
     <use xlink:href="#DejaVuSans-20" x="761.357422"/>
     <use xlink:href="#DejaVuSans-70" x="793.144531"/>
     <use xlink:href="#DejaVuSans-65" x="856.621094"/>
     <use xlink:href="#DejaVuSans-72" x="918.144531"/>
     <use xlink:href="#DejaVuSans-20" x="959.257812"/>
     <use xlink:href="#DejaVuSans-63" x="991.044922"/>
     <use xlink:href="#DejaVuSans-61" x="1046.025391"/>
     <use xlink:href="#DejaVuSans-6c" x="1107.304688"/>
     <use xlink:href="#DejaVuSans-6c" x="1135.087891"/>
    </g>
   </g>
   <g id="text_28">
    <!-- API Efficiency: Calls vs Token Consumption -->
    <g transform="translate(216.791221 17.837812) scale(0.14 -0.14)">
     <defs>
      <path id="DejaVuSans-Bold-45" d="M 588 4666 
L 3834 4666 
L 3834 3756 
L 1791 3756 
L 1791 2888 
L 3713 2888 
L 3713 1978 
L 1791 1978 
L 1791 909 
L 3903 909 
L 3903 0 
L 588 0 
L 588 4666 
z
" transform="scale(0.015625)"/>
      <path id="DejaVuSans-Bold-66" d="M 2841 4863 
L 2841 4128 
L 2222 4128 
Q 1984 4128 1890 4042 
Q 1797 3956 1797 3744 
L 1797 3500 
L 2753 3500 
L 2753 2700 
L 1797 2700 
L 1797 0 
L 678 0 
L 678 2700 
L 122 2700 
L 122 3500 
L 678 3500 
L 678 3744 
Q 678 4316 997 4589 
Q 1316 4863 1984 4863 
L 2841 4863 
z
" transform="scale(0.015625)"/>
      <path id="DejaVuSans-Bold-69" d="M 538 3500 
L 1656 3500 
L 1656 0 
L 538 0 
L 538 3500 
z
M 538 4863 
L 1656 4863 
L 1656 3950 
L 538 3950 
L 538 4863 
z
" transform="scale(0.015625)"/>
      <path id="DejaVuSans-Bold-79" d="M 78 3500 
L 1197 3500 
L 2138 1125 
L 2938 3500 
L 4056 3500 
L 2584 -331 
Q 2363 -916 2067 -1148 
Q 1772 -1381 1288 -1381 
L 641 -1381 
L 641 -647 
L 991 -647 
Q 1275 -647 1404 -556 
Q 1534 -466 1606 -231 
L 1638 -134 
L 78 3500 
z
" transform="scale(0.015625)"/>
      <path id="DejaVuSans-Bold-3a" d="M 716 3500 
L 1844 3500 
L 1844 2291 
L 716 2291 
L 716 3500 
z
M 716 1209 
L 1844 1209 
L 1844 0 
L 716 0 
L 716 1209 
z
" transform="scale(0.015625)"/>
      <path id="DejaVuSans-Bold-76" d="M 97 3500 
L 1216 3500 
L 2088 1081 
L 2956 3500 
L 4078 3500 
L 2700 0 
L 1472 0 
L 97 3500 
z
" transform="scale(0.015625)"/>
      <path id="DejaVuSans-Bold-6d" d="M 3781 2919 
Q 3994 3244 4286 3414 
Q 4578 3584 4928 3584 
Q 5531 3584 5847 3212 
Q 6163 2841 6163 2131 
L 6163 0 
L 5038 0 
L 5038 1825 
Q 5041 1866 5042 1909 
Q 5044 1953 5044 2034 
Q 5044 2406 4934 2573 
Q 4825 2741 4581 2741 
Q 4263 2741 4089 2478 
Q 3916 2216 3909 1719 
L 3909 0 
L 2784 0 
L 2784 1825 
Q 2784 2406 2684 2573 
Q 2584 2741 2328 2741 
Q 2006 2741 1831 2477 
Q 1656 2213 1656 1722 
L 1656 0 
L 531 0 
L 531 3500 
L 1656 3500 
L 1656 2988 
Q 1863 3284 2130 3434 
Q 2397 3584 2719 3584 
Q 3081 3584 3359 3409 
Q 3638 3234 3781 2919 
z
" transform="scale(0.015625)"/>
     </defs>
     <use xlink:href="#DejaVuSans-Bold-41"/>
     <use xlink:href="#DejaVuSans-Bold-50" x="77.392578"/>
     <use xlink:href="#DejaVuSans-Bold-49" x="150.683594"/>
     <use xlink:href="#DejaVuSans-Bold-20" x="187.890625"/>
     <use xlink:href="#DejaVuSans-Bold-45" x="222.705078"/>
     <use xlink:href="#DejaVuSans-Bold-66" x="291.015625"/>
     <use xlink:href="#DejaVuSans-Bold-66" x="334.521484"/>
     <use xlink:href="#DejaVuSans-Bold-69" x="378.027344"/>
     <use xlink:href="#DejaVuSans-Bold-63" x="412.304688"/>
     <use xlink:href="#DejaVuSans-Bold-69" x="471.582031"/>
     <use xlink:href="#DejaVuSans-Bold-65" x="505.859375"/>
     <use xlink:href="#DejaVuSans-Bold-6e" x="573.681641"/>
     <use xlink:href="#DejaVuSans-Bold-63" x="644.873047"/>
     <use xlink:href="#DejaVuSans-Bold-79" x="704.150391"/>
     <use xlink:href="#DejaVuSans-Bold-3a" x="769.335938"/>
     <use xlink:href="#DejaVuSans-Bold-20" x="809.326172"/>
     <use xlink:href="#DejaVuSans-Bold-43" x="844.140625"/>
     <use xlink:href="#DejaVuSans-Bold-61" x="917.529297"/>
     <use xlink:href="#DejaVuSans-Bold-6c" x="985.009766"/>
     <use xlink:href="#DejaVuSans-Bold-6c" x="1019.287109"/>
     <use xlink:href="#DejaVuSans-Bold-73" x="1053.564453"/>
     <use xlink:href="#DejaVuSans-Bold-20" x="1113.085938"/>
     <use xlink:href="#DejaVuSans-Bold-76" x="1147.900391"/>
     <use xlink:href="#DejaVuSans-Bold-73" x="1213.085938"/>
     <use xlink:href="#DejaVuSans-Bold-20" x="1272.607422"/>
     <use xlink:href="#DejaVuSans-Bold-54" x="1307.421875"/>
     <use xlink:href="#DejaVuSans-Bold-6f" x="1362.384766"/>
     <use xlink:href="#DejaVuSans-Bold-6b" x="1431.085938"/>
     <use xlink:href="#DejaVuSans-Bold-65" x="1494.964844"/>
     <use xlink:href="#DejaVuSans-Bold-6e" x="1562.787109"/>
     <use xlink:href="#DejaVuSans-Bold-20" x="1633.978516"/>
     <use xlink:href="#DejaVuSans-Bold-43" x="1668.792969"/>
     <use xlink:href="#DejaVuSans-Bold-6f" x="1742.181641"/>
     <use xlink:href="#DejaVuSans-Bold-6e" x="1810.882812"/>
     <use xlink:href="#DejaVuSans-Bold-73" x="1882.074219"/>
     <use xlink:href="#DejaVuSans-Bold-75" x="1941.595703"/>
     <use xlink:href="#DejaVuSans-Bold-6d" x="2012.787109"/>
     <use xlink:href="#DejaVuSans-Bold-70" x="2116.986328"/>
     <use xlink:href="#DejaVuSans-Bold-74" x="2188.568359"/>
     <use xlink:href="#DejaVuSans-Bold-69" x="2236.371094"/>
     <use xlink:href="#DejaVuSans-Bold-6f" x="2270.648438"/>
     <use xlink:href="#DejaVuSans-Bold-6e" x="2339.349609"/>
    </g>
   </g>
   <g id="legend_1">
    <g id="patch_11">
     <path d="M 74.98875 89.872187 
L 147.293438 89.872187 
Q 149.293438 89.872187 149.293438 87.872187 
L 149.293438 44.837812 
Q 149.293438 42.837812 147.293438 42.837812 
L 74.98875 42.837812 
Q 72.98875 42.837812 72.98875 44.837812 
L 72.98875 87.872187 
Q 72.98875 89.872187 74.98875 89.872187 
z
" style="fill: #ffffff; opacity: 0.9; stroke: #cccccc; stroke-linejoin: miter"/>
    </g>
    <g id="PathCollection_4">
     <g>
      <use xlink:href="#m61e466d221" x="86.98875" y="51.81125" style="fill: #2e86ab; fill-opacity: 0.7; stroke: #000000; stroke-opacity: 0.7; stroke-width: 1.5"/>
     </g>
    </g>
    <g id="text_29">
     <!-- baes -->
     <g transform="translate(104.98875 54.43625) scale(0.1 -0.1)">
      <defs>
       <path id="DejaVuSans-62" d="M 3116 1747 
Q 3116 2381 2855 2742 
Q 2594 3103 2138 3103 
Q 1681 3103 1420 2742 
Q 1159 2381 1159 1747 
Q 1159 1113 1420 752 
Q 1681 391 2138 391 
Q 2594 391 2855 752 
Q 3116 1113 3116 1747 
z
M 1159 2969 
Q 1341 3281 1617 3432 
Q 1894 3584 2278 3584 
Q 2916 3584 3314 3078 
Q 3713 2572 3713 1747 
Q 3713 922 3314 415 
Q 2916 -91 2278 -91 
Q 1894 -91 1617 61 
Q 1341 213 1159 525 
L 1159 0 
L 581 0 
L 581 4863 
L 1159 4863 
L 1159 2969 
z
" transform="scale(0.015625)"/>
      </defs>
      <use xlink:href="#DejaVuSans-62"/>
      <use xlink:href="#DejaVuSans-61" x="63.476562"/>
      <use xlink:href="#DejaVuSans-65" x="124.755859"/>
      <use xlink:href="#DejaVuSans-73" x="186.279297"/>
     </g>
    </g>
    <g id="PathCollection_5">
     <g>
      <use xlink:href="#m1994070628" x="86.98875" y="66.489375" style="fill: #a23b72; fill-opacity: 0.7; stroke: #000000; stroke-opacity: 0.7; stroke-width: 1.5"/>
     </g>
    </g>
    <g id="text_30">
     <!-- chatdev -->
     <g transform="translate(104.98875 69.114375) scale(0.1 -0.1)">
      <defs>
       <path id="DejaVuSans-64" d="M 2906 2969 
L 2906 4863 
L 3481 4863 
L 3481 0 
L 2906 0 
L 2906 525 
Q 2725 213 2448 61 
Q 2172 -91 1784 -91 
Q 1150 -91 751 415 
Q 353 922 353 1747 
Q 353 2572 751 3078 
Q 1150 3584 1784 3584 
Q 2172 3584 2448 3432 
Q 2725 3281 2906 2969 
z
M 947 1747 
Q 947 1113 1208 752 
Q 1469 391 1925 391 
Q 2381 391 2643 752 
Q 2906 1113 2906 1747 
Q 2906 2381 2643 2742 
Q 2381 3103 1925 3103 
Q 1469 3103 1208 2742 
Q 947 2381 947 1747 
z
" transform="scale(0.015625)"/>
       <path id="DejaVuSans-76" d="M 191 3500 
L 800 3500 
L 1894 563 
L 2988 3500 
L 3597 3500 
L 2284 0 
L 1503 0 
L 191 3500 
z
" transform="scale(0.015625)"/>
      </defs>
      <use xlink:href="#DejaVuSans-63"/>
      <use xlink:href="#DejaVuSans-68" x="54.980469"/>
      <use xlink:href="#DejaVuSans-61" x="118.359375"/>
      <use xlink:href="#DejaVuSans-74" x="179.638672"/>
      <use xlink:href="#DejaVuSans-64" x="218.847656"/>
      <use xlink:href="#DejaVuSans-65" x="282.324219"/>
      <use xlink:href="#DejaVuSans-76" x="343.847656"/>
     </g>
    </g>
    <g id="PathCollection_6">
     <g>
      <use xlink:href="#m65b9ad0c98" x="86.98875" y="81.1675" style="fill: #f18f01; fill-opacity: 0.7; stroke: #000000; stroke-opacity: 0.7; stroke-width: 1.5"/>
     </g>
    </g>
    <g id="text_31">
     <!-- ghspec -->
     <g transform="translate(104.98875 83.7925) scale(0.1 -0.1)">
      <use xlink:href="#DejaVuSans-67"/>
      <use xlink:href="#DejaVuSans-68" x="63.476562"/>
      <use xlink:href="#DejaVuSans-73" x="126.855469"/>
      <use xlink:href="#DejaVuSans-70" x="178.955078"/>
      <use xlink:href="#DejaVuSans-65" x="242.431641"/>
      <use xlink:href="#DejaVuSans-63" x="303.955078"/>
     </g>
    </g>
   </g>
  </g>
 </g>
 <defs>
  <clipPath id="pcbd15c21c5">
   <rect x="67.98875" y="37.837812" width="635.079317" height="417.56"/>
  </clipPath>
 </defs>
</svg>
