<?xml version="1.0" encoding="utf-8" standalone="no"?>
<!DOCTYPE svg PUBLIC "-//W3C//DTD SVG 1.1//EN"
  "http://www.w3.org/Graphics/SVG/1.1/DTD/svg11.dtd">
<svg xmlns:xlink="http://www.w3.org/1999/xlink" width="700.338734pt" height="559.742pt" viewBox="0 0 700.338734 559.742" xmlns="http://www.w3.org/2000/svg" version="1.1">
 <metadata>
  <rdf:RDF xmlns:dc="http://purl.org/dc/elements/1.1/" xmlns:cc="http://creativecommons.org/ns#" xmlns:rdf="http://www.w3.org/1999/02/22-rdf-syntax-ns#">
   <cc:Work>
    <dc:type rdf:resource="http://purl.org/dc/dcmitype/StillImage"/>
    <dc:date>2025-10-16T11:01:12.644078</dc:date>
    <dc:format>image/svg+xml</dc:format>
    <dc:creator>
     <cc:Agent>
      <dc:title>Matplotlib v3.8.0, https://matplotlib.org/</dc:title>
     </cc:Agent>
    </dc:creator>
   </cc:Work>
  </rdf:RDF>
 </metadata>
 <defs>
  <style type="text/css">*{stroke-linejoin: round; stroke-linecap: butt}</style>
 </defs>
 <g id="figure_1">
  <g id="patch_1">
   <path d="M 0 559.742 
L 700.338734 559.742 
L 700.338734 0 
L 0 0 
z
" style="fill: #ffffff"/>
  </g>
  <g id="axes_1">
   <g id="patch_2">
    <path d="M 548.772734 301.932 
C 548.772734 269.022196 542.290221 236.432399 529.696184 206.027705 
C 517.102147 175.623011 498.64151 147.994715 475.370765 124.72397 
C 452.100019 101.453224 424.471723 82.992587 394.067029 70.39855 
C 363.662335 57.804514 331.072538 51.322 298.162734 51.322 
C 265.252931 51.322 232.663133 57.804514 202.258439 70.39855 
C 171.853745 82.992587 144.225449 101.453224 120.954704 124.72397 
C 97.683959 147.994715 79.223321 175.623011 66.629285 206.027705 
C 54.035248 236.432399 47.552734 269.022196 47.552734 301.932 
C 47.552734 334.841804 54.035248 367.431601 66.629285 397.836295 
C 79.223321 428.240989 97.683959 455.869285 120.954704 479.14003 
C 144.225449 502.410776 171.853745 520.871413 202.258439 533.46545 
C 232.663133 546.059486 265.252931 552.542 298.162734 552.542 
C 331.072538 552.542 363.662335 546.059486 394.067029 533.46545 
C 424.471723 520.871413 452.100019 502.410776 475.370765 479.14003 
C 498.64151 455.869285 517.102147 428.240989 529.696184 397.836295 
C 542.290221 367.431601 548.772734 334.841804 548.772734 301.932 
M 298.162734 301.932 
C 298.162734 301.932 298.162734 301.932 298.162734 301.932 
C 298.162734 301.932 298.162734 301.932 298.162734 301.932 
C 298.162734 301.932 298.162734 301.932 298.162734 301.932 
C 298.162734 301.932 298.162734 301.932 298.162734 301.932 
C 298.162734 301.932 298.162734 301.932 298.162734 301.932 
C 298.162734 301.932 298.162734 301.932 298.162734 301.932 
C 298.162734 301.932 298.162734 301.932 298.162734 301.932 
C 298.162734 301.932 298.162734 301.932 298.162734 301.932 
C 298.162734 301.932 298.162734 301.932 298.162734 301.932 
C 298.162734 301.932 298.162734 301.932 298.162734 301.932 
C 298.162734 301.932 298.162734 301.932 298.162734 301.932 
C 298.162734 301.932 298.162734 301.932 298.162734 301.932 
C 298.162734 301.932 298.162734 301.932 298.162734 301.932 
C 298.162734 301.932 298.162734 301.932 298.162734 301.932 
C 298.162734 301.932 298.162734 301.932 298.162734 301.932 
C 298.162734 301.932 298.162734 301.932 298.162734 301.932 
z
" style="fill: #ffffff"/>
   </g>
   <g id="patch_3">
    <path d="M 423.467734 301.932 
L 301.17118 296.72122 
L 285.08534 279.281289 
L 172.857734 301.932 
L 235.510234 410.449313 
L 360.815234 410.449313 
z
" clip-path="url(#p2189a87ede)" style="fill: #1f77b4; opacity: 0.15; stroke: #1f77b4; stroke-linejoin: miter"/>
   </g>
   <g id="patch_4">
    <path d="M 423.467734 301.932 
L 423.467734 84.897374 
L 172.857734 84.897374 
L 172.857734 301.932 
L 235.510234 410.449313 
L 360.815234 410.449313 
z
" clip-path="url(#p2189a87ede)" style="fill: #ff7f0e; opacity: 0.15; stroke: #ff7f0e; stroke-linejoin: miter"/>
   </g>
   <g id="patch_5">
    <path d="M 423.467734 301.932 
L 298.162734 301.932 
L 298.162734 301.932 
L 172.857734 301.932 
L 235.510234 410.449313 
L 360.815234 410.449313 
z
" clip-path="url(#p2189a87ede)" style="fill: #2ca02c; opacity: 0.15; stroke: #2ca02c; stroke-linejoin: miter"/>
   </g>
   <g id="matplotlib.axis_1">
    <g id="xtick_1">
     <g id="line2d_1">
      <path d="M 298.162734 301.932 
L 548.772734 301.932 
" clip-path="url(#p2189a87ede)" style="fill: none; stroke-dasharray: 2.96,1.28; stroke-dashoffset: 0; stroke: #b0b0b0; stroke-opacity: 0.7; stroke-width: 0.8"/>
     </g>
     <g id="text_1">
      <!-- Test Automation -->
      <g transform="translate(518.162578 298.808516) scale(0.11 -0.11)">
       <defs>
        <path id="DejaVuSans-54" d="M -19 4666 
L 3928 4666 
L 3928 4134 
L 2272 4134 
L 2272 0 
L 1638 0 
L 1638 4134 
L -19 4134 
L -19 4666 
z
" transform="scale(0.015625)"/>
        <path id="DejaVuSans-65" d="M 3597 1894 
L 3597 1613 
L 953 1613 
Q 991 1019 1311 708 
Q 1631 397 2203 397 
Q 2534 397 2845 478 
Q 3156 559 3463 722 
L 3463 178 
Q 3153 47 2828 -22 
Q 2503 -91 2169 -91 
Q 1331 -91 842 396 
Q 353 884 353 1716 
Q 353 2575 817 3079 
Q 1281 3584 2069 3584 
Q 2775 3584 3186 3129 
Q 3597 2675 3597 1894 
z
M 3022 2063 
Q 3016 2534 2758 2815 
Q 2500 3097 2075 3097 
Q 1594 3097 1305 2825 
Q 1016 2553 972 2059 
L 3022 2063 
z
" transform="scale(0.015625)"/>
        <path id="DejaVuSans-73" d="M 2834 3397 
L 2834 2853 
Q 2591 2978 2328 3040 
Q 2066 3103 1784 3103 
Q 1356 3103 1142 2972 
Q 928 2841 928 2578 
Q 928 2378 1081 2264 
Q 1234 2150 1697 2047 
L 1894 2003 
Q 2506 1872 2764 1633 
Q 3022 1394 3022 966 
Q 3022 478 2636 193 
Q 2250 -91 1575 -91 
Q 1294 -91 989 -36 
Q 684 19 347 128 
L 347 722 
Q 666 556 975 473 
Q 1284 391 1588 391 
Q 1994 391 2212 530 
Q 2431 669 2431 922 
Q 2431 1156 2273 1281 
Q 2116 1406 1581 1522 
L 1381 1569 
Q 847 1681 609 1914 
Q 372 2147 372 2553 
Q 372 3047 722 3315 
Q 1072 3584 1716 3584 
Q 2034 3584 2315 3537 
Q 2597 3491 2834 3397 
z
" transform="scale(0.015625)"/>
        <path id="DejaVuSans-74" d="M 1172 4494 
L 1172 3500 
L 2356 3500 
L 2356 3053 
L 1172 3053 
L 1172 1153 
Q 1172 725 1289 603 
Q 1406 481 1766 481 
L 2356 481 
L 2356 0 
L 1766 0 
Q 1100 0 847 248 
Q 594 497 594 1153 
L 594 3053 
L 172 3053 
L 172 3500 
L 594 3500 
L 594 4494 
L 1172 4494 
z
" transform="scale(0.015625)"/>
        <path id="DejaVuSans-20" transform="scale(0.015625)"/>
        <path id="DejaVuSans-41" d="M 2188 4044 
L 1331 1722 
L 3047 1722 
L 2188 4044 
z
M 1831 4666 
L 2547 4666 
L 4325 0 
L 3669 0 
L 3244 1197 
L 1141 1197 
L 716 0 
L 50 0 
L 1831 4666 
z
" transform="scale(0.015625)"/>
        <path id="DejaVuSans-75" d="M 544 1381 
L 544 3500 
L 1119 3500 
L 1119 1403 
Q 1119 906 1312 657 
Q 1506 409 1894 409 
Q 2359 409 2629 706 
Q 2900 1003 2900 1516 
L 2900 3500 
L 3475 3500 
L 3475 0 
L 2900 0 
L 2900 538 
Q 2691 219 2414 64 
Q 2138 -91 1772 -91 
Q 1169 -91 856 284 
Q 544 659 544 1381 
z
M 1991 3584 
L 1991 3584 
z
" transform="scale(0.015625)"/>
        <path id="DejaVuSans-6f" d="M 1959 3097 
Q 1497 3097 1228 2736 
Q 959 2375 959 1747 
Q 959 1119 1226 758 
Q 1494 397 1959 397 
Q 2419 397 2687 759 
Q 2956 1122 2956 1747 
Q 2956 2369 2687 2733 
Q 2419 3097 1959 3097 
z
M 1959 3584 
Q 2709 3584 3137 3096 
Q 3566 2609 3566 1747 
Q 3566 888 3137 398 
Q 2709 -91 1959 -91 
Q 1206 -91 779 398 
Q 353 888 353 1747 
Q 353 2609 779 3096 
Q 1206 3584 1959 3584 
z
" transform="scale(0.015625)"/>
        <path id="DejaVuSans-6d" d="M 3328 2828 
Q 3544 3216 3844 3400 
Q 4144 3584 4550 3584 
Q 5097 3584 5394 3201 
Q 5691 2819 5691 2113 
L 5691 0 
L 5113 0 
L 5113 2094 
Q 5113 2597 4934 2840 
Q 4756 3084 4391 3084 
Q 3944 3084 3684 2787 
Q 3425 2491 3425 1978 
L 3425 0 
L 2847 0 
L 2847 2094 
Q 2847 2600 2669 2842 
Q 2491 3084 2119 3084 
Q 1678 3084 1418 2786 
Q 1159 2488 1159 1978 
L 1159 0 
L 581 0 
L 581 3500 
L 1159 3500 
L 1159 2956 
Q 1356 3278 1631 3431 
Q 1906 3584 2284 3584 
Q 2666 3584 2933 3390 
Q 3200 3197 3328 2828 
z
" transform="scale(0.015625)"/>
        <path id="DejaVuSans-61" d="M 2194 1759 
Q 1497 1759 1228 1600 
Q 959 1441 959 1056 
Q 959 750 1161 570 
Q 1363 391 1709 391 
Q 2188 391 2477 730 
Q 2766 1069 2766 1631 
L 2766 1759 
L 2194 1759 
z
M 3341 1997 
L 3341 0 
L 2766 0 
L 2766 531 
Q 2569 213 2275 61 
Q 1981 -91 1556 -91 
Q 1019 -91 701 211 
Q 384 513 384 1019 
Q 384 1609 779 1909 
Q 1175 2209 1959 2209 
L 2766 2209 
L 2766 2266 
Q 2766 2663 2505 2880 
Q 2244 3097 1772 3097 
Q 1472 3097 1187 3025 
Q 903 2953 641 2809 
L 641 3341 
Q 956 3463 1253 3523 
Q 1550 3584 1831 3584 
Q 2591 3584 2966 3190 
Q 3341 2797 3341 1997 
z
" transform="scale(0.015625)"/>
        <path id="DejaVuSans-69" d="M 603 3500 
L 1178 3500 
L 1178 0 
L 603 0 
L 603 3500 
z
M 603 4863 
L 1178 4863 
L 1178 4134 
L 603 4134 
L 603 4863 
z
" transform="scale(0.015625)"/>
        <path id="DejaVuSans-6e" d="M 3513 2113 
L 3513 0 
L 2938 0 
L 2938 2094 
Q 2938 2591 2744 2837 
Q 2550 3084 2163 3084 
Q 1697 3084 1428 2787 
Q 1159 2491 1159 1978 
L 1159 0 
L 581 0 
L 581 3500 
L 1159 3500 
L 1159 2956 
Q 1366 3272 1645 3428 
Q 1925 3584 2291 3584 
Q 2894 3584 3203 3211 
Q 3513 2838 3513 2113 
z
" transform="scale(0.015625)"/>
       </defs>
       <use xlink:href="#DejaVuSans-54"/>
       <use xlink:href="#DejaVuSans-65" x="44.083984"/>
       <use xlink:href="#DejaVuSans-73" x="105.607422"/>
       <use xlink:href="#DejaVuSans-74" x="157.707031"/>
       <use xlink:href="#DejaVuSans-20" x="196.916016"/>
       <use xlink:href="#DejaVuSans-41" x="228.703125"/>
       <use xlink:href="#DejaVuSans-75" x="297.111328"/>
       <use xlink:href="#DejaVuSans-74" x="360.490234"/>
       <use xlink:href="#DejaVuSans-6f" x="399.699219"/>
       <use xlink:href="#DejaVuSans-6d" x="460.880859"/>
       <use xlink:href="#DejaVuSans-61" x="558.292969"/>
       <use xlink:href="#DejaVuSans-74" x="619.572266"/>
       <use xlink:href="#DejaVuSans-69" x="658.78125"/>
       <use xlink:href="#DejaVuSans-6f" x="686.564453"/>
       <use xlink:href="#DejaVuSans-6e" x="747.746094"/>
      </g>
      <!-- Rate -->
      <g transform="translate(550.163984 311.126109) scale(0.11 -0.11)">
       <defs>
        <path id="DejaVuSans-52" d="M 2841 2188 
Q 3044 2119 3236 1894 
Q 3428 1669 3622 1275 
L 4263 0 
L 3584 0 
L 2988 1197 
Q 2756 1666 2539 1819 
Q 2322 1972 1947 1972 
L 1259 1972 
L 1259 0 
L 628 0 
L 628 4666 
L 2053 4666 
Q 2853 4666 3247 4331 
Q 3641 3997 3641 3322 
Q 3641 2881 3436 2590 
Q 3231 2300 2841 2188 
z
M 1259 4147 
L 1259 2491 
L 2053 2491 
Q 2509 2491 2742 2702 
Q 2975 2913 2975 3322 
Q 2975 3731 2742 3939 
Q 2509 4147 2053 4147 
L 1259 4147 
z
" transform="scale(0.015625)"/>
       </defs>
       <use xlink:href="#DejaVuSans-52"/>
       <use xlink:href="#DejaVuSans-61" x="67.232422"/>
       <use xlink:href="#DejaVuSans-74" x="128.511719"/>
       <use xlink:href="#DejaVuSans-65" x="167.720703"/>
      </g>
     </g>
    </g>
    <g id="xtick_2">
     <g id="line2d_2">
      <path d="M 298.162734 301.932 
L 423.467734 84.897374 
" clip-path="url(#p2189a87ede)" style="fill: none; stroke-dasharray: 2.96,1.28; stroke-dashoffset: 0; stroke: #b0b0b0; stroke-opacity: 0.7; stroke-width: 0.8"/>
     </g>
     <g id="text_2">
      <!-- Input Tokens -->
      <g transform="translate(395.968125 75.80833) scale(0.11 -0.11)">
       <defs>
        <path id="DejaVuSans-49" d="M 628 4666 
L 1259 4666 
L 1259 0 
L 628 0 
L 628 4666 
z
" transform="scale(0.015625)"/>
        <path id="DejaVuSans-70" d="M 1159 525 
L 1159 -1331 
L 581 -1331 
L 581 3500 
L 1159 3500 
L 1159 2969 
Q 1341 3281 1617 3432 
Q 1894 3584 2278 3584 
Q 2916 3584 3314 3078 
Q 3713 2572 3713 1747 
Q 3713 922 3314 415 
Q 2916 -91 2278 -91 
Q 1894 -91 1617 61 
Q 1341 213 1159 525 
z
M 3116 1747 
Q 3116 2381 2855 2742 
Q 2594 3103 2138 3103 
Q 1681 3103 1420 2742 
Q 1159 2381 1159 1747 
Q 1159 1113 1420 752 
Q 1681 391 2138 391 
Q 2594 391 2855 752 
Q 3116 1113 3116 1747 
z
" transform="scale(0.015625)"/>
        <path id="DejaVuSans-6b" d="M 581 4863 
L 1159 4863 
L 1159 1991 
L 2875 3500 
L 3609 3500 
L 1753 1863 
L 3688 0 
L 2938 0 
L 1159 1709 
L 1159 0 
L 581 0 
L 581 4863 
z
" transform="scale(0.015625)"/>
       </defs>
       <use xlink:href="#DejaVuSans-49"/>
       <use xlink:href="#DejaVuSans-6e" x="29.492188"/>
       <use xlink:href="#DejaVuSans-70" x="92.871094"/>
       <use xlink:href="#DejaVuSans-75" x="156.347656"/>
       <use xlink:href="#DejaVuSans-74" x="219.726562"/>
       <use xlink:href="#DejaVuSans-20" x="258.935547"/>
       <use xlink:href="#DejaVuSans-54" x="290.722656"/>
       <use xlink:href="#DejaVuSans-6f" x="334.806641"/>
       <use xlink:href="#DejaVuSans-6b" x="395.988281"/>
       <use xlink:href="#DejaVuSans-65" x="450.273438"/>
       <use xlink:href="#DejaVuSans-6e" x="511.796875"/>
       <use xlink:href="#DejaVuSans-73" x="575.175781"/>
      </g>
     </g>
    </g>
    <g id="xtick_3">
     <g id="line2d_3">
      <path d="M 298.162734 301.932 
L 172.857734 84.897374 
" clip-path="url(#p2189a87ede)" style="fill: none; stroke-dasharray: 2.96,1.28; stroke-dashoffset: 0; stroke: #b0b0b0; stroke-opacity: 0.7; stroke-width: 0.8"/>
     </g>
     <g id="text_3">
      <!-- Wall Time -->
      <g transform="translate(139.138906 69.649534) scale(0.11 -0.11)">
       <defs>
        <path id="DejaVuSans-57" d="M 213 4666 
L 850 4666 
L 1831 722 
L 2809 4666 
L 3519 4666 
L 4500 722 
L 5478 4666 
L 6119 4666 
L 4947 0 
L 4153 0 
L 3169 4050 
L 2175 0 
L 1381 0 
L 213 4666 
z
" transform="scale(0.015625)"/>
        <path id="DejaVuSans-6c" d="M 603 4863 
L 1178 4863 
L 1178 0 
L 603 0 
L 603 4863 
z
" transform="scale(0.015625)"/>
       </defs>
       <use xlink:href="#DejaVuSans-57"/>
       <use xlink:href="#DejaVuSans-61" x="92.501953"/>
       <use xlink:href="#DejaVuSans-6c" x="153.78125"/>
       <use xlink:href="#DejaVuSans-6c" x="181.564453"/>
       <use xlink:href="#DejaVuSans-20" x="209.347656"/>
       <use xlink:href="#DejaVuSans-54" x="241.134766"/>
       <use xlink:href="#DejaVuSans-69" x="299.09375"/>
       <use xlink:href="#DejaVuSans-6d" x="326.876953"/>
       <use xlink:href="#DejaVuSans-65" x="424.289062"/>
      </g>
      <!-- (seconds) -->
      <g transform="translate(139.084766 81.967127) scale(0.11 -0.11)">
       <defs>
        <path id="DejaVuSans-28" d="M 1984 4856 
Q 1566 4138 1362 3434 
Q 1159 2731 1159 2009 
Q 1159 1288 1364 580 
Q 1569 -128 1984 -844 
L 1484 -844 
Q 1016 -109 783 600 
Q 550 1309 550 2009 
Q 550 2706 781 3412 
Q 1013 4119 1484 4856 
L 1984 4856 
z
" transform="scale(0.015625)"/>
        <path id="DejaVuSans-63" d="M 3122 3366 
L 3122 2828 
Q 2878 2963 2633 3030 
Q 2388 3097 2138 3097 
Q 1578 3097 1268 2742 
Q 959 2388 959 1747 
Q 959 1106 1268 751 
Q 1578 397 2138 397 
Q 2388 397 2633 464 
Q 2878 531 3122 666 
L 3122 134 
Q 2881 22 2623 -34 
Q 2366 -91 2075 -91 
Q 1284 -91 818 406 
Q 353 903 353 1747 
Q 353 2603 823 3093 
Q 1294 3584 2113 3584 
Q 2378 3584 2631 3529 
Q 2884 3475 3122 3366 
z
" transform="scale(0.015625)"/>
        <path id="DejaVuSans-64" d="M 2906 2969 
L 2906 4863 
L 3481 4863 
L 3481 0 
L 2906 0 
L 2906 525 
Q 2725 213 2448 61 
Q 2172 -91 1784 -91 
Q 1150 -91 751 415 
Q 353 922 353 1747 
Q 353 2572 751 3078 
Q 1150 3584 1784 3584 
Q 2172 3584 2448 3432 
Q 2725 3281 2906 2969 
z
M 947 1747 
Q 947 1113 1208 752 
Q 1469 391 1925 391 
Q 2381 391 2643 752 
Q 2906 1113 2906 1747 
Q 2906 2381 2643 2742 
Q 2381 3103 1925 3103 
Q 1469 3103 1208 2742 
Q 947 2381 947 1747 
z
" transform="scale(0.015625)"/>
        <path id="DejaVuSans-29" d="M 513 4856 
L 1013 4856 
Q 1481 4119 1714 3412 
Q 1947 2706 1947 2009 
Q 1947 1309 1714 600 
Q 1481 -109 1013 -844 
L 513 -844 
Q 928 -128 1133 580 
Q 1338 1288 1338 2009 
Q 1338 2731 1133 3434 
Q 928 4138 513 4856 
z
" transform="scale(0.015625)"/>
       </defs>
       <use xlink:href="#DejaVuSans-28"/>
       <use xlink:href="#DejaVuSans-73" x="39.013672"/>
       <use xlink:href="#DejaVuSans-65" x="91.113281"/>
       <use xlink:href="#DejaVuSans-63" x="152.636719"/>
       <use xlink:href="#DejaVuSans-6f" x="207.617188"/>
       <use xlink:href="#DejaVuSans-6e" x="268.798828"/>
       <use xlink:href="#DejaVuSans-64" x="332.177734"/>
       <use xlink:href="#DejaVuSans-73" x="395.654297"/>
       <use xlink:href="#DejaVuSans-29" x="447.753906"/>
      </g>
     </g>
    </g>
    <g id="xtick_4">
     <g id="line2d_4">
      <path d="M 298.162734 301.932 
L 47.552734 301.932 
" clip-path="url(#p2189a87ede)" style="fill: none; stroke-dasharray: 2.96,1.28; stroke-dashoffset: 0; stroke: #b0b0b0; stroke-opacity: 0.7; stroke-width: 0.8"/>
     </g>
     <g id="text_4">
      <!-- CRUD -->
      <g transform="translate(17.630234 298.808516) scale(0.11 -0.11)">
       <defs>
        <path id="DejaVuSans-43" d="M 4122 4306 
L 4122 3641 
Q 3803 3938 3442 4084 
Q 3081 4231 2675 4231 
Q 1875 4231 1450 3742 
Q 1025 3253 1025 2328 
Q 1025 1406 1450 917 
Q 1875 428 2675 428 
Q 3081 428 3442 575 
Q 3803 722 4122 1019 
L 4122 359 
Q 3791 134 3420 21 
Q 3050 -91 2638 -91 
Q 1578 -91 968 557 
Q 359 1206 359 2328 
Q 359 3453 968 4101 
Q 1578 4750 2638 4750 
Q 3056 4750 3426 4639 
Q 3797 4528 4122 4306 
z
" transform="scale(0.015625)"/>
        <path id="DejaVuSans-55" d="M 556 4666 
L 1191 4666 
L 1191 1831 
Q 1191 1081 1462 751 
Q 1734 422 2344 422 
Q 2950 422 3222 751 
Q 3494 1081 3494 1831 
L 3494 4666 
L 4128 4666 
L 4128 1753 
Q 4128 841 3676 375 
Q 3225 -91 2344 -91 
Q 1459 -91 1007 375 
Q 556 841 556 1753 
L 556 4666 
z
" transform="scale(0.015625)"/>
        <path id="DejaVuSans-44" d="M 1259 4147 
L 1259 519 
L 2022 519 
Q 2988 519 3436 956 
Q 3884 1394 3884 2338 
Q 3884 3275 3436 3711 
Q 2988 4147 2022 4147 
L 1259 4147 
z
M 628 4666 
L 1925 4666 
Q 3281 4666 3915 4102 
Q 4550 3538 4550 2338 
Q 4550 1131 3912 565 
Q 3275 0 1925 0 
L 628 0 
L 628 4666 
z
" transform="scale(0.015625)"/>
       </defs>
       <use xlink:href="#DejaVuSans-43"/>
       <use xlink:href="#DejaVuSans-52" x="69.824219"/>
       <use xlink:href="#DejaVuSans-55" x="139.306641"/>
       <use xlink:href="#DejaVuSans-44" x="212.5"/>
      </g>
      <!-- Coverage -->
      <g transform="translate(7.2 311.126109) scale(0.11 -0.11)">
       <defs>
        <path id="DejaVuSans-76" d="M 191 3500 
L 800 3500 
L 1894 563 
L 2988 3500 
L 3597 3500 
L 2284 0 
L 1503 0 
L 191 3500 
z
" transform="scale(0.015625)"/>
        <path id="DejaVuSans-72" d="M 2631 2963 
Q 2534 3019 2420 3045 
Q 2306 3072 2169 3072 
Q 1681 3072 1420 2755 
Q 1159 2438 1159 1844 
L 1159 0 
L 581 0 
L 581 3500 
L 1159 3500 
L 1159 2956 
Q 1341 3275 1631 3429 
Q 1922 3584 2338 3584 
Q 2397 3584 2469 3576 
Q 2541 3569 2628 3553 
L 2631 2963 
z
" transform="scale(0.015625)"/>
        <path id="DejaVuSans-67" d="M 2906 1791 
Q 2906 2416 2648 2759 
Q 2391 3103 1925 3103 
Q 1463 3103 1205 2759 
Q 947 2416 947 1791 
Q 947 1169 1205 825 
Q 1463 481 1925 481 
Q 2391 481 2648 825 
Q 2906 1169 2906 1791 
z
M 3481 434 
Q 3481 -459 3084 -895 
Q 2688 -1331 1869 -1331 
Q 1566 -1331 1297 -1286 
Q 1028 -1241 775 -1147 
L 775 -588 
Q 1028 -725 1275 -790 
Q 1522 -856 1778 -856 
Q 2344 -856 2625 -561 
Q 2906 -266 2906 331 
L 2906 616 
Q 2728 306 2450 153 
Q 2172 0 1784 0 
Q 1141 0 747 490 
Q 353 981 353 1791 
Q 353 2603 747 3093 
Q 1141 3584 1784 3584 
Q 2172 3584 2450 3431 
Q 2728 3278 2906 2969 
L 2906 3500 
L 3481 3500 
L 3481 434 
z
" transform="scale(0.015625)"/>
       </defs>
       <use xlink:href="#DejaVuSans-43"/>
       <use xlink:href="#DejaVuSans-6f" x="69.824219"/>
       <use xlink:href="#DejaVuSans-76" x="131.005859"/>
       <use xlink:href="#DejaVuSans-65" x="190.185547"/>
       <use xlink:href="#DejaVuSans-72" x="251.708984"/>
       <use xlink:href="#DejaVuSans-61" x="292.822266"/>
       <use xlink:href="#DejaVuSans-67" x="354.101562"/>
       <use xlink:href="#DejaVuSans-65" x="417.578125"/>
      </g>
     </g>
    </g>
    <g id="xtick_5">
     <g id="line2d_5">
      <path d="M 298.162734 301.932 
L 172.857734 518.966626 
" clip-path="url(#p2189a87ede)" style="fill: none; stroke-dasharray: 2.96,1.28; stroke-dashoffset: 0; stroke: #b0b0b0; stroke-opacity: 0.7; stroke-width: 0.8"/>
     </g>
     <g id="text_5">
      <!-- Emerging State -->
      <g transform="translate(123.172578 527.967498) scale(0.11 -0.11)">
       <defs>
        <path id="DejaVuSans-45" d="M 628 4666 
L 3578 4666 
L 3578 4134 
L 1259 4134 
L 1259 2753 
L 3481 2753 
L 3481 2222 
L 1259 2222 
L 1259 531 
L 3634 531 
L 3634 0 
L 628 0 
L 628 4666 
z
" transform="scale(0.015625)"/>
        <path id="DejaVuSans-53" d="M 3425 4513 
L 3425 3897 
Q 3066 4069 2747 4153 
Q 2428 4238 2131 4238 
Q 1616 4238 1336 4038 
Q 1056 3838 1056 3469 
Q 1056 3159 1242 3001 
Q 1428 2844 1947 2747 
L 2328 2669 
Q 3034 2534 3370 2195 
Q 3706 1856 3706 1288 
Q 3706 609 3251 259 
Q 2797 -91 1919 -91 
Q 1588 -91 1214 -16 
Q 841 59 441 206 
L 441 856 
Q 825 641 1194 531 
Q 1563 422 1919 422 
Q 2459 422 2753 634 
Q 3047 847 3047 1241 
Q 3047 1584 2836 1778 
Q 2625 1972 2144 2069 
L 1759 2144 
Q 1053 2284 737 2584 
Q 422 2884 422 3419 
Q 422 4038 858 4394 
Q 1294 4750 2059 4750 
Q 2388 4750 2728 4690 
Q 3069 4631 3425 4513 
z
" transform="scale(0.015625)"/>
       </defs>
       <use xlink:href="#DejaVuSans-45"/>
       <use xlink:href="#DejaVuSans-6d" x="63.183594"/>
       <use xlink:href="#DejaVuSans-65" x="160.595703"/>
       <use xlink:href="#DejaVuSans-72" x="222.119141"/>
       <use xlink:href="#DejaVuSans-67" x="261.482422"/>
       <use xlink:href="#DejaVuSans-69" x="324.958984"/>
       <use xlink:href="#DejaVuSans-6e" x="352.742188"/>
       <use xlink:href="#DejaVuSans-67" x="416.121094"/>
       <use xlink:href="#DejaVuSans-20" x="479.597656"/>
       <use xlink:href="#DejaVuSans-53" x="511.384766"/>
       <use xlink:href="#DejaVuSans-74" x="574.861328"/>
       <use xlink:href="#DejaVuSans-61" x="614.070312"/>
       <use xlink:href="#DejaVuSans-74" x="675.349609"/>
       <use xlink:href="#DejaVuSans-65" x="714.558594"/>
      </g>
      <!-- Rate -->
      <g transform="translate(153.248984 540.285091) scale(0.11 -0.11)">
       <use xlink:href="#DejaVuSans-52"/>
       <use xlink:href="#DejaVuSans-61" x="67.232422"/>
       <use xlink:href="#DejaVuSans-74" x="128.511719"/>
       <use xlink:href="#DejaVuSans-65" x="167.720703"/>
      </g>
     </g>
    </g>
    <g id="xtick_6">
     <g id="line2d_6">
      <path d="M 298.162734 301.932 
L 423.467734 518.966626 
" clip-path="url(#p2189a87ede)" style="fill: none; stroke-dasharray: 2.96,1.28; stroke-dashoffset: 0; stroke: #b0b0b0; stroke-opacity: 0.7; stroke-width: 0.8"/>
     </g>
     <g id="text_6">
      <!-- Model Call -->
      <g transform="translate(401.938203 527.967498) scale(0.11 -0.11)">
       <defs>
        <path id="DejaVuSans-4d" d="M 628 4666 
L 1569 4666 
L 2759 1491 
L 3956 4666 
L 4897 4666 
L 4897 0 
L 4281 0 
L 4281 4097 
L 3078 897 
L 2444 897 
L 1241 4097 
L 1241 0 
L 628 0 
L 628 4666 
z
" transform="scale(0.015625)"/>
       </defs>
       <use xlink:href="#DejaVuSans-4d"/>
       <use xlink:href="#DejaVuSans-6f" x="86.279297"/>
       <use xlink:href="#DejaVuSans-64" x="147.460938"/>
       <use xlink:href="#DejaVuSans-65" x="210.9375"/>
       <use xlink:href="#DejaVuSans-6c" x="272.460938"/>
       <use xlink:href="#DejaVuSans-20" x="300.244141"/>
       <use xlink:href="#DejaVuSans-43" x="332.03125"/>
       <use xlink:href="#DejaVuSans-61" x="401.855469"/>
       <use xlink:href="#DejaVuSans-6c" x="463.134766"/>
       <use xlink:href="#DejaVuSans-6c" x="490.917969"/>
      </g>
      <!-- Efficiency -->
      <g transform="translate(403.890703 540.285091) scale(0.11 -0.11)">
       <defs>
        <path id="DejaVuSans-66" d="M 2375 4863 
L 2375 4384 
L 1825 4384 
Q 1516 4384 1395 4259 
Q 1275 4134 1275 3809 
L 1275 3500 
L 2222 3500 
L 2222 3053 
L 1275 3053 
L 1275 0 
L 697 0 
L 697 3053 
L 147 3053 
L 147 3500 
L 697 3500 
L 697 3744 
Q 697 4328 969 4595 
Q 1241 4863 1831 4863 
L 2375 4863 
z
" transform="scale(0.015625)"/>
        <path id="DejaVuSans-79" d="M 2059 -325 
Q 1816 -950 1584 -1140 
Q 1353 -1331 966 -1331 
L 506 -1331 
L 506 -850 
L 844 -850 
Q 1081 -850 1212 -737 
Q 1344 -625 1503 -206 
L 1606 56 
L 191 3500 
L 800 3500 
L 1894 763 
L 2988 3500 
L 3597 3500 
L 2059 -325 
z
" transform="scale(0.015625)"/>
       </defs>
       <use xlink:href="#DejaVuSans-45"/>
       <use xlink:href="#DejaVuSans-66" x="63.183594"/>
       <use xlink:href="#DejaVuSans-66" x="98.388672"/>
       <use xlink:href="#DejaVuSans-69" x="133.59375"/>
       <use xlink:href="#DejaVuSans-63" x="161.376953"/>
       <use xlink:href="#DejaVuSans-69" x="216.357422"/>
       <use xlink:href="#DejaVuSans-65" x="244.140625"/>
       <use xlink:href="#DejaVuSans-6e" x="305.664062"/>
       <use xlink:href="#DejaVuSans-63" x="369.042969"/>
       <use xlink:href="#DejaVuSans-79" x="424.023438"/>
      </g>
     </g>
    </g>
   </g>
   <g id="matplotlib.axis_2">
    <g id="ytick_1">
     <g id="line2d_7">
      <path d="M 348.284734 301.932 
C 348.284734 295.350039 346.988232 288.83208 344.469424 282.751141 
C 341.950617 276.670202 338.25849 271.144543 333.60434 266.490394 
C 328.950191 261.836245 323.424532 258.144117 317.343593 255.62531 
C 311.262655 253.106503 304.744695 251.81 298.162734 251.81 
C 291.580774 251.81 285.062814 253.106503 278.981875 255.62531 
C 272.900937 258.144117 267.375277 261.836245 262.721128 266.490394 
C 258.066979 271.144543 254.374852 276.670202 251.856044 282.751141 
C 249.337237 288.83208 248.040734 295.350039 248.040734 301.932 
C 248.040734 308.513961 249.337237 315.03192 251.856044 321.112859 
C 254.374852 327.193798 258.066979 332.719457 262.721128 337.373606 
C 267.375277 342.027755 272.900937 345.719883 278.981875 348.23869 
C 285.062814 350.757497 291.580774 352.054 298.162734 352.054 
C 304.744695 352.054 311.262655 350.757497 317.343593 348.23869 
C 323.424532 345.719883 328.950191 342.027755 333.60434 337.373606 
C 338.25849 332.719457 341.950617 327.193798 344.469424 321.112859 
C 346.988232 315.03192 348.284734 308.513961 348.284734 301.932 
" clip-path="url(#p2189a87ede)" style="fill: none; stroke-dasharray: 2.96,1.28; stroke-dashoffset: 0; stroke: #b0b0b0; stroke-opacity: 0.7; stroke-width: 0.8"/>
     </g>
     <g id="text_7">
      <!-- 0.2 -->
      <g transform="translate(344.469424 280.671454) scale(0.1 -0.1)">
       <defs>
        <path id="DejaVuSans-30" d="M 2034 4250 
Q 1547 4250 1301 3770 
Q 1056 3291 1056 2328 
Q 1056 1369 1301 889 
Q 1547 409 2034 409 
Q 2525 409 2770 889 
Q 3016 1369 3016 2328 
Q 3016 3291 2770 3770 
Q 2525 4250 2034 4250 
z
M 2034 4750 
Q 2819 4750 3233 4129 
Q 3647 3509 3647 2328 
Q 3647 1150 3233 529 
Q 2819 -91 2034 -91 
Q 1250 -91 836 529 
Q 422 1150 422 2328 
Q 422 3509 836 4129 
Q 1250 4750 2034 4750 
z
" transform="scale(0.015625)"/>
        <path id="DejaVuSans-2e" d="M 684 794 
L 1344 794 
L 1344 0 
L 684 0 
L 684 794 
z
" transform="scale(0.015625)"/>
        <path id="DejaVuSans-32" d="M 1228 531 
L 3431 531 
L 3431 0 
L 469 0 
L 469 531 
Q 828 903 1448 1529 
Q 2069 2156 2228 2338 
Q 2531 2678 2651 2914 
Q 2772 3150 2772 3378 
Q 2772 3750 2511 3984 
Q 2250 4219 1831 4219 
Q 1534 4219 1204 4116 
Q 875 4013 500 3803 
L 500 4441 
Q 881 4594 1212 4672 
Q 1544 4750 1819 4750 
Q 2544 4750 2975 4387 
Q 3406 4025 3406 3419 
Q 3406 3131 3298 2873 
Q 3191 2616 2906 2266 
Q 2828 2175 2409 1742 
Q 1991 1309 1228 531 
z
" transform="scale(0.015625)"/>
       </defs>
       <use xlink:href="#DejaVuSans-30"/>
       <use xlink:href="#DejaVuSans-2e" x="63.623047"/>
       <use xlink:href="#DejaVuSans-32" x="95.410156"/>
      </g>
     </g>
    </g>
    <g id="ytick_2">
     <g id="line2d_8">
      <path d="M 398.406734 301.932 
C 398.406734 288.768079 395.813729 275.73216 390.776114 263.570282 
C 385.7385 251.408404 378.354245 240.357086 369.045947 231.048788 
C 359.737648 221.74049 348.68633 214.356235 336.524452 209.31862 
C 324.362575 204.281005 311.326656 201.688 298.162734 201.688 
C 284.998813 201.688 271.962894 204.281005 259.801016 209.31862 
C 247.639139 214.356235 236.58782 221.74049 227.279522 231.048788 
C 217.971224 240.357086 210.586969 251.408404 205.549355 263.570282 
C 200.51174 275.73216 197.918734 288.768079 197.918734 301.932 
C 197.918734 315.095921 200.51174 328.13184 205.549355 340.293718 
C 210.586969 352.455596 217.971224 363.506914 227.279522 372.815212 
C 236.58782 382.12351 247.639139 389.507765 259.801016 394.54538 
C 271.962894 399.582995 284.998813 402.176 298.162734 402.176 
C 311.326656 402.176 324.362575 399.582995 336.524452 394.54538 
C 348.68633 389.507765 359.737648 382.12351 369.045947 372.815212 
C 378.354245 363.506914 385.7385 352.455596 390.776114 340.293718 
C 395.813729 328.13184 398.406734 315.095921 398.406734 301.932 
" clip-path="url(#p2189a87ede)" style="fill: none; stroke-dasharray: 2.96,1.28; stroke-dashoffset: 0; stroke: #b0b0b0; stroke-opacity: 0.7; stroke-width: 0.8"/>
     </g>
     <g id="text_8">
      <!-- 0.4 -->
      <g transform="translate(390.776114 261.490595) scale(0.1 -0.1)">
       <defs>
        <path id="DejaVuSans-34" d="M 2419 4116 
L 825 1625 
L 2419 1625 
L 2419 4116 
z
M 2253 4666 
L 3047 4666 
L 3047 1625 
L 3713 1625 
L 3713 1100 
L 3047 1100 
L 3047 0 
L 2419 0 
L 2419 1100 
L 313 1100 
L 313 1709 
L 2253 4666 
z
" transform="scale(0.015625)"/>
       </defs>
       <use xlink:href="#DejaVuSans-30"/>
       <use xlink:href="#DejaVuSans-2e" x="63.623047"/>
       <use xlink:href="#DejaVuSans-34" x="95.410156"/>
      </g>
     </g>
    </g>
    <g id="ytick_3">
     <g id="line2d_9">
      <path d="M 448.528734 301.932 
C 448.528734 282.186118 444.639226 262.632239 437.082804 244.389423 
C 429.526382 226.146607 418.45 209.569629 404.487553 195.607182 
C 390.525105 181.644735 373.948128 170.568352 355.705311 163.01193 
C 337.462495 155.455508 317.908617 151.566 298.162734 151.566 
C 278.416852 151.566 258.862974 155.455508 240.620157 163.01193 
C 222.377341 170.568352 205.800363 181.644735 191.837916 195.607182 
C 177.875469 209.569629 166.799087 226.146607 159.242665 244.389423 
C 151.686243 262.632239 147.796734 282.186118 147.796734 301.932 
C 147.796734 321.677882 151.686243 341.231761 159.242665 359.474577 
C 166.799087 377.717393 177.875469 394.294371 191.837916 408.256818 
C 205.800363 422.219265 222.377341 433.295648 240.620157 440.85207 
C 258.862974 448.408492 278.416852 452.298 298.162734 452.298 
C 317.908617 452.298 337.462495 448.408492 355.705311 440.85207 
C 373.948128 433.295648 390.525105 422.219265 404.487553 408.256818 
C 418.45 394.294371 429.526382 377.717393 437.082804 359.474577 
C 444.639226 341.231761 448.528734 321.677882 448.528734 301.932 
" clip-path="url(#p2189a87ede)" style="fill: none; stroke-dasharray: 2.96,1.28; stroke-dashoffset: 0; stroke: #b0b0b0; stroke-opacity: 0.7; stroke-width: 0.8"/>
     </g>
     <g id="text_9">
      <!-- 0.6 -->
      <g transform="translate(437.082804 242.309736) scale(0.1 -0.1)">
       <defs>
        <path id="DejaVuSans-36" d="M 2113 2584 
Q 1688 2584 1439 2293 
Q 1191 2003 1191 1497 
Q 1191 994 1439 701 
Q 1688 409 2113 409 
Q 2538 409 2786 701 
Q 3034 994 3034 1497 
Q 3034 2003 2786 2293 
Q 2538 2584 2113 2584 
z
M 3366 4563 
L 3366 3988 
Q 3128 4100 2886 4159 
Q 2644 4219 2406 4219 
Q 1781 4219 1451 3797 
Q 1122 3375 1075 2522 
Q 1259 2794 1537 2939 
Q 1816 3084 2150 3084 
Q 2853 3084 3261 2657 
Q 3669 2231 3669 1497 
Q 3669 778 3244 343 
Q 2819 -91 2113 -91 
Q 1303 -91 875 529 
Q 447 1150 447 2328 
Q 447 3434 972 4092 
Q 1497 4750 2381 4750 
Q 2619 4750 2861 4703 
Q 3103 4656 3366 4563 
z
" transform="scale(0.015625)"/>
       </defs>
       <use xlink:href="#DejaVuSans-30"/>
       <use xlink:href="#DejaVuSans-2e" x="63.623047"/>
       <use xlink:href="#DejaVuSans-36" x="95.410156"/>
      </g>
     </g>
    </g>
    <g id="ytick_4">
     <g id="line2d_10">
      <path d="M 498.650734 301.932 
C 498.650734 275.604157 493.464723 249.532319 483.389494 225.208564 
C 473.314265 200.884809 458.545755 178.782172 439.929159 160.165576 
C 421.312562 141.548979 399.209926 126.78047 374.88617 116.70524 
C 350.562415 106.630011 324.490577 101.444 298.162734 101.444 
C 271.834891 101.444 245.763054 106.630011 221.439298 116.70524 
C 197.115543 126.78047 175.012906 141.548979 156.39631 160.165576 
C 137.779714 178.782172 123.011204 200.884809 112.935975 225.208564 
C 102.860745 249.532319 97.674734 275.604157 97.674734 301.932 
C 97.674734 328.259843 102.860745 354.331681 112.935975 378.655436 
C 123.011204 402.979191 137.779714 425.081828 156.39631 443.698424 
C 175.012906 462.315021 197.115543 477.08353 221.439298 487.15876 
C 245.763054 497.233989 271.834891 502.42 298.162734 502.42 
C 324.490577 502.42 350.562415 497.233989 374.88617 487.15876 
C 399.209926 477.08353 421.312562 462.315021 439.929159 443.698424 
C 458.545755 425.081828 473.314265 402.979191 483.389494 378.655436 
C 493.464723 354.331681 498.650734 328.259843 498.650734 301.932 
" clip-path="url(#p2189a87ede)" style="fill: none; stroke-dasharray: 2.96,1.28; stroke-dashoffset: 0; stroke: #b0b0b0; stroke-opacity: 0.7; stroke-width: 0.8"/>
     </g>
     <g id="text_10">
      <!-- 0.8 -->
      <g transform="translate(483.389494 223.128877) scale(0.1 -0.1)">
       <defs>
        <path id="DejaVuSans-38" d="M 2034 2216 
Q 1584 2216 1326 1975 
Q 1069 1734 1069 1313 
Q 1069 891 1326 650 
Q 1584 409 2034 409 
Q 2484 409 2743 651 
Q 3003 894 3003 1313 
Q 3003 1734 2745 1975 
Q 2488 2216 2034 2216 
z
M 1403 2484 
Q 997 2584 770 2862 
Q 544 3141 544 3541 
Q 544 4100 942 4425 
Q 1341 4750 2034 4750 
Q 2731 4750 3128 4425 
Q 3525 4100 3525 3541 
Q 3525 3141 3298 2862 
Q 3072 2584 2669 2484 
Q 3125 2378 3379 2068 
Q 3634 1759 3634 1313 
Q 3634 634 3220 271 
Q 2806 -91 2034 -91 
Q 1263 -91 848 271 
Q 434 634 434 1313 
Q 434 1759 690 2068 
Q 947 2378 1403 2484 
z
M 1172 3481 
Q 1172 3119 1398 2916 
Q 1625 2713 2034 2713 
Q 2441 2713 2670 2916 
Q 2900 3119 2900 3481 
Q 2900 3844 2670 4047 
Q 2441 4250 2034 4250 
Q 1625 4250 1398 4047 
Q 1172 3844 1172 3481 
z
" transform="scale(0.015625)"/>
       </defs>
       <use xlink:href="#DejaVuSans-30"/>
       <use xlink:href="#DejaVuSans-2e" x="63.623047"/>
       <use xlink:href="#DejaVuSans-38" x="95.410156"/>
      </g>
     </g>
    </g>
    <g id="ytick_5">
     <g id="line2d_11">
      <path d="M 548.772734 301.932 
C 548.772734 269.022196 542.290221 236.432399 529.696184 206.027705 
C 517.102147 175.623011 498.64151 147.994715 475.370765 124.72397 
C 452.100019 101.453224 424.471723 82.992587 394.067029 70.39855 
C 363.662335 57.804514 331.072538 51.322 298.162734 51.322 
C 265.252931 51.322 232.663133 57.804514 202.258439 70.39855 
C 171.853745 82.992587 144.225449 101.453224 120.954704 124.72397 
C 97.683959 147.994715 79.223321 175.623011 66.629285 206.027705 
C 54.035248 236.432399 47.552734 269.022196 47.552734 301.932 
C 47.552734 334.841804 54.035248 367.431601 66.629285 397.836295 
C 79.223321 428.240989 97.683959 455.869285 120.954704 479.14003 
C 144.225449 502.410776 171.853745 520.871413 202.258439 533.46545 
C 232.663133 546.059486 265.252931 552.542 298.162734 552.542 
C 331.072538 552.542 363.662335 546.059486 394.067029 533.46545 
C 424.471723 520.871413 452.100019 502.410776 475.370765 479.14003 
C 498.64151 455.869285 517.102147 428.240989 529.696184 397.836295 
C 542.290221 367.431601 548.772734 334.841804 548.772734 301.932 
" clip-path="url(#p2189a87ede)" style="fill: none; stroke-dasharray: 2.96,1.28; stroke-dashoffset: 0; stroke: #b0b0b0; stroke-opacity: 0.7; stroke-width: 0.8"/>
     </g>
     <g id="text_11">
      <!-- 1.0 -->
      <g transform="translate(529.696184 203.948018) scale(0.1 -0.1)">
       <defs>
        <path id="DejaVuSans-31" d="M 794 531 
L 1825 531 
L 1825 4091 
L 703 3866 
L 703 4441 
L 1819 4666 
L 2450 4666 
L 2450 531 
L 3481 531 
L 3481 0 
L 794 0 
L 794 531 
z
" transform="scale(0.015625)"/>
       </defs>
       <use xlink:href="#DejaVuSans-31"/>
       <use xlink:href="#DejaVuSans-2e" x="63.623047"/>
       <use xlink:href="#DejaVuSans-30" x="95.410156"/>
      </g>
     </g>
    </g>
   </g>
   <g id="line2d_12">
    <path d="M 423.467734 301.932 
L 301.17118 296.72122 
L 285.08534 279.281289 
L 172.857734 301.932 
L 235.510234 410.449313 
L 360.815234 410.449313 
L 423.467734 301.932 
" clip-path="url(#p2189a87ede)" style="fill: none; stroke: #1f77b4; stroke-width: 2; stroke-linecap: square"/>
    <defs>
     <path id="m4f88c7f890" d="M 0 3 
C 0.795609 3 1.55874 2.683901 2.12132 2.12132 
C 2.683901 1.55874 3 0.795609 3 0 
C 3 -0.795609 2.683901 -1.55874 2.12132 -2.12132 
C 1.55874 -2.683901 0.795609 -3 0 -3 
C -0.795609 -3 -1.55874 -2.683901 -2.12132 -2.12132 
C -2.683901 -1.55874 -3 -0.795609 -3 0 
C -3 0.795609 -2.683901 1.55874 -2.12132 2.12132 
C -1.55874 2.683901 -0.795609 3 0 3 
z
" style="stroke: #1f77b4"/>
    </defs>
    <g clip-path="url(#p2189a87ede)">
     <use xlink:href="#m4f88c7f890" x="423.467734" y="301.932" style="fill: #1f77b4; stroke: #1f77b4"/>
     <use xlink:href="#m4f88c7f890" x="301.17118" y="296.72122" style="fill: #1f77b4; stroke: #1f77b4"/>
     <use xlink:href="#m4f88c7f890" x="285.08534" y="279.281289" style="fill: #1f77b4; stroke: #1f77b4"/>
     <use xlink:href="#m4f88c7f890" x="172.857734" y="301.932" style="fill: #1f77b4; stroke: #1f77b4"/>
     <use xlink:href="#m4f88c7f890" x="235.510234" y="410.449313" style="fill: #1f77b4; stroke: #1f77b4"/>
     <use xlink:href="#m4f88c7f890" x="360.815234" y="410.449313" style="fill: #1f77b4; stroke: #1f77b4"/>
     <use xlink:href="#m4f88c7f890" x="423.467734" y="301.932" style="fill: #1f77b4; stroke: #1f77b4"/>
    </g>
   </g>
   <g id="line2d_13">
    <path d="M 423.467734 301.932 
L 423.467734 84.897374 
L 172.857734 84.897374 
L 172.857734 301.932 
L 235.510234 410.449313 
L 360.815234 410.449313 
L 423.467734 301.932 
" clip-path="url(#p2189a87ede)" style="fill: none; stroke: #ff7f0e; stroke-width: 2; stroke-linecap: square"/>
    <defs>
     <path id="m0b93f1ca1e" d="M 0 3 
C 0.795609 3 1.55874 2.683901 2.12132 2.12132 
C 2.683901 1.55874 3 0.795609 3 0 
C 3 -0.795609 2.683901 -1.55874 2.12132 -2.12132 
C 1.55874 -2.683901 0.795609 -3 0 -3 
C -0.795609 -3 -1.55874 -2.683901 -2.12132 -2.12132 
C -2.683901 -1.55874 -3 -0.795609 -3 0 
C -3 0.795609 -2.683901 1.55874 -2.12132 2.12132 
C -1.55874 2.683901 -0.795609 3 0 3 
z
" style="stroke: #ff7f0e"/>
    </defs>
    <g clip-path="url(#p2189a87ede)">
     <use xlink:href="#m0b93f1ca1e" x="423.467734" y="301.932" style="fill: #ff7f0e; stroke: #ff7f0e"/>
     <use xlink:href="#m0b93f1ca1e" x="423.467734" y="84.897374" style="fill: #ff7f0e; stroke: #ff7f0e"/>
     <use xlink:href="#m0b93f1ca1e" x="172.857734" y="84.897374" style="fill: #ff7f0e; stroke: #ff7f0e"/>
     <use xlink:href="#m0b93f1ca1e" x="172.857734" y="301.932" style="fill: #ff7f0e; stroke: #ff7f0e"/>
     <use xlink:href="#m0b93f1ca1e" x="235.510234" y="410.449313" style="fill: #ff7f0e; stroke: #ff7f0e"/>
     <use xlink:href="#m0b93f1ca1e" x="360.815234" y="410.449313" style="fill: #ff7f0e; stroke: #ff7f0e"/>
     <use xlink:href="#m0b93f1ca1e" x="423.467734" y="301.932" style="fill: #ff7f0e; stroke: #ff7f0e"/>
    </g>
   </g>
   <g id="line2d_14">
    <path d="M 423.467734 301.932 
L 298.162734 301.932 
L 298.162734 301.932 
L 172.857734 301.932 
L 235.510234 410.449313 
L 360.815234 410.449313 
L 423.467734 301.932 
" clip-path="url(#p2189a87ede)" style="fill: none; stroke: #2ca02c; stroke-width: 2; stroke-linecap: square"/>
    <defs>
     <path id="m9bc14e70e8" d="M 0 3 
C 0.795609 3 1.55874 2.683901 2.12132 2.12132 
C 2.683901 1.55874 3 0.795609 3 0 
C 3 -0.795609 2.683901 -1.55874 2.12132 -2.12132 
C 1.55874 -2.683901 0.795609 -3 0 -3 
C -0.795609 -3 -1.55874 -2.683901 -2.12132 -2.12132 
C -2.683901 -1.55874 -3 -0.795609 -3 0 
C -3 0.795609 -2.683901 1.55874 -2.12132 2.12132 
C -1.55874 2.683901 -0.795609 3 0 3 
z
" style="stroke: #2ca02c"/>
    </defs>
    <g clip-path="url(#p2189a87ede)">
     <use xlink:href="#m9bc14e70e8" x="423.467734" y="301.932" style="fill: #2ca02c; stroke: #2ca02c"/>
     <use xlink:href="#m9bc14e70e8" x="298.162734" y="301.932" style="fill: #2ca02c; stroke: #2ca02c"/>
     <use xlink:href="#m9bc14e70e8" x="298.162734" y="301.932" style="fill: #2ca02c; stroke: #2ca02c"/>
     <use xlink:href="#m9bc14e70e8" x="172.857734" y="301.932" style="fill: #2ca02c; stroke: #2ca02c"/>
     <use xlink:href="#m9bc14e70e8" x="235.510234" y="410.449313" style="fill: #2ca02c; stroke: #2ca02c"/>
     <use xlink:href="#m9bc14e70e8" x="360.815234" y="410.449313" style="fill: #2ca02c; stroke: #2ca02c"/>
     <use xlink:href="#m9bc14e70e8" x="423.467734" y="301.932" style="fill: #2ca02c; stroke: #2ca02c"/>
    </g>
   </g>
   <g id="patch_6">
    <path d="M 548.772734 301.932 
C 548.772734 269.022196 542.290221 236.432399 529.696184 206.027705 
C 517.102147 175.623011 498.64151 147.994715 475.370765 124.72397 
C 452.100019 101.453224 424.471723 82.992587 394.067029 70.39855 
C 363.662335 57.804514 331.072538 51.322 298.162734 51.322 
C 265.252931 51.322 232.663133 57.804514 202.258439 70.39855 
C 171.853745 82.992587 144.225449 101.453224 120.954704 124.72397 
C 97.683959 147.994715 79.223321 175.623011 66.629285 206.027705 
C 54.035248 236.432399 47.552734 269.022196 47.552734 301.932 
C 47.552734 334.841804 54.035248 367.431601 66.629285 397.836295 
C 79.223321 428.240989 97.683959 455.869285 120.954704 479.14003 
C 144.225449 502.410776 171.853745 520.871413 202.258439 533.46545 
C 232.663133 546.059486 265.252931 552.542 298.162734 552.542 
C 331.072538 552.542 363.662335 546.059486 394.067029 533.46545 
C 424.471723 520.871413 452.100019 502.410776 475.370765 479.14003 
C 498.64151 455.869285 517.102147 428.240989 529.696184 397.836295 
C 542.290221 367.431601 548.772734 334.841804 548.772734 301.932 
" style="fill: none; stroke: #000000; stroke-width: 0.8; stroke-linejoin: miter; stroke-linecap: square"/>
   </g>
   <g id="text_12">
    <!-- Framework Comparison - 6 Key Metrics -->
    <g transform="translate(141.746484 31.322) scale(0.16 -0.16)">
     <defs>
      <path id="DejaVuSans-46" d="M 628 4666 
L 3309 4666 
L 3309 4134 
L 1259 4134 
L 1259 2759 
L 3109 2759 
L 3109 2228 
L 1259 2228 
L 1259 0 
L 628 0 
L 628 4666 
z
" transform="scale(0.015625)"/>
      <path id="DejaVuSans-77" d="M 269 3500 
L 844 3500 
L 1563 769 
L 2278 3500 
L 2956 3500 
L 3675 769 
L 4391 3500 
L 4966 3500 
L 4050 0 
L 3372 0 
L 2619 2869 
L 1863 0 
L 1184 0 
L 269 3500 
z
" transform="scale(0.015625)"/>
      <path id="DejaVuSans-2d" d="M 313 2009 
L 1997 2009 
L 1997 1497 
L 313 1497 
L 313 2009 
z
" transform="scale(0.015625)"/>
      <path id="DejaVuSans-4b" d="M 628 4666 
L 1259 4666 
L 1259 2694 
L 3353 4666 
L 4166 4666 
L 1850 2491 
L 4331 0 
L 3500 0 
L 1259 2247 
L 1259 0 
L 628 0 
L 628 4666 
z
" transform="scale(0.015625)"/>
     </defs>
     <use xlink:href="#DejaVuSans-46"/>
     <use xlink:href="#DejaVuSans-72" x="50.269531"/>
     <use xlink:href="#DejaVuSans-61" x="91.382812"/>
     <use xlink:href="#DejaVuSans-6d" x="152.662109"/>
     <use xlink:href="#DejaVuSans-65" x="250.074219"/>
     <use xlink:href="#DejaVuSans-77" x="311.597656"/>
     <use xlink:href="#DejaVuSans-6f" x="393.384766"/>
     <use xlink:href="#DejaVuSans-72" x="454.566406"/>
     <use xlink:href="#DejaVuSans-6b" x="495.679688"/>
     <use xlink:href="#DejaVuSans-20" x="553.589844"/>
     <use xlink:href="#DejaVuSans-43" x="585.376953"/>
     <use xlink:href="#DejaVuSans-6f" x="655.201172"/>
     <use xlink:href="#DejaVuSans-6d" x="716.382812"/>
     <use xlink:href="#DejaVuSans-70" x="813.794922"/>
     <use xlink:href="#DejaVuSans-61" x="877.271484"/>
     <use xlink:href="#DejaVuSans-72" x="938.550781"/>
     <use xlink:href="#DejaVuSans-69" x="979.664062"/>
     <use xlink:href="#DejaVuSans-73" x="1007.447266"/>
     <use xlink:href="#DejaVuSans-6f" x="1059.546875"/>
     <use xlink:href="#DejaVuSans-6e" x="1120.728516"/>
     <use xlink:href="#DejaVuSans-20" x="1184.107422"/>
     <use xlink:href="#DejaVuSans-2d" x="1215.894531"/>
     <use xlink:href="#DejaVuSans-20" x="1251.978516"/>
     <use xlink:href="#DejaVuSans-36" x="1283.765625"/>
     <use xlink:href="#DejaVuSans-20" x="1347.388672"/>
     <use xlink:href="#DejaVuSans-4b" x="1379.175781"/>
     <use xlink:href="#DejaVuSans-65" x="1439.751953"/>
     <use xlink:href="#DejaVuSans-79" x="1501.275391"/>
     <use xlink:href="#DejaVuSans-20" x="1560.455078"/>
     <use xlink:href="#DejaVuSans-4d" x="1592.242188"/>
     <use xlink:href="#DejaVuSans-65" x="1678.521484"/>
     <use xlink:href="#DejaVuSans-74" x="1740.044922"/>
     <use xlink:href="#DejaVuSans-72" x="1779.253906"/>
     <use xlink:href="#DejaVuSans-69" x="1820.367188"/>
     <use xlink:href="#DejaVuSans-63" x="1848.150391"/>
     <use xlink:href="#DejaVuSans-73" x="1903.130859"/>
    </g>
   </g>
   <g id="legend_1">
    <g id="patch_7">
     <path d="M 603.973109 63.64125 
L 690.738734 63.64125 
Q 693.138734 63.64125 693.138734 61.24125 
L 693.138734 9.6 
Q 693.138734 7.2 690.738734 7.2 
L 603.973109 7.2 
Q 601.573109 7.2 601.573109 9.6 
L 601.573109 61.24125 
Q 601.573109 63.64125 603.973109 63.64125 
z
" style="fill: #ffffff; opacity: 0.8; stroke: #cccccc; stroke-linejoin: miter"/>
    </g>
    <g id="line2d_15">
     <path d="M 606.373109 16.918125 
L 618.373109 16.918125 
L 630.373109 16.918125 
" style="fill: none; stroke: #1f77b4; stroke-width: 2; stroke-linecap: square"/>
     <g>
      <use xlink:href="#m4f88c7f890" x="618.373109" y="16.918125" style="fill: #1f77b4; stroke: #1f77b4"/>
     </g>
    </g>
    <g id="text_13">
     <!-- ghspec -->
     <g transform="translate(639.973109 21.118125) scale(0.12 -0.12)">
      <defs>
       <path id="DejaVuSans-68" d="M 3513 2113 
L 3513 0 
L 2938 0 
L 2938 2094 
Q 2938 2591 2744 2837 
Q 2550 3084 2163 3084 
Q 1697 3084 1428 2787 
Q 1159 2491 1159 1978 
L 1159 0 
L 581 0 
L 581 4863 
L 1159 4863 
L 1159 2956 
Q 1366 3272 1645 3428 
Q 1925 3584 2291 3584 
Q 2894 3584 3203 3211 
Q 3513 2838 3513 2113 
z
" transform="scale(0.015625)"/>
      </defs>
      <use xlink:href="#DejaVuSans-67"/>
      <use xlink:href="#DejaVuSans-68" x="63.476562"/>
      <use xlink:href="#DejaVuSans-73" x="126.855469"/>
      <use xlink:href="#DejaVuSans-70" x="178.955078"/>
      <use xlink:href="#DejaVuSans-65" x="242.431641"/>
      <use xlink:href="#DejaVuSans-63" x="303.955078"/>
     </g>
    </g>
    <g id="line2d_16">
     <path d="M 606.373109 34.531875 
L 618.373109 34.531875 
L 630.373109 34.531875 
" style="fill: none; stroke: #ff7f0e; stroke-width: 2; stroke-linecap: square"/>
     <g>
      <use xlink:href="#m0b93f1ca1e" x="618.373109" y="34.531875" style="fill: #ff7f0e; stroke: #ff7f0e"/>
     </g>
    </g>
    <g id="text_14">
     <!-- chatdev -->
     <g transform="translate(639.973109 38.731875) scale(0.12 -0.12)">
      <use xlink:href="#DejaVuSans-63"/>
      <use xlink:href="#DejaVuSans-68" x="54.980469"/>
      <use xlink:href="#DejaVuSans-61" x="118.359375"/>
      <use xlink:href="#DejaVuSans-74" x="179.638672"/>
      <use xlink:href="#DejaVuSans-64" x="218.847656"/>
      <use xlink:href="#DejaVuSans-65" x="282.324219"/>
      <use xlink:href="#DejaVuSans-76" x="343.847656"/>
     </g>
    </g>
    <g id="line2d_17">
     <path d="M 606.373109 52.145625 
L 618.373109 52.145625 
L 630.373109 52.145625 
" style="fill: none; stroke: #2ca02c; stroke-width: 2; stroke-linecap: square"/>
     <g>
      <use xlink:href="#m9bc14e70e8" x="618.373109" y="52.145625" style="fill: #2ca02c; stroke: #2ca02c"/>
     </g>
    </g>
    <g id="text_15">
     <!-- baes -->
     <g transform="translate(639.973109 56.345625) scale(0.12 -0.12)">
      <defs>
       <path id="DejaVuSans-62" d="M 3116 1747 
Q 3116 2381 2855 2742 
Q 2594 3103 2138 3103 
Q 1681 3103 1420 2742 
Q 1159 2381 1159 1747 
Q 1159 1113 1420 752 
Q 1681 391 2138 391 
Q 2594 391 2855 752 
Q 3116 1113 3116 1747 
z
M 1159 2969 
Q 1341 3281 1617 3432 
Q 1894 3584 2278 3584 
Q 2916 3584 3314 3078 
Q 3713 2572 3713 1747 
Q 3713 922 3314 415 
Q 2916 -91 2278 -91 
Q 1894 -91 1617 61 
Q 1341 213 1159 525 
L 1159 0 
L 581 0 
L 581 4863 
L 1159 4863 
L 1159 2969 
z
" transform="scale(0.015625)"/>
      </defs>
      <use xlink:href="#DejaVuSans-62"/>
      <use xlink:href="#DejaVuSans-61" x="63.476562"/>
      <use xlink:href="#DejaVuSans-65" x="124.755859"/>
      <use xlink:href="#DejaVuSans-73" x="186.279297"/>
     </g>
    </g>
   </g>
  </g>
 </g>
 <defs>
  <clipPath id="p2189a87ede">
   <path d="M 548.772734 301.932 
C 548.772734 269.022196 542.290221 236.432399 529.696184 206.027705 
C 517.102147 175.623011 498.64151 147.994715 475.370765 124.72397 
C 452.100019 101.453224 424.471723 82.992587 394.067029 70.39855 
C 363.662335 57.804514 331.072538 51.322 298.162734 51.322 
C 265.252931 51.322 232.663133 57.804514 202.258439 70.39855 
C 171.853745 82.992587 144.225449 101.453224 120.954704 124.72397 
C 97.683959 147.994715 79.223321 175.623011 66.629285 206.027705 
C 54.035248 236.432399 47.552734 269.022196 47.552734 301.932 
C 47.552734 334.841804 54.035248 367.431601 66.629285 397.836295 
C 79.223321 428.240989 97.683959 455.869285 120.954704 479.14003 
C 144.225449 502.410776 171.853745 520.871413 202.258439 533.46545 
C 232.663133 546.059486 265.252931 552.542 298.162734 552.542 
C 331.072538 552.542 363.662335 546.059486 394.067029 533.46545 
C 424.471723 520.871413 452.100019 502.410776 475.370765 479.14003 
C 498.64151 455.869285 517.102147 428.240989 529.696184 397.836295 
C 542.290221 367.431601 548.772734 334.841804 548.772734 301.932 
M 298.162734 301.932 
C 298.162734 301.932 298.162734 301.932 298.162734 301.932 
C 298.162734 301.932 298.162734 301.932 298.162734 301.932 
C 298.162734 301.932 298.162734 301.932 298.162734 301.932 
C 298.162734 301.932 298.162734 301.932 298.162734 301.932 
C 298.162734 301.932 298.162734 301.932 298.162734 301.932 
C 298.162734 301.932 298.162734 301.932 298.162734 301.932 
C 298.162734 301.932 298.162734 301.932 298.162734 301.932 
C 298.162734 301.932 298.162734 301.932 298.162734 301.932 
C 298.162734 301.932 298.162734 301.932 298.162734 301.932 
C 298.162734 301.932 298.162734 301.932 298.162734 301.932 
C 298.162734 301.932 298.162734 301.932 298.162734 301.932 
C 298.162734 301.932 298.162734 301.932 298.162734 301.932 
C 298.162734 301.932 298.162734 301.932 298.162734 301.932 
C 298.162734 301.932 298.162734 301.932 298.162734 301.932 
C 298.162734 301.932 298.162734 301.932 298.162734 301.932 
C 298.162734 301.932 298.162734 301.932 298.162734 301.932 
z
"/>
  </clipPath>
 </defs>
</svg>
