<?xml version="1.0" encoding="utf-8" standalone="no"?>
<!DOCTYPE svg PUBLIC "-//W3C//DTD SVG 1.1//EN"
  "http://www.w3.org/Graphics/SVG/1.1/DTD/svg11.dtd">
<svg xmlns:xlink="http://www.w3.org/1999/xlink" width="856.829375pt" height="568.905pt" viewBox="0 0 856.829375 568.905" xmlns="http://www.w3.org/2000/svg" version="1.1">
 <metadata>
  <rdf:RDF xmlns:dc="http://purl.org/dc/elements/1.1/" xmlns:cc="http://creativecommons.org/ns#" xmlns:rdf="http://www.w3.org/1999/02/22-rdf-syntax-ns#">
   <cc:Work>
    <dc:type rdf:resource="http://purl.org/dc/dcmitype/StillImage"/>
    <dc:date>2025-10-18T06:54:01.758402</dc:date>
    <dc:format>image/svg+xml</dc:format>
    <dc:creator>
     <cc:Agent>
      <dc:title>Matplotlib v3.8.0, https://matplotlib.org/</dc:title>
     </cc:Agent>
    </dc:creator>
   </cc:Work>
  </rdf:RDF>
 </metadata>
 <defs>
  <style type="text/css">*{stroke-linejoin: round; stroke-linecap: butt}</style>
 </defs>
 <g id="figure_1">
  <g id="patch_1">
   <path d="M 0 568.905 
L 856.829375 568.905 
L 856.829375 0 
L 0 0 
z
" style="fill: #ffffff"/>
  </g>
  <g id="axes_1">
   <g id="patch_2">
    <path d="M 57.199375 527.4775 
L 849.629375 527.4775 
L 849.629375 39.3575 
L 57.199375 39.3575 
z
" style="fill: #ffffff"/>
   </g>
   <g id="matplotlib.axis_1">
    <g id="xtick_1">
     <g id="line2d_1">
      <defs>
       <path id="m3f46fd4d49" d="M 0 0 
L 0 3.5 
" style="stroke: #000000; stroke-width: 0.8"/>
      </defs>
      <g>
       <use xlink:href="#m3f46fd4d49" x="189.271042" y="527.4775" style="stroke: #000000; stroke-width: 0.8"/>
      </g>
     </g>
     <g id="text_1">
      <!-- baes -->
      <g transform="translate(177.35151 542.075938) scale(0.1 -0.1)">
       <defs>
        <path id="DejaVuSans-62" d="M 3116 1747 
Q 3116 2381 2855 2742 
Q 2594 3103 2138 3103 
Q 1681 3103 1420 2742 
Q 1159 2381 1159 1747 
Q 1159 1113 1420 752 
Q 1681 391 2138 391 
Q 2594 391 2855 752 
Q 3116 1113 3116 1747 
z
M 1159 2969 
Q 1341 3281 1617 3432 
Q 1894 3584 2278 3584 
Q 2916 3584 3314 3078 
Q 3713 2572 3713 1747 
Q 3713 922 3314 415 
Q 2916 -91 2278 -91 
Q 1894 -91 1617 61 
Q 1341 213 1159 525 
L 1159 0 
L 581 0 
L 581 4863 
L 1159 4863 
L 1159 2969 
z
" transform="scale(0.015625)"/>
        <path id="DejaVuSans-61" d="M 2194 1759 
Q 1497 1759 1228 1600 
Q 959 1441 959 1056 
Q 959 750 1161 570 
Q 1363 391 1709 391 
Q 2188 391 2477 730 
Q 2766 1069 2766 1631 
L 2766 1759 
L 2194 1759 
z
M 3341 1997 
L 3341 0 
L 2766 0 
L 2766 531 
Q 2569 213 2275 61 
Q 1981 -91 1556 -91 
Q 1019 -91 701 211 
Q 384 513 384 1019 
Q 384 1609 779 1909 
Q 1175 2209 1959 2209 
L 2766 2209 
L 2766 2266 
Q 2766 2663 2505 2880 
Q 2244 3097 1772 3097 
Q 1472 3097 1187 3025 
Q 903 2953 641 2809 
L 641 3341 
Q 956 3463 1253 3523 
Q 1550 3584 1831 3584 
Q 2591 3584 2966 3190 
Q 3341 2797 3341 1997 
z
" transform="scale(0.015625)"/>
        <path id="DejaVuSans-65" d="M 3597 1894 
L 3597 1613 
L 953 1613 
Q 991 1019 1311 708 
Q 1631 397 2203 397 
Q 2534 397 2845 478 
Q 3156 559 3463 722 
L 3463 178 
Q 3153 47 2828 -22 
Q 2503 -91 2169 -91 
Q 1331 -91 842 396 
Q 353 884 353 1716 
Q 353 2575 817 3079 
Q 1281 3584 2069 3584 
Q 2775 3584 3186 3129 
Q 3597 2675 3597 1894 
z
M 3022 2063 
Q 3016 2534 2758 2815 
Q 2500 3097 2075 3097 
Q 1594 3097 1305 2825 
Q 1016 2553 972 2059 
L 3022 2063 
z
" transform="scale(0.015625)"/>
        <path id="DejaVuSans-73" d="M 2834 3397 
L 2834 2853 
Q 2591 2978 2328 3040 
Q 2066 3103 1784 3103 
Q 1356 3103 1142 2972 
Q 928 2841 928 2578 
Q 928 2378 1081 2264 
Q 1234 2150 1697 2047 
L 1894 2003 
Q 2506 1872 2764 1633 
Q 3022 1394 3022 966 
Q 3022 478 2636 193 
Q 2250 -91 1575 -91 
Q 1294 -91 989 -36 
Q 684 19 347 128 
L 347 722 
Q 666 556 975 473 
Q 1284 391 1588 391 
Q 1994 391 2212 530 
Q 2431 669 2431 922 
Q 2431 1156 2273 1281 
Q 2116 1406 1581 1522 
L 1381 1569 
Q 847 1681 609 1914 
Q 372 2147 372 2553 
Q 372 3047 722 3315 
Q 1072 3584 1716 3584 
Q 2034 3584 2315 3537 
Q 2597 3491 2834 3397 
z
" transform="scale(0.015625)"/>
       </defs>
       <use xlink:href="#DejaVuSans-62"/>
       <use xlink:href="#DejaVuSans-61" x="63.476562"/>
       <use xlink:href="#DejaVuSans-65" x="124.755859"/>
       <use xlink:href="#DejaVuSans-73" x="186.279297"/>
      </g>
     </g>
    </g>
    <g id="xtick_2">
     <g id="line2d_2">
      <g>
       <use xlink:href="#m3f46fd4d49" x="453.414375" y="527.4775" style="stroke: #000000; stroke-width: 0.8"/>
      </g>
     </g>
     <g id="text_2">
      <!-- chatdev -->
      <g transform="translate(433.262031 542.075938) scale(0.1 -0.1)">
       <defs>
        <path id="DejaVuSans-63" d="M 3122 3366 
L 3122 2828 
Q 2878 2963 2633 3030 
Q 2388 3097 2138 3097 
Q 1578 3097 1268 2742 
Q 959 2388 959 1747 
Q 959 1106 1268 751 
Q 1578 397 2138 397 
Q 2388 397 2633 464 
Q 2878 531 3122 666 
L 3122 134 
Q 2881 22 2623 -34 
Q 2366 -91 2075 -91 
Q 1284 -91 818 406 
Q 353 903 353 1747 
Q 353 2603 823 3093 
Q 1294 3584 2113 3584 
Q 2378 3584 2631 3529 
Q 2884 3475 3122 3366 
z
" transform="scale(0.015625)"/>
        <path id="DejaVuSans-68" d="M 3513 2113 
L 3513 0 
L 2938 0 
L 2938 2094 
Q 2938 2591 2744 2837 
Q 2550 3084 2163 3084 
Q 1697 3084 1428 2787 
Q 1159 2491 1159 1978 
L 1159 0 
L 581 0 
L 581 4863 
L 1159 4863 
L 1159 2956 
Q 1366 3272 1645 3428 
Q 1925 3584 2291 3584 
Q 2894 3584 3203 3211 
Q 3513 2838 3513 2113 
z
" transform="scale(0.015625)"/>
        <path id="DejaVuSans-74" d="M 1172 4494 
L 1172 3500 
L 2356 3500 
L 2356 3053 
L 1172 3053 
L 1172 1153 
Q 1172 725 1289 603 
Q 1406 481 1766 481 
L 2356 481 
L 2356 0 
L 1766 0 
Q 1100 0 847 248 
Q 594 497 594 1153 
L 594 3053 
L 172 3053 
L 172 3500 
L 594 3500 
L 594 4494 
L 1172 4494 
z
" transform="scale(0.015625)"/>
        <path id="DejaVuSans-64" d="M 2906 2969 
L 2906 4863 
L 3481 4863 
L 3481 0 
L 2906 0 
L 2906 525 
Q 2725 213 2448 61 
Q 2172 -91 1784 -91 
Q 1150 -91 751 415 
Q 353 922 353 1747 
Q 353 2572 751 3078 
Q 1150 3584 1784 3584 
Q 2172 3584 2448 3432 
Q 2725 3281 2906 2969 
z
M 947 1747 
Q 947 1113 1208 752 
Q 1469 391 1925 391 
Q 2381 391 2643 752 
Q 2906 1113 2906 1747 
Q 2906 2381 2643 2742 
Q 2381 3103 1925 3103 
Q 1469 3103 1208 2742 
Q 947 2381 947 1747 
z
" transform="scale(0.015625)"/>
        <path id="DejaVuSans-76" d="M 191 3500 
L 800 3500 
L 1894 563 
L 2988 3500 
L 3597 3500 
L 2284 0 
L 1503 0 
L 191 3500 
z
" transform="scale(0.015625)"/>
       </defs>
       <use xlink:href="#DejaVuSans-63"/>
       <use xlink:href="#DejaVuSans-68" x="54.980469"/>
       <use xlink:href="#DejaVuSans-61" x="118.359375"/>
       <use xlink:href="#DejaVuSans-74" x="179.638672"/>
       <use xlink:href="#DejaVuSans-64" x="218.847656"/>
       <use xlink:href="#DejaVuSans-65" x="282.324219"/>
       <use xlink:href="#DejaVuSans-76" x="343.847656"/>
      </g>
     </g>
    </g>
    <g id="xtick_3">
     <g id="line2d_3">
      <g>
       <use xlink:href="#m3f46fd4d49" x="717.557708" y="527.4775" style="stroke: #000000; stroke-width: 0.8"/>
      </g>
     </g>
     <g id="text_3">
      <!-- ghspec -->
      <g transform="translate(699.610052 542.075938) scale(0.1 -0.1)">
       <defs>
        <path id="DejaVuSans-67" d="M 2906 1791 
Q 2906 2416 2648 2759 
Q 2391 3103 1925 3103 
Q 1463 3103 1205 2759 
Q 947 2416 947 1791 
Q 947 1169 1205 825 
Q 1463 481 1925 481 
Q 2391 481 2648 825 
Q 2906 1169 2906 1791 
z
M 3481 434 
Q 3481 -459 3084 -895 
Q 2688 -1331 1869 -1331 
Q 1566 -1331 1297 -1286 
Q 1028 -1241 775 -1147 
L 775 -588 
Q 1028 -725 1275 -790 
Q 1522 -856 1778 -856 
Q 2344 -856 2625 -561 
Q 2906 -266 2906 331 
L 2906 616 
Q 2728 306 2450 153 
Q 2172 0 1784 0 
Q 1141 0 747 490 
Q 353 981 353 1791 
Q 353 2603 747 3093 
Q 1141 3584 1784 3584 
Q 2172 3584 2450 3431 
Q 2728 3278 2906 2969 
L 2906 3500 
L 3481 3500 
L 3481 434 
z
" transform="scale(0.015625)"/>
        <path id="DejaVuSans-70" d="M 1159 525 
L 1159 -1331 
L 581 -1331 
L 581 3500 
L 1159 3500 
L 1159 2969 
Q 1341 3281 1617 3432 
Q 1894 3584 2278 3584 
Q 2916 3584 3314 3078 
Q 3713 2572 3713 1747 
Q 3713 922 3314 415 
Q 2916 -91 2278 -91 
Q 1894 -91 1617 61 
Q 1341 213 1159 525 
z
M 3116 1747 
Q 3116 2381 2855 2742 
Q 2594 3103 2138 3103 
Q 1681 3103 1420 2742 
Q 1159 2381 1159 1747 
Q 1159 1113 1420 752 
Q 1681 391 2138 391 
Q 2594 391 2855 752 
Q 3116 1113 3116 1747 
z
" transform="scale(0.015625)"/>
       </defs>
       <use xlink:href="#DejaVuSans-67"/>
       <use xlink:href="#DejaVuSans-68" x="63.476562"/>
       <use xlink:href="#DejaVuSans-73" x="126.855469"/>
       <use xlink:href="#DejaVuSans-70" x="178.955078"/>
       <use xlink:href="#DejaVuSans-65" x="242.431641"/>
       <use xlink:href="#DejaVuSans-63" x="303.955078"/>
      </g>
     </g>
    </g>
    <g id="text_4">
     <!-- Framework -->
     <g transform="translate(409.477344 558.793437) scale(0.14 -0.14)">
      <defs>
       <path id="DejaVuSans-Bold-46" d="M 588 4666 
L 3834 4666 
L 3834 3756 
L 1791 3756 
L 1791 2888 
L 3713 2888 
L 3713 1978 
L 1791 1978 
L 1791 0 
L 588 0 
L 588 4666 
z
" transform="scale(0.015625)"/>
       <path id="DejaVuSans-Bold-72" d="M 3138 2547 
Q 2991 2616 2845 2648 
Q 2700 2681 2553 2681 
Q 2122 2681 1889 2404 
Q 1656 2128 1656 1613 
L 1656 0 
L 538 0 
L 538 3500 
L 1656 3500 
L 1656 2925 
Q 1872 3269 2151 3426 
Q 2431 3584 2822 3584 
Q 2878 3584 2943 3579 
Q 3009 3575 3134 3559 
L 3138 2547 
z
" transform="scale(0.015625)"/>
       <path id="DejaVuSans-Bold-61" d="M 2106 1575 
Q 1756 1575 1579 1456 
Q 1403 1338 1403 1106 
Q 1403 894 1545 773 
Q 1688 653 1941 653 
Q 2256 653 2472 879 
Q 2688 1106 2688 1447 
L 2688 1575 
L 2106 1575 
z
M 3816 1997 
L 3816 0 
L 2688 0 
L 2688 519 
Q 2463 200 2181 54 
Q 1900 -91 1497 -91 
Q 953 -91 614 226 
Q 275 544 275 1050 
Q 275 1666 698 1953 
Q 1122 2241 2028 2241 
L 2688 2241 
L 2688 2328 
Q 2688 2594 2478 2717 
Q 2269 2841 1825 2841 
Q 1466 2841 1156 2769 
Q 847 2697 581 2553 
L 581 3406 
Q 941 3494 1303 3539 
Q 1666 3584 2028 3584 
Q 2975 3584 3395 3211 
Q 3816 2838 3816 1997 
z
" transform="scale(0.015625)"/>
       <path id="DejaVuSans-Bold-6d" d="M 3781 2919 
Q 3994 3244 4286 3414 
Q 4578 3584 4928 3584 
Q 5531 3584 5847 3212 
Q 6163 2841 6163 2131 
L 6163 0 
L 5038 0 
L 5038 1825 
Q 5041 1866 5042 1909 
Q 5044 1953 5044 2034 
Q 5044 2406 4934 2573 
Q 4825 2741 4581 2741 
Q 4263 2741 4089 2478 
Q 3916 2216 3909 1719 
L 3909 0 
L 2784 0 
L 2784 1825 
Q 2784 2406 2684 2573 
Q 2584 2741 2328 2741 
Q 2006 2741 1831 2477 
Q 1656 2213 1656 1722 
L 1656 0 
L 531 0 
L 531 3500 
L 1656 3500 
L 1656 2988 
Q 1863 3284 2130 3434 
Q 2397 3584 2719 3584 
Q 3081 3584 3359 3409 
Q 3638 3234 3781 2919 
z
" transform="scale(0.015625)"/>
       <path id="DejaVuSans-Bold-65" d="M 4031 1759 
L 4031 1441 
L 1416 1441 
Q 1456 1047 1700 850 
Q 1944 653 2381 653 
Q 2734 653 3104 758 
Q 3475 863 3866 1075 
L 3866 213 
Q 3469 63 3072 -14 
Q 2675 -91 2278 -91 
Q 1328 -91 801 392 
Q 275 875 275 1747 
Q 275 2603 792 3093 
Q 1309 3584 2216 3584 
Q 3041 3584 3536 3087 
Q 4031 2591 4031 1759 
z
M 2881 2131 
Q 2881 2450 2695 2645 
Q 2509 2841 2209 2841 
Q 1884 2841 1681 2658 
Q 1478 2475 1428 2131 
L 2881 2131 
z
" transform="scale(0.015625)"/>
       <path id="DejaVuSans-Bold-77" d="M 225 3500 
L 1313 3500 
L 1900 1088 
L 2491 3500 
L 3425 3500 
L 4013 1113 
L 4603 3500 
L 5691 3500 
L 4769 0 
L 3547 0 
L 2956 2406 
L 2369 0 
L 1147 0 
L 225 3500 
z
" transform="scale(0.015625)"/>
       <path id="DejaVuSans-Bold-6f" d="M 2203 2784 
Q 1831 2784 1636 2517 
Q 1441 2250 1441 1747 
Q 1441 1244 1636 976 
Q 1831 709 2203 709 
Q 2569 709 2762 976 
Q 2956 1244 2956 1747 
Q 2956 2250 2762 2517 
Q 2569 2784 2203 2784 
z
M 2203 3584 
Q 3106 3584 3614 3096 
Q 4122 2609 4122 1747 
Q 4122 884 3614 396 
Q 3106 -91 2203 -91 
Q 1297 -91 786 396 
Q 275 884 275 1747 
Q 275 2609 786 3096 
Q 1297 3584 2203 3584 
z
" transform="scale(0.015625)"/>
       <path id="DejaVuSans-Bold-6b" d="M 538 4863 
L 1656 4863 
L 1656 2216 
L 2944 3500 
L 4244 3500 
L 2534 1894 
L 4378 0 
L 3022 0 
L 1656 1459 
L 1656 0 
L 538 0 
L 538 4863 
z
" transform="scale(0.015625)"/>
      </defs>
      <use xlink:href="#DejaVuSans-Bold-46"/>
      <use xlink:href="#DejaVuSans-Bold-72" x="61.935547"/>
      <use xlink:href="#DejaVuSans-Bold-61" x="111.251953"/>
      <use xlink:href="#DejaVuSans-Bold-6d" x="178.732422"/>
      <use xlink:href="#DejaVuSans-Bold-65" x="282.931641"/>
      <use xlink:href="#DejaVuSans-Bold-77" x="350.753906"/>
      <use xlink:href="#DejaVuSans-Bold-6f" x="443.136719"/>
      <use xlink:href="#DejaVuSans-Bold-72" x="511.837891"/>
      <use xlink:href="#DejaVuSans-Bold-6b" x="561.154297"/>
     </g>
    </g>
   </g>
   <g id="matplotlib.axis_2">
    <g id="ytick_1">
     <g id="line2d_4">
      <path d="M 57.199375 516.55073 
L 849.629375 516.55073 
" clip-path="url(#pbc7adf82fa)" style="fill: none; stroke-dasharray: 2.96,1.28; stroke-dashoffset: 0; stroke: #b0b0b0; stroke-opacity: 0.3; stroke-width: 0.8"/>
     </g>
     <g id="line2d_5">
      <defs>
       <path id="m2c64206956" d="M 0 0 
L -3.5 0 
" style="stroke: #000000; stroke-width: 0.8"/>
      </defs>
      <g>
       <use xlink:href="#m2c64206956" x="57.199375" y="516.55073" style="stroke: #000000; stroke-width: 0.8"/>
      </g>
     </g>
     <g id="text_5">
      <!-- 0 -->
      <g transform="translate(43.836875 520.349949) scale(0.1 -0.1)">
       <defs>
        <path id="DejaVuSans-30" d="M 2034 4250 
Q 1547 4250 1301 3770 
Q 1056 3291 1056 2328 
Q 1056 1369 1301 889 
Q 1547 409 2034 409 
Q 2525 409 2770 889 
Q 3016 1369 3016 2328 
Q 3016 3291 2770 3770 
Q 2525 4250 2034 4250 
z
M 2034 4750 
Q 2819 4750 3233 4129 
Q 3647 3509 3647 2328 
Q 3647 1150 3233 529 
Q 2819 -91 2034 -91 
Q 1250 -91 836 529 
Q 422 1150 422 2328 
Q 422 3509 836 4129 
Q 1250 4750 2034 4750 
z
" transform="scale(0.015625)"/>
       </defs>
       <use xlink:href="#DejaVuSans-30"/>
      </g>
     </g>
    </g>
    <g id="ytick_2">
     <g id="line2d_6">
      <path d="M 57.199375 418.922554 
L 849.629375 418.922554 
" clip-path="url(#pbc7adf82fa)" style="fill: none; stroke-dasharray: 2.96,1.28; stroke-dashoffset: 0; stroke: #b0b0b0; stroke-opacity: 0.3; stroke-width: 0.8"/>
     </g>
     <g id="line2d_7">
      <g>
       <use xlink:href="#m2c64206956" x="57.199375" y="418.922554" style="stroke: #000000; stroke-width: 0.8"/>
      </g>
     </g>
     <g id="text_6">
      <!-- 500 -->
      <g transform="translate(31.111875 422.721773) scale(0.1 -0.1)">
       <defs>
        <path id="DejaVuSans-35" d="M 691 4666 
L 3169 4666 
L 3169 4134 
L 1269 4134 
L 1269 2991 
Q 1406 3038 1543 3061 
Q 1681 3084 1819 3084 
Q 2600 3084 3056 2656 
Q 3513 2228 3513 1497 
Q 3513 744 3044 326 
Q 2575 -91 1722 -91 
Q 1428 -91 1123 -41 
Q 819 9 494 109 
L 494 744 
Q 775 591 1075 516 
Q 1375 441 1709 441 
Q 2250 441 2565 725 
Q 2881 1009 2881 1497 
Q 2881 1984 2565 2268 
Q 2250 2553 1709 2553 
Q 1456 2553 1204 2497 
Q 953 2441 691 2322 
L 691 4666 
z
" transform="scale(0.015625)"/>
       </defs>
       <use xlink:href="#DejaVuSans-35"/>
       <use xlink:href="#DejaVuSans-30" x="63.623047"/>
       <use xlink:href="#DejaVuSans-30" x="127.246094"/>
      </g>
     </g>
    </g>
    <g id="ytick_3">
     <g id="line2d_8">
      <path d="M 57.199375 321.294378 
L 849.629375 321.294378 
" clip-path="url(#pbc7adf82fa)" style="fill: none; stroke-dasharray: 2.96,1.28; stroke-dashoffset: 0; stroke: #b0b0b0; stroke-opacity: 0.3; stroke-width: 0.8"/>
     </g>
     <g id="line2d_9">
      <g>
       <use xlink:href="#m2c64206956" x="57.199375" y="321.294378" style="stroke: #000000; stroke-width: 0.8"/>
      </g>
     </g>
     <g id="text_7">
      <!-- 1000 -->
      <g transform="translate(24.749375 325.093597) scale(0.1 -0.1)">
       <defs>
        <path id="DejaVuSans-31" d="M 794 531 
L 1825 531 
L 1825 4091 
L 703 3866 
L 703 4441 
L 1819 4666 
L 2450 4666 
L 2450 531 
L 3481 531 
L 3481 0 
L 794 0 
L 794 531 
z
" transform="scale(0.015625)"/>
       </defs>
       <use xlink:href="#DejaVuSans-31"/>
       <use xlink:href="#DejaVuSans-30" x="63.623047"/>
       <use xlink:href="#DejaVuSans-30" x="127.246094"/>
       <use xlink:href="#DejaVuSans-30" x="190.869141"/>
      </g>
     </g>
    </g>
    <g id="ytick_4">
     <g id="line2d_10">
      <path d="M 57.199375 223.666202 
L 849.629375 223.666202 
" clip-path="url(#pbc7adf82fa)" style="fill: none; stroke-dasharray: 2.96,1.28; stroke-dashoffset: 0; stroke: #b0b0b0; stroke-opacity: 0.3; stroke-width: 0.8"/>
     </g>
     <g id="line2d_11">
      <g>
       <use xlink:href="#m2c64206956" x="57.199375" y="223.666202" style="stroke: #000000; stroke-width: 0.8"/>
      </g>
     </g>
     <g id="text_8">
      <!-- 1500 -->
      <g transform="translate(24.749375 227.465421) scale(0.1 -0.1)">
       <use xlink:href="#DejaVuSans-31"/>
       <use xlink:href="#DejaVuSans-35" x="63.623047"/>
       <use xlink:href="#DejaVuSans-30" x="127.246094"/>
       <use xlink:href="#DejaVuSans-30" x="190.869141"/>
      </g>
     </g>
    </g>
    <g id="ytick_5">
     <g id="line2d_12">
      <path d="M 57.199375 126.038026 
L 849.629375 126.038026 
" clip-path="url(#pbc7adf82fa)" style="fill: none; stroke-dasharray: 2.96,1.28; stroke-dashoffset: 0; stroke: #b0b0b0; stroke-opacity: 0.3; stroke-width: 0.8"/>
     </g>
     <g id="line2d_13">
      <g>
       <use xlink:href="#m2c64206956" x="57.199375" y="126.038026" style="stroke: #000000; stroke-width: 0.8"/>
      </g>
     </g>
     <g id="text_9">
      <!-- 2000 -->
      <g transform="translate(24.749375 129.837245) scale(0.1 -0.1)">
       <defs>
        <path id="DejaVuSans-32" d="M 1228 531 
L 3431 531 
L 3431 0 
L 469 0 
L 469 531 
Q 828 903 1448 1529 
Q 2069 2156 2228 2338 
Q 2531 2678 2651 2914 
Q 2772 3150 2772 3378 
Q 2772 3750 2511 3984 
Q 2250 4219 1831 4219 
Q 1534 4219 1204 4116 
Q 875 4013 500 3803 
L 500 4441 
Q 881 4594 1212 4672 
Q 1544 4750 1819 4750 
Q 2544 4750 2975 4387 
Q 3406 4025 3406 3419 
Q 3406 3131 3298 2873 
Q 3191 2616 2906 2266 
Q 2828 2175 2409 1742 
Q 1991 1309 1228 531 
z
" transform="scale(0.015625)"/>
       </defs>
       <use xlink:href="#DejaVuSans-32"/>
       <use xlink:href="#DejaVuSans-30" x="63.623047"/>
       <use xlink:href="#DejaVuSans-30" x="127.246094"/>
       <use xlink:href="#DejaVuSans-30" x="190.869141"/>
      </g>
     </g>
    </g>
    <g id="text_10">
     <!-- Execution Time (seconds) -->
     <g transform="translate(17.837813 384.655) rotate(-90) scale(0.14 -0.14)">
      <defs>
       <path id="DejaVuSans-Bold-45" d="M 588 4666 
L 3834 4666 
L 3834 3756 
L 1791 3756 
L 1791 2888 
L 3713 2888 
L 3713 1978 
L 1791 1978 
L 1791 909 
L 3903 909 
L 3903 0 
L 588 0 
L 588 4666 
z
" transform="scale(0.015625)"/>
       <path id="DejaVuSans-Bold-78" d="M 1422 1791 
L 159 3500 
L 1344 3500 
L 2059 2463 
L 2784 3500 
L 3969 3500 
L 2706 1797 
L 4031 0 
L 2847 0 
L 2059 1106 
L 1281 0 
L 97 0 
L 1422 1791 
z
" transform="scale(0.015625)"/>
       <path id="DejaVuSans-Bold-63" d="M 3366 3391 
L 3366 2478 
Q 3138 2634 2908 2709 
Q 2678 2784 2431 2784 
Q 1963 2784 1702 2511 
Q 1441 2238 1441 1747 
Q 1441 1256 1702 982 
Q 1963 709 2431 709 
Q 2694 709 2930 787 
Q 3166 866 3366 1019 
L 3366 103 
Q 3103 6 2833 -42 
Q 2563 -91 2291 -91 
Q 1344 -91 809 395 
Q 275 881 275 1747 
Q 275 2613 809 3098 
Q 1344 3584 2291 3584 
Q 2566 3584 2833 3536 
Q 3100 3488 3366 3391 
z
" transform="scale(0.015625)"/>
       <path id="DejaVuSans-Bold-75" d="M 500 1363 
L 500 3500 
L 1625 3500 
L 1625 3150 
Q 1625 2866 1622 2436 
Q 1619 2006 1619 1863 
Q 1619 1441 1641 1255 
Q 1663 1069 1716 984 
Q 1784 875 1895 815 
Q 2006 756 2150 756 
Q 2500 756 2700 1025 
Q 2900 1294 2900 1772 
L 2900 3500 
L 4019 3500 
L 4019 0 
L 2900 0 
L 2900 506 
Q 2647 200 2364 54 
Q 2081 -91 1741 -91 
Q 1134 -91 817 281 
Q 500 653 500 1363 
z
" transform="scale(0.015625)"/>
       <path id="DejaVuSans-Bold-74" d="M 1759 4494 
L 1759 3500 
L 2913 3500 
L 2913 2700 
L 1759 2700 
L 1759 1216 
Q 1759 972 1856 886 
Q 1953 800 2241 800 
L 2816 800 
L 2816 0 
L 1856 0 
Q 1194 0 917 276 
Q 641 553 641 1216 
L 641 2700 
L 84 2700 
L 84 3500 
L 641 3500 
L 641 4494 
L 1759 4494 
z
" transform="scale(0.015625)"/>
       <path id="DejaVuSans-Bold-69" d="M 538 3500 
L 1656 3500 
L 1656 0 
L 538 0 
L 538 3500 
z
M 538 4863 
L 1656 4863 
L 1656 3950 
L 538 3950 
L 538 4863 
z
" transform="scale(0.015625)"/>
       <path id="DejaVuSans-Bold-6e" d="M 4056 2131 
L 4056 0 
L 2931 0 
L 2931 347 
L 2931 1631 
Q 2931 2084 2911 2256 
Q 2891 2428 2841 2509 
Q 2775 2619 2662 2680 
Q 2550 2741 2406 2741 
Q 2056 2741 1856 2470 
Q 1656 2200 1656 1722 
L 1656 0 
L 538 0 
L 538 3500 
L 1656 3500 
L 1656 2988 
Q 1909 3294 2193 3439 
Q 2478 3584 2822 3584 
Q 3428 3584 3742 3212 
Q 4056 2841 4056 2131 
z
" transform="scale(0.015625)"/>
       <path id="DejaVuSans-Bold-20" transform="scale(0.015625)"/>
       <path id="DejaVuSans-Bold-54" d="M 31 4666 
L 4331 4666 
L 4331 3756 
L 2784 3756 
L 2784 0 
L 1581 0 
L 1581 3756 
L 31 3756 
L 31 4666 
z
" transform="scale(0.015625)"/>
       <path id="DejaVuSans-Bold-28" d="M 2413 -844 
L 1484 -844 
Q 1006 -72 778 623 
Q 550 1319 550 2003 
Q 550 2688 779 3389 
Q 1009 4091 1484 4856 
L 2413 4856 
Q 2013 4116 1813 3408 
Q 1613 2700 1613 2009 
Q 1613 1319 1811 609 
Q 2009 -100 2413 -844 
z
" transform="scale(0.015625)"/>
       <path id="DejaVuSans-Bold-73" d="M 3272 3391 
L 3272 2541 
Q 2913 2691 2578 2766 
Q 2244 2841 1947 2841 
Q 1628 2841 1473 2761 
Q 1319 2681 1319 2516 
Q 1319 2381 1436 2309 
Q 1553 2238 1856 2203 
L 2053 2175 
Q 2913 2066 3209 1816 
Q 3506 1566 3506 1031 
Q 3506 472 3093 190 
Q 2681 -91 1863 -91 
Q 1516 -91 1145 -36 
Q 775 19 384 128 
L 384 978 
Q 719 816 1070 734 
Q 1422 653 1784 653 
Q 2113 653 2278 743 
Q 2444 834 2444 1013 
Q 2444 1163 2330 1236 
Q 2216 1309 1875 1350 
L 1678 1375 
Q 931 1469 631 1722 
Q 331 1975 331 2491 
Q 331 3047 712 3315 
Q 1094 3584 1881 3584 
Q 2191 3584 2531 3537 
Q 2872 3491 3272 3391 
z
" transform="scale(0.015625)"/>
       <path id="DejaVuSans-Bold-64" d="M 2919 2988 
L 2919 4863 
L 4044 4863 
L 4044 0 
L 2919 0 
L 2919 506 
Q 2688 197 2409 53 
Q 2131 -91 1766 -91 
Q 1119 -91 703 423 
Q 288 938 288 1747 
Q 288 2556 703 3070 
Q 1119 3584 1766 3584 
Q 2128 3584 2408 3439 
Q 2688 3294 2919 2988 
z
M 2181 722 
Q 2541 722 2730 984 
Q 2919 1247 2919 1747 
Q 2919 2247 2730 2509 
Q 2541 2772 2181 2772 
Q 1825 2772 1636 2509 
Q 1447 2247 1447 1747 
Q 1447 1247 1636 984 
Q 1825 722 2181 722 
z
" transform="scale(0.015625)"/>
       <path id="DejaVuSans-Bold-29" d="M 513 -844 
Q 913 -100 1113 609 
Q 1313 1319 1313 2009 
Q 1313 2700 1113 3408 
Q 913 4116 513 4856 
L 1441 4856 
Q 1916 4091 2145 3389 
Q 2375 2688 2375 2003 
Q 2375 1319 2147 623 
Q 1919 -72 1441 -844 
L 513 -844 
z
" transform="scale(0.015625)"/>
      </defs>
      <use xlink:href="#DejaVuSans-Bold-45"/>
      <use xlink:href="#DejaVuSans-Bold-78" x="68.310547"/>
      <use xlink:href="#DejaVuSans-Bold-65" x="132.8125"/>
      <use xlink:href="#DejaVuSans-Bold-63" x="200.634766"/>
      <use xlink:href="#DejaVuSans-Bold-75" x="259.912109"/>
      <use xlink:href="#DejaVuSans-Bold-74" x="331.103516"/>
      <use xlink:href="#DejaVuSans-Bold-69" x="378.90625"/>
      <use xlink:href="#DejaVuSans-Bold-6f" x="413.183594"/>
      <use xlink:href="#DejaVuSans-Bold-6e" x="481.884766"/>
      <use xlink:href="#DejaVuSans-Bold-20" x="553.076172"/>
      <use xlink:href="#DejaVuSans-Bold-54" x="587.890625"/>
      <use xlink:href="#DejaVuSans-Bold-69" x="656.103516"/>
      <use xlink:href="#DejaVuSans-Bold-6d" x="690.380859"/>
      <use xlink:href="#DejaVuSans-Bold-65" x="794.580078"/>
      <use xlink:href="#DejaVuSans-Bold-20" x="862.402344"/>
      <use xlink:href="#DejaVuSans-Bold-28" x="897.216797"/>
      <use xlink:href="#DejaVuSans-Bold-73" x="942.919922"/>
      <use xlink:href="#DejaVuSans-Bold-65" x="1002.441406"/>
      <use xlink:href="#DejaVuSans-Bold-63" x="1070.263672"/>
      <use xlink:href="#DejaVuSans-Bold-6f" x="1129.541016"/>
      <use xlink:href="#DejaVuSans-Bold-6e" x="1198.242188"/>
      <use xlink:href="#DejaVuSans-Bold-64" x="1269.433594"/>
      <use xlink:href="#DejaVuSans-Bold-73" x="1341.015625"/>
      <use xlink:href="#DejaVuSans-Bold-29" x="1400.537109"/>
     </g>
    </g>
   </g>
   <g id="PathCollection_1">
    <defs>
     <path id="m4ec4b4ec72" d="M 0 3.535534 
C 0.937635 3.535534 1.836992 3.163008 2.5 2.5 
C 3.163008 1.836992 3.535534 0.937635 3.535534 0 
C 3.535534 -0.937635 3.163008 -1.836992 2.5 -2.5 
C 1.836992 -3.163008 0.937635 -3.535534 0 -3.535534 
C -0.937635 -3.535534 -1.836992 -3.163008 -2.5 -2.5 
C -3.163008 -1.836992 -3.535534 -0.937635 -3.535534 0 
C -3.535534 0.937635 -3.163008 1.836992 -2.5 2.5 
C -1.836992 3.163008 -0.937635 3.535534 0 3.535534 
z
" style="stroke: #000000; stroke-opacity: 0.4; stroke-width: 0.5"/>
    </defs>
    <g clip-path="url(#pbc7adf82fa)">
     <use xlink:href="#m4ec4b4ec72" x="212.289834" y="475.594957" style="fill: #1f77b4; fill-opacity: 0.4; stroke: #000000; stroke-opacity: 0.4; stroke-width: 0.5"/>
     <use xlink:href="#m4ec4b4ec72" x="188.028794" y="472.765566" style="fill: #1f77b4; fill-opacity: 0.4; stroke: #000000; stroke-opacity: 0.4; stroke-width: 0.5"/>
     <use xlink:href="#m4ec4b4ec72" x="201.151019" y="479.437243" style="fill: #1f77b4; fill-opacity: 0.4; stroke: #000000; stroke-opacity: 0.4; stroke-width: 0.5"/>
     <use xlink:href="#m4ec4b4ec72" x="176.661558" y="477.737804" style="fill: #1f77b4; fill-opacity: 0.4; stroke: #000000; stroke-opacity: 0.4; stroke-width: 0.5"/>
     <use xlink:href="#m4ec4b4ec72" x="184.106358" y="480.895031" style="fill: #1f77b4; fill-opacity: 0.4; stroke: #000000; stroke-opacity: 0.4; stroke-width: 0.5"/>
     <use xlink:href="#m4ec4b4ec72" x="188.57064" y="465.276724" style="fill: #1f77b4; fill-opacity: 0.4; stroke: #000000; stroke-opacity: 0.4; stroke-width: 0.5"/>
     <use xlink:href="#m4ec4b4ec72" x="180.709744" y="480.668108" style="fill: #1f77b4; fill-opacity: 0.4; stroke: #000000; stroke-opacity: 0.4; stroke-width: 0.5"/>
     <use xlink:href="#m4ec4b4ec72" x="216.443018" y="473.215558" style="fill: #1f77b4; fill-opacity: 0.4; stroke: #000000; stroke-opacity: 0.4; stroke-width: 0.5"/>
     <use xlink:href="#m4ec4b4ec72" x="171.692148" y="486.129849" style="fill: #1f77b4; fill-opacity: 0.4; stroke: #000000; stroke-opacity: 0.4; stroke-width: 0.5"/>
     <use xlink:href="#m4ec4b4ec72" x="181.661364" y="490.058072" style="fill: #1f77b4; fill-opacity: 0.4; stroke: #000000; stroke-opacity: 0.4; stroke-width: 0.5"/>
     <use xlink:href="#m4ec4b4ec72" x="188.419485" y="481.964395" style="fill: #1f77b4; fill-opacity: 0.4; stroke: #000000; stroke-opacity: 0.4; stroke-width: 0.5"/>
     <use xlink:href="#m4ec4b4ec72" x="196.223177" y="489.680442" style="fill: #1f77b4; fill-opacity: 0.4; stroke: #000000; stroke-opacity: 0.4; stroke-width: 0.5"/>
     <use xlink:href="#m4ec4b4ec72" x="183.294517" y="488.14079" style="fill: #1f77b4; fill-opacity: 0.4; stroke: #000000; stroke-opacity: 0.4; stroke-width: 0.5"/>
     <use xlink:href="#m4ec4b4ec72" x="206.196471" y="488.805856" style="fill: #1f77b4; fill-opacity: 0.4; stroke: #000000; stroke-opacity: 0.4; stroke-width: 0.5"/>
     <use xlink:href="#m4ec4b4ec72" x="186.059342" y="483.619745" style="fill: #1f77b4; fill-opacity: 0.4; stroke: #000000; stroke-opacity: 0.4; stroke-width: 0.5"/>
     <use xlink:href="#m4ec4b4ec72" x="198.423406" y="488.636401" style="fill: #1f77b4; fill-opacity: 0.4; stroke: #000000; stroke-opacity: 0.4; stroke-width: 0.5"/>
     <use xlink:href="#m4ec4b4ec72" x="197.575878" y="487.085332" style="fill: #1f77b4; fill-opacity: 0.4; stroke: #000000; stroke-opacity: 0.4; stroke-width: 0.5"/>
     <use xlink:href="#m4ec4b4ec72" x="177.862688" y="483.200214" style="fill: #1f77b4; fill-opacity: 0.4; stroke: #000000; stroke-opacity: 0.4; stroke-width: 0.5"/>
     <use xlink:href="#m4ec4b4ec72" x="193.205405" y="485.103973" style="fill: #1f77b4; fill-opacity: 0.4; stroke: #000000; stroke-opacity: 0.4; stroke-width: 0.5"/>
     <use xlink:href="#m4ec4b4ec72" x="200.685061" y="484.109438" style="fill: #1f77b4; fill-opacity: 0.4; stroke: #000000; stroke-opacity: 0.4; stroke-width: 0.5"/>
     <use xlink:href="#m4ec4b4ec72" x="205.803785" y="479.060067" style="fill: #1f77b4; fill-opacity: 0.4; stroke: #000000; stroke-opacity: 0.4; stroke-width: 0.5"/>
     <use xlink:href="#m4ec4b4ec72" x="201.078048" y="480.106554" style="fill: #1f77b4; fill-opacity: 0.4; stroke: #000000; stroke-opacity: 0.4; stroke-width: 0.5"/>
     <use xlink:href="#m4ec4b4ec72" x="186.369553" y="475.938282" style="fill: #1f77b4; fill-opacity: 0.4; stroke: #000000; stroke-opacity: 0.4; stroke-width: 0.5"/>
     <use xlink:href="#m4ec4b4ec72" x="178.047834" y="436.099996" style="fill: #1f77b4; fill-opacity: 0.4; stroke: #000000; stroke-opacity: 0.4; stroke-width: 0.5"/>
     <use xlink:href="#m4ec4b4ec72" x="189.86785" y="469.588371" style="fill: #1f77b4; fill-opacity: 0.4; stroke: #000000; stroke-opacity: 0.4; stroke-width: 0.5"/>
     <use xlink:href="#m4ec4b4ec72" x="175.846065" y="471.302361" style="fill: #1f77b4; fill-opacity: 0.4; stroke: #000000; stroke-opacity: 0.4; stroke-width: 0.5"/>
     <use xlink:href="#m4ec4b4ec72" x="183.611578" y="482.059121" style="fill: #1f77b4; fill-opacity: 0.4; stroke: #000000; stroke-opacity: 0.4; stroke-width: 0.5"/>
     <use xlink:href="#m4ec4b4ec72" x="184.824168" y="479.617159" style="fill: #1f77b4; fill-opacity: 0.4; stroke: #000000; stroke-opacity: 0.4; stroke-width: 0.5"/>
     <use xlink:href="#m4ec4b4ec72" x="183.522791" y="483.728194" style="fill: #1f77b4; fill-opacity: 0.4; stroke: #000000; stroke-opacity: 0.4; stroke-width: 0.5"/>
     <use xlink:href="#m4ec4b4ec72" x="173.830817" y="485.561615" style="fill: #1f77b4; fill-opacity: 0.4; stroke: #000000; stroke-opacity: 0.4; stroke-width: 0.5"/>
     <use xlink:href="#m4ec4b4ec72" x="199.183093" y="484.651591" style="fill: #1f77b4; fill-opacity: 0.4; stroke: #000000; stroke-opacity: 0.4; stroke-width: 0.5"/>
     <use xlink:href="#m4ec4b4ec72" x="169.853946" y="488.483442" style="fill: #1f77b4; fill-opacity: 0.4; stroke: #000000; stroke-opacity: 0.4; stroke-width: 0.5"/>
     <use xlink:href="#m4ec4b4ec72" x="203.195771" y="487.708474" style="fill: #1f77b4; fill-opacity: 0.4; stroke: #000000; stroke-opacity: 0.4; stroke-width: 0.5"/>
     <use xlink:href="#m4ec4b4ec72" x="197.955299" y="490.447771" style="fill: #1f77b4; fill-opacity: 0.4; stroke: #000000; stroke-opacity: 0.4; stroke-width: 0.5"/>
     <use xlink:href="#m4ec4b4ec72" x="206.52314" y="490.688485" style="fill: #1f77b4; fill-opacity: 0.4; stroke: #000000; stroke-opacity: 0.4; stroke-width: 0.5"/>
     <use xlink:href="#m4ec4b4ec72" x="184.776794" y="490.476571" style="fill: #1f77b4; fill-opacity: 0.4; stroke: #000000; stroke-opacity: 0.4; stroke-width: 0.5"/>
     <use xlink:href="#m4ec4b4ec72" x="199.760412" y="492.303803" style="fill: #1f77b4; fill-opacity: 0.4; stroke: #000000; stroke-opacity: 0.4; stroke-width: 0.5"/>
     <use xlink:href="#m4ec4b4ec72" x="184.238586" y="490.532461" style="fill: #1f77b4; fill-opacity: 0.4; stroke: #000000; stroke-opacity: 0.4; stroke-width: 0.5"/>
     <use xlink:href="#m4ec4b4ec72" x="172.344158" y="490.481881" style="fill: #1f77b4; fill-opacity: 0.4; stroke: #000000; stroke-opacity: 0.4; stroke-width: 0.5"/>
     <use xlink:href="#m4ec4b4ec72" x="192.871807" y="490.820654" style="fill: #1f77b4; fill-opacity: 0.4; stroke: #000000; stroke-opacity: 0.4; stroke-width: 0.5"/>
     <use xlink:href="#m4ec4b4ec72" x="179.724184" y="487.160608" style="fill: #1f77b4; fill-opacity: 0.4; stroke: #000000; stroke-opacity: 0.4; stroke-width: 0.5"/>
     <use xlink:href="#m4ec4b4ec72" x="190.970211" y="491.021577" style="fill: #1f77b4; fill-opacity: 0.4; stroke: #000000; stroke-opacity: 0.4; stroke-width: 0.5"/>
     <use xlink:href="#m4ec4b4ec72" x="190.678347" y="490.474743" style="fill: #1f77b4; fill-opacity: 0.4; stroke: #000000; stroke-opacity: 0.4; stroke-width: 0.5"/>
     <use xlink:href="#m4ec4b4ec72" x="188.691012" y="492.669165" style="fill: #1f77b4; fill-opacity: 0.4; stroke: #000000; stroke-opacity: 0.4; stroke-width: 0.5"/>
     <use xlink:href="#m4ec4b4ec72" x="186.607912" y="487.962181" style="fill: #1f77b4; fill-opacity: 0.4; stroke: #000000; stroke-opacity: 0.4; stroke-width: 0.5"/>
     <use xlink:href="#m4ec4b4ec72" x="185.38076" y="492.245451" style="fill: #1f77b4; fill-opacity: 0.4; stroke: #000000; stroke-opacity: 0.4; stroke-width: 0.5"/>
     <use xlink:href="#m4ec4b4ec72" x="190.701468" y="488.120463" style="fill: #1f77b4; fill-opacity: 0.4; stroke: #000000; stroke-opacity: 0.4; stroke-width: 0.5"/>
     <use xlink:href="#m4ec4b4ec72" x="180.650063" y="493.911732" style="fill: #1f77b4; fill-opacity: 0.4; stroke: #000000; stroke-opacity: 0.4; stroke-width: 0.5"/>
    </g>
   </g>
   <g id="PathCollection_2">
    <defs>
     <path id="mcb733c661a" d="M 0 3.535534 
C 0.937635 3.535534 1.836992 3.163008 2.5 2.5 
C 3.163008 1.836992 3.535534 0.937635 3.535534 0 
C 3.535534 -0.937635 3.163008 -1.836992 2.5 -2.5 
C 1.836992 -3.163008 0.937635 -3.535534 0 -3.535534 
C -0.937635 -3.535534 -1.836992 -3.163008 -2.5 -2.5 
C -3.163008 -1.836992 -3.535534 -0.937635 -3.535534 0 
C -3.535534 0.937635 -3.163008 1.836992 -2.5 2.5 
C -1.836992 3.163008 -0.937635 3.535534 0 3.535534 
z
" style="stroke: #000000; stroke-opacity: 0.4; stroke-width: 0.5"/>
    </defs>
    <g clip-path="url(#pbc7adf82fa)">
     <use xlink:href="#mcb733c661a" x="457.938969" y="128.374692" style="fill: #ff7f0e; fill-opacity: 0.4; stroke: #000000; stroke-opacity: 0.4; stroke-width: 0.5"/>
     <use xlink:href="#mcb733c661a" x="454.91278" y="159.244791" style="fill: #ff7f0e; fill-opacity: 0.4; stroke: #000000; stroke-opacity: 0.4; stroke-width: 0.5"/>
     <use xlink:href="#mcb733c661a" x="450.292505" y="61.544773" style="fill: #ff7f0e; fill-opacity: 0.4; stroke: #000000; stroke-opacity: 0.4; stroke-width: 0.5"/>
     <use xlink:href="#mcb733c661a" x="436.021383" y="148.235336" style="fill: #ff7f0e; fill-opacity: 0.4; stroke: #000000; stroke-opacity: 0.4; stroke-width: 0.5"/>
     <use xlink:href="#mcb733c661a" x="438.766875" y="138.393494" style="fill: #ff7f0e; fill-opacity: 0.4; stroke: #000000; stroke-opacity: 0.4; stroke-width: 0.5"/>
     <use xlink:href="#mcb733c661a" x="448.940298" y="183.439488" style="fill: #ff7f0e; fill-opacity: 0.4; stroke: #000000; stroke-opacity: 0.4; stroke-width: 0.5"/>
     <use xlink:href="#mcb733c661a" x="456.794757" y="142.49404" style="fill: #ff7f0e; fill-opacity: 0.4; stroke: #000000; stroke-opacity: 0.4; stroke-width: 0.5"/>
     <use xlink:href="#mcb733c661a" x="468.035247" y="234.646174" style="fill: #ff7f0e; fill-opacity: 0.4; stroke: #000000; stroke-opacity: 0.4; stroke-width: 0.5"/>
     <use xlink:href="#mcb733c661a" x="446.515789" y="248.565046" style="fill: #ff7f0e; fill-opacity: 0.4; stroke: #000000; stroke-opacity: 0.4; stroke-width: 0.5"/>
     <use xlink:href="#mcb733c661a" x="461.395459" y="158.178668" style="fill: #ff7f0e; fill-opacity: 0.4; stroke: #000000; stroke-opacity: 0.4; stroke-width: 0.5"/>
     <use xlink:href="#mcb733c661a" x="436.470544" y="222.633029" style="fill: #ff7f0e; fill-opacity: 0.4; stroke: #000000; stroke-opacity: 0.4; stroke-width: 0.5"/>
     <use xlink:href="#mcb733c661a" x="434.217137" y="111.527632" style="fill: #ff7f0e; fill-opacity: 0.4; stroke: #000000; stroke-opacity: 0.4; stroke-width: 0.5"/>
     <use xlink:href="#mcb733c661a" x="457.622352" y="255.395662" style="fill: #ff7f0e; fill-opacity: 0.4; stroke: #000000; stroke-opacity: 0.4; stroke-width: 0.5"/>
     <use xlink:href="#mcb733c661a" x="456.06301" y="274.541246" style="fill: #ff7f0e; fill-opacity: 0.4; stroke: #000000; stroke-opacity: 0.4; stroke-width: 0.5"/>
     <use xlink:href="#mcb733c661a" x="442.065577" y="240.645697" style="fill: #ff7f0e; fill-opacity: 0.4; stroke: #000000; stroke-opacity: 0.4; stroke-width: 0.5"/>
     <use xlink:href="#mcb733c661a" x="474.762692" y="242.630779" style="fill: #ff7f0e; fill-opacity: 0.4; stroke: #000000; stroke-opacity: 0.4; stroke-width: 0.5"/>
     <use xlink:href="#mcb733c661a" x="450.964975" y="175.670402" style="fill: #ff7f0e; fill-opacity: 0.4; stroke: #000000; stroke-opacity: 0.4; stroke-width: 0.5"/>
     <use xlink:href="#mcb733c661a" x="459.239248" y="164.316633" style="fill: #ff7f0e; fill-opacity: 0.4; stroke: #000000; stroke-opacity: 0.4; stroke-width: 0.5"/>
     <use xlink:href="#mcb733c661a" x="459.832059" y="203.694893" style="fill: #ff7f0e; fill-opacity: 0.4; stroke: #000000; stroke-opacity: 0.4; stroke-width: 0.5"/>
     <use xlink:href="#mcb733c661a" x="466.271329" y="105.262441" style="fill: #ff7f0e; fill-opacity: 0.4; stroke: #000000; stroke-opacity: 0.4; stroke-width: 0.5"/>
     <use xlink:href="#mcb733c661a" x="463.803493" y="137.658533" style="fill: #ff7f0e; fill-opacity: 0.4; stroke: #000000; stroke-opacity: 0.4; stroke-width: 0.5"/>
     <use xlink:href="#mcb733c661a" x="438.869643" y="150.047342" style="fill: #ff7f0e; fill-opacity: 0.4; stroke: #000000; stroke-opacity: 0.4; stroke-width: 0.5"/>
     <use xlink:href="#mcb733c661a" x="469.353117" y="189.709217" style="fill: #ff7f0e; fill-opacity: 0.4; stroke: #000000; stroke-opacity: 0.4; stroke-width: 0.5"/>
     <use xlink:href="#mcb733c661a" x="446.437082" y="217.304507" style="fill: #ff7f0e; fill-opacity: 0.4; stroke: #000000; stroke-opacity: 0.4; stroke-width: 0.5"/>
     <use xlink:href="#mcb733c661a" x="455.328796" y="210.694942" style="fill: #ff7f0e; fill-opacity: 0.4; stroke: #000000; stroke-opacity: 0.4; stroke-width: 0.5"/>
     <use xlink:href="#mcb733c661a" x="458.324313" y="244.814784" style="fill: #ff7f0e; fill-opacity: 0.4; stroke: #000000; stroke-opacity: 0.4; stroke-width: 0.5"/>
     <use xlink:href="#mcb733c661a" x="456.471357" y="248.895911" style="fill: #ff7f0e; fill-opacity: 0.4; stroke: #000000; stroke-opacity: 0.4; stroke-width: 0.5"/>
     <use xlink:href="#mcb733c661a" x="437.662717" y="208.079775" style="fill: #ff7f0e; fill-opacity: 0.4; stroke: #000000; stroke-opacity: 0.4; stroke-width: 0.5"/>
     <use xlink:href="#mcb733c661a" x="432.678324" y="209.125446" style="fill: #ff7f0e; fill-opacity: 0.4; stroke: #000000; stroke-opacity: 0.4; stroke-width: 0.5"/>
     <use xlink:href="#mcb733c661a" x="441.706423" y="265.844122" style="fill: #ff7f0e; fill-opacity: 0.4; stroke: #000000; stroke-opacity: 0.4; stroke-width: 0.5"/>
     <use xlink:href="#mcb733c661a" x="445.512451" y="258.418548" style="fill: #ff7f0e; fill-opacity: 0.4; stroke: #000000; stroke-opacity: 0.4; stroke-width: 0.5"/>
     <use xlink:href="#mcb733c661a" x="464.114111" y="282.838077" style="fill: #ff7f0e; fill-opacity: 0.4; stroke: #000000; stroke-opacity: 0.4; stroke-width: 0.5"/>
     <use xlink:href="#mcb733c661a" x="433.766963" y="288.294844" style="fill: #ff7f0e; fill-opacity: 0.4; stroke: #000000; stroke-opacity: 0.4; stroke-width: 0.5"/>
     <use xlink:href="#mcb733c661a" x="457.256591" y="259.388134" style="fill: #ff7f0e; fill-opacity: 0.4; stroke: #000000; stroke-opacity: 0.4; stroke-width: 0.5"/>
     <use xlink:href="#mcb733c661a" x="441.114723" y="292.352377" style="fill: #ff7f0e; fill-opacity: 0.4; stroke: #000000; stroke-opacity: 0.4; stroke-width: 0.5"/>
     <use xlink:href="#mcb733c661a" x="448.102029" y="299.461654" style="fill: #ff7f0e; fill-opacity: 0.4; stroke: #000000; stroke-opacity: 0.4; stroke-width: 0.5"/>
     <use xlink:href="#mcb733c661a" x="449.766522" y="283.736013" style="fill: #ff7f0e; fill-opacity: 0.4; stroke: #000000; stroke-opacity: 0.4; stroke-width: 0.5"/>
     <use xlink:href="#mcb733c661a" x="455.026952" y="303.968752" style="fill: #ff7f0e; fill-opacity: 0.4; stroke: #000000; stroke-opacity: 0.4; stroke-width: 0.5"/>
     <use xlink:href="#mcb733c661a" x="447.903457" y="262.815695" style="fill: #ff7f0e; fill-opacity: 0.4; stroke: #000000; stroke-opacity: 0.4; stroke-width: 0.5"/>
     <use xlink:href="#mcb733c661a" x="458.606843" y="292.38878" style="fill: #ff7f0e; fill-opacity: 0.4; stroke: #000000; stroke-opacity: 0.4; stroke-width: 0.5"/>
     <use xlink:href="#mcb733c661a" x="453.589773" y="299.585247" style="fill: #ff7f0e; fill-opacity: 0.4; stroke: #000000; stroke-opacity: 0.4; stroke-width: 0.5"/>
     <use xlink:href="#mcb733c661a" x="438.81776" y="316.588376" style="fill: #ff7f0e; fill-opacity: 0.4; stroke: #000000; stroke-opacity: 0.4; stroke-width: 0.5"/>
     <use xlink:href="#mcb733c661a" x="456.64035" y="293.597873" style="fill: #ff7f0e; fill-opacity: 0.4; stroke: #000000; stroke-opacity: 0.4; stroke-width: 0.5"/>
     <use xlink:href="#mcb733c661a" x="433.463306" y="282.239623" style="fill: #ff7f0e; fill-opacity: 0.4; stroke: #000000; stroke-opacity: 0.4; stroke-width: 0.5"/>
     <use xlink:href="#mcb733c661a" x="444.387873" y="310.499198" style="fill: #ff7f0e; fill-opacity: 0.4; stroke: #000000; stroke-opacity: 0.4; stroke-width: 0.5"/>
    </g>
   </g>
   <g id="PathCollection_3">
    <defs>
     <path id="mb90a507247" d="M 0 3.535534 
C 0.937635 3.535534 1.836992 3.163008 2.5 2.5 
C 3.163008 1.836992 3.535534 0.937635 3.535534 0 
C 3.535534 -0.937635 3.163008 -1.836992 2.5 -2.5 
C 1.836992 -3.163008 0.937635 -3.535534 0 -3.535534 
C -0.937635 -3.535534 -1.836992 -3.163008 -2.5 -2.5 
C -3.163008 -1.836992 -3.535534 -0.937635 -3.535534 0 
C -3.535534 0.937635 -3.163008 1.836992 -2.5 2.5 
C -1.836992 3.163008 -0.937635 3.535534 0 3.535534 
z
" style="stroke: #000000; stroke-opacity: 0.4; stroke-width: 0.5"/>
    </defs>
    <g clip-path="url(#pbc7adf82fa)">
     <use xlink:href="#mb90a507247" x="707.58266" y="396.401327" style="fill: #2ca02c; fill-opacity: 0.4; stroke: #000000; stroke-opacity: 0.4; stroke-width: 0.5"/>
     <use xlink:href="#mb90a507247" x="723.426239" y="367.782025" style="fill: #2ca02c; fill-opacity: 0.4; stroke: #000000; stroke-opacity: 0.4; stroke-width: 0.5"/>
     <use xlink:href="#mb90a507247" x="729.087689" y="419.053958" style="fill: #2ca02c; fill-opacity: 0.4; stroke: #000000; stroke-opacity: 0.4; stroke-width: 0.5"/>
     <use xlink:href="#mb90a507247" x="709.51442" y="396.258067" style="fill: #2ca02c; fill-opacity: 0.4; stroke: #000000; stroke-opacity: 0.4; stroke-width: 0.5"/>
     <use xlink:href="#mb90a507247" x="705.733981" y="372.658445" style="fill: #2ca02c; fill-opacity: 0.4; stroke: #000000; stroke-opacity: 0.4; stroke-width: 0.5"/>
     <use xlink:href="#mb90a507247" x="709.634242" y="337.150872" style="fill: #2ca02c; fill-opacity: 0.4; stroke: #000000; stroke-opacity: 0.4; stroke-width: 0.5"/>
     <use xlink:href="#mb90a507247" x="718.345236" y="406.452554" style="fill: #2ca02c; fill-opacity: 0.4; stroke: #000000; stroke-opacity: 0.4; stroke-width: 0.5"/>
     <use xlink:href="#mb90a507247" x="701.934298" y="416.59081" style="fill: #2ca02c; fill-opacity: 0.4; stroke: #000000; stroke-opacity: 0.4; stroke-width: 0.5"/>
     <use xlink:href="#mb90a507247" x="702.265609" y="387.899564" style="fill: #2ca02c; fill-opacity: 0.4; stroke: #000000; stroke-opacity: 0.4; stroke-width: 0.5"/>
     <use xlink:href="#mb90a507247" x="721.691043" y="404.933075" style="fill: #2ca02c; fill-opacity: 0.4; stroke: #000000; stroke-opacity: 0.4; stroke-width: 0.5"/>
     <use xlink:href="#mb90a507247" x="731.374259" y="400.033751" style="fill: #2ca02c; fill-opacity: 0.4; stroke: #000000; stroke-opacity: 0.4; stroke-width: 0.5"/>
     <use xlink:href="#mb90a507247" x="713.908111" y="412.818457" style="fill: #2ca02c; fill-opacity: 0.4; stroke: #000000; stroke-opacity: 0.4; stroke-width: 0.5"/>
     <use xlink:href="#mb90a507247" x="728.515481" y="384.32839" style="fill: #2ca02c; fill-opacity: 0.4; stroke: #000000; stroke-opacity: 0.4; stroke-width: 0.5"/>
     <use xlink:href="#mb90a507247" x="722.03042" y="420.530299" style="fill: #2ca02c; fill-opacity: 0.4; stroke: #000000; stroke-opacity: 0.4; stroke-width: 0.5"/>
     <use xlink:href="#mb90a507247" x="710.259649" y="466.02406" style="fill: #2ca02c; fill-opacity: 0.4; stroke: #000000; stroke-opacity: 0.4; stroke-width: 0.5"/>
     <use xlink:href="#mb90a507247" x="722.519074" y="399.989651" style="fill: #2ca02c; fill-opacity: 0.4; stroke: #000000; stroke-opacity: 0.4; stroke-width: 0.5"/>
     <use xlink:href="#mb90a507247" x="690.453638" y="404.712274" style="fill: #2ca02c; fill-opacity: 0.4; stroke: #000000; stroke-opacity: 0.4; stroke-width: 0.5"/>
     <use xlink:href="#mb90a507247" x="703.23193" y="337.899723" style="fill: #2ca02c; fill-opacity: 0.4; stroke: #000000; stroke-opacity: 0.4; stroke-width: 0.5"/>
     <use xlink:href="#mb90a507247" x="715.66714" y="386.675328" style="fill: #2ca02c; fill-opacity: 0.4; stroke: #000000; stroke-opacity: 0.4; stroke-width: 0.5"/>
     <use xlink:href="#mb90a507247" x="709.386145" y="316.773594" style="fill: #2ca02c; fill-opacity: 0.4; stroke: #000000; stroke-opacity: 0.4; stroke-width: 0.5"/>
     <use xlink:href="#mb90a507247" x="713.973851" y="359.927591" style="fill: #2ca02c; fill-opacity: 0.4; stroke: #000000; stroke-opacity: 0.4; stroke-width: 0.5"/>
     <use xlink:href="#mb90a507247" x="722.143658" y="393.96611" style="fill: #2ca02c; fill-opacity: 0.4; stroke: #000000; stroke-opacity: 0.4; stroke-width: 0.5"/>
     <use xlink:href="#mb90a507247" x="723.882792" y="430.412498" style="fill: #2ca02c; fill-opacity: 0.4; stroke: #000000; stroke-opacity: 0.4; stroke-width: 0.5"/>
     <use xlink:href="#mb90a507247" x="710.267064" y="457.177882" style="fill: #2ca02c; fill-opacity: 0.4; stroke: #000000; stroke-opacity: 0.4; stroke-width: 0.5"/>
     <use xlink:href="#mb90a507247" x="704.319194" y="503.688129" style="fill: #2ca02c; fill-opacity: 0.4; stroke: #000000; stroke-opacity: 0.4; stroke-width: 0.5"/>
     <use xlink:href="#mb90a507247" x="719.024007" y="403.547784" style="fill: #2ca02c; fill-opacity: 0.4; stroke: #000000; stroke-opacity: 0.4; stroke-width: 0.5"/>
     <use xlink:href="#mb90a507247" x="715.521505" y="505.290227" style="fill: #2ca02c; fill-opacity: 0.4; stroke: #000000; stroke-opacity: 0.4; stroke-width: 0.5"/>
     <use xlink:href="#mb90a507247" x="717.772036" y="408.750208" style="fill: #2ca02c; fill-opacity: 0.4; stroke: #000000; stroke-opacity: 0.4; stroke-width: 0.5"/>
     <use xlink:href="#mb90a507247" x="724.736027" y="416.175702" style="fill: #2ca02c; fill-opacity: 0.4; stroke: #000000; stroke-opacity: 0.4; stroke-width: 0.5"/>
     <use xlink:href="#mb90a507247" x="711.335791" y="416.852605" style="fill: #2ca02c; fill-opacity: 0.4; stroke: #000000; stroke-opacity: 0.4; stroke-width: 0.5"/>
     <use xlink:href="#mb90a507247" x="720.135721" y="434.106993" style="fill: #2ca02c; fill-opacity: 0.4; stroke: #000000; stroke-opacity: 0.4; stroke-width: 0.5"/>
     <use xlink:href="#mb90a507247" x="702.492756" y="438.405513" style="fill: #2ca02c; fill-opacity: 0.4; stroke: #000000; stroke-opacity: 0.4; stroke-width: 0.5"/>
     <use xlink:href="#mb90a507247" x="709.185303" y="444.709875" style="fill: #2ca02c; fill-opacity: 0.4; stroke: #000000; stroke-opacity: 0.4; stroke-width: 0.5"/>
     <use xlink:href="#mb90a507247" x="737.275196" y="470.140568" style="fill: #2ca02c; fill-opacity: 0.4; stroke: #000000; stroke-opacity: 0.4; stroke-width: 0.5"/>
     <use xlink:href="#mb90a507247" x="733.033239" y="411.035781" style="fill: #2ca02c; fill-opacity: 0.4; stroke: #000000; stroke-opacity: 0.4; stroke-width: 0.5"/>
     <use xlink:href="#mb90a507247" x="726.448987" y="419.023045" style="fill: #2ca02c; fill-opacity: 0.4; stroke: #000000; stroke-opacity: 0.4; stroke-width: 0.5"/>
     <use xlink:href="#mb90a507247" x="715.884528" y="446.918576" style="fill: #2ca02c; fill-opacity: 0.4; stroke: #000000; stroke-opacity: 0.4; stroke-width: 0.5"/>
     <use xlink:href="#mb90a507247" x="729.819206" y="465.277743" style="fill: #2ca02c; fill-opacity: 0.4; stroke: #000000; stroke-opacity: 0.4; stroke-width: 0.5"/>
     <use xlink:href="#mb90a507247" x="719.386763" y="379.690458" style="fill: #2ca02c; fill-opacity: 0.4; stroke: #000000; stroke-opacity: 0.4; stroke-width: 0.5"/>
     <use xlink:href="#mb90a507247" x="735.511836" y="425.456242" style="fill: #2ca02c; fill-opacity: 0.4; stroke: #000000; stroke-opacity: 0.4; stroke-width: 0.5"/>
     <use xlink:href="#mb90a507247" x="710.657243" y="417.648089" style="fill: #2ca02c; fill-opacity: 0.4; stroke: #000000; stroke-opacity: 0.4; stroke-width: 0.5"/>
     <use xlink:href="#mb90a507247" x="732.940842" y="422.339163" style="fill: #2ca02c; fill-opacity: 0.4; stroke: #000000; stroke-opacity: 0.4; stroke-width: 0.5"/>
    </g>
   </g>
   <g id="patch_3">
    <path d="M 110.028042 490.155497 
L 268.514042 490.155497 
L 268.514042 479.984205 
L 110.028042 479.984205 
L 110.028042 490.155497 
z
" clip-path="url(#pbc7adf82fa)" style="fill: #1f77b4; opacity: 0.7; stroke: #000000; stroke-width: 1.5; stroke-linejoin: miter"/>
   </g>
   <g id="line2d_14">
    <path d="M 189.271042 490.155497 
L 189.271042 493.911732 
" clip-path="url(#pbc7adf82fa)" style="fill: none; stroke: #000000; stroke-width: 1.5; stroke-linecap: square"/>
   </g>
   <g id="line2d_15">
    <path d="M 189.271042 479.984205 
L 189.271042 465.276724 
" clip-path="url(#pbc7adf82fa)" style="fill: none; stroke: #000000; stroke-width: 1.5; stroke-linecap: square"/>
   </g>
   <g id="line2d_16">
    <path d="M 149.649542 493.911732 
L 228.892542 493.911732 
" clip-path="url(#pbc7adf82fa)" style="fill: none; stroke: #000000; stroke-width: 1.5; stroke-linecap: square"/>
   </g>
   <g id="line2d_17">
    <path d="M 149.649542 465.276724 
L 228.892542 465.276724 
" clip-path="url(#pbc7adf82fa)" style="fill: none; stroke: #000000; stroke-width: 1.5; stroke-linecap: square"/>
   </g>
   <g id="line2d_18">
    <defs>
     <path id="mb9c94ea659" d="M 0 4 
C 1.060812 4 2.078319 3.578535 2.828427 2.828427 
C 3.578535 2.078319 4 1.060812 4 0 
C 4 -1.060812 3.578535 -2.078319 2.828427 -2.828427 
C 2.078319 -3.578535 1.060812 -4 0 -4 
C -1.060812 -4 -2.078319 -3.578535 -2.828427 -2.828427 
C -3.578535 -2.078319 -4 -1.060812 -4 0 
C -4 1.060812 -3.578535 2.078319 -2.828427 2.828427 
C -2.078319 3.578535 -1.060812 4 0 4 
z
" style="stroke: #000000; stroke-opacity: 0.5"/>
    </defs>
    <g clip-path="url(#pbc7adf82fa)">
     <use xlink:href="#mb9c94ea659" x="189.271042" y="436.099996" style="fill: #ff0000; fill-opacity: 0.5; stroke: #000000; stroke-opacity: 0.5"/>
    </g>
   </g>
   <g id="patch_4">
    <path d="M 374.171375 282.239623 
L 532.657375 282.239623 
L 532.657375 164.316633 
L 374.171375 164.316633 
L 374.171375 282.239623 
z
" clip-path="url(#pbc7adf82fa)" style="fill: #ff7f0e; opacity: 0.7; stroke: #000000; stroke-width: 1.5; stroke-linejoin: miter"/>
   </g>
   <g id="line2d_19">
    <path d="M 453.414375 282.239623 
L 453.414375 316.588376 
" clip-path="url(#pbc7adf82fa)" style="fill: none; stroke: #000000; stroke-width: 1.5; stroke-linecap: square"/>
   </g>
   <g id="line2d_20">
    <path d="M 453.414375 164.316633 
L 453.414375 61.544773 
" clip-path="url(#pbc7adf82fa)" style="fill: none; stroke: #000000; stroke-width: 1.5; stroke-linecap: square"/>
   </g>
   <g id="line2d_21">
    <path d="M 413.792875 316.588376 
L 493.035875 316.588376 
" clip-path="url(#pbc7adf82fa)" style="fill: none; stroke: #000000; stroke-width: 1.5; stroke-linecap: square"/>
   </g>
   <g id="line2d_22">
    <path d="M 413.792875 61.544773 
L 493.035875 61.544773 
" clip-path="url(#pbc7adf82fa)" style="fill: none; stroke: #000000; stroke-width: 1.5; stroke-linecap: square"/>
   </g>
   <g id="line2d_23"/>
   <g id="patch_5">
    <path d="M 638.314708 429.173434 
L 796.800708 429.173434 
L 796.800708 394.539099 
L 638.314708 394.539099 
L 638.314708 429.173434 
z
" clip-path="url(#pbc7adf82fa)" style="fill: #2ca02c; opacity: 0.7; stroke: #000000; stroke-width: 1.5; stroke-linejoin: miter"/>
   </g>
   <g id="line2d_24">
    <path d="M 717.557708 429.173434 
L 717.557708 470.140568 
" clip-path="url(#pbc7adf82fa)" style="fill: none; stroke: #000000; stroke-width: 1.5; stroke-linecap: square"/>
   </g>
   <g id="line2d_25">
    <path d="M 717.557708 394.539099 
L 717.557708 359.927591 
" clip-path="url(#pbc7adf82fa)" style="fill: none; stroke: #000000; stroke-width: 1.5; stroke-linecap: square"/>
   </g>
   <g id="line2d_26">
    <path d="M 677.936208 470.140568 
L 757.179208 470.140568 
" clip-path="url(#pbc7adf82fa)" style="fill: none; stroke: #000000; stroke-width: 1.5; stroke-linecap: square"/>
   </g>
   <g id="line2d_27">
    <path d="M 677.936208 359.927591 
L 757.179208 359.927591 
" clip-path="url(#pbc7adf82fa)" style="fill: none; stroke: #000000; stroke-width: 1.5; stroke-linecap: square"/>
   </g>
   <g id="line2d_28">
    <g clip-path="url(#pbc7adf82fa)">
     <use xlink:href="#mb9c94ea659" x="717.557708" y="503.688129" style="fill: #ff0000; fill-opacity: 0.5; stroke: #000000; stroke-opacity: 0.5"/>
     <use xlink:href="#mb9c94ea659" x="717.557708" y="505.290227" style="fill: #ff0000; fill-opacity: 0.5; stroke: #000000; stroke-opacity: 0.5"/>
     <use xlink:href="#mb9c94ea659" x="717.557708" y="337.150872" style="fill: #ff0000; fill-opacity: 0.5; stroke: #000000; stroke-opacity: 0.5"/>
     <use xlink:href="#mb9c94ea659" x="717.557708" y="337.899723" style="fill: #ff0000; fill-opacity: 0.5; stroke: #000000; stroke-opacity: 0.5"/>
     <use xlink:href="#mb9c94ea659" x="717.557708" y="316.773594" style="fill: #ff0000; fill-opacity: 0.5; stroke: #000000; stroke-opacity: 0.5"/>
    </g>
   </g>
   <g id="line2d_29">
    <path d="M 110.028042 485.845732 
L 268.514042 485.845732 
" clip-path="url(#pbc7adf82fa)" style="fill: none; stroke: #000000; stroke-width: 2"/>
   </g>
   <g id="line2d_30">
    <defs>
     <path id="m64db75779d" d="M -0 5.656854 
L 5.656854 0 
L 0 -5.656854 
L -5.656854 -0 
z
" style="stroke: #000000; stroke-linejoin: miter"/>
    </defs>
    <g clip-path="url(#pbc7adf82fa)">
     <use xlink:href="#m64db75779d" x="189.271042" y="483.444756" style="fill: #ff0000; stroke: #000000; stroke-linejoin: miter"/>
    </g>
   </g>
   <g id="line2d_31">
    <path d="M 374.171375 240.645697 
L 532.657375 240.645697 
" clip-path="url(#pbc7adf82fa)" style="fill: none; stroke: #000000; stroke-width: 2"/>
   </g>
   <g id="line2d_32">
    <g clip-path="url(#pbc7adf82fa)">
     <use xlink:href="#m64db75779d" x="453.414375" y="222.395171" style="fill: #ff0000; stroke: #000000; stroke-linejoin: miter"/>
    </g>
   </g>
   <g id="line2d_33">
    <path d="M 638.314708 411.927119 
L 796.800708 411.927119 
" clip-path="url(#pbc7adf82fa)" style="fill: none; stroke: #000000; stroke-width: 2"/>
   </g>
   <g id="line2d_34">
    <g clip-path="url(#pbc7adf82fa)">
     <use xlink:href="#m64db75779d" x="717.557708" y="412.035881" style="fill: #ff0000; stroke: #000000; stroke-linejoin: miter"/>
    </g>
   </g>
   <g id="patch_6">
    <path d="M 57.199375 527.4775 
L 57.199375 39.3575 
" style="fill: none; stroke: #000000; stroke-width: 0.8; stroke-linejoin: miter; stroke-linecap: square"/>
   </g>
   <g id="patch_7">
    <path d="M 849.629375 527.4775 
L 849.629375 39.3575 
" style="fill: none; stroke: #000000; stroke-width: 0.8; stroke-linejoin: miter; stroke-linecap: square"/>
   </g>
   <g id="patch_8">
    <path d="M 57.199375 527.4775 
L 849.629375 527.4775 
" style="fill: none; stroke: #000000; stroke-width: 0.8; stroke-linejoin: miter; stroke-linecap: square"/>
   </g>
   <g id="patch_9">
    <path d="M 57.199375 39.3575 
L 849.629375 39.3575 
" style="fill: none; stroke: #000000; stroke-width: 0.8; stroke-linejoin: miter; stroke-linecap: square"/>
   </g>
   <g id="text_11">
    <g id="patch_10">
     <path d="M 189.271042 493.684795 
L 265.186667 493.684795 
Q 268.186667 493.684795 268.186667 490.684795 
L 268.186667 481.00667 
Q 268.186667 478.00667 265.186667 478.00667 
L 189.271042 478.00667 
Q 186.271042 478.00667 186.271042 481.00667 
L 186.271042 490.684795 
Q 186.271042 493.684795 189.271042 493.684795 
z
" style="fill: #ffffff; opacity: 0.8; stroke: #000000; stroke-linejoin: miter"/>
    </g>
    <!--   Med: 157.3s -->
    <g transform="translate(189.271042 488.605107) scale(0.1 -0.1)">
     <defs>
      <path id="DejaVuSans-Bold-4d" d="M 588 4666 
L 2119 4666 
L 3181 2169 
L 4250 4666 
L 5778 4666 
L 5778 0 
L 4641 0 
L 4641 3413 
L 3566 897 
L 2803 897 
L 1728 3413 
L 1728 0 
L 588 0 
L 588 4666 
z
" transform="scale(0.015625)"/>
      <path id="DejaVuSans-Bold-3a" d="M 716 3500 
L 1844 3500 
L 1844 2291 
L 716 2291 
L 716 3500 
z
M 716 1209 
L 1844 1209 
L 1844 0 
L 716 0 
L 716 1209 
z
" transform="scale(0.015625)"/>
      <path id="DejaVuSans-Bold-31" d="M 750 831 
L 1813 831 
L 1813 3847 
L 722 3622 
L 722 4441 
L 1806 4666 
L 2950 4666 
L 2950 831 
L 4013 831 
L 4013 0 
L 750 0 
L 750 831 
z
" transform="scale(0.015625)"/>
      <path id="DejaVuSans-Bold-35" d="M 678 4666 
L 3669 4666 
L 3669 3781 
L 1638 3781 
L 1638 3059 
Q 1775 3097 1914 3117 
Q 2053 3138 2203 3138 
Q 3056 3138 3531 2711 
Q 4006 2284 4006 1522 
Q 4006 766 3489 337 
Q 2972 -91 2053 -91 
Q 1656 -91 1267 -14 
Q 878 63 494 219 
L 494 1166 
Q 875 947 1217 837 
Q 1559 728 1863 728 
Q 2300 728 2551 942 
Q 2803 1156 2803 1522 
Q 2803 1891 2551 2103 
Q 2300 2316 1863 2316 
Q 1603 2316 1309 2248 
Q 1016 2181 678 2041 
L 678 4666 
z
" transform="scale(0.015625)"/>
      <path id="DejaVuSans-Bold-37" d="M 428 4666 
L 3944 4666 
L 3944 3988 
L 2125 0 
L 953 0 
L 2675 3781 
L 428 3781 
L 428 4666 
z
" transform="scale(0.015625)"/>
      <path id="DejaVuSans-Bold-2e" d="M 653 1209 
L 1778 1209 
L 1778 0 
L 653 0 
L 653 1209 
z
" transform="scale(0.015625)"/>
      <path id="DejaVuSans-Bold-33" d="M 2981 2516 
Q 3453 2394 3698 2092 
Q 3944 1791 3944 1325 
Q 3944 631 3412 270 
Q 2881 -91 1863 -91 
Q 1503 -91 1142 -33 
Q 781 25 428 141 
L 428 1069 
Q 766 900 1098 814 
Q 1431 728 1753 728 
Q 2231 728 2486 893 
Q 2741 1059 2741 1369 
Q 2741 1688 2480 1852 
Q 2219 2016 1709 2016 
L 1228 2016 
L 1228 2791 
L 1734 2791 
Q 2188 2791 2409 2933 
Q 2631 3075 2631 3366 
Q 2631 3634 2415 3781 
Q 2200 3928 1806 3928 
Q 1516 3928 1219 3862 
Q 922 3797 628 3669 
L 628 4550 
Q 984 4650 1334 4700 
Q 1684 4750 2022 4750 
Q 2931 4750 3382 4451 
Q 3834 4153 3834 3553 
Q 3834 3144 3618 2883 
Q 3403 2622 2981 2516 
z
" transform="scale(0.015625)"/>
     </defs>
     <use xlink:href="#DejaVuSans-Bold-20"/>
     <use xlink:href="#DejaVuSans-Bold-20" x="34.814453"/>
     <use xlink:href="#DejaVuSans-Bold-4d" x="69.628906"/>
     <use xlink:href="#DejaVuSans-Bold-65" x="169.140625"/>
     <use xlink:href="#DejaVuSans-Bold-64" x="236.962891"/>
     <use xlink:href="#DejaVuSans-Bold-3a" x="308.544922"/>
     <use xlink:href="#DejaVuSans-Bold-20" x="348.535156"/>
     <use xlink:href="#DejaVuSans-Bold-31" x="383.349609"/>
     <use xlink:href="#DejaVuSans-Bold-35" x="452.929688"/>
     <use xlink:href="#DejaVuSans-Bold-37" x="522.509766"/>
     <use xlink:href="#DejaVuSans-Bold-2e" x="592.089844"/>
     <use xlink:href="#DejaVuSans-Bold-33" x="630.078125"/>
     <use xlink:href="#DejaVuSans-Bold-73" x="699.658203"/>
    </g>
   </g>
   <g id="text_12">
    <g id="patch_11">
     <path d="M 189.271042 490.499912 
L 248.005885 490.499912 
Q 250.705885 490.499912 250.705885 487.799912 
L 250.705885 479.089599 
Q 250.705885 476.389599 248.005885 476.389599 
L 189.271042 476.389599 
Q 186.571042 476.389599 186.571042 479.089599 
L 186.571042 487.799912 
Q 186.571042 490.499912 189.271042 490.499912 
z
" style="fill: #ffffe0; opacity: 0.8; stroke: #000000; stroke-linejoin: miter"/>
    </g>
    <!--   Avg: 169.6s -->
    <g style="opacity: 0.7" transform="translate(189.271042 485.928193) scale(0.09 -0.09)">
     <defs>
      <path id="DejaVuSans-20" transform="scale(0.015625)"/>
      <path id="DejaVuSans-41" d="M 2188 4044 
L 1331 1722 
L 3047 1722 
L 2188 4044 
z
M 1831 4666 
L 2547 4666 
L 4325 0 
L 3669 0 
L 3244 1197 
L 1141 1197 
L 716 0 
L 50 0 
L 1831 4666 
z
" transform="scale(0.015625)"/>
      <path id="DejaVuSans-3a" d="M 750 794 
L 1409 794 
L 1409 0 
L 750 0 
L 750 794 
z
M 750 3309 
L 1409 3309 
L 1409 2516 
L 750 2516 
L 750 3309 
z
" transform="scale(0.015625)"/>
      <path id="DejaVuSans-36" d="M 2113 2584 
Q 1688 2584 1439 2293 
Q 1191 2003 1191 1497 
Q 1191 994 1439 701 
Q 1688 409 2113 409 
Q 2538 409 2786 701 
Q 3034 994 3034 1497 
Q 3034 2003 2786 2293 
Q 2538 2584 2113 2584 
z
M 3366 4563 
L 3366 3988 
Q 3128 4100 2886 4159 
Q 2644 4219 2406 4219 
Q 1781 4219 1451 3797 
Q 1122 3375 1075 2522 
Q 1259 2794 1537 2939 
Q 1816 3084 2150 3084 
Q 2853 3084 3261 2657 
Q 3669 2231 3669 1497 
Q 3669 778 3244 343 
Q 2819 -91 2113 -91 
Q 1303 -91 875 529 
Q 447 1150 447 2328 
Q 447 3434 972 4092 
Q 1497 4750 2381 4750 
Q 2619 4750 2861 4703 
Q 3103 4656 3366 4563 
z
" transform="scale(0.015625)"/>
      <path id="DejaVuSans-39" d="M 703 97 
L 703 672 
Q 941 559 1184 500 
Q 1428 441 1663 441 
Q 2288 441 2617 861 
Q 2947 1281 2994 2138 
Q 2813 1869 2534 1725 
Q 2256 1581 1919 1581 
Q 1219 1581 811 2004 
Q 403 2428 403 3163 
Q 403 3881 828 4315 
Q 1253 4750 1959 4750 
Q 2769 4750 3195 4129 
Q 3622 3509 3622 2328 
Q 3622 1225 3098 567 
Q 2575 -91 1691 -91 
Q 1453 -91 1209 -44 
Q 966 3 703 97 
z
M 1959 2075 
Q 2384 2075 2632 2365 
Q 2881 2656 2881 3163 
Q 2881 3666 2632 3958 
Q 2384 4250 1959 4250 
Q 1534 4250 1286 3958 
Q 1038 3666 1038 3163 
Q 1038 2656 1286 2365 
Q 1534 2075 1959 2075 
z
" transform="scale(0.015625)"/>
      <path id="DejaVuSans-2e" d="M 684 794 
L 1344 794 
L 1344 0 
L 684 0 
L 684 794 
z
" transform="scale(0.015625)"/>
     </defs>
     <use xlink:href="#DejaVuSans-20"/>
     <use xlink:href="#DejaVuSans-20" x="31.787109"/>
     <use xlink:href="#DejaVuSans-41" x="63.574219"/>
     <use xlink:href="#DejaVuSans-76" x="126.107422"/>
     <use xlink:href="#DejaVuSans-67" x="185.287109"/>
     <use xlink:href="#DejaVuSans-3a" x="248.763672"/>
     <use xlink:href="#DejaVuSans-20" x="282.455078"/>
     <use xlink:href="#DejaVuSans-31" x="314.242188"/>
     <use xlink:href="#DejaVuSans-36" x="377.865234"/>
     <use xlink:href="#DejaVuSans-39" x="441.488281"/>
     <use xlink:href="#DejaVuSans-2e" x="505.111328"/>
     <use xlink:href="#DejaVuSans-36" x="536.898438"/>
     <use xlink:href="#DejaVuSans-73" x="600.521484"/>
    </g>
   </g>
   <g id="text_13">
    <g id="patch_12">
     <path d="M 453.414375 248.48476 
L 536.287812 248.48476 
Q 539.287812 248.48476 539.287812 245.48476 
L 539.287812 235.806635 
Q 539.287812 232.806635 536.287812 232.806635 
L 453.414375 232.806635 
Q 450.414375 232.806635 450.414375 235.806635 
L 450.414375 245.48476 
Q 450.414375 248.48476 453.414375 248.48476 
z
" style="fill: #ffffff; opacity: 0.8; stroke: #000000; stroke-linejoin: miter"/>
    </g>
    <!--   Med: 1413.0s -->
    <g transform="translate(453.414375 243.405072) scale(0.1 -0.1)">
     <defs>
      <path id="DejaVuSans-Bold-34" d="M 2356 3675 
L 1038 1722 
L 2356 1722 
L 2356 3675 
z
M 2156 4666 
L 3494 4666 
L 3494 1722 
L 4159 1722 
L 4159 850 
L 3494 850 
L 3494 0 
L 2356 0 
L 2356 850 
L 288 850 
L 288 1881 
L 2156 4666 
z
" transform="scale(0.015625)"/>
      <path id="DejaVuSans-Bold-30" d="M 2944 2338 
Q 2944 3213 2780 3570 
Q 2616 3928 2228 3928 
Q 1841 3928 1675 3570 
Q 1509 3213 1509 2338 
Q 1509 1453 1675 1090 
Q 1841 728 2228 728 
Q 2613 728 2778 1090 
Q 2944 1453 2944 2338 
z
M 4147 2328 
Q 4147 1169 3647 539 
Q 3147 -91 2228 -91 
Q 1306 -91 806 539 
Q 306 1169 306 2328 
Q 306 3491 806 4120 
Q 1306 4750 2228 4750 
Q 3147 4750 3647 4120 
Q 4147 3491 4147 2328 
z
" transform="scale(0.015625)"/>
     </defs>
     <use xlink:href="#DejaVuSans-Bold-20"/>
     <use xlink:href="#DejaVuSans-Bold-20" x="34.814453"/>
     <use xlink:href="#DejaVuSans-Bold-4d" x="69.628906"/>
     <use xlink:href="#DejaVuSans-Bold-65" x="169.140625"/>
     <use xlink:href="#DejaVuSans-Bold-64" x="236.962891"/>
     <use xlink:href="#DejaVuSans-Bold-3a" x="308.544922"/>
     <use xlink:href="#DejaVuSans-Bold-20" x="348.535156"/>
     <use xlink:href="#DejaVuSans-Bold-31" x="383.349609"/>
     <use xlink:href="#DejaVuSans-Bold-34" x="452.929688"/>
     <use xlink:href="#DejaVuSans-Bold-31" x="522.509766"/>
     <use xlink:href="#DejaVuSans-Bold-33" x="592.089844"/>
     <use xlink:href="#DejaVuSans-Bold-2e" x="661.669922"/>
     <use xlink:href="#DejaVuSans-Bold-30" x="699.658203"/>
     <use xlink:href="#DejaVuSans-Bold-73" x="769.238281"/>
    </g>
   </g>
   <g id="text_14">
    <g id="patch_13">
     <path d="M 453.414375 229.450327 
L 517.875469 229.450327 
Q 520.575469 229.450327 520.575469 226.750327 
L 520.575469 218.040015 
Q 520.575469 215.340015 517.875469 215.340015 
L 453.414375 215.340015 
Q 450.714375 215.340015 450.714375 218.040015 
L 450.714375 226.750327 
Q 450.714375 229.450327 453.414375 229.450327 
z
" style="fill: #ffffe0; opacity: 0.8; stroke: #000000; stroke-linejoin: miter"/>
    </g>
    <!--   Avg: 1506.5s -->
    <g style="opacity: 0.7" transform="translate(453.414375 224.878608) scale(0.09 -0.09)">
     <use xlink:href="#DejaVuSans-20"/>
     <use xlink:href="#DejaVuSans-20" x="31.787109"/>
     <use xlink:href="#DejaVuSans-41" x="63.574219"/>
     <use xlink:href="#DejaVuSans-76" x="126.107422"/>
     <use xlink:href="#DejaVuSans-67" x="185.287109"/>
     <use xlink:href="#DejaVuSans-3a" x="248.763672"/>
     <use xlink:href="#DejaVuSans-20" x="282.455078"/>
     <use xlink:href="#DejaVuSans-31" x="314.242188"/>
     <use xlink:href="#DejaVuSans-35" x="377.865234"/>
     <use xlink:href="#DejaVuSans-30" x="441.488281"/>
     <use xlink:href="#DejaVuSans-36" x="505.111328"/>
     <use xlink:href="#DejaVuSans-2e" x="568.734375"/>
     <use xlink:href="#DejaVuSans-35" x="600.521484"/>
     <use xlink:href="#DejaVuSans-73" x="664.144531"/>
    </g>
   </g>
   <g id="text_15">
    <g id="patch_14">
     <path d="M 717.557708 419.766182 
L 793.473333 419.766182 
Q 796.473333 419.766182 796.473333 416.766182 
L 796.473333 407.088057 
Q 796.473333 404.088057 793.473333 404.088057 
L 717.557708 404.088057 
Q 714.557708 404.088057 714.557708 407.088057 
L 714.557708 416.766182 
Q 714.557708 419.766182 717.557708 419.766182 
z
" style="fill: #ffffff; opacity: 0.8; stroke: #000000; stroke-linejoin: miter"/>
    </g>
    <!--   Med: 535.8s -->
    <g transform="translate(717.557708 414.686494) scale(0.1 -0.1)">
     <defs>
      <path id="DejaVuSans-Bold-38" d="M 2228 2088 
Q 1891 2088 1709 1903 
Q 1528 1719 1528 1375 
Q 1528 1031 1709 848 
Q 1891 666 2228 666 
Q 2563 666 2741 848 
Q 2919 1031 2919 1375 
Q 2919 1722 2741 1905 
Q 2563 2088 2228 2088 
z
M 1350 2484 
Q 925 2613 709 2878 
Q 494 3144 494 3541 
Q 494 4131 934 4440 
Q 1375 4750 2228 4750 
Q 3075 4750 3515 4442 
Q 3956 4134 3956 3541 
Q 3956 3144 3739 2878 
Q 3522 2613 3097 2484 
Q 3572 2353 3814 2058 
Q 4056 1763 4056 1313 
Q 4056 619 3595 264 
Q 3134 -91 2228 -91 
Q 1319 -91 855 264 
Q 391 619 391 1313 
Q 391 1763 633 2058 
Q 875 2353 1350 2484 
z
M 1631 3419 
Q 1631 3141 1786 2991 
Q 1941 2841 2228 2841 
Q 2509 2841 2662 2991 
Q 2816 3141 2816 3419 
Q 2816 3697 2662 3845 
Q 2509 3994 2228 3994 
Q 1941 3994 1786 3844 
Q 1631 3694 1631 3419 
z
" transform="scale(0.015625)"/>
     </defs>
     <use xlink:href="#DejaVuSans-Bold-20"/>
     <use xlink:href="#DejaVuSans-Bold-20" x="34.814453"/>
     <use xlink:href="#DejaVuSans-Bold-4d" x="69.628906"/>
     <use xlink:href="#DejaVuSans-Bold-65" x="169.140625"/>
     <use xlink:href="#DejaVuSans-Bold-64" x="236.962891"/>
     <use xlink:href="#DejaVuSans-Bold-3a" x="308.544922"/>
     <use xlink:href="#DejaVuSans-Bold-20" x="348.535156"/>
     <use xlink:href="#DejaVuSans-Bold-35" x="383.349609"/>
     <use xlink:href="#DejaVuSans-Bold-33" x="452.929688"/>
     <use xlink:href="#DejaVuSans-Bold-35" x="522.509766"/>
     <use xlink:href="#DejaVuSans-Bold-2e" x="592.089844"/>
     <use xlink:href="#DejaVuSans-Bold-38" x="630.078125"/>
     <use xlink:href="#DejaVuSans-Bold-73" x="699.658203"/>
    </g>
   </g>
   <g id="text_16">
    <g id="patch_15">
     <path d="M 717.557708 419.091037 
L 776.292552 419.091037 
Q 778.992552 419.091037 778.992552 416.391037 
L 778.992552 407.680725 
Q 778.992552 404.980725 776.292552 404.980725 
L 717.557708 404.980725 
Q 714.857708 404.980725 714.857708 407.680725 
L 714.857708 416.391037 
Q 714.857708 419.091037 717.557708 419.091037 
z
" style="fill: #ffffe0; opacity: 0.8; stroke: #000000; stroke-linejoin: miter"/>
    </g>
    <!--   Avg: 535.3s -->
    <g style="opacity: 0.7" transform="translate(717.557708 414.519319) scale(0.09 -0.09)">
     <defs>
      <path id="DejaVuSans-33" d="M 2597 2516 
Q 3050 2419 3304 2112 
Q 3559 1806 3559 1356 
Q 3559 666 3084 287 
Q 2609 -91 1734 -91 
Q 1441 -91 1130 -33 
Q 819 25 488 141 
L 488 750 
Q 750 597 1062 519 
Q 1375 441 1716 441 
Q 2309 441 2620 675 
Q 2931 909 2931 1356 
Q 2931 1769 2642 2001 
Q 2353 2234 1838 2234 
L 1294 2234 
L 1294 2753 
L 1863 2753 
Q 2328 2753 2575 2939 
Q 2822 3125 2822 3475 
Q 2822 3834 2567 4026 
Q 2313 4219 1838 4219 
Q 1578 4219 1281 4162 
Q 984 4106 628 3988 
L 628 4550 
Q 988 4650 1302 4700 
Q 1616 4750 1894 4750 
Q 2613 4750 3031 4423 
Q 3450 4097 3450 3541 
Q 3450 3153 3228 2886 
Q 3006 2619 2597 2516 
z
" transform="scale(0.015625)"/>
     </defs>
     <use xlink:href="#DejaVuSans-20"/>
     <use xlink:href="#DejaVuSans-20" x="31.787109"/>
     <use xlink:href="#DejaVuSans-41" x="63.574219"/>
     <use xlink:href="#DejaVuSans-76" x="126.107422"/>
     <use xlink:href="#DejaVuSans-67" x="185.287109"/>
     <use xlink:href="#DejaVuSans-3a" x="248.763672"/>
     <use xlink:href="#DejaVuSans-20" x="282.455078"/>
     <use xlink:href="#DejaVuSans-35" x="314.242188"/>
     <use xlink:href="#DejaVuSans-33" x="377.865234"/>
     <use xlink:href="#DejaVuSans-35" x="441.488281"/>
     <use xlink:href="#DejaVuSans-2e" x="505.111328"/>
     <use xlink:href="#DejaVuSans-33" x="536.898438"/>
     <use xlink:href="#DejaVuSans-73" x="600.521484"/>
    </g>
   </g>
   <g id="text_17">
    <g id="patch_16">
     <path d="M 73.047975 82.486275 
L 254.264381 82.486275 
Q 258.764381 82.486275 258.764381 77.986275 
L 258.764381 49.1199 
Q 258.764381 44.6199 254.264381 44.6199 
L 73.047975 44.6199 
Q 68.547975 44.6199 68.547975 49.1199 
L 68.547975 77.986275 
Q 68.547975 82.486275 73.047975 82.486275 
z
" style="fill: #ffffe0; opacity: 0.5; stroke: #000000; stroke-linejoin: miter"/>
    </g>
    <!-- Box = Q1 to Q3 (middle 50%) -->
    <g style="opacity: 0.7" transform="translate(73.047975 55.958494) scale(0.09 -0.09)">
     <defs>
      <path id="DejaVuSans-42" d="M 1259 2228 
L 1259 519 
L 2272 519 
Q 2781 519 3026 730 
Q 3272 941 3272 1375 
Q 3272 1813 3026 2020 
Q 2781 2228 2272 2228 
L 1259 2228 
z
M 1259 4147 
L 1259 2741 
L 2194 2741 
Q 2656 2741 2882 2914 
Q 3109 3088 3109 3444 
Q 3109 3797 2882 3972 
Q 2656 4147 2194 4147 
L 1259 4147 
z
M 628 4666 
L 2241 4666 
Q 2963 4666 3353 4366 
Q 3744 4066 3744 3513 
Q 3744 3084 3544 2831 
Q 3344 2578 2956 2516 
Q 3422 2416 3680 2098 
Q 3938 1781 3938 1306 
Q 3938 681 3513 340 
Q 3088 0 2303 0 
L 628 0 
L 628 4666 
z
" transform="scale(0.015625)"/>
      <path id="DejaVuSans-6f" d="M 1959 3097 
Q 1497 3097 1228 2736 
Q 959 2375 959 1747 
Q 959 1119 1226 758 
Q 1494 397 1959 397 
Q 2419 397 2687 759 
Q 2956 1122 2956 1747 
Q 2956 2369 2687 2733 
Q 2419 3097 1959 3097 
z
M 1959 3584 
Q 2709 3584 3137 3096 
Q 3566 2609 3566 1747 
Q 3566 888 3137 398 
Q 2709 -91 1959 -91 
Q 1206 -91 779 398 
Q 353 888 353 1747 
Q 353 2609 779 3096 
Q 1206 3584 1959 3584 
z
" transform="scale(0.015625)"/>
      <path id="DejaVuSans-78" d="M 3513 3500 
L 2247 1797 
L 3578 0 
L 2900 0 
L 1881 1375 
L 863 0 
L 184 0 
L 1544 1831 
L 300 3500 
L 978 3500 
L 1906 2253 
L 2834 3500 
L 3513 3500 
z
" transform="scale(0.015625)"/>
      <path id="DejaVuSans-3d" d="M 678 2906 
L 4684 2906 
L 4684 2381 
L 678 2381 
L 678 2906 
z
M 678 1631 
L 4684 1631 
L 4684 1100 
L 678 1100 
L 678 1631 
z
" transform="scale(0.015625)"/>
      <path id="DejaVuSans-51" d="M 2522 4238 
Q 1834 4238 1429 3725 
Q 1025 3213 1025 2328 
Q 1025 1447 1429 934 
Q 1834 422 2522 422 
Q 3209 422 3611 934 
Q 4013 1447 4013 2328 
Q 4013 3213 3611 3725 
Q 3209 4238 2522 4238 
z
M 3406 84 
L 4238 -825 
L 3475 -825 
L 2784 -78 
Q 2681 -84 2626 -87 
Q 2572 -91 2522 -91 
Q 1538 -91 948 567 
Q 359 1225 359 2328 
Q 359 3434 948 4092 
Q 1538 4750 2522 4750 
Q 3503 4750 4090 4092 
Q 4678 3434 4678 2328 
Q 4678 1516 4351 937 
Q 4025 359 3406 84 
z
" transform="scale(0.015625)"/>
      <path id="DejaVuSans-28" d="M 1984 4856 
Q 1566 4138 1362 3434 
Q 1159 2731 1159 2009 
Q 1159 1288 1364 580 
Q 1569 -128 1984 -844 
L 1484 -844 
Q 1016 -109 783 600 
Q 550 1309 550 2009 
Q 550 2706 781 3412 
Q 1013 4119 1484 4856 
L 1984 4856 
z
" transform="scale(0.015625)"/>
      <path id="DejaVuSans-6d" d="M 3328 2828 
Q 3544 3216 3844 3400 
Q 4144 3584 4550 3584 
Q 5097 3584 5394 3201 
Q 5691 2819 5691 2113 
L 5691 0 
L 5113 0 
L 5113 2094 
Q 5113 2597 4934 2840 
Q 4756 3084 4391 3084 
Q 3944 3084 3684 2787 
Q 3425 2491 3425 1978 
L 3425 0 
L 2847 0 
L 2847 2094 
Q 2847 2600 2669 2842 
Q 2491 3084 2119 3084 
Q 1678 3084 1418 2786 
Q 1159 2488 1159 1978 
L 1159 0 
L 581 0 
L 581 3500 
L 1159 3500 
L 1159 2956 
Q 1356 3278 1631 3431 
Q 1906 3584 2284 3584 
Q 2666 3584 2933 3390 
Q 3200 3197 3328 2828 
z
" transform="scale(0.015625)"/>
      <path id="DejaVuSans-69" d="M 603 3500 
L 1178 3500 
L 1178 0 
L 603 0 
L 603 3500 
z
M 603 4863 
L 1178 4863 
L 1178 4134 
L 603 4134 
L 603 4863 
z
" transform="scale(0.015625)"/>
      <path id="DejaVuSans-6c" d="M 603 4863 
L 1178 4863 
L 1178 0 
L 603 0 
L 603 4863 
z
" transform="scale(0.015625)"/>
      <path id="DejaVuSans-25" d="M 4653 2053 
Q 4381 2053 4226 1822 
Q 4072 1591 4072 1178 
Q 4072 772 4226 539 
Q 4381 306 4653 306 
Q 4919 306 5073 539 
Q 5228 772 5228 1178 
Q 5228 1588 5073 1820 
Q 4919 2053 4653 2053 
z
M 4653 2450 
Q 5147 2450 5437 2106 
Q 5728 1763 5728 1178 
Q 5728 594 5436 251 
Q 5144 -91 4653 -91 
Q 4153 -91 3862 251 
Q 3572 594 3572 1178 
Q 3572 1766 3864 2108 
Q 4156 2450 4653 2450 
z
M 1428 4353 
Q 1159 4353 1004 4120 
Q 850 3888 850 3481 
Q 850 3069 1003 2837 
Q 1156 2606 1428 2606 
Q 1700 2606 1854 2837 
Q 2009 3069 2009 3481 
Q 2009 3884 1853 4118 
Q 1697 4353 1428 4353 
z
M 4250 4750 
L 4750 4750 
L 1831 -91 
L 1331 -91 
L 4250 4750 
z
M 1428 4750 
Q 1922 4750 2215 4408 
Q 2509 4066 2509 3481 
Q 2509 2891 2217 2550 
Q 1925 2209 1428 2209 
Q 931 2209 642 2551 
Q 353 2894 353 3481 
Q 353 4063 643 4406 
Q 934 4750 1428 4750 
z
" transform="scale(0.015625)"/>
      <path id="DejaVuSans-29" d="M 513 4856 
L 1013 4856 
Q 1481 4119 1714 3412 
Q 1947 2706 1947 2009 
Q 1947 1309 1714 600 
Q 1481 -109 1013 -844 
L 513 -844 
Q 928 -128 1133 580 
Q 1338 1288 1338 2009 
Q 1338 2731 1133 3434 
Q 928 4138 513 4856 
z
" transform="scale(0.015625)"/>
     </defs>
     <use xlink:href="#DejaVuSans-42"/>
     <use xlink:href="#DejaVuSans-6f" x="68.603516"/>
     <use xlink:href="#DejaVuSans-78" x="126.660156"/>
     <use xlink:href="#DejaVuSans-20" x="185.839844"/>
     <use xlink:href="#DejaVuSans-3d" x="217.626953"/>
     <use xlink:href="#DejaVuSans-20" x="301.416016"/>
     <use xlink:href="#DejaVuSans-51" x="333.203125"/>
     <use xlink:href="#DejaVuSans-31" x="411.914062"/>
     <use xlink:href="#DejaVuSans-20" x="475.537109"/>
     <use xlink:href="#DejaVuSans-74" x="507.324219"/>
     <use xlink:href="#DejaVuSans-6f" x="546.533203"/>
     <use xlink:href="#DejaVuSans-20" x="607.714844"/>
     <use xlink:href="#DejaVuSans-51" x="639.501953"/>
     <use xlink:href="#DejaVuSans-33" x="718.212891"/>
     <use xlink:href="#DejaVuSans-20" x="781.835938"/>
     <use xlink:href="#DejaVuSans-28" x="813.623047"/>
     <use xlink:href="#DejaVuSans-6d" x="852.636719"/>
     <use xlink:href="#DejaVuSans-69" x="950.048828"/>
     <use xlink:href="#DejaVuSans-64" x="977.832031"/>
     <use xlink:href="#DejaVuSans-64" x="1041.308594"/>
     <use xlink:href="#DejaVuSans-6c" x="1104.785156"/>
     <use xlink:href="#DejaVuSans-65" x="1132.568359"/>
     <use xlink:href="#DejaVuSans-20" x="1194.091797"/>
     <use xlink:href="#DejaVuSans-35" x="1225.878906"/>
     <use xlink:href="#DejaVuSans-30" x="1289.501953"/>
     <use xlink:href="#DejaVuSans-25" x="1353.125"/>
     <use xlink:href="#DejaVuSans-29" x="1448.144531"/>
    </g>
    <!-- Whiskers = Min/Max (excluding outliers) -->
    <g style="opacity: 0.7" transform="translate(73.047975 66.036525) scale(0.09 -0.09)">
     <defs>
      <path id="DejaVuSans-57" d="M 213 4666 
L 850 4666 
L 1831 722 
L 2809 4666 
L 3519 4666 
L 4500 722 
L 5478 4666 
L 6119 4666 
L 4947 0 
L 4153 0 
L 3169 4050 
L 2175 0 
L 1381 0 
L 213 4666 
z
" transform="scale(0.015625)"/>
      <path id="DejaVuSans-6b" d="M 581 4863 
L 1159 4863 
L 1159 1991 
L 2875 3500 
L 3609 3500 
L 1753 1863 
L 3688 0 
L 2938 0 
L 1159 1709 
L 1159 0 
L 581 0 
L 581 4863 
z
" transform="scale(0.015625)"/>
      <path id="DejaVuSans-72" d="M 2631 2963 
Q 2534 3019 2420 3045 
Q 2306 3072 2169 3072 
Q 1681 3072 1420 2755 
Q 1159 2438 1159 1844 
L 1159 0 
L 581 0 
L 581 3500 
L 1159 3500 
L 1159 2956 
Q 1341 3275 1631 3429 
Q 1922 3584 2338 3584 
Q 2397 3584 2469 3576 
Q 2541 3569 2628 3553 
L 2631 2963 
z
" transform="scale(0.015625)"/>
      <path id="DejaVuSans-4d" d="M 628 4666 
L 1569 4666 
L 2759 1491 
L 3956 4666 
L 4897 4666 
L 4897 0 
L 4281 0 
L 4281 4097 
L 3078 897 
L 2444 897 
L 1241 4097 
L 1241 0 
L 628 0 
L 628 4666 
z
" transform="scale(0.015625)"/>
      <path id="DejaVuSans-6e" d="M 3513 2113 
L 3513 0 
L 2938 0 
L 2938 2094 
Q 2938 2591 2744 2837 
Q 2550 3084 2163 3084 
Q 1697 3084 1428 2787 
Q 1159 2491 1159 1978 
L 1159 0 
L 581 0 
L 581 3500 
L 1159 3500 
L 1159 2956 
Q 1366 3272 1645 3428 
Q 1925 3584 2291 3584 
Q 2894 3584 3203 3211 
Q 3513 2838 3513 2113 
z
" transform="scale(0.015625)"/>
      <path id="DejaVuSans-2f" d="M 1625 4666 
L 2156 4666 
L 531 -594 
L 0 -594 
L 1625 4666 
z
" transform="scale(0.015625)"/>
      <path id="DejaVuSans-75" d="M 544 1381 
L 544 3500 
L 1119 3500 
L 1119 1403 
Q 1119 906 1312 657 
Q 1506 409 1894 409 
Q 2359 409 2629 706 
Q 2900 1003 2900 1516 
L 2900 3500 
L 3475 3500 
L 3475 0 
L 2900 0 
L 2900 538 
Q 2691 219 2414 64 
Q 2138 -91 1772 -91 
Q 1169 -91 856 284 
Q 544 659 544 1381 
z
M 1991 3584 
L 1991 3584 
z
" transform="scale(0.015625)"/>
     </defs>
     <use xlink:href="#DejaVuSans-57"/>
     <use xlink:href="#DejaVuSans-68" x="98.876953"/>
     <use xlink:href="#DejaVuSans-69" x="162.255859"/>
     <use xlink:href="#DejaVuSans-73" x="190.039062"/>
     <use xlink:href="#DejaVuSans-6b" x="242.138672"/>
     <use xlink:href="#DejaVuSans-65" x="296.423828"/>
     <use xlink:href="#DejaVuSans-72" x="357.947266"/>
     <use xlink:href="#DejaVuSans-73" x="399.060547"/>
     <use xlink:href="#DejaVuSans-20" x="451.160156"/>
     <use xlink:href="#DejaVuSans-3d" x="482.947266"/>
     <use xlink:href="#DejaVuSans-20" x="566.736328"/>
     <use xlink:href="#DejaVuSans-4d" x="598.523438"/>
     <use xlink:href="#DejaVuSans-69" x="684.802734"/>
     <use xlink:href="#DejaVuSans-6e" x="712.585938"/>
     <use xlink:href="#DejaVuSans-2f" x="775.964844"/>
     <use xlink:href="#DejaVuSans-4d" x="809.65625"/>
     <use xlink:href="#DejaVuSans-61" x="895.935547"/>
     <use xlink:href="#DejaVuSans-78" x="957.214844"/>
     <use xlink:href="#DejaVuSans-20" x="1016.394531"/>
     <use xlink:href="#DejaVuSans-28" x="1048.181641"/>
     <use xlink:href="#DejaVuSans-65" x="1087.195312"/>
     <use xlink:href="#DejaVuSans-78" x="1146.96875"/>
     <use xlink:href="#DejaVuSans-63" x="1204.398438"/>
     <use xlink:href="#DejaVuSans-6c" x="1259.378906"/>
     <use xlink:href="#DejaVuSans-75" x="1287.162109"/>
     <use xlink:href="#DejaVuSans-64" x="1350.541016"/>
     <use xlink:href="#DejaVuSans-69" x="1414.017578"/>
     <use xlink:href="#DejaVuSans-6e" x="1441.800781"/>
     <use xlink:href="#DejaVuSans-67" x="1505.179688"/>
     <use xlink:href="#DejaVuSans-20" x="1568.65625"/>
     <use xlink:href="#DejaVuSans-6f" x="1600.443359"/>
     <use xlink:href="#DejaVuSans-75" x="1661.625"/>
     <use xlink:href="#DejaVuSans-74" x="1725.003906"/>
     <use xlink:href="#DejaVuSans-6c" x="1764.212891"/>
     <use xlink:href="#DejaVuSans-69" x="1791.996094"/>
     <use xlink:href="#DejaVuSans-65" x="1819.779297"/>
     <use xlink:href="#DejaVuSans-72" x="1881.302734"/>
     <use xlink:href="#DejaVuSans-73" x="1922.416016"/>
     <use xlink:href="#DejaVuSans-29" x="1974.515625"/>
    </g>
    <!-- Narrow box = Consistent performance -->
    <g style="opacity: 0.7" transform="translate(73.047975 76.114556) scale(0.09 -0.09)">
     <defs>
      <path id="DejaVuSans-4e" d="M 628 4666 
L 1478 4666 
L 3547 763 
L 3547 4666 
L 4159 4666 
L 4159 0 
L 3309 0 
L 1241 3903 
L 1241 0 
L 628 0 
L 628 4666 
z
" transform="scale(0.015625)"/>
      <path id="DejaVuSans-77" d="M 269 3500 
L 844 3500 
L 1563 769 
L 2278 3500 
L 2956 3500 
L 3675 769 
L 4391 3500 
L 4966 3500 
L 4050 0 
L 3372 0 
L 2619 2869 
L 1863 0 
L 1184 0 
L 269 3500 
z
" transform="scale(0.015625)"/>
      <path id="DejaVuSans-43" d="M 4122 4306 
L 4122 3641 
Q 3803 3938 3442 4084 
Q 3081 4231 2675 4231 
Q 1875 4231 1450 3742 
Q 1025 3253 1025 2328 
Q 1025 1406 1450 917 
Q 1875 428 2675 428 
Q 3081 428 3442 575 
Q 3803 722 4122 1019 
L 4122 359 
Q 3791 134 3420 21 
Q 3050 -91 2638 -91 
Q 1578 -91 968 557 
Q 359 1206 359 2328 
Q 359 3453 968 4101 
Q 1578 4750 2638 4750 
Q 3056 4750 3426 4639 
Q 3797 4528 4122 4306 
z
" transform="scale(0.015625)"/>
      <path id="DejaVuSans-66" d="M 2375 4863 
L 2375 4384 
L 1825 4384 
Q 1516 4384 1395 4259 
Q 1275 4134 1275 3809 
L 1275 3500 
L 2222 3500 
L 2222 3053 
L 1275 3053 
L 1275 0 
L 697 0 
L 697 3053 
L 147 3053 
L 147 3500 
L 697 3500 
L 697 3744 
Q 697 4328 969 4595 
Q 1241 4863 1831 4863 
L 2375 4863 
z
" transform="scale(0.015625)"/>
     </defs>
     <use xlink:href="#DejaVuSans-4e"/>
     <use xlink:href="#DejaVuSans-61" x="74.804688"/>
     <use xlink:href="#DejaVuSans-72" x="136.083984"/>
     <use xlink:href="#DejaVuSans-72" x="175.447266"/>
     <use xlink:href="#DejaVuSans-6f" x="214.310547"/>
     <use xlink:href="#DejaVuSans-77" x="275.492188"/>
     <use xlink:href="#DejaVuSans-20" x="357.279297"/>
     <use xlink:href="#DejaVuSans-62" x="389.066406"/>
     <use xlink:href="#DejaVuSans-6f" x="452.542969"/>
     <use xlink:href="#DejaVuSans-78" x="510.599609"/>
     <use xlink:href="#DejaVuSans-20" x="569.779297"/>
     <use xlink:href="#DejaVuSans-3d" x="601.566406"/>
     <use xlink:href="#DejaVuSans-20" x="685.355469"/>
     <use xlink:href="#DejaVuSans-43" x="717.142578"/>
     <use xlink:href="#DejaVuSans-6f" x="786.966797"/>
     <use xlink:href="#DejaVuSans-6e" x="848.148438"/>
     <use xlink:href="#DejaVuSans-73" x="911.527344"/>
     <use xlink:href="#DejaVuSans-69" x="963.626953"/>
     <use xlink:href="#DejaVuSans-73" x="991.410156"/>
     <use xlink:href="#DejaVuSans-74" x="1043.509766"/>
     <use xlink:href="#DejaVuSans-65" x="1082.71875"/>
     <use xlink:href="#DejaVuSans-6e" x="1144.242188"/>
     <use xlink:href="#DejaVuSans-74" x="1207.621094"/>
     <use xlink:href="#DejaVuSans-20" x="1246.830078"/>
     <use xlink:href="#DejaVuSans-70" x="1278.617188"/>
     <use xlink:href="#DejaVuSans-65" x="1342.09375"/>
     <use xlink:href="#DejaVuSans-72" x="1403.617188"/>
     <use xlink:href="#DejaVuSans-66" x="1444.730469"/>
     <use xlink:href="#DejaVuSans-6f" x="1479.935547"/>
     <use xlink:href="#DejaVuSans-72" x="1541.117188"/>
     <use xlink:href="#DejaVuSans-6d" x="1580.480469"/>
     <use xlink:href="#DejaVuSans-61" x="1677.892578"/>
     <use xlink:href="#DejaVuSans-6e" x="1739.171875"/>
     <use xlink:href="#DejaVuSans-63" x="1802.550781"/>
     <use xlink:href="#DejaVuSans-65" x="1857.53125"/>
    </g>
   </g>
   <g id="text_18">
    <!-- Execution Time Distribution by Framework -->
    <g transform="translate(261.075625 19.3575) scale(0.16 -0.16)">
     <defs>
      <path id="DejaVuSans-Bold-44" d="M 1791 3756 
L 1791 909 
L 2222 909 
Q 2959 909 3348 1275 
Q 3738 1641 3738 2338 
Q 3738 3031 3350 3393 
Q 2963 3756 2222 3756 
L 1791 3756 
z
M 588 4666 
L 1856 4666 
Q 2919 4666 3439 4514 
Q 3959 4363 4331 4000 
Q 4659 3684 4818 3271 
Q 4978 2859 4978 2338 
Q 4978 1809 4818 1395 
Q 4659 981 4331 666 
Q 3956 303 3431 151 
Q 2906 0 1856 0 
L 588 0 
L 588 4666 
z
" transform="scale(0.015625)"/>
      <path id="DejaVuSans-Bold-62" d="M 2400 722 
Q 2759 722 2948 984 
Q 3138 1247 3138 1747 
Q 3138 2247 2948 2509 
Q 2759 2772 2400 2772 
Q 2041 2772 1848 2508 
Q 1656 2244 1656 1747 
Q 1656 1250 1848 986 
Q 2041 722 2400 722 
z
M 1656 2988 
Q 1888 3294 2169 3439 
Q 2450 3584 2816 3584 
Q 3463 3584 3878 3070 
Q 4294 2556 4294 1747 
Q 4294 938 3878 423 
Q 3463 -91 2816 -91 
Q 2450 -91 2169 54 
Q 1888 200 1656 506 
L 1656 0 
L 538 0 
L 538 4863 
L 1656 4863 
L 1656 2988 
z
" transform="scale(0.015625)"/>
      <path id="DejaVuSans-Bold-79" d="M 78 3500 
L 1197 3500 
L 2138 1125 
L 2938 3500 
L 4056 3500 
L 2584 -331 
Q 2363 -916 2067 -1148 
Q 1772 -1381 1288 -1381 
L 641 -1381 
L 641 -647 
L 991 -647 
Q 1275 -647 1404 -556 
Q 1534 -466 1606 -231 
L 1638 -134 
L 78 3500 
z
" transform="scale(0.015625)"/>
     </defs>
     <use xlink:href="#DejaVuSans-Bold-45"/>
     <use xlink:href="#DejaVuSans-Bold-78" x="68.310547"/>
     <use xlink:href="#DejaVuSans-Bold-65" x="132.8125"/>
     <use xlink:href="#DejaVuSans-Bold-63" x="200.634766"/>
     <use xlink:href="#DejaVuSans-Bold-75" x="259.912109"/>
     <use xlink:href="#DejaVuSans-Bold-74" x="331.103516"/>
     <use xlink:href="#DejaVuSans-Bold-69" x="378.90625"/>
     <use xlink:href="#DejaVuSans-Bold-6f" x="413.183594"/>
     <use xlink:href="#DejaVuSans-Bold-6e" x="481.884766"/>
     <use xlink:href="#DejaVuSans-Bold-20" x="553.076172"/>
     <use xlink:href="#DejaVuSans-Bold-54" x="587.890625"/>
     <use xlink:href="#DejaVuSans-Bold-69" x="656.103516"/>
     <use xlink:href="#DejaVuSans-Bold-6d" x="690.380859"/>
     <use xlink:href="#DejaVuSans-Bold-65" x="794.580078"/>
     <use xlink:href="#DejaVuSans-Bold-20" x="862.402344"/>
     <use xlink:href="#DejaVuSans-Bold-44" x="897.216797"/>
     <use xlink:href="#DejaVuSans-Bold-69" x="980.224609"/>
     <use xlink:href="#DejaVuSans-Bold-73" x="1014.501953"/>
     <use xlink:href="#DejaVuSans-Bold-74" x="1074.023438"/>
     <use xlink:href="#DejaVuSans-Bold-72" x="1121.826172"/>
     <use xlink:href="#DejaVuSans-Bold-69" x="1171.142578"/>
     <use xlink:href="#DejaVuSans-Bold-62" x="1205.419922"/>
     <use xlink:href="#DejaVuSans-Bold-75" x="1277.001953"/>
     <use xlink:href="#DejaVuSans-Bold-74" x="1348.193359"/>
     <use xlink:href="#DejaVuSans-Bold-69" x="1395.996094"/>
     <use xlink:href="#DejaVuSans-Bold-6f" x="1430.273438"/>
     <use xlink:href="#DejaVuSans-Bold-6e" x="1498.974609"/>
     <use xlink:href="#DejaVuSans-Bold-20" x="1570.166016"/>
     <use xlink:href="#DejaVuSans-Bold-62" x="1604.980469"/>
     <use xlink:href="#DejaVuSans-Bold-79" x="1676.5625"/>
     <use xlink:href="#DejaVuSans-Bold-20" x="1741.748047"/>
     <use xlink:href="#DejaVuSans-Bold-46" x="1776.5625"/>
     <use xlink:href="#DejaVuSans-Bold-72" x="1838.498047"/>
     <use xlink:href="#DejaVuSans-Bold-61" x="1887.814453"/>
     <use xlink:href="#DejaVuSans-Bold-6d" x="1955.294922"/>
     <use xlink:href="#DejaVuSans-Bold-65" x="2059.494141"/>
     <use xlink:href="#DejaVuSans-Bold-77" x="2127.316406"/>
     <use xlink:href="#DejaVuSans-Bold-6f" x="2219.699219"/>
     <use xlink:href="#DejaVuSans-Bold-72" x="2288.400391"/>
     <use xlink:href="#DejaVuSans-Bold-6b" x="2337.716797"/>
    </g>
   </g>
   <g id="legend_1">
    <g id="patch_17">
     <path d="M 763.654063 96.595313 
L 841.929375 96.595313 
Q 844.129375 96.595313 844.129375 94.395313 
L 844.129375 47.0575 
Q 844.129375 44.8575 841.929375 44.8575 
L 763.654063 44.8575 
Q 761.454063 44.8575 761.454063 47.0575 
L 761.454063 94.395313 
Q 761.454063 96.595313 763.654063 96.595313 
z
" style="fill: #ffffff; opacity: 0.9; stroke: #cccccc; stroke-linejoin: miter"/>
    </g>
    <g id="line2d_35">
     <path d="M 765.854063 53.765781 
L 776.854063 53.765781 
L 787.854063 53.765781 
" style="fill: none; stroke: #ffffff; stroke-width: 1.5; stroke-linecap: square"/>
     <g>
      <use xlink:href="#m64db75779d" x="776.854063" y="53.765781" style="fill: #ff0000; stroke: #000000; stroke-linejoin: miter"/>
     </g>
    </g>
    <g id="text_19">
     <!-- Mean -->
     <g transform="translate(796.654063 57.615781) scale(0.11 -0.11)">
      <use xlink:href="#DejaVuSans-4d"/>
      <use xlink:href="#DejaVuSans-65" x="86.279297"/>
      <use xlink:href="#DejaVuSans-61" x="147.802734"/>
      <use xlink:href="#DejaVuSans-6e" x="209.082031"/>
     </g>
    </g>
    <g id="line2d_36">
     <path d="M 765.854063 69.911719 
L 776.854063 69.911719 
L 787.854063 69.911719 
" style="fill: none; stroke: #000000; stroke-width: 2; stroke-linecap: square"/>
    </g>
    <g id="text_20">
     <!-- Median -->
     <g transform="translate(796.654063 73.761719) scale(0.11 -0.11)">
      <use xlink:href="#DejaVuSans-4d"/>
      <use xlink:href="#DejaVuSans-65" x="86.279297"/>
      <use xlink:href="#DejaVuSans-64" x="147.802734"/>
      <use xlink:href="#DejaVuSans-69" x="211.279297"/>
      <use xlink:href="#DejaVuSans-61" x="239.0625"/>
      <use xlink:href="#DejaVuSans-6e" x="300.341797"/>
     </g>
    </g>
    <g id="line2d_37">
     <path d="M 765.854063 86.057656 
L 776.854063 86.057656 
L 787.854063 86.057656 
" style="fill: none; stroke: #ffffff; stroke-opacity: 0.5; stroke-width: 1.5; stroke-linecap: square"/>
     <defs>
      <path id="m7dae21df1e" d="M 0 4 
C 1.060812 4 2.078319 3.578535 2.828427 2.828427 
C 3.578535 2.078319 4 1.060812 4 0 
C 4 -1.060812 3.578535 -2.078319 2.828427 -2.828427 
C 2.078319 -3.578535 1.060812 -4 0 -4 
C -1.060812 -4 -2.078319 -3.578535 -2.828427 -2.828427 
C -3.578535 -2.078319 -4 -1.060812 -4 0 
C -4 1.060812 -3.578535 2.078319 -2.828427 2.828427 
C -2.078319 3.578535 -1.060812 4 0 4 
z
" style="stroke: #ffffff; stroke-opacity: 0.5"/>
     </defs>
     <g>
      <use xlink:href="#m7dae21df1e" x="776.854063" y="86.057656" style="fill: #ff0000; fill-opacity: 0.5; stroke: #ffffff; stroke-opacity: 0.5"/>
     </g>
    </g>
    <g id="text_21">
     <!-- Outliers -->
     <g transform="translate(796.654063 89.907656) scale(0.11 -0.11)">
      <defs>
       <path id="DejaVuSans-4f" d="M 2522 4238 
Q 1834 4238 1429 3725 
Q 1025 3213 1025 2328 
Q 1025 1447 1429 934 
Q 1834 422 2522 422 
Q 3209 422 3611 934 
Q 4013 1447 4013 2328 
Q 4013 3213 3611 3725 
Q 3209 4238 2522 4238 
z
M 2522 4750 
Q 3503 4750 4090 4092 
Q 4678 3434 4678 2328 
Q 4678 1225 4090 567 
Q 3503 -91 2522 -91 
Q 1538 -91 948 565 
Q 359 1222 359 2328 
Q 359 3434 948 4092 
Q 1538 4750 2522 4750 
z
" transform="scale(0.015625)"/>
      </defs>
      <use xlink:href="#DejaVuSans-4f"/>
      <use xlink:href="#DejaVuSans-75" x="78.710938"/>
      <use xlink:href="#DejaVuSans-74" x="142.089844"/>
      <use xlink:href="#DejaVuSans-6c" x="181.298828"/>
      <use xlink:href="#DejaVuSans-69" x="209.082031"/>
      <use xlink:href="#DejaVuSans-65" x="236.865234"/>
      <use xlink:href="#DejaVuSans-72" x="298.388672"/>
      <use xlink:href="#DejaVuSans-73" x="339.501953"/>
     </g>
    </g>
   </g>
  </g>
 </g>
 <defs>
  <clipPath id="pbc7adf82fa">
   <rect x="57.199375" y="39.3575" width="792.43" height="488.12"/>
  </clipPath>
 </defs>
</svg>
