<?xml version="1.0" encoding="utf-8" standalone="no"?>
<!DOCTYPE svg PUBLIC "-//W3C//DTD SVG 1.1//EN"
  "http://www.w3.org/Graphics/SVG/1.1/DTD/svg11.dtd">
<svg xmlns:xlink="http://www.w3.org/1999/xlink" width="856.62375pt" height="568.574375pt" viewBox="0 0 856.62375 568.574375" xmlns="http://www.w3.org/2000/svg" version="1.1">
 <metadata>
  <rdf:RDF xmlns:dc="http://purl.org/dc/elements/1.1/" xmlns:cc="http://creativecommons.org/ns#" xmlns:rdf="http://www.w3.org/1999/02/22-rdf-syntax-ns#">
   <cc:Work>
    <dc:type rdf:resource="http://purl.org/dc/dcmitype/StillImage"/>
    <dc:date>2025-10-17T16:33:07.718061</dc:date>
    <dc:format>image/svg+xml</dc:format>
    <dc:creator>
     <cc:Agent>
      <dc:title>Matplotlib v3.8.0, https://matplotlib.org/</dc:title>
     </cc:Agent>
    </dc:creator>
   </cc:Work>
  </rdf:RDF>
 </metadata>
 <defs>
  <style type="text/css">*{stroke-linejoin: round; stroke-linecap: butt}</style>
 </defs>
 <g id="figure_1">
  <g id="patch_1">
   <path d="M 0 568.574375 
L 856.62375 568.574375 
L 856.62375 0 
L 0 0 
z
" style="fill: #ffffff"/>
  </g>
  <g id="axes_1">
   <g id="patch_2">
    <path d="M 70.31375 526.7575 
L 849.42375 526.7575 
L 849.42375 39.3575 
L 70.31375 39.3575 
z
" style="fill: #ffffff"/>
   </g>
   <g id="PathCollection_1">
    <path d="M 171.64609 499.969984 
C 173.378151 499.969984 175.039504 499.281829 176.264255 498.057077 
C 177.489007 496.832326 178.177162 495.170973 178.177162 493.438912 
C 178.177162 491.706852 177.489007 490.045499 176.264255 488.820747 
C 175.039504 487.595995 173.378151 486.90784 171.64609 486.90784 
C 169.91403 486.90784 168.252677 487.595995 167.027925 488.820747 
C 165.803173 490.045499 165.115018 491.706852 165.115018 493.438912 
C 165.115018 495.170973 165.803173 496.832326 167.027925 498.057077 
C 168.252677 499.281829 169.91403 499.969984 171.64609 499.969984 
z
" clip-path="url(#p10eb15fc0c)" style="fill: #1f77b4; fill-opacity: 0.6; stroke: #000000; stroke-opacity: 0.6; stroke-width: 1.5"/>
    <path d="M 184.682974 496.623419 
C 186.530929 496.623419 188.303445 495.889219 189.610146 494.582518 
C 190.916847 493.275817 191.651048 491.503301 191.651048 489.655346 
C 191.651048 487.807391 190.916847 486.034875 189.610146 484.728174 
C 188.303445 483.421473 186.530929 482.687273 184.682974 482.687273 
C 182.83502 482.687273 181.062504 483.421473 179.755802 484.728174 
C 178.449101 486.034875 177.714901 487.807391 177.714901 489.655346 
C 177.714901 491.503301 178.449101 493.275817 179.755802 494.582518 
C 181.062504 495.889219 182.83502 496.623419 184.682974 496.623419 
z
" clip-path="url(#p10eb15fc0c)" style="fill: #1f77b4; fill-opacity: 0.6; stroke: #000000; stroke-opacity: 0.6; stroke-width: 1.5"/>
    <path d="M 159.89139 501.5731 
C 161.452352 501.5731 162.94959 500.952923 164.053356 499.849157 
C 165.157122 498.745391 165.777299 497.248152 165.777299 495.687191 
C 165.777299 494.12623 165.157122 492.628992 164.053356 491.525225 
C 162.94959 490.421459 161.452352 489.801283 159.89139 489.801283 
C 158.330429 489.801283 156.833191 490.421459 155.729425 491.525225 
C 154.625658 492.628992 154.005482 494.12623 154.005482 495.687191 
C 154.005482 497.248152 154.625658 498.745391 155.729425 499.849157 
C 156.833191 500.952923 158.330429 501.5731 159.89139 501.5731 
z
" clip-path="url(#p10eb15fc0c)" style="fill: #1f77b4; fill-opacity: 0.6; stroke: #000000; stroke-opacity: 0.6; stroke-width: 1.5"/>
    <path d="M 179.715518 497.718298 
C 181.354361 497.718298 182.926302 497.067178 184.085139 495.908342 
C 185.243976 494.749505 185.895095 493.177564 185.895095 491.538721 
C 185.895095 489.899878 185.243976 488.327937 184.085139 487.169101 
C 182.926302 486.010264 181.354361 485.359144 179.715518 485.359144 
C 178.076675 485.359144 176.504735 486.010264 175.345898 487.169101 
C 174.187061 488.327937 173.535942 489.899878 173.535942 491.538721 
C 173.535942 493.177564 174.187061 494.749505 175.345898 495.908342 
C 176.504735 497.067178 178.076675 497.718298 179.715518 497.718298 
z
" clip-path="url(#p10eb15fc0c)" style="fill: #1f77b4; fill-opacity: 0.6; stroke: #000000; stroke-opacity: 0.6; stroke-width: 1.5"/>
    <path d="M 174.559901 498.969895 
C 176.050817 498.969895 177.480869 498.377547 178.535106 497.323311 
C 179.589342 496.269074 180.181689 494.839022 180.181689 493.348106 
C 180.181689 491.857191 179.589342 490.427139 178.535106 489.372902 
C 177.480869 488.318665 176.050817 487.726318 174.559901 487.726318 
C 173.068985 487.726318 171.638933 488.318665 170.584697 489.372902 
C 169.53046 490.427139 168.938113 491.857191 168.938113 493.348106 
C 168.938113 494.839022 169.53046 496.269074 170.584697 497.323311 
C 171.638933 498.377547 173.068985 498.969895 174.559901 498.969895 
z
" clip-path="url(#p10eb15fc0c)" style="fill: #1f77b4; fill-opacity: 0.6; stroke: #000000; stroke-opacity: 0.6; stroke-width: 1.5"/>
    <path d="M 186.715115 499.091818 
C 188.839522 499.091818 190.877204 498.247783 192.379386 496.745601 
C 193.881568 495.243418 194.725604 493.205736 194.725604 491.08133 
C 194.725604 488.956924 193.881568 486.919241 192.379386 485.417059 
C 190.877204 483.914877 188.839522 483.070842 186.715115 483.070842 
C 184.590709 483.070842 182.553027 483.914877 181.050845 485.417059 
C 179.548663 486.919241 178.704627 488.956924 178.704627 491.08133 
C 178.704627 493.205736 179.548663 495.243418 181.050845 496.745601 
C 182.553027 498.247783 184.590709 499.091818 186.715115 499.091818 
z
" clip-path="url(#p10eb15fc0c)" style="fill: #1f77b4; fill-opacity: 0.6; stroke: #000000; stroke-opacity: 0.6; stroke-width: 1.5"/>
    <path d="M 174.559901 499.117757 
C 176.061935 499.117757 177.502651 498.520993 178.56475 497.458895 
C 179.626848 496.396797 180.223612 494.95608 180.223612 493.454046 
C 180.223612 491.952013 179.626848 490.511296 178.56475 489.449198 
C 177.502651 488.3871 176.061935 487.790335 174.559901 487.790335 
C 173.057867 487.790335 171.617151 488.3871 170.555053 489.449198 
C 169.492954 490.511296 168.89619 491.952013 168.89619 493.454046 
C 168.89619 494.95608 169.492954 496.396797 170.555053 497.458895 
C 171.617151 498.520993 173.057867 499.117757 174.559901 499.117757 
z
" clip-path="url(#p10eb15fc0c)" style="fill: #1f77b4; fill-opacity: 0.6; stroke: #000000; stroke-opacity: 0.6; stroke-width: 1.5"/>
    <path d="M 179.715518 498.407194 
C 181.545532 498.407194 183.300839 497.680122 184.594854 496.386107 
C 185.888869 495.092092 186.615941 493.336784 186.615941 491.506771 
C 186.615941 489.676757 185.888869 487.92145 184.594854 486.627435 
C 183.300839 485.33342 181.545532 484.606348 179.715518 484.606348 
C 177.885505 484.606348 176.130198 485.33342 174.836183 486.627435 
C 173.542168 487.92145 172.815096 489.676757 172.815096 491.506771 
C 172.815096 493.336784 173.542168 495.092092 174.836183 496.386107 
C 176.130198 497.680122 177.885505 498.407194 179.715518 498.407194 
z
" clip-path="url(#p10eb15fc0c)" style="fill: #1f77b4; fill-opacity: 0.6; stroke: #000000; stroke-opacity: 0.6; stroke-width: 1.5"/>
    <path d="M 171.64609 498.187664 
C 172.852405 498.187664 174.009474 497.70839 174.862467 496.855397 
C 175.71546 496.002404 176.194734 494.845335 176.194734 493.639021 
C 176.194734 492.432706 175.71546 491.275637 174.862467 490.422644 
C 174.009474 489.569651 172.852405 489.090377 171.64609 489.090377 
C 170.439776 489.090377 169.282707 489.569651 168.429714 490.422644 
C 167.576721 491.275637 167.097447 492.432706 167.097447 493.639021 
C 167.097447 494.845335 167.576721 496.002404 168.429714 496.855397 
C 169.282707 497.70839 170.439776 498.187664 171.64609 498.187664 
z
" clip-path="url(#p10eb15fc0c)" style="fill: #1f77b4; fill-opacity: 0.6; stroke: #000000; stroke-opacity: 0.6; stroke-width: 1.5"/>
    <path d="M 149.977982 499.849956 
C 150.915617 499.849956 151.814975 499.47743 152.477982 498.814422 
C 153.14099 498.151415 153.513516 497.252057 153.513516 496.314422 
C 153.513516 495.376788 153.14099 494.47743 152.477982 493.814422 
C 151.814975 493.151415 150.915617 492.778888 149.977982 492.778888 
C 149.040348 492.778888 148.14099 493.151415 147.477982 493.814422 
C 146.814975 494.47743 146.442449 495.376788 146.442449 496.314422 
C 146.442449 497.252057 146.814975 498.151415 147.477982 498.814422 
C 148.14099 499.47743 149.040348 499.849956 149.977982 499.849956 
z
" clip-path="url(#p10eb15fc0c)" style="fill: #1f77b4; fill-opacity: 0.6; stroke: #000000; stroke-opacity: 0.6; stroke-width: 1.5"/>
    <path d="M 179.715518 496.970356 
C 181.152883 496.970356 182.531571 496.399285 183.547941 495.382915 
C 184.564311 494.366545 185.135383 492.987857 185.135383 491.550492 
C 185.135383 490.113127 184.564311 488.73444 183.547941 487.718069 
C 182.531571 486.701699 181.152883 486.130628 179.715518 486.130628 
C 178.278154 486.130628 176.899466 486.701699 175.883096 487.718069 
C 174.866725 488.73444 174.295654 490.113127 174.295654 491.550492 
C 174.295654 492.987857 174.866725 494.366545 175.883096 495.382915 
C 176.899466 496.399285 178.278154 496.970356 179.715518 496.970356 
z
" clip-path="url(#p10eb15fc0c)" style="fill: #1f77b4; fill-opacity: 0.6; stroke: #000000; stroke-opacity: 0.6; stroke-width: 1.5"/>
    <path d="M 174.559901 497.058869 
C 175.526614 497.058869 176.453863 496.67479 177.137433 495.99122 
C 177.821002 495.307651 178.205081 494.380401 178.205081 493.413688 
C 178.205081 492.446975 177.821002 491.519726 177.137433 490.836156 
C 176.453863 490.152587 175.526614 489.768508 174.559901 489.768508 
C 173.593188 489.768508 172.665939 490.152587 171.982369 490.836156 
C 171.2988 491.519726 170.914721 492.446975 170.914721 493.413688 
C 170.914721 494.380401 171.2988 495.307651 171.982369 495.99122 
C 172.665939 496.67479 173.593188 497.058869 174.559901 497.058869 
z
" clip-path="url(#p10eb15fc0c)" style="fill: #1f77b4; fill-opacity: 0.6; stroke: #000000; stroke-opacity: 0.6; stroke-width: 1.5"/>
    <path d="M 174.559901 497.571243 
C 175.637078 497.571243 176.670281 497.143276 177.43196 496.381597 
C 178.193638 495.619918 178.621605 494.586715 178.621605 493.509539 
C 178.621605 492.432362 178.193638 491.399159 177.43196 490.63748 
C 176.670281 489.875801 175.637078 489.447835 174.559901 489.447835 
C 173.482725 489.447835 172.449521 489.875801 171.687843 490.63748 
C 170.926164 491.399159 170.498197 492.432362 170.498197 493.509539 
C 170.498197 494.586715 170.926164 495.619918 171.687843 496.381597 
C 172.449521 497.143276 173.482725 497.571243 174.559901 497.571243 
z
" clip-path="url(#p10eb15fc0c)" style="fill: #1f77b4; fill-opacity: 0.6; stroke: #000000; stroke-opacity: 0.6; stroke-width: 1.5"/>
    <path d="M 159.89139 499.604722 
C 160.922304 499.604722 161.911134 499.195136 162.6401 498.466169 
C 163.369066 497.737203 163.778653 496.748374 163.778653 495.71746 
C 163.778653 494.686546 163.369066 493.697716 162.6401 492.96875 
C 161.911134 492.239784 160.922304 491.830197 159.89139 491.830197 
C 158.860476 491.830197 157.871647 492.239784 157.142681 492.96875 
C 156.413714 493.697716 156.004128 494.686546 156.004128 495.71746 
C 156.004128 496.748374 156.413714 497.737203 157.142681 498.466169 
C 157.871647 499.195136 158.860476 499.604722 159.89139 499.604722 
z
" clip-path="url(#p10eb15fc0c)" style="fill: #1f77b4; fill-opacity: 0.6; stroke: #000000; stroke-opacity: 0.6; stroke-width: 1.5"/>
    <path d="M 179.527357 496.642015 
C 180.877645 496.642015 182.17281 496.10554 183.127607 495.150742 
C 184.082405 494.195945 184.61888 492.90078 184.61888 491.550492 
C 184.61888 490.200205 184.082405 488.90504 183.127607 487.950242 
C 182.17281 486.995445 180.877645 486.45897 179.527357 486.45897 
C 178.17707 486.45897 176.881904 486.995445 175.927107 487.950242 
C 174.97231 488.90504 174.435835 490.200205 174.435835 491.550492 
C 174.435835 492.90078 174.97231 494.195945 175.927107 495.150742 
C 176.881904 496.10554 178.17707 496.642015 179.527357 496.642015 
z
" clip-path="url(#p10eb15fc0c)" style="fill: #1f77b4; fill-opacity: 0.6; stroke: #000000; stroke-opacity: 0.6; stroke-width: 1.5"/>
    <path d="M 189.628926 494.944829 
C 190.671823 494.944829 191.672145 494.530482 192.409584 493.793043 
C 193.147023 493.055604 193.56137 492.055281 193.56137 491.012385 
C 193.56137 489.969489 193.147023 488.969166 192.409584 488.231727 
C 191.672145 487.494288 190.671823 487.079941 189.628926 487.079941 
C 188.58603 487.079941 187.585708 487.494288 186.848269 488.231727 
C 186.11083 488.969166 185.696482 489.969489 185.696482 491.012385 
C 185.696482 492.055281 186.11083 493.055604 186.848269 493.793043 
C 187.585708 494.530482 188.58603 494.944829 189.628926 494.944829 
z
" clip-path="url(#p10eb15fc0c)" style="fill: #1f77b4; fill-opacity: 0.6; stroke: #000000; stroke-opacity: 0.6; stroke-width: 1.5"/>
    <path d="M 174.559901 497.731083 
C 175.706671 497.731083 176.806627 497.275466 177.617516 496.464577 
C 178.428405 495.653688 178.884022 494.553732 178.884022 493.406962 
C 178.884022 492.260192 178.428405 491.160236 177.617516 490.349347 
C 176.806627 489.538458 175.706671 489.082841 174.559901 489.082841 
C 173.413131 489.082841 172.313175 489.538458 171.502286 490.349347 
C 170.691397 491.160236 170.23578 492.260192 170.23578 493.406962 
C 170.23578 494.553732 170.691397 495.653688 171.502286 496.464577 
C 172.313175 497.275466 173.413131 497.731083 174.559901 497.731083 
z
" clip-path="url(#p10eb15fc0c)" style="fill: #1f77b4; fill-opacity: 0.6; stroke: #000000; stroke-opacity: 0.6; stroke-width: 1.5"/>
    <path d="M 164.646493 498.918305 
C 166.019372 498.918305 167.336206 498.372855 168.306978 497.402083 
C 169.27775 496.431311 169.823201 495.114476 169.823201 493.741597 
C 169.823201 492.368718 169.27775 491.051884 168.306978 490.081112 
C 167.336206 489.11034 166.019372 488.56489 164.646493 488.56489 
C 163.273614 488.56489 161.95678 489.11034 160.986008 490.081112 
C 160.015236 491.051884 159.469785 492.368718 159.469785 493.741597 
C 159.469785 495.114476 160.015236 496.431311 160.986008 497.402083 
C 161.95678 498.372855 163.273614 498.918305 164.646493 498.918305 
z
" clip-path="url(#p10eb15fc0c)" style="fill: #1f77b4; fill-opacity: 0.6; stroke: #000000; stroke-opacity: 0.6; stroke-width: 1.5"/>
    <path d="M 174.559901 498.233704 
C 175.827035 498.233704 177.042441 497.730266 177.938441 496.834267 
C 178.83444 495.938268 179.337877 494.722862 179.337877 493.455728 
C 179.337877 492.188594 178.83444 490.973188 177.938441 490.077188 
C 177.042441 489.181189 175.827035 488.677752 174.559901 488.677752 
C 173.292767 488.677752 172.077361 489.181189 171.181362 490.077188 
C 170.285362 490.973188 169.781925 492.188594 169.781925 493.455728 
C 169.781925 494.722862 170.285362 495.938268 171.181362 496.834267 
C 172.077361 497.730266 173.292767 498.233704 174.559901 498.233704 
z
" clip-path="url(#p10eb15fc0c)" style="fill: #1f77b4; fill-opacity: 0.6; stroke: #000000; stroke-opacity: 0.6; stroke-width: 1.5"/>
    <path d="M 179.715518 496.335591 
C 181.038949 496.335591 182.308353 495.809786 183.244159 494.87398 
C 184.179966 493.938173 184.70577 492.668769 184.70577 491.345339 
C 184.70577 490.021908 184.179966 488.752504 183.244159 487.816698 
C 182.308353 486.880891 181.038949 486.355087 179.715518 486.355087 
C 178.392088 486.355087 177.122684 486.880891 176.186877 487.816698 
C 175.251071 488.752504 174.725266 490.021908 174.725266 491.345339 
C 174.725266 492.668769 175.251071 493.938173 176.186877 494.87398 
C 177.122684 495.809786 178.392088 496.335591 179.715518 496.335591 
z
" clip-path="url(#p10eb15fc0c)" style="fill: #1f77b4; fill-opacity: 0.6; stroke: #000000; stroke-opacity: 0.6; stroke-width: 1.5"/>
    <path d="M 159.89139 501.721926 
C 161.469969 501.721926 162.984105 501.09475 164.100328 499.978526 
C 165.216551 498.862303 165.843727 497.348167 165.843727 495.769589 
C 165.843727 494.191011 165.216551 492.676874 164.100328 491.560651 
C 162.984105 490.444428 161.469969 489.817252 159.89139 489.817252 
C 158.312812 489.817252 156.798676 490.444428 155.682453 491.560651 
C 154.566229 492.676874 153.939054 494.191011 153.939054 495.769589 
C 153.939054 497.348167 154.566229 498.862303 155.682453 499.978526 
C 156.798676 501.09475 158.312812 501.721926 159.89139 501.721926 
z
" clip-path="url(#p10eb15fc0c)" style="fill: #1f77b4; fill-opacity: 0.6; stroke: #000000; stroke-opacity: 0.6; stroke-width: 1.5"/>
    <path d="M 159.89139 501.409616 
C 161.42059 501.409616 162.887364 500.802058 163.968671 499.720751 
C 165.049979 498.639443 165.657536 497.17267 165.657536 495.64347 
C 165.657536 494.11427 165.049979 492.647497 163.968671 491.566189 
C 162.887364 490.484882 161.42059 489.877324 159.89139 489.877324 
C 158.362191 489.877324 156.895417 490.484882 155.81411 491.566189 
C 154.732802 492.647497 154.125245 494.11427 154.125245 495.64347 
C 154.125245 497.17267 154.732802 498.639443 155.81411 499.720751 
C 156.895417 500.802058 158.362191 501.409616 159.89139 501.409616 
z
" clip-path="url(#p10eb15fc0c)" style="fill: #1f77b4; fill-opacity: 0.6; stroke: #000000; stroke-opacity: 0.6; stroke-width: 1.5"/>
    <path d="M 164.646493 500.337029 
C 166.363959 500.337029 168.011313 499.654673 169.225744 498.440241 
C 170.440176 497.22581 171.122532 495.578456 171.122532 493.86099 
C 171.122532 492.143524 170.440176 490.49617 169.225744 489.281739 
C 168.011313 488.067307 166.363959 487.384951 164.646493 487.384951 
C 162.929027 487.384951 161.281673 488.067307 160.067242 489.281739 
C 158.85281 490.49617 158.170454 492.143524 158.170454 493.86099 
C 158.170454 495.578456 158.85281 497.22581 160.067242 498.440241 
C 161.281673 499.654673 162.929027 500.337029 164.646493 500.337029 
z
" clip-path="url(#p10eb15fc0c)" style="fill: #1f77b4; fill-opacity: 0.6; stroke: #000000; stroke-opacity: 0.6; stroke-width: 1.5"/>
    <path d="M 164.84003 505.199399 
C 167.805091 505.199399 170.64911 504.021368 172.745724 501.924753 
C 174.842339 499.828138 176.02037 496.98412 176.02037 494.019059 
C 176.02037 491.053998 174.842339 488.209979 172.745724 486.113365 
C 170.64911 484.01675 167.805091 482.838719 164.84003 482.838719 
C 161.87497 482.838719 159.030951 484.01675 156.934336 486.113365 
C 154.837722 488.209979 153.65969 491.053998 153.65969 494.019059 
C 153.65969 496.98412 154.837722 499.828138 156.934336 501.924753 
C 159.030951 504.021368 161.87497 505.199399 164.84003 505.199399 
z
" clip-path="url(#p10eb15fc0c)" style="fill: #1f77b4; fill-opacity: 0.6; stroke: #000000; stroke-opacity: 0.6; stroke-width: 1.5"/>
   </g>
   <g id="PathCollection_2">
    <path d="M 689.926866 384.773634 
L 708.869085 384.773634 
L 708.869085 365.831414 
L 689.926866 365.831414 
z
" clip-path="url(#p10eb15fc0c)" style="fill: #ff7f0e; fill-opacity: 0.6; stroke: #000000; stroke-opacity: 0.6; stroke-width: 1.5"/>
    <path d="M 735.282512 377.691587 
L 752.416925 377.691587 
L 752.416925 360.557175 
L 735.282512 360.557175 
z
" clip-path="url(#p10eb15fc0c)" style="fill: #ff7f0e; fill-opacity: 0.6; stroke: #000000; stroke-opacity: 0.6; stroke-width: 1.5"/>
    <path d="M 756.565853 363.20132 
L 778.926532 363.20132 
L 778.926532 340.840641 
L 756.565853 340.840641 
z
" clip-path="url(#p10eb15fc0c)" style="fill: #ff7f0e; fill-opacity: 0.6; stroke: #000000; stroke-opacity: 0.6; stroke-width: 1.5"/>
    <path d="M 735.196905 371.183804 
L 752.997127 371.183804 
L 752.997127 353.383583 
L 735.196905 353.383583 
z
" clip-path="url(#p10eb15fc0c)" style="fill: #ff7f0e; fill-opacity: 0.6; stroke: #000000; stroke-opacity: 0.6; stroke-width: 1.5"/>
    <path d="M 765.620111 362.390638 
L 783.995117 362.390638 
L 783.995117 344.015632 
L 765.620111 344.015632 
z
" clip-path="url(#p10eb15fc0c)" style="fill: #ff7f0e; fill-opacity: 0.6; stroke: #000000; stroke-opacity: 0.6; stroke-width: 1.5"/>
    <path d="M 629.774385 390.198017 
L 645.345888 390.198017 
L 645.345888 374.626514 
L 629.774385 374.626514 
z
" clip-path="url(#p10eb15fc0c)" style="fill: #ff7f0e; fill-opacity: 0.6; stroke: #000000; stroke-opacity: 0.6; stroke-width: 1.5"/>
    <path d="M 688.692103 379.525066 
L 706.829843 379.525066 
L 706.829843 361.387327 
L 688.692103 361.387327 
z
" clip-path="url(#p10eb15fc0c)" style="fill: #ff7f0e; fill-opacity: 0.6; stroke: #000000; stroke-opacity: 0.6; stroke-width: 1.5"/>
    <path d="M 684.929635 385.467072 
L 696.517852 385.467072 
L 696.517852 373.878855 
L 684.929635 373.878855 
z
" clip-path="url(#p10eb15fc0c)" style="fill: #ff7f0e; fill-opacity: 0.6; stroke: #000000; stroke-opacity: 0.6; stroke-width: 1.5"/>
    <path d="M 685.390838 378.277374 
L 695.631942 378.277374 
L 695.631942 368.03627 
L 685.390838 368.03627 
z
" clip-path="url(#p10eb15fc0c)" style="fill: #ff7f0e; fill-opacity: 0.6; stroke: #000000; stroke-opacity: 0.6; stroke-width: 1.5"/>
    <path d="M 762.629856 357.373847 
L 779.82987 357.373847 
L 779.82987 340.173833 
L 762.629856 340.173833 
z
" clip-path="url(#p10eb15fc0c)" style="fill: #ff7f0e; fill-opacity: 0.6; stroke: #000000; stroke-opacity: 0.6; stroke-width: 1.5"/>
    <path d="M 768.185897 350.57003 
L 780.82184 350.57003 
L 780.82184 337.934086 
L 768.185897 337.934086 
z
" clip-path="url(#p10eb15fc0c)" style="fill: #ff7f0e; fill-opacity: 0.6; stroke: #000000; stroke-opacity: 0.6; stroke-width: 1.5"/>
    <path d="M 679.458037 381.946469 
L 699.317561 381.946469 
L 699.317561 362.086946 
L 679.458037 362.086946 
z
" clip-path="url(#p10eb15fc0c)" style="fill: #ff7f0e; fill-opacity: 0.6; stroke: #000000; stroke-opacity: 0.6; stroke-width: 1.5"/>
    <path d="M 651.430173 375.910972 
L 660.940645 375.910972 
L 660.940645 366.4005 
L 651.430173 366.4005 
z
" clip-path="url(#p10eb15fc0c)" style="fill: #ff7f0e; fill-opacity: 0.6; stroke: #000000; stroke-opacity: 0.6; stroke-width: 1.5"/>
    <path d="M 718.707901 382.838549 
L 725.778969 382.838549 
L 725.778969 375.767481 
L 718.707901 375.767481 
z
" clip-path="url(#p10eb15fc0c)" style="fill: #ff7f0e; fill-opacity: 0.6; stroke: #000000; stroke-opacity: 0.6; stroke-width: 1.5"/>
    <path d="M 714.11949 383.276563 
L 725.14725 383.276563 
L 725.14725 372.248803 
L 714.11949 372.248803 
z
" clip-path="url(#p10eb15fc0c)" style="fill: #ff7f0e; fill-opacity: 0.6; stroke: #000000; stroke-opacity: 0.6; stroke-width: 1.5"/>
    <path d="M 794.374765 385.798881 
L 805.210705 385.798881 
L 805.210705 374.962941 
L 794.374765 374.962941 
z
" clip-path="url(#p10eb15fc0c)" style="fill: #ff7f0e; fill-opacity: 0.6; stroke: #000000; stroke-opacity: 0.6; stroke-width: 1.5"/>
    <path d="M 805.964699 361.07321 
L 822.054619 361.07321 
L 822.054619 344.98329 
L 805.964699 344.98329 
z
" clip-path="url(#p10eb15fc0c)" style="fill: #ff7f0e; fill-opacity: 0.6; stroke: #000000; stroke-opacity: 0.6; stroke-width: 1.5"/>
    <path d="M 757.783108 374.488442 
L 774.601929 374.488442 
L 774.601929 357.66962 
L 757.783108 357.66962 
z
" clip-path="url(#p10eb15fc0c)" style="fill: #ff7f0e; fill-opacity: 0.6; stroke: #000000; stroke-opacity: 0.6; stroke-width: 1.5"/>
    <path d="M 640.703855 403.22123 
L 654.834597 403.22123 
L 654.834597 389.090488 
L 640.703855 389.090488 
z
" clip-path="url(#p10eb15fc0c)" style="fill: #ff7f0e; fill-opacity: 0.6; stroke: #000000; stroke-opacity: 0.6; stroke-width: 1.5"/>
    <path d="M 574.677838 406.573737 
L 594.867866 406.573737 
L 594.867866 386.38371 
L 574.677838 386.38371 
z
" clip-path="url(#p10eb15fc0c)" style="fill: #ff7f0e; fill-opacity: 0.6; stroke: #000000; stroke-opacity: 0.6; stroke-width: 1.5"/>
    <path d="M 703.013901 386.941019 
L 721.431111 386.941019 
L 721.431111 368.52381 
L 703.013901 368.52381 
z
" clip-path="url(#p10eb15fc0c)" style="fill: #ff7f0e; fill-opacity: 0.6; stroke: #000000; stroke-opacity: 0.6; stroke-width: 1.5"/>
   </g>
   <g id="PathCollection_3">
    <path d="M 230.752904 465.123439 
L 222.192691 482.243865 
L 239.313117 482.243865 
z
" clip-path="url(#p10eb15fc0c)" style="fill: #2ca02c; fill-opacity: 0.6; stroke: #000000; stroke-opacity: 0.6; stroke-width: 1.5"/>
    <path d="M 242.846294 439.206416 
L 232.93365 459.031702 
L 252.758937 459.031702 
z
" clip-path="url(#p10eb15fc0c)" style="fill: #2ca02c; fill-opacity: 0.6; stroke: #000000; stroke-opacity: 0.6; stroke-width: 1.5"/>
    <path d="M 229.118589 463.582718 
L 221.804042 478.211813 
L 236.433137 478.211813 
z
" clip-path="url(#p10eb15fc0c)" style="fill: #2ca02c; fill-opacity: 0.6; stroke: #000000; stroke-opacity: 0.6; stroke-width: 1.5"/>
    <path d="M 268.196985 454.308591 
L 259.629471 471.44362 
L 276.7645 471.44362 
z
" clip-path="url(#p10eb15fc0c)" style="fill: #2ca02c; fill-opacity: 0.6; stroke: #000000; stroke-opacity: 0.6; stroke-width: 1.5"/>
    <path d="M 256.055211 441.982885 
L 246.359664 461.373978 
L 265.750757 461.373978 
z
" clip-path="url(#p10eb15fc0c)" style="fill: #2ca02c; fill-opacity: 0.6; stroke: #000000; stroke-opacity: 0.6; stroke-width: 1.5"/>
    <path d="M 259.745859 447.607833 
L 248.565519 469.968512 
L 270.926199 469.968512 
z
" clip-path="url(#p10eb15fc0c)" style="fill: #2ca02c; fill-opacity: 0.6; stroke: #000000; stroke-opacity: 0.6; stroke-width: 1.5"/>
    <path d="M 231.97864 454.3268 
L 223.947263 470.389554 
L 240.010016 470.389554 
z
" clip-path="url(#p10eb15fc0c)" style="fill: #2ca02c; fill-opacity: 0.6; stroke: #000000; stroke-opacity: 0.6; stroke-width: 1.5"/>
    <path d="M 249.117438 457.877865 
L 241.657357 472.798027 
L 256.577519 472.798027 
z
" clip-path="url(#p10eb15fc0c)" style="fill: #2ca02c; fill-opacity: 0.6; stroke: #000000; stroke-opacity: 0.6; stroke-width: 1.5"/>
    <path d="M 299.998918 445.63795 
L 291.015663 463.60446 
L 308.982173 463.60446 
z
" clip-path="url(#p10eb15fc0c)" style="fill: #2ca02c; fill-opacity: 0.6; stroke: #000000; stroke-opacity: 0.6; stroke-width: 1.5"/>
    <path d="M 253.617179 447.198802 
L 245.503644 463.425871 
L 261.730714 463.425871 
z
" clip-path="url(#p10eb15fc0c)" style="fill: #2ca02c; fill-opacity: 0.6; stroke: #000000; stroke-opacity: 0.6; stroke-width: 1.5"/>
    <path d="M 233.043094 448.086226 
L 224.670143 464.832129 
L 241.416046 464.832129 
z
" clip-path="url(#p10eb15fc0c)" style="fill: #2ca02c; fill-opacity: 0.6; stroke: #000000; stroke-opacity: 0.6; stroke-width: 1.5"/>
    <path d="M 259.501249 450.902033 
L 251.823626 466.257279 
L 267.178872 466.257279 
z
" clip-path="url(#p10eb15fc0c)" style="fill: #2ca02c; fill-opacity: 0.6; stroke: #000000; stroke-opacity: 0.6; stroke-width: 1.5"/>
    <path d="M 266.256237 447.500797 
L 257.101111 465.811049 
L 275.411363 465.811049 
z
" clip-path="url(#p10eb15fc0c)" style="fill: #2ca02c; fill-opacity: 0.6; stroke: #000000; stroke-opacity: 0.6; stroke-width: 1.5"/>
    <path d="M 243.709147 457.906879 
L 236.483233 472.358706 
L 250.935061 472.358706 
z
" clip-path="url(#p10eb15fc0c)" style="fill: #2ca02c; fill-opacity: 0.6; stroke: #000000; stroke-opacity: 0.6; stroke-width: 1.5"/>
    <path d="M 180.056897 483.3906 
L 176.521363 490.461667 
L 183.59243 490.461667 
z
" clip-path="url(#p10eb15fc0c)" style="fill: #2ca02c; fill-opacity: 0.6; stroke: #000000; stroke-opacity: 0.6; stroke-width: 1.5"/>
    <path d="M 234.478496 449.42415 
L 226.103246 466.174651 
L 242.853746 466.174651 
z
" clip-path="url(#p10eb15fc0c)" style="fill: #2ca02c; fill-opacity: 0.6; stroke: #000000; stroke-opacity: 0.6; stroke-width: 1.5"/>
    <path d="M 208.431608 466.890063 
L 200.306203 483.140872 
L 216.557012 483.140872 
z
" clip-path="url(#p10eb15fc0c)" style="fill: #2ca02c; fill-opacity: 0.6; stroke: #000000; stroke-opacity: 0.6; stroke-width: 1.5"/>
    <path d="M 251.163019 442.348521 
L 240.011953 464.650655 
L 262.314086 464.650655 
z
" clip-path="url(#p10eb15fc0c)" style="fill: #2ca02c; fill-opacity: 0.6; stroke: #000000; stroke-opacity: 0.6; stroke-width: 1.5"/>
   </g>
   <g id="matplotlib.axis_1">
    <g id="xtick_1">
     <g id="line2d_1">
      <path d="M 105.727841 526.7575 
L 105.727841 39.3575 
" clip-path="url(#p10eb15fc0c)" style="fill: none; stroke-dasharray: 2.96,1.28; stroke-dashoffset: 0; stroke: #b0b0b0; stroke-opacity: 0.3; stroke-width: 0.8"/>
     </g>
     <g id="line2d_2">
      <defs>
       <path id="mae103e6127" d="M 0 0 
L 0 3.5 
" style="stroke: #000000; stroke-width: 0.8"/>
      </defs>
      <g>
       <use xlink:href="#mae103e6127" x="105.727841" y="526.7575" style="stroke: #000000; stroke-width: 0.8"/>
      </g>
     </g>
     <g id="text_1">
      <!-- 0 -->
      <g transform="translate(102.546591 541.355937) scale(0.1 -0.1)">
       <defs>
        <path id="DejaVuSans-30" d="M 2034 4250 
Q 1547 4250 1301 3770 
Q 1056 3291 1056 2328 
Q 1056 1369 1301 889 
Q 1547 409 2034 409 
Q 2525 409 2770 889 
Q 3016 1369 3016 2328 
Q 3016 3291 2770 3770 
Q 2525 4250 2034 4250 
z
M 2034 4750 
Q 2819 4750 3233 4129 
Q 3647 3509 3647 2328 
Q 3647 1150 3233 529 
Q 2819 -91 2034 -91 
Q 1250 -91 836 529 
Q 422 1150 422 2328 
Q 422 3509 836 4129 
Q 1250 4750 2034 4750 
z
" transform="scale(0.015625)"/>
       </defs>
       <use xlink:href="#DejaVuSans-30"/>
      </g>
     </g>
    </g>
    <g id="xtick_2">
     <g id="line2d_3">
      <path d="M 240.128708 526.7575 
L 240.128708 39.3575 
" clip-path="url(#p10eb15fc0c)" style="fill: none; stroke-dasharray: 2.96,1.28; stroke-dashoffset: 0; stroke: #b0b0b0; stroke-opacity: 0.3; stroke-width: 0.8"/>
     </g>
     <g id="line2d_4">
      <g>
       <use xlink:href="#mae103e6127" x="240.128708" y="526.7575" style="stroke: #000000; stroke-width: 0.8"/>
      </g>
     </g>
     <g id="text_2">
      <!-- 50000 -->
      <g transform="translate(224.222458 541.355937) scale(0.1 -0.1)">
       <defs>
        <path id="DejaVuSans-35" d="M 691 4666 
L 3169 4666 
L 3169 4134 
L 1269 4134 
L 1269 2991 
Q 1406 3038 1543 3061 
Q 1681 3084 1819 3084 
Q 2600 3084 3056 2656 
Q 3513 2228 3513 1497 
Q 3513 744 3044 326 
Q 2575 -91 1722 -91 
Q 1428 -91 1123 -41 
Q 819 9 494 109 
L 494 744 
Q 775 591 1075 516 
Q 1375 441 1709 441 
Q 2250 441 2565 725 
Q 2881 1009 2881 1497 
Q 2881 1984 2565 2268 
Q 2250 2553 1709 2553 
Q 1456 2553 1204 2497 
Q 953 2441 691 2322 
L 691 4666 
z
" transform="scale(0.015625)"/>
       </defs>
       <use xlink:href="#DejaVuSans-35"/>
       <use xlink:href="#DejaVuSans-30" x="63.623047"/>
       <use xlink:href="#DejaVuSans-30" x="127.246094"/>
       <use xlink:href="#DejaVuSans-30" x="190.869141"/>
       <use xlink:href="#DejaVuSans-30" x="254.492188"/>
      </g>
     </g>
    </g>
    <g id="xtick_3">
     <g id="line2d_5">
      <path d="M 374.529575 526.7575 
L 374.529575 39.3575 
" clip-path="url(#p10eb15fc0c)" style="fill: none; stroke-dasharray: 2.96,1.28; stroke-dashoffset: 0; stroke: #b0b0b0; stroke-opacity: 0.3; stroke-width: 0.8"/>
     </g>
     <g id="line2d_6">
      <g>
       <use xlink:href="#mae103e6127" x="374.529575" y="526.7575" style="stroke: #000000; stroke-width: 0.8"/>
      </g>
     </g>
     <g id="text_3">
      <!-- 100000 -->
      <g transform="translate(355.442075 541.355937) scale(0.1 -0.1)">
       <defs>
        <path id="DejaVuSans-31" d="M 794 531 
L 1825 531 
L 1825 4091 
L 703 3866 
L 703 4441 
L 1819 4666 
L 2450 4666 
L 2450 531 
L 3481 531 
L 3481 0 
L 794 0 
L 794 531 
z
" transform="scale(0.015625)"/>
       </defs>
       <use xlink:href="#DejaVuSans-31"/>
       <use xlink:href="#DejaVuSans-30" x="63.623047"/>
       <use xlink:href="#DejaVuSans-30" x="127.246094"/>
       <use xlink:href="#DejaVuSans-30" x="190.869141"/>
       <use xlink:href="#DejaVuSans-30" x="254.492188"/>
       <use xlink:href="#DejaVuSans-30" x="318.115234"/>
      </g>
     </g>
    </g>
    <g id="xtick_4">
     <g id="line2d_7">
      <path d="M 508.930443 526.7575 
L 508.930443 39.3575 
" clip-path="url(#p10eb15fc0c)" style="fill: none; stroke-dasharray: 2.96,1.28; stroke-dashoffset: 0; stroke: #b0b0b0; stroke-opacity: 0.3; stroke-width: 0.8"/>
     </g>
     <g id="line2d_8">
      <g>
       <use xlink:href="#mae103e6127" x="508.930443" y="526.7575" style="stroke: #000000; stroke-width: 0.8"/>
      </g>
     </g>
     <g id="text_4">
      <!-- 150000 -->
      <g transform="translate(489.842943 541.355937) scale(0.1 -0.1)">
       <use xlink:href="#DejaVuSans-31"/>
       <use xlink:href="#DejaVuSans-35" x="63.623047"/>
       <use xlink:href="#DejaVuSans-30" x="127.246094"/>
       <use xlink:href="#DejaVuSans-30" x="190.869141"/>
       <use xlink:href="#DejaVuSans-30" x="254.492188"/>
       <use xlink:href="#DejaVuSans-30" x="318.115234"/>
      </g>
     </g>
    </g>
    <g id="xtick_5">
     <g id="line2d_9">
      <path d="M 643.33131 526.7575 
L 643.33131 39.3575 
" clip-path="url(#p10eb15fc0c)" style="fill: none; stroke-dasharray: 2.96,1.28; stroke-dashoffset: 0; stroke: #b0b0b0; stroke-opacity: 0.3; stroke-width: 0.8"/>
     </g>
     <g id="line2d_10">
      <g>
       <use xlink:href="#mae103e6127" x="643.33131" y="526.7575" style="stroke: #000000; stroke-width: 0.8"/>
      </g>
     </g>
     <g id="text_5">
      <!-- 200000 -->
      <g transform="translate(624.24381 541.355937) scale(0.1 -0.1)">
       <defs>
        <path id="DejaVuSans-32" d="M 1228 531 
L 3431 531 
L 3431 0 
L 469 0 
L 469 531 
Q 828 903 1448 1529 
Q 2069 2156 2228 2338 
Q 2531 2678 2651 2914 
Q 2772 3150 2772 3378 
Q 2772 3750 2511 3984 
Q 2250 4219 1831 4219 
Q 1534 4219 1204 4116 
Q 875 4013 500 3803 
L 500 4441 
Q 881 4594 1212 4672 
Q 1544 4750 1819 4750 
Q 2544 4750 2975 4387 
Q 3406 4025 3406 3419 
Q 3406 3131 3298 2873 
Q 3191 2616 2906 2266 
Q 2828 2175 2409 1742 
Q 1991 1309 1228 531 
z
" transform="scale(0.015625)"/>
       </defs>
       <use xlink:href="#DejaVuSans-32"/>
       <use xlink:href="#DejaVuSans-30" x="63.623047"/>
       <use xlink:href="#DejaVuSans-30" x="127.246094"/>
       <use xlink:href="#DejaVuSans-30" x="190.869141"/>
       <use xlink:href="#DejaVuSans-30" x="254.492188"/>
       <use xlink:href="#DejaVuSans-30" x="318.115234"/>
      </g>
     </g>
    </g>
    <g id="xtick_6">
     <g id="line2d_11">
      <path d="M 777.732177 526.7575 
L 777.732177 39.3575 
" clip-path="url(#p10eb15fc0c)" style="fill: none; stroke-dasharray: 2.96,1.28; stroke-dashoffset: 0; stroke: #b0b0b0; stroke-opacity: 0.3; stroke-width: 0.8"/>
     </g>
     <g id="line2d_12">
      <g>
       <use xlink:href="#mae103e6127" x="777.732177" y="526.7575" style="stroke: #000000; stroke-width: 0.8"/>
      </g>
     </g>
     <g id="text_6">
      <!-- 250000 -->
      <g transform="translate(758.644677 541.355937) scale(0.1 -0.1)">
       <use xlink:href="#DejaVuSans-32"/>
       <use xlink:href="#DejaVuSans-35" x="63.623047"/>
       <use xlink:href="#DejaVuSans-30" x="127.246094"/>
       <use xlink:href="#DejaVuSans-30" x="190.869141"/>
       <use xlink:href="#DejaVuSans-30" x="254.492188"/>
       <use xlink:href="#DejaVuSans-30" x="318.115234"/>
      </g>
     </g>
    </g>
    <g id="text_7">
     <!-- Input Tokens (TOK_IN) -->
     <g transform="translate(372.531719 558.073437) scale(0.14 -0.14)">
      <defs>
       <path id="DejaVuSans-Bold-49" d="M 588 4666 
L 1791 4666 
L 1791 0 
L 588 0 
L 588 4666 
z
" transform="scale(0.015625)"/>
       <path id="DejaVuSans-Bold-6e" d="M 4056 2131 
L 4056 0 
L 2931 0 
L 2931 347 
L 2931 1631 
Q 2931 2084 2911 2256 
Q 2891 2428 2841 2509 
Q 2775 2619 2662 2680 
Q 2550 2741 2406 2741 
Q 2056 2741 1856 2470 
Q 1656 2200 1656 1722 
L 1656 0 
L 538 0 
L 538 3500 
L 1656 3500 
L 1656 2988 
Q 1909 3294 2193 3439 
Q 2478 3584 2822 3584 
Q 3428 3584 3742 3212 
Q 4056 2841 4056 2131 
z
" transform="scale(0.015625)"/>
       <path id="DejaVuSans-Bold-70" d="M 1656 506 
L 1656 -1331 
L 538 -1331 
L 538 3500 
L 1656 3500 
L 1656 2988 
Q 1888 3294 2169 3439 
Q 2450 3584 2816 3584 
Q 3463 3584 3878 3070 
Q 4294 2556 4294 1747 
Q 4294 938 3878 423 
Q 3463 -91 2816 -91 
Q 2450 -91 2169 54 
Q 1888 200 1656 506 
z
M 2400 2772 
Q 2041 2772 1848 2508 
Q 1656 2244 1656 1747 
Q 1656 1250 1848 986 
Q 2041 722 2400 722 
Q 2759 722 2948 984 
Q 3138 1247 3138 1747 
Q 3138 2247 2948 2509 
Q 2759 2772 2400 2772 
z
" transform="scale(0.015625)"/>
       <path id="DejaVuSans-Bold-75" d="M 500 1363 
L 500 3500 
L 1625 3500 
L 1625 3150 
Q 1625 2866 1622 2436 
Q 1619 2006 1619 1863 
Q 1619 1441 1641 1255 
Q 1663 1069 1716 984 
Q 1784 875 1895 815 
Q 2006 756 2150 756 
Q 2500 756 2700 1025 
Q 2900 1294 2900 1772 
L 2900 3500 
L 4019 3500 
L 4019 0 
L 2900 0 
L 2900 506 
Q 2647 200 2364 54 
Q 2081 -91 1741 -91 
Q 1134 -91 817 281 
Q 500 653 500 1363 
z
" transform="scale(0.015625)"/>
       <path id="DejaVuSans-Bold-74" d="M 1759 4494 
L 1759 3500 
L 2913 3500 
L 2913 2700 
L 1759 2700 
L 1759 1216 
Q 1759 972 1856 886 
Q 1953 800 2241 800 
L 2816 800 
L 2816 0 
L 1856 0 
Q 1194 0 917 276 
Q 641 553 641 1216 
L 641 2700 
L 84 2700 
L 84 3500 
L 641 3500 
L 641 4494 
L 1759 4494 
z
" transform="scale(0.015625)"/>
       <path id="DejaVuSans-Bold-20" transform="scale(0.015625)"/>
       <path id="DejaVuSans-Bold-54" d="M 31 4666 
L 4331 4666 
L 4331 3756 
L 2784 3756 
L 2784 0 
L 1581 0 
L 1581 3756 
L 31 3756 
L 31 4666 
z
" transform="scale(0.015625)"/>
       <path id="DejaVuSans-Bold-6f" d="M 2203 2784 
Q 1831 2784 1636 2517 
Q 1441 2250 1441 1747 
Q 1441 1244 1636 976 
Q 1831 709 2203 709 
Q 2569 709 2762 976 
Q 2956 1244 2956 1747 
Q 2956 2250 2762 2517 
Q 2569 2784 2203 2784 
z
M 2203 3584 
Q 3106 3584 3614 3096 
Q 4122 2609 4122 1747 
Q 4122 884 3614 396 
Q 3106 -91 2203 -91 
Q 1297 -91 786 396 
Q 275 884 275 1747 
Q 275 2609 786 3096 
Q 1297 3584 2203 3584 
z
" transform="scale(0.015625)"/>
       <path id="DejaVuSans-Bold-6b" d="M 538 4863 
L 1656 4863 
L 1656 2216 
L 2944 3500 
L 4244 3500 
L 2534 1894 
L 4378 0 
L 3022 0 
L 1656 1459 
L 1656 0 
L 538 0 
L 538 4863 
z
" transform="scale(0.015625)"/>
       <path id="DejaVuSans-Bold-65" d="M 4031 1759 
L 4031 1441 
L 1416 1441 
Q 1456 1047 1700 850 
Q 1944 653 2381 653 
Q 2734 653 3104 758 
Q 3475 863 3866 1075 
L 3866 213 
Q 3469 63 3072 -14 
Q 2675 -91 2278 -91 
Q 1328 -91 801 392 
Q 275 875 275 1747 
Q 275 2603 792 3093 
Q 1309 3584 2216 3584 
Q 3041 3584 3536 3087 
Q 4031 2591 4031 1759 
z
M 2881 2131 
Q 2881 2450 2695 2645 
Q 2509 2841 2209 2841 
Q 1884 2841 1681 2658 
Q 1478 2475 1428 2131 
L 2881 2131 
z
" transform="scale(0.015625)"/>
       <path id="DejaVuSans-Bold-73" d="M 3272 3391 
L 3272 2541 
Q 2913 2691 2578 2766 
Q 2244 2841 1947 2841 
Q 1628 2841 1473 2761 
Q 1319 2681 1319 2516 
Q 1319 2381 1436 2309 
Q 1553 2238 1856 2203 
L 2053 2175 
Q 2913 2066 3209 1816 
Q 3506 1566 3506 1031 
Q 3506 472 3093 190 
Q 2681 -91 1863 -91 
Q 1516 -91 1145 -36 
Q 775 19 384 128 
L 384 978 
Q 719 816 1070 734 
Q 1422 653 1784 653 
Q 2113 653 2278 743 
Q 2444 834 2444 1013 
Q 2444 1163 2330 1236 
Q 2216 1309 1875 1350 
L 1678 1375 
Q 931 1469 631 1722 
Q 331 1975 331 2491 
Q 331 3047 712 3315 
Q 1094 3584 1881 3584 
Q 2191 3584 2531 3537 
Q 2872 3491 3272 3391 
z
" transform="scale(0.015625)"/>
       <path id="DejaVuSans-Bold-28" d="M 2413 -844 
L 1484 -844 
Q 1006 -72 778 623 
Q 550 1319 550 2003 
Q 550 2688 779 3389 
Q 1009 4091 1484 4856 
L 2413 4856 
Q 2013 4116 1813 3408 
Q 1613 2700 1613 2009 
Q 1613 1319 1811 609 
Q 2009 -100 2413 -844 
z
" transform="scale(0.015625)"/>
       <path id="DejaVuSans-Bold-4f" d="M 2719 3878 
Q 2169 3878 1866 3472 
Q 1563 3066 1563 2328 
Q 1563 1594 1866 1187 
Q 2169 781 2719 781 
Q 3272 781 3575 1187 
Q 3878 1594 3878 2328 
Q 3878 3066 3575 3472 
Q 3272 3878 2719 3878 
z
M 2719 4750 
Q 3844 4750 4481 4106 
Q 5119 3463 5119 2328 
Q 5119 1197 4481 553 
Q 3844 -91 2719 -91 
Q 1597 -91 958 553 
Q 319 1197 319 2328 
Q 319 3463 958 4106 
Q 1597 4750 2719 4750 
z
" transform="scale(0.015625)"/>
       <path id="DejaVuSans-Bold-4b" d="M 588 4666 
L 1791 4666 
L 1791 2963 
L 3525 4666 
L 4922 4666 
L 2675 2456 
L 5153 0 
L 3647 0 
L 1791 1838 
L 1791 0 
L 588 0 
L 588 4666 
z
" transform="scale(0.015625)"/>
       <path id="DejaVuSans-Bold-5f" d="M 3200 -916 
L 3200 -1509 
L 0 -1509 
L 0 -916 
L 3200 -916 
z
" transform="scale(0.015625)"/>
       <path id="DejaVuSans-Bold-4e" d="M 588 4666 
L 1931 4666 
L 3628 1466 
L 3628 4666 
L 4769 4666 
L 4769 0 
L 3425 0 
L 1728 3200 
L 1728 0 
L 588 0 
L 588 4666 
z
" transform="scale(0.015625)"/>
       <path id="DejaVuSans-Bold-29" d="M 513 -844 
Q 913 -100 1113 609 
Q 1313 1319 1313 2009 
Q 1313 2700 1113 3408 
Q 913 4116 513 4856 
L 1441 4856 
Q 1916 4091 2145 3389 
Q 2375 2688 2375 2003 
Q 2375 1319 2147 623 
Q 1919 -72 1441 -844 
L 513 -844 
z
" transform="scale(0.015625)"/>
      </defs>
      <use xlink:href="#DejaVuSans-Bold-49"/>
      <use xlink:href="#DejaVuSans-Bold-6e" x="37.207031"/>
      <use xlink:href="#DejaVuSans-Bold-70" x="108.398438"/>
      <use xlink:href="#DejaVuSans-Bold-75" x="179.980469"/>
      <use xlink:href="#DejaVuSans-Bold-74" x="251.171875"/>
      <use xlink:href="#DejaVuSans-Bold-20" x="298.974609"/>
      <use xlink:href="#DejaVuSans-Bold-54" x="333.789062"/>
      <use xlink:href="#DejaVuSans-Bold-6f" x="388.751953"/>
      <use xlink:href="#DejaVuSans-Bold-6b" x="457.453125"/>
      <use xlink:href="#DejaVuSans-Bold-65" x="521.332031"/>
      <use xlink:href="#DejaVuSans-Bold-6e" x="589.154297"/>
      <use xlink:href="#DejaVuSans-Bold-73" x="660.345703"/>
      <use xlink:href="#DejaVuSans-Bold-20" x="719.867188"/>
      <use xlink:href="#DejaVuSans-Bold-28" x="754.681641"/>
      <use xlink:href="#DejaVuSans-Bold-54" x="800.384766"/>
      <use xlink:href="#DejaVuSans-Bold-4f" x="868.597656"/>
      <use xlink:href="#DejaVuSans-Bold-4b" x="953.607422"/>
      <use xlink:href="#DejaVuSans-Bold-5f" x="1031.097656"/>
      <use xlink:href="#DejaVuSans-Bold-49" x="1081.097656"/>
      <use xlink:href="#DejaVuSans-Bold-4e" x="1118.304688"/>
      <use xlink:href="#DejaVuSans-Bold-29" x="1201.996094"/>
     </g>
    </g>
   </g>
   <g id="matplotlib.axis_2">
    <g id="ytick_1">
     <g id="line2d_13">
      <path d="M 70.31375 504.602955 
L 849.42375 504.602955 
" clip-path="url(#p10eb15fc0c)" style="fill: none; stroke-dasharray: 2.96,1.28; stroke-dashoffset: 0; stroke: #b0b0b0; stroke-opacity: 0.3; stroke-width: 0.8"/>
     </g>
     <g id="line2d_14">
      <defs>
       <path id="mc7229e5a18" d="M 0 0 
L -3.5 0 
" style="stroke: #000000; stroke-width: 0.8"/>
      </defs>
      <g>
       <use xlink:href="#mc7229e5a18" x="70.31375" y="504.602955" style="stroke: #000000; stroke-width: 0.8"/>
      </g>
     </g>
     <g id="text_8">
      <!-- 0 -->
      <g transform="translate(56.95125 508.402173) scale(0.1 -0.1)">
       <use xlink:href="#DejaVuSans-30"/>
      </g>
     </g>
    </g>
    <g id="ytick_2">
     <g id="line2d_15">
      <path d="M 70.31375 420.523707 
L 849.42375 420.523707 
" clip-path="url(#p10eb15fc0c)" style="fill: none; stroke-dasharray: 2.96,1.28; stroke-dashoffset: 0; stroke: #b0b0b0; stroke-opacity: 0.3; stroke-width: 0.8"/>
     </g>
     <g id="line2d_16">
      <g>
       <use xlink:href="#mc7229e5a18" x="70.31375" y="420.523707" style="stroke: #000000; stroke-width: 0.8"/>
      </g>
     </g>
     <g id="text_9">
      <!-- 50000 -->
      <g transform="translate(31.50125 424.322926) scale(0.1 -0.1)">
       <use xlink:href="#DejaVuSans-35"/>
       <use xlink:href="#DejaVuSans-30" x="63.623047"/>
       <use xlink:href="#DejaVuSans-30" x="127.246094"/>
       <use xlink:href="#DejaVuSans-30" x="190.869141"/>
       <use xlink:href="#DejaVuSans-30" x="254.492188"/>
      </g>
     </g>
    </g>
    <g id="ytick_3">
     <g id="line2d_17">
      <path d="M 70.31375 336.444459 
L 849.42375 336.444459 
" clip-path="url(#p10eb15fc0c)" style="fill: none; stroke-dasharray: 2.96,1.28; stroke-dashoffset: 0; stroke: #b0b0b0; stroke-opacity: 0.3; stroke-width: 0.8"/>
     </g>
     <g id="line2d_18">
      <g>
       <use xlink:href="#mc7229e5a18" x="70.31375" y="336.444459" style="stroke: #000000; stroke-width: 0.8"/>
      </g>
     </g>
     <g id="text_10">
      <!-- 100000 -->
      <g transform="translate(25.13875 340.243678) scale(0.1 -0.1)">
       <use xlink:href="#DejaVuSans-31"/>
       <use xlink:href="#DejaVuSans-30" x="63.623047"/>
       <use xlink:href="#DejaVuSans-30" x="127.246094"/>
       <use xlink:href="#DejaVuSans-30" x="190.869141"/>
       <use xlink:href="#DejaVuSans-30" x="254.492188"/>
       <use xlink:href="#DejaVuSans-30" x="318.115234"/>
      </g>
     </g>
    </g>
    <g id="ytick_4">
     <g id="line2d_19">
      <path d="M 70.31375 252.365211 
L 849.42375 252.365211 
" clip-path="url(#p10eb15fc0c)" style="fill: none; stroke-dasharray: 2.96,1.28; stroke-dashoffset: 0; stroke: #b0b0b0; stroke-opacity: 0.3; stroke-width: 0.8"/>
     </g>
     <g id="line2d_20">
      <g>
       <use xlink:href="#mc7229e5a18" x="70.31375" y="252.365211" style="stroke: #000000; stroke-width: 0.8"/>
      </g>
     </g>
     <g id="text_11">
      <!-- 150000 -->
      <g transform="translate(25.13875 256.16443) scale(0.1 -0.1)">
       <use xlink:href="#DejaVuSans-31"/>
       <use xlink:href="#DejaVuSans-35" x="63.623047"/>
       <use xlink:href="#DejaVuSans-30" x="127.246094"/>
       <use xlink:href="#DejaVuSans-30" x="190.869141"/>
       <use xlink:href="#DejaVuSans-30" x="254.492188"/>
       <use xlink:href="#DejaVuSans-30" x="318.115234"/>
      </g>
     </g>
    </g>
    <g id="ytick_5">
     <g id="line2d_21">
      <path d="M 70.31375 168.285964 
L 849.42375 168.285964 
" clip-path="url(#p10eb15fc0c)" style="fill: none; stroke-dasharray: 2.96,1.28; stroke-dashoffset: 0; stroke: #b0b0b0; stroke-opacity: 0.3; stroke-width: 0.8"/>
     </g>
     <g id="line2d_22">
      <g>
       <use xlink:href="#mc7229e5a18" x="70.31375" y="168.285964" style="stroke: #000000; stroke-width: 0.8"/>
      </g>
     </g>
     <g id="text_12">
      <!-- 200000 -->
      <g transform="translate(25.13875 172.085182) scale(0.1 -0.1)">
       <use xlink:href="#DejaVuSans-32"/>
       <use xlink:href="#DejaVuSans-30" x="63.623047"/>
       <use xlink:href="#DejaVuSans-30" x="127.246094"/>
       <use xlink:href="#DejaVuSans-30" x="190.869141"/>
       <use xlink:href="#DejaVuSans-30" x="254.492188"/>
       <use xlink:href="#DejaVuSans-30" x="318.115234"/>
      </g>
     </g>
    </g>
    <g id="ytick_6">
     <g id="line2d_23">
      <path d="M 70.31375 84.206716 
L 849.42375 84.206716 
" clip-path="url(#p10eb15fc0c)" style="fill: none; stroke-dasharray: 2.96,1.28; stroke-dashoffset: 0; stroke: #b0b0b0; stroke-opacity: 0.3; stroke-width: 0.8"/>
     </g>
     <g id="line2d_24">
      <g>
       <use xlink:href="#mc7229e5a18" x="70.31375" y="84.206716" style="stroke: #000000; stroke-width: 0.8"/>
      </g>
     </g>
     <g id="text_13">
      <!-- 250000 -->
      <g transform="translate(25.13875 88.005935) scale(0.1 -0.1)">
       <use xlink:href="#DejaVuSans-32"/>
       <use xlink:href="#DejaVuSans-35" x="63.623047"/>
       <use xlink:href="#DejaVuSans-30" x="127.246094"/>
       <use xlink:href="#DejaVuSans-30" x="190.869141"/>
       <use xlink:href="#DejaVuSans-30" x="254.492188"/>
       <use xlink:href="#DejaVuSans-30" x="318.115234"/>
      </g>
     </g>
    </g>
    <g id="text_14">
     <!-- Output Tokens (TOK_OUT) -->
     <g transform="translate(17.837813 385.035469) rotate(-90) scale(0.14 -0.14)">
      <defs>
       <path id="DejaVuSans-Bold-55" d="M 588 4666 
L 1791 4666 
L 1791 1869 
Q 1791 1291 1980 1042 
Q 2169 794 2597 794 
Q 3028 794 3217 1042 
Q 3406 1291 3406 1869 
L 3406 4666 
L 4609 4666 
L 4609 1869 
Q 4609 878 4112 393 
Q 3616 -91 2597 -91 
Q 1581 -91 1084 393 
Q 588 878 588 1869 
L 588 4666 
z
" transform="scale(0.015625)"/>
      </defs>
      <use xlink:href="#DejaVuSans-Bold-4f"/>
      <use xlink:href="#DejaVuSans-Bold-75" x="85.009766"/>
      <use xlink:href="#DejaVuSans-Bold-74" x="156.201172"/>
      <use xlink:href="#DejaVuSans-Bold-70" x="204.003906"/>
      <use xlink:href="#DejaVuSans-Bold-75" x="275.585938"/>
      <use xlink:href="#DejaVuSans-Bold-74" x="346.777344"/>
      <use xlink:href="#DejaVuSans-Bold-20" x="394.580078"/>
      <use xlink:href="#DejaVuSans-Bold-54" x="429.394531"/>
      <use xlink:href="#DejaVuSans-Bold-6f" x="484.357422"/>
      <use xlink:href="#DejaVuSans-Bold-6b" x="553.058594"/>
      <use xlink:href="#DejaVuSans-Bold-65" x="616.9375"/>
      <use xlink:href="#DejaVuSans-Bold-6e" x="684.759766"/>
      <use xlink:href="#DejaVuSans-Bold-73" x="755.951172"/>
      <use xlink:href="#DejaVuSans-Bold-20" x="815.472656"/>
      <use xlink:href="#DejaVuSans-Bold-28" x="850.287109"/>
      <use xlink:href="#DejaVuSans-Bold-54" x="895.990234"/>
      <use xlink:href="#DejaVuSans-Bold-4f" x="964.203125"/>
      <use xlink:href="#DejaVuSans-Bold-4b" x="1049.212891"/>
      <use xlink:href="#DejaVuSans-Bold-5f" x="1126.703125"/>
      <use xlink:href="#DejaVuSans-Bold-4f" x="1176.703125"/>
      <use xlink:href="#DejaVuSans-Bold-55" x="1261.712891"/>
      <use xlink:href="#DejaVuSans-Bold-54" x="1342.914062"/>
      <use xlink:href="#DejaVuSans-Bold-29" x="1411.126953"/>
     </g>
    </g>
   </g>
   <g id="line2d_25">
    <path d="M 149.977982 497.007245 
L 150.378497 496.939393 
L 150.779012 496.87154 
L 151.179526 496.803687 
L 151.580041 496.735835 
L 151.980555 496.667982 
L 152.38107 496.600129 
L 152.781585 496.532276 
L 153.182099 496.464424 
L 153.582614 496.396571 
L 153.983128 496.328718 
L 154.383643 496.260866 
L 154.784157 496.193013 
L 155.184672 496.12516 
L 155.585187 496.057308 
L 155.985701 495.989455 
L 156.386216 495.921602 
L 156.78673 495.853749 
L 157.187245 495.785897 
L 157.58776 495.718044 
L 157.988274 495.650191 
L 158.388789 495.582339 
L 158.789303 495.514486 
L 159.189818 495.446633 
L 159.590332 495.37878 
L 159.990847 495.310928 
L 160.391362 495.243075 
L 160.791876 495.175222 
L 161.192391 495.10737 
L 161.592905 495.039517 
L 161.99342 494.971664 
L 162.393935 494.903811 
L 162.794449 494.835959 
L 163.194964 494.768106 
L 163.595478 494.700253 
L 163.995993 494.632401 
L 164.396507 494.564548 
L 164.797022 494.496695 
L 165.197537 494.428843 
L 165.598051 494.36099 
L 165.998566 494.293137 
L 166.39908 494.225284 
L 166.799595 494.157432 
L 167.20011 494.089579 
L 167.600624 494.021726 
L 168.001139 493.953874 
L 168.401653 493.886021 
L 168.802168 493.818168 
L 169.202682 493.750315 
L 169.603197 493.682463 
L 170.003712 493.61461 
L 170.404226 493.546757 
L 170.804741 493.478905 
L 171.205255 493.411052 
L 171.60577 493.343199 
L 172.006285 493.275347 
L 172.406799 493.207494 
L 172.807314 493.139641 
L 173.207828 493.071788 
L 173.608343 493.003936 
L 174.008857 492.936083 
L 174.409372 492.86823 
L 174.809887 492.800378 
L 175.210401 492.732525 
L 175.610916 492.664672 
L 176.01143 492.596819 
L 176.411945 492.528967 
L 176.81246 492.461114 
L 177.212974 492.393261 
L 177.613489 492.325409 
L 178.014003 492.257556 
L 178.414518 492.189703 
L 178.815033 492.121851 
L 179.215547 492.053998 
L 179.616062 491.986145 
L 180.016576 491.918292 
L 180.417091 491.85044 
L 180.817605 491.782587 
L 181.21812 491.714734 
L 181.618635 491.646882 
L 182.019149 491.579029 
L 182.419664 491.511176 
L 182.820178 491.443323 
L 183.220693 491.375471 
L 183.621208 491.307618 
L 184.021722 491.239765 
L 184.422237 491.171913 
L 184.822751 491.10406 
L 185.223266 491.036207 
L 185.62378 490.968354 
L 186.024295 490.900502 
L 186.42481 490.832649 
L 186.825324 490.764796 
L 187.225839 490.696944 
L 187.626353 490.629091 
L 188.026868 490.561238 
L 188.427383 490.493386 
L 188.827897 490.425533 
L 189.228412 490.35768 
L 189.628926 490.289827 
" clip-path="url(#p10eb15fc0c)" style="fill: none; stroke-dasharray: 7.4,3.2; stroke-dashoffset: 0; stroke: #1f77b4; stroke-opacity: 0.5; stroke-width: 2"/>
   </g>
   <g id="line2d_26">
    <path d="M 584.772852 395.628812 
L 587.088375 395.196356 
L 589.403899 394.763899 
L 591.719422 394.331443 
L 594.034945 393.898987 
L 596.350468 393.46653 
L 598.665992 393.034074 
L 600.981515 392.601618 
L 603.297038 392.169161 
L 605.612562 391.736705 
L 607.928085 391.304249 
L 610.243608 390.871792 
L 612.559132 390.439336 
L 614.874655 390.00688 
L 617.190178 389.574423 
L 619.505702 389.141967 
L 621.821225 388.709511 
L 624.136748 388.277054 
L 626.452271 387.844598 
L 628.767795 387.412142 
L 631.083318 386.979685 
L 633.398841 386.547229 
L 635.714365 386.114773 
L 638.029888 385.682316 
L 640.345411 385.24986 
L 642.660935 384.817404 
L 644.976458 384.384947 
L 647.291981 383.952491 
L 649.607504 383.520035 
L 651.923028 383.087578 
L 654.238551 382.655122 
L 656.554074 382.222666 
L 658.869598 381.790209 
L 661.185121 381.357753 
L 663.500644 380.925297 
L 665.816168 380.49284 
L 668.131691 380.060384 
L 670.447214 379.627928 
L 672.762738 379.195471 
L 675.078261 378.763015 
L 677.393784 378.330559 
L 679.709307 377.898102 
L 682.024831 377.465646 
L 684.340354 377.03319 
L 686.655877 376.600733 
L 688.971401 376.168277 
L 691.286924 375.73582 
L 693.602447 375.303364 
L 695.917971 374.870908 
L 698.233494 374.438451 
L 700.549017 374.005995 
L 702.86454 373.573539 
L 705.180064 373.141082 
L 707.495587 372.708626 
L 709.81111 372.27617 
L 712.126634 371.843713 
L 714.442157 371.411257 
L 716.75768 370.978801 
L 719.073204 370.546344 
L 721.388727 370.113888 
L 723.70425 369.681432 
L 726.019774 369.248975 
L 728.335297 368.816519 
L 730.65082 368.384063 
L 732.966343 367.951606 
L 735.281867 367.51915 
L 737.59739 367.086694 
L 739.912913 366.654237 
L 742.228437 366.221781 
L 744.54396 365.789325 
L 746.859483 365.356868 
L 749.175007 364.924412 
L 751.49053 364.491956 
L 753.806053 364.059499 
L 756.121576 363.627043 
L 758.4371 363.194587 
L 760.752623 362.76213 
L 763.068146 362.329674 
L 765.38367 361.897218 
L 767.699193 361.464761 
L 770.014716 361.032305 
L 772.33024 360.599849 
L 774.645763 360.167392 
L 776.961286 359.734936 
L 779.27681 359.30248 
L 781.592333 358.870023 
L 783.907856 358.437567 
L 786.223379 358.005111 
L 788.538903 357.572654 
L 790.854426 357.140198 
L 793.169949 356.707742 
L 795.485473 356.275285 
L 797.800996 355.842829 
L 800.116519 355.410373 
L 802.432043 354.977916 
L 804.747566 354.54546 
L 807.063089 354.113004 
L 809.378612 353.680547 
L 811.694136 353.248091 
L 814.009659 352.815635 
" clip-path="url(#p10eb15fc0c)" style="fill: none; stroke-dasharray: 7.4,3.2; stroke-dashoffset: 0; stroke: #ff7f0e; stroke-opacity: 0.5; stroke-width: 2"/>
   </g>
   <g id="line2d_27">
    <path d="M 180.056897 479.726919 
L 181.268432 479.391488 
L 182.479968 479.056057 
L 183.691503 478.720626 
L 184.903039 478.385195 
L 186.114574 478.049764 
L 187.32611 477.714333 
L 188.537646 477.378902 
L 189.749181 477.043471 
L 190.960717 476.70804 
L 192.172252 476.37261 
L 193.383788 476.037179 
L 194.595323 475.701748 
L 195.806859 475.366317 
L 197.018395 475.030886 
L 198.22993 474.695455 
L 199.441466 474.360024 
L 200.653001 474.024593 
L 201.864537 473.689162 
L 203.076072 473.353731 
L 204.287608 473.0183 
L 205.499144 472.682869 
L 206.710679 472.347438 
L 207.922215 472.012008 
L 209.13375 471.676577 
L 210.345286 471.341146 
L 211.556821 471.005715 
L 212.768357 470.670284 
L 213.979893 470.334853 
L 215.191428 469.999422 
L 216.402964 469.663991 
L 217.614499 469.32856 
L 218.826035 468.993129 
L 220.03757 468.657698 
L 221.249106 468.322267 
L 222.460642 467.986836 
L 223.672177 467.651406 
L 224.883713 467.315975 
L 226.095248 466.980544 
L 227.306784 466.645113 
L 228.51832 466.309682 
L 229.729855 465.974251 
L 230.941391 465.63882 
L 232.152926 465.303389 
L 233.364462 464.967958 
L 234.575997 464.632527 
L 235.787533 464.297096 
L 236.999069 463.961665 
L 238.210604 463.626234 
L 239.42214 463.290803 
L 240.633675 462.955373 
L 241.845211 462.619942 
L 243.056746 462.284511 
L 244.268282 461.94908 
L 245.479818 461.613649 
L 246.691353 461.278218 
L 247.902889 460.942787 
L 249.114424 460.607356 
L 250.32596 460.271925 
L 251.537495 459.936494 
L 252.749031 459.601063 
L 253.960567 459.265632 
L 255.172102 458.930201 
L 256.383638 458.594771 
L 257.595173 458.25934 
L 258.806709 457.923909 
L 260.018244 457.588478 
L 261.22978 457.253047 
L 262.441316 456.917616 
L 263.652851 456.582185 
L 264.864387 456.246754 
L 266.075922 455.911323 
L 267.287458 455.575892 
L 268.498993 455.240461 
L 269.710529 454.90503 
L 270.922065 454.569599 
L 272.1336 454.234169 
L 273.345136 453.898738 
L 274.556671 453.563307 
L 275.768207 453.227876 
L 276.979743 452.892445 
L 278.191278 452.557014 
L 279.402814 452.221583 
L 280.614349 451.886152 
L 281.825885 451.550721 
L 283.03742 451.21529 
L 284.248956 450.879859 
L 285.460492 450.544428 
L 286.672027 450.208997 
L 287.883563 449.873567 
L 289.095098 449.538136 
L 290.306634 449.202705 
L 291.518169 448.867274 
L 292.729705 448.531843 
L 293.941241 448.196412 
L 295.152776 447.860981 
L 296.364312 447.52555 
L 297.575847 447.190119 
L 298.787383 446.854688 
L 299.998918 446.519257 
" clip-path="url(#p10eb15fc0c)" style="fill: none; stroke-dasharray: 7.4,3.2; stroke-dashoffset: 0; stroke: #2ca02c; stroke-opacity: 0.5; stroke-width: 2"/>
   </g>
   <g id="line2d_28">
    <path d="M 105.727841 504.602955 
L 814.009659 61.512045 
" clip-path="url(#p10eb15fc0c)" style="fill: none; stroke-dasharray: 1,1.65; stroke-dashoffset: 0; stroke: #000000; stroke-opacity: 0.3"/>
   </g>
   <g id="patch_3">
    <path d="M 70.31375 526.7575 
L 70.31375 39.3575 
" style="fill: none; stroke: #000000; stroke-width: 0.8; stroke-linejoin: miter; stroke-linecap: square"/>
   </g>
   <g id="patch_4">
    <path d="M 849.42375 526.7575 
L 849.42375 39.3575 
" style="fill: none; stroke: #000000; stroke-width: 0.8; stroke-linejoin: miter; stroke-linecap: square"/>
   </g>
   <g id="patch_5">
    <path d="M 70.31375 526.7575 
L 849.42375 526.7575 
" style="fill: none; stroke: #000000; stroke-width: 0.8; stroke-linejoin: miter; stroke-linecap: square"/>
   </g>
   <g id="patch_6">
    <path d="M 70.31375 39.3575 
L 849.42375 39.3575 
" style="fill: none; stroke: #000000; stroke-width: 0.8; stroke-linejoin: miter; stroke-linecap: square"/>
   </g>
   <g id="text_15">
    <g id="patch_7">
     <path d="M 632.919363 521.5095 
L 833.84155 521.5095 
Q 838.34155 521.5095 838.34155 517.0095 
L 838.34155 488.143125 
Q 838.34155 483.643125 833.84155 483.643125 
L 632.919363 483.643125 
Q 628.419363 483.643125 628.419363 488.143125 
L 628.419363 517.0095 
Q 628.419363 521.5095 632.919363 521.5095 
z
" style="fill: #ffffe0; opacity: 0.5; stroke: #000000; stroke-linejoin: miter"/>
    </g>
    <!-- Marker size  Execution time -->
    <g style="opacity: 0.7" transform="translate(702.922487 494.981719) scale(0.09 -0.09)">
     <defs>
      <path id="DejaVuSans-4d" d="M 628 4666 
L 1569 4666 
L 2759 1491 
L 3956 4666 
L 4897 4666 
L 4897 0 
L 4281 0 
L 4281 4097 
L 3078 897 
L 2444 897 
L 1241 4097 
L 1241 0 
L 628 0 
L 628 4666 
z
" transform="scale(0.015625)"/>
      <path id="DejaVuSans-61" d="M 2194 1759 
Q 1497 1759 1228 1600 
Q 959 1441 959 1056 
Q 959 750 1161 570 
Q 1363 391 1709 391 
Q 2188 391 2477 730 
Q 2766 1069 2766 1631 
L 2766 1759 
L 2194 1759 
z
M 3341 1997 
L 3341 0 
L 2766 0 
L 2766 531 
Q 2569 213 2275 61 
Q 1981 -91 1556 -91 
Q 1019 -91 701 211 
Q 384 513 384 1019 
Q 384 1609 779 1909 
Q 1175 2209 1959 2209 
L 2766 2209 
L 2766 2266 
Q 2766 2663 2505 2880 
Q 2244 3097 1772 3097 
Q 1472 3097 1187 3025 
Q 903 2953 641 2809 
L 641 3341 
Q 956 3463 1253 3523 
Q 1550 3584 1831 3584 
Q 2591 3584 2966 3190 
Q 3341 2797 3341 1997 
z
" transform="scale(0.015625)"/>
      <path id="DejaVuSans-72" d="M 2631 2963 
Q 2534 3019 2420 3045 
Q 2306 3072 2169 3072 
Q 1681 3072 1420 2755 
Q 1159 2438 1159 1844 
L 1159 0 
L 581 0 
L 581 3500 
L 1159 3500 
L 1159 2956 
Q 1341 3275 1631 3429 
Q 1922 3584 2338 3584 
Q 2397 3584 2469 3576 
Q 2541 3569 2628 3553 
L 2631 2963 
z
" transform="scale(0.015625)"/>
      <path id="DejaVuSans-6b" d="M 581 4863 
L 1159 4863 
L 1159 1991 
L 2875 3500 
L 3609 3500 
L 1753 1863 
L 3688 0 
L 2938 0 
L 1159 1709 
L 1159 0 
L 581 0 
L 581 4863 
z
" transform="scale(0.015625)"/>
      <path id="DejaVuSans-65" d="M 3597 1894 
L 3597 1613 
L 953 1613 
Q 991 1019 1311 708 
Q 1631 397 2203 397 
Q 2534 397 2845 478 
Q 3156 559 3463 722 
L 3463 178 
Q 3153 47 2828 -22 
Q 2503 -91 2169 -91 
Q 1331 -91 842 396 
Q 353 884 353 1716 
Q 353 2575 817 3079 
Q 1281 3584 2069 3584 
Q 2775 3584 3186 3129 
Q 3597 2675 3597 1894 
z
M 3022 2063 
Q 3016 2534 2758 2815 
Q 2500 3097 2075 3097 
Q 1594 3097 1305 2825 
Q 1016 2553 972 2059 
L 3022 2063 
z
" transform="scale(0.015625)"/>
      <path id="DejaVuSans-20" transform="scale(0.015625)"/>
      <path id="DejaVuSans-73" d="M 2834 3397 
L 2834 2853 
Q 2591 2978 2328 3040 
Q 2066 3103 1784 3103 
Q 1356 3103 1142 2972 
Q 928 2841 928 2578 
Q 928 2378 1081 2264 
Q 1234 2150 1697 2047 
L 1894 2003 
Q 2506 1872 2764 1633 
Q 3022 1394 3022 966 
Q 3022 478 2636 193 
Q 2250 -91 1575 -91 
Q 1294 -91 989 -36 
Q 684 19 347 128 
L 347 722 
Q 666 556 975 473 
Q 1284 391 1588 391 
Q 1994 391 2212 530 
Q 2431 669 2431 922 
Q 2431 1156 2273 1281 
Q 2116 1406 1581 1522 
L 1381 1569 
Q 847 1681 609 1914 
Q 372 2147 372 2553 
Q 372 3047 722 3315 
Q 1072 3584 1716 3584 
Q 2034 3584 2315 3537 
Q 2597 3491 2834 3397 
z
" transform="scale(0.015625)"/>
      <path id="DejaVuSans-69" d="M 603 3500 
L 1178 3500 
L 1178 0 
L 603 0 
L 603 3500 
z
M 603 4863 
L 1178 4863 
L 1178 4134 
L 603 4134 
L 603 4863 
z
" transform="scale(0.015625)"/>
      <path id="DejaVuSans-7a" d="M 353 3500 
L 3084 3500 
L 3084 2975 
L 922 459 
L 3084 459 
L 3084 0 
L 275 0 
L 275 525 
L 2438 3041 
L 353 3041 
L 353 3500 
z
" transform="scale(0.015625)"/>
      <path id="DejaVuSans-221d" d="M 1647 1134 
Q 2163 1134 2472 1884 
Q 2075 2703 1647 2703 
Q 1334 2703 1175 2478 
Q 1006 2238 1006 1919 
Q 1006 1569 1175 1353 
Q 1350 1134 1647 1134 
z
M 3884 1128 
L 3884 716 
L 3644 716 
Q 3416 716 3247 809 
Q 3078 894 2916 1091 
Q 2819 1203 2666 1466 
Q 2456 1091 2272 925 
Q 2044 725 1681 725 
Q 1259 725 981 1041 
Q 688 1372 688 1919 
Q 688 2444 981 2800 
Q 1241 3116 1688 3116 
Q 1916 3116 2084 3022 
Q 2281 2919 2416 2741 
Q 2541 2581 2666 2366 
Q 2875 2741 3059 2906 
Q 3288 3106 3650 3106 
L 3884 3106 
L 3884 2697 
L 3684 2697 
Q 3222 2697 2859 1947 
Q 3256 1128 3684 1128 
L 3884 1128 
z
" transform="scale(0.015625)"/>
      <path id="DejaVuSans-45" d="M 628 4666 
L 3578 4666 
L 3578 4134 
L 1259 4134 
L 1259 2753 
L 3481 2753 
L 3481 2222 
L 1259 2222 
L 1259 531 
L 3634 531 
L 3634 0 
L 628 0 
L 628 4666 
z
" transform="scale(0.015625)"/>
      <path id="DejaVuSans-78" d="M 3513 3500 
L 2247 1797 
L 3578 0 
L 2900 0 
L 1881 1375 
L 863 0 
L 184 0 
L 1544 1831 
L 300 3500 
L 978 3500 
L 1906 2253 
L 2834 3500 
L 3513 3500 
z
" transform="scale(0.015625)"/>
      <path id="DejaVuSans-63" d="M 3122 3366 
L 3122 2828 
Q 2878 2963 2633 3030 
Q 2388 3097 2138 3097 
Q 1578 3097 1268 2742 
Q 959 2388 959 1747 
Q 959 1106 1268 751 
Q 1578 397 2138 397 
Q 2388 397 2633 464 
Q 2878 531 3122 666 
L 3122 134 
Q 2881 22 2623 -34 
Q 2366 -91 2075 -91 
Q 1284 -91 818 406 
Q 353 903 353 1747 
Q 353 2603 823 3093 
Q 1294 3584 2113 3584 
Q 2378 3584 2631 3529 
Q 2884 3475 3122 3366 
z
" transform="scale(0.015625)"/>
      <path id="DejaVuSans-75" d="M 544 1381 
L 544 3500 
L 1119 3500 
L 1119 1403 
Q 1119 906 1312 657 
Q 1506 409 1894 409 
Q 2359 409 2629 706 
Q 2900 1003 2900 1516 
L 2900 3500 
L 3475 3500 
L 3475 0 
L 2900 0 
L 2900 538 
Q 2691 219 2414 64 
Q 2138 -91 1772 -91 
Q 1169 -91 856 284 
Q 544 659 544 1381 
z
M 1991 3584 
L 1991 3584 
z
" transform="scale(0.015625)"/>
      <path id="DejaVuSans-74" d="M 1172 4494 
L 1172 3500 
L 2356 3500 
L 2356 3053 
L 1172 3053 
L 1172 1153 
Q 1172 725 1289 603 
Q 1406 481 1766 481 
L 2356 481 
L 2356 0 
L 1766 0 
Q 1100 0 847 248 
Q 594 497 594 1153 
L 594 3053 
L 172 3053 
L 172 3500 
L 594 3500 
L 594 4494 
L 1172 4494 
z
" transform="scale(0.015625)"/>
      <path id="DejaVuSans-6f" d="M 1959 3097 
Q 1497 3097 1228 2736 
Q 959 2375 959 1747 
Q 959 1119 1226 758 
Q 1494 397 1959 397 
Q 2419 397 2687 759 
Q 2956 1122 2956 1747 
Q 2956 2369 2687 2733 
Q 2419 3097 1959 3097 
z
M 1959 3584 
Q 2709 3584 3137 3096 
Q 3566 2609 3566 1747 
Q 3566 888 3137 398 
Q 2709 -91 1959 -91 
Q 1206 -91 779 398 
Q 353 888 353 1747 
Q 353 2609 779 3096 
Q 1206 3584 1959 3584 
z
" transform="scale(0.015625)"/>
      <path id="DejaVuSans-6e" d="M 3513 2113 
L 3513 0 
L 2938 0 
L 2938 2094 
Q 2938 2591 2744 2837 
Q 2550 3084 2163 3084 
Q 1697 3084 1428 2787 
Q 1159 2491 1159 1978 
L 1159 0 
L 581 0 
L 581 3500 
L 1159 3500 
L 1159 2956 
Q 1366 3272 1645 3428 
Q 1925 3584 2291 3584 
Q 2894 3584 3203 3211 
Q 3513 2838 3513 2113 
z
" transform="scale(0.015625)"/>
      <path id="DejaVuSans-6d" d="M 3328 2828 
Q 3544 3216 3844 3400 
Q 4144 3584 4550 3584 
Q 5097 3584 5394 3201 
Q 5691 2819 5691 2113 
L 5691 0 
L 5113 0 
L 5113 2094 
Q 5113 2597 4934 2840 
Q 4756 3084 4391 3084 
Q 3944 3084 3684 2787 
Q 3425 2491 3425 1978 
L 3425 0 
L 2847 0 
L 2847 2094 
Q 2847 2600 2669 2842 
Q 2491 3084 2119 3084 
Q 1678 3084 1418 2786 
Q 1159 2488 1159 1978 
L 1159 0 
L 581 0 
L 581 3500 
L 1159 3500 
L 1159 2956 
Q 1356 3278 1631 3431 
Q 1906 3584 2284 3584 
Q 2666 3584 2933 3390 
Q 3200 3197 3328 2828 
z
" transform="scale(0.015625)"/>
     </defs>
     <use xlink:href="#DejaVuSans-4d"/>
     <use xlink:href="#DejaVuSans-61" x="86.279297"/>
     <use xlink:href="#DejaVuSans-72" x="147.558594"/>
     <use xlink:href="#DejaVuSans-6b" x="188.671875"/>
     <use xlink:href="#DejaVuSans-65" x="242.957031"/>
     <use xlink:href="#DejaVuSans-72" x="304.480469"/>
     <use xlink:href="#DejaVuSans-20" x="345.59375"/>
     <use xlink:href="#DejaVuSans-73" x="377.380859"/>
     <use xlink:href="#DejaVuSans-69" x="429.480469"/>
     <use xlink:href="#DejaVuSans-7a" x="457.263672"/>
     <use xlink:href="#DejaVuSans-65" x="509.753906"/>
     <use xlink:href="#DejaVuSans-20" x="571.277344"/>
     <use xlink:href="#DejaVuSans-221d" x="603.064453"/>
     <use xlink:href="#DejaVuSans-20" x="674.5"/>
     <use xlink:href="#DejaVuSans-45" x="706.287109"/>
     <use xlink:href="#DejaVuSans-78" x="769.470703"/>
     <use xlink:href="#DejaVuSans-65" x="825.525391"/>
     <use xlink:href="#DejaVuSans-63" x="887.048828"/>
     <use xlink:href="#DejaVuSans-75" x="942.029297"/>
     <use xlink:href="#DejaVuSans-74" x="1005.408203"/>
     <use xlink:href="#DejaVuSans-69" x="1044.617188"/>
     <use xlink:href="#DejaVuSans-6f" x="1072.400391"/>
     <use xlink:href="#DejaVuSans-6e" x="1133.582031"/>
     <use xlink:href="#DejaVuSans-20" x="1196.960938"/>
     <use xlink:href="#DejaVuSans-74" x="1228.748047"/>
     <use xlink:href="#DejaVuSans-69" x="1267.957031"/>
     <use xlink:href="#DejaVuSans-6d" x="1295.740234"/>
     <use xlink:href="#DejaVuSans-65" x="1393.152344"/>
    </g>
    <!-- Points above 1:1 line = More verbose output -->
    <g style="opacity: 0.7" transform="translate(632.919363 505.05975) scale(0.09 -0.09)">
     <defs>
      <path id="DejaVuSans-50" d="M 1259 4147 
L 1259 2394 
L 2053 2394 
Q 2494 2394 2734 2622 
Q 2975 2850 2975 3272 
Q 2975 3691 2734 3919 
Q 2494 4147 2053 4147 
L 1259 4147 
z
M 628 4666 
L 2053 4666 
Q 2838 4666 3239 4311 
Q 3641 3956 3641 3272 
Q 3641 2581 3239 2228 
Q 2838 1875 2053 1875 
L 1259 1875 
L 1259 0 
L 628 0 
L 628 4666 
z
" transform="scale(0.015625)"/>
      <path id="DejaVuSans-62" d="M 3116 1747 
Q 3116 2381 2855 2742 
Q 2594 3103 2138 3103 
Q 1681 3103 1420 2742 
Q 1159 2381 1159 1747 
Q 1159 1113 1420 752 
Q 1681 391 2138 391 
Q 2594 391 2855 752 
Q 3116 1113 3116 1747 
z
M 1159 2969 
Q 1341 3281 1617 3432 
Q 1894 3584 2278 3584 
Q 2916 3584 3314 3078 
Q 3713 2572 3713 1747 
Q 3713 922 3314 415 
Q 2916 -91 2278 -91 
Q 1894 -91 1617 61 
Q 1341 213 1159 525 
L 1159 0 
L 581 0 
L 581 4863 
L 1159 4863 
L 1159 2969 
z
" transform="scale(0.015625)"/>
      <path id="DejaVuSans-76" d="M 191 3500 
L 800 3500 
L 1894 563 
L 2988 3500 
L 3597 3500 
L 2284 0 
L 1503 0 
L 191 3500 
z
" transform="scale(0.015625)"/>
      <path id="DejaVuSans-3a" d="M 750 794 
L 1409 794 
L 1409 0 
L 750 0 
L 750 794 
z
M 750 3309 
L 1409 3309 
L 1409 2516 
L 750 2516 
L 750 3309 
z
" transform="scale(0.015625)"/>
      <path id="DejaVuSans-6c" d="M 603 4863 
L 1178 4863 
L 1178 0 
L 603 0 
L 603 4863 
z
" transform="scale(0.015625)"/>
      <path id="DejaVuSans-3d" d="M 678 2906 
L 4684 2906 
L 4684 2381 
L 678 2381 
L 678 2906 
z
M 678 1631 
L 4684 1631 
L 4684 1100 
L 678 1100 
L 678 1631 
z
" transform="scale(0.015625)"/>
      <path id="DejaVuSans-70" d="M 1159 525 
L 1159 -1331 
L 581 -1331 
L 581 3500 
L 1159 3500 
L 1159 2969 
Q 1341 3281 1617 3432 
Q 1894 3584 2278 3584 
Q 2916 3584 3314 3078 
Q 3713 2572 3713 1747 
Q 3713 922 3314 415 
Q 2916 -91 2278 -91 
Q 1894 -91 1617 61 
Q 1341 213 1159 525 
z
M 3116 1747 
Q 3116 2381 2855 2742 
Q 2594 3103 2138 3103 
Q 1681 3103 1420 2742 
Q 1159 2381 1159 1747 
Q 1159 1113 1420 752 
Q 1681 391 2138 391 
Q 2594 391 2855 752 
Q 3116 1113 3116 1747 
z
" transform="scale(0.015625)"/>
     </defs>
     <use xlink:href="#DejaVuSans-50"/>
     <use xlink:href="#DejaVuSans-6f" x="56.677734"/>
     <use xlink:href="#DejaVuSans-69" x="117.859375"/>
     <use xlink:href="#DejaVuSans-6e" x="145.642578"/>
     <use xlink:href="#DejaVuSans-74" x="209.021484"/>
     <use xlink:href="#DejaVuSans-73" x="248.230469"/>
     <use xlink:href="#DejaVuSans-20" x="300.330078"/>
     <use xlink:href="#DejaVuSans-61" x="332.117188"/>
     <use xlink:href="#DejaVuSans-62" x="393.396484"/>
     <use xlink:href="#DejaVuSans-6f" x="456.873047"/>
     <use xlink:href="#DejaVuSans-76" x="518.054688"/>
     <use xlink:href="#DejaVuSans-65" x="577.234375"/>
     <use xlink:href="#DejaVuSans-20" x="638.757812"/>
     <use xlink:href="#DejaVuSans-31" x="670.544922"/>
     <use xlink:href="#DejaVuSans-3a" x="734.167969"/>
     <use xlink:href="#DejaVuSans-31" x="767.859375"/>
     <use xlink:href="#DejaVuSans-20" x="831.482422"/>
     <use xlink:href="#DejaVuSans-6c" x="863.269531"/>
     <use xlink:href="#DejaVuSans-69" x="891.052734"/>
     <use xlink:href="#DejaVuSans-6e" x="918.835938"/>
     <use xlink:href="#DejaVuSans-65" x="982.214844"/>
     <use xlink:href="#DejaVuSans-20" x="1043.738281"/>
     <use xlink:href="#DejaVuSans-3d" x="1075.525391"/>
     <use xlink:href="#DejaVuSans-20" x="1159.314453"/>
     <use xlink:href="#DejaVuSans-4d" x="1191.101562"/>
     <use xlink:href="#DejaVuSans-6f" x="1277.380859"/>
     <use xlink:href="#DejaVuSans-72" x="1338.5625"/>
     <use xlink:href="#DejaVuSans-65" x="1377.425781"/>
     <use xlink:href="#DejaVuSans-20" x="1438.949219"/>
     <use xlink:href="#DejaVuSans-76" x="1470.736328"/>
     <use xlink:href="#DejaVuSans-65" x="1529.916016"/>
     <use xlink:href="#DejaVuSans-72" x="1591.439453"/>
     <use xlink:href="#DejaVuSans-62" x="1632.552734"/>
     <use xlink:href="#DejaVuSans-6f" x="1696.029297"/>
     <use xlink:href="#DejaVuSans-73" x="1757.210938"/>
     <use xlink:href="#DejaVuSans-65" x="1809.310547"/>
     <use xlink:href="#DejaVuSans-20" x="1870.833984"/>
     <use xlink:href="#DejaVuSans-6f" x="1902.621094"/>
     <use xlink:href="#DejaVuSans-75" x="1963.802734"/>
     <use xlink:href="#DejaVuSans-74" x="2027.181641"/>
     <use xlink:href="#DejaVuSans-70" x="2066.390625"/>
     <use xlink:href="#DejaVuSans-75" x="2129.867188"/>
     <use xlink:href="#DejaVuSans-74" x="2193.246094"/>
    </g>
    <!-- Points below 1:1 line = Concise output -->
    <g style="opacity: 0.7" transform="translate(659.909519 515.137781) scale(0.09 -0.09)">
     <defs>
      <path id="DejaVuSans-77" d="M 269 3500 
L 844 3500 
L 1563 769 
L 2278 3500 
L 2956 3500 
L 3675 769 
L 4391 3500 
L 4966 3500 
L 4050 0 
L 3372 0 
L 2619 2869 
L 1863 0 
L 1184 0 
L 269 3500 
z
" transform="scale(0.015625)"/>
      <path id="DejaVuSans-43" d="M 4122 4306 
L 4122 3641 
Q 3803 3938 3442 4084 
Q 3081 4231 2675 4231 
Q 1875 4231 1450 3742 
Q 1025 3253 1025 2328 
Q 1025 1406 1450 917 
Q 1875 428 2675 428 
Q 3081 428 3442 575 
Q 3803 722 4122 1019 
L 4122 359 
Q 3791 134 3420 21 
Q 3050 -91 2638 -91 
Q 1578 -91 968 557 
Q 359 1206 359 2328 
Q 359 3453 968 4101 
Q 1578 4750 2638 4750 
Q 3056 4750 3426 4639 
Q 3797 4528 4122 4306 
z
" transform="scale(0.015625)"/>
     </defs>
     <use xlink:href="#DejaVuSans-50"/>
     <use xlink:href="#DejaVuSans-6f" x="56.677734"/>
     <use xlink:href="#DejaVuSans-69" x="117.859375"/>
     <use xlink:href="#DejaVuSans-6e" x="145.642578"/>
     <use xlink:href="#DejaVuSans-74" x="209.021484"/>
     <use xlink:href="#DejaVuSans-73" x="248.230469"/>
     <use xlink:href="#DejaVuSans-20" x="300.330078"/>
     <use xlink:href="#DejaVuSans-62" x="332.117188"/>
     <use xlink:href="#DejaVuSans-65" x="395.59375"/>
     <use xlink:href="#DejaVuSans-6c" x="457.117188"/>
     <use xlink:href="#DejaVuSans-6f" x="484.900391"/>
     <use xlink:href="#DejaVuSans-77" x="546.082031"/>
     <use xlink:href="#DejaVuSans-20" x="627.869141"/>
     <use xlink:href="#DejaVuSans-31" x="659.65625"/>
     <use xlink:href="#DejaVuSans-3a" x="723.279297"/>
     <use xlink:href="#DejaVuSans-31" x="756.970703"/>
     <use xlink:href="#DejaVuSans-20" x="820.59375"/>
     <use xlink:href="#DejaVuSans-6c" x="852.380859"/>
     <use xlink:href="#DejaVuSans-69" x="880.164062"/>
     <use xlink:href="#DejaVuSans-6e" x="907.947266"/>
     <use xlink:href="#DejaVuSans-65" x="971.326172"/>
     <use xlink:href="#DejaVuSans-20" x="1032.849609"/>
     <use xlink:href="#DejaVuSans-3d" x="1064.636719"/>
     <use xlink:href="#DejaVuSans-20" x="1148.425781"/>
     <use xlink:href="#DejaVuSans-43" x="1180.212891"/>
     <use xlink:href="#DejaVuSans-6f" x="1250.037109"/>
     <use xlink:href="#DejaVuSans-6e" x="1311.21875"/>
     <use xlink:href="#DejaVuSans-63" x="1374.597656"/>
     <use xlink:href="#DejaVuSans-69" x="1429.578125"/>
     <use xlink:href="#DejaVuSans-73" x="1457.361328"/>
     <use xlink:href="#DejaVuSans-65" x="1509.460938"/>
     <use xlink:href="#DejaVuSans-20" x="1570.984375"/>
     <use xlink:href="#DejaVuSans-6f" x="1602.771484"/>
     <use xlink:href="#DejaVuSans-75" x="1663.953125"/>
     <use xlink:href="#DejaVuSans-74" x="1727.332031"/>
     <use xlink:href="#DejaVuSans-70" x="1766.541016"/>
     <use xlink:href="#DejaVuSans-75" x="1830.017578"/>
     <use xlink:href="#DejaVuSans-74" x="1893.396484"/>
    </g>
   </g>
   <g id="text_16">
    <!-- Token Efficiency: Input vs Output -->
    <g transform="translate(310.21625 19.3575) scale(0.16 -0.16)">
     <defs>
      <path id="DejaVuSans-Bold-45" d="M 588 4666 
L 3834 4666 
L 3834 3756 
L 1791 3756 
L 1791 2888 
L 3713 2888 
L 3713 1978 
L 1791 1978 
L 1791 909 
L 3903 909 
L 3903 0 
L 588 0 
L 588 4666 
z
" transform="scale(0.015625)"/>
      <path id="DejaVuSans-Bold-66" d="M 2841 4863 
L 2841 4128 
L 2222 4128 
Q 1984 4128 1890 4042 
Q 1797 3956 1797 3744 
L 1797 3500 
L 2753 3500 
L 2753 2700 
L 1797 2700 
L 1797 0 
L 678 0 
L 678 2700 
L 122 2700 
L 122 3500 
L 678 3500 
L 678 3744 
Q 678 4316 997 4589 
Q 1316 4863 1984 4863 
L 2841 4863 
z
" transform="scale(0.015625)"/>
      <path id="DejaVuSans-Bold-69" d="M 538 3500 
L 1656 3500 
L 1656 0 
L 538 0 
L 538 3500 
z
M 538 4863 
L 1656 4863 
L 1656 3950 
L 538 3950 
L 538 4863 
z
" transform="scale(0.015625)"/>
      <path id="DejaVuSans-Bold-63" d="M 3366 3391 
L 3366 2478 
Q 3138 2634 2908 2709 
Q 2678 2784 2431 2784 
Q 1963 2784 1702 2511 
Q 1441 2238 1441 1747 
Q 1441 1256 1702 982 
Q 1963 709 2431 709 
Q 2694 709 2930 787 
Q 3166 866 3366 1019 
L 3366 103 
Q 3103 6 2833 -42 
Q 2563 -91 2291 -91 
Q 1344 -91 809 395 
Q 275 881 275 1747 
Q 275 2613 809 3098 
Q 1344 3584 2291 3584 
Q 2566 3584 2833 3536 
Q 3100 3488 3366 3391 
z
" transform="scale(0.015625)"/>
      <path id="DejaVuSans-Bold-79" d="M 78 3500 
L 1197 3500 
L 2138 1125 
L 2938 3500 
L 4056 3500 
L 2584 -331 
Q 2363 -916 2067 -1148 
Q 1772 -1381 1288 -1381 
L 641 -1381 
L 641 -647 
L 991 -647 
Q 1275 -647 1404 -556 
Q 1534 -466 1606 -231 
L 1638 -134 
L 78 3500 
z
" transform="scale(0.015625)"/>
      <path id="DejaVuSans-Bold-3a" d="M 716 3500 
L 1844 3500 
L 1844 2291 
L 716 2291 
L 716 3500 
z
M 716 1209 
L 1844 1209 
L 1844 0 
L 716 0 
L 716 1209 
z
" transform="scale(0.015625)"/>
      <path id="DejaVuSans-Bold-76" d="M 97 3500 
L 1216 3500 
L 2088 1081 
L 2956 3500 
L 4078 3500 
L 2700 0 
L 1472 0 
L 97 3500 
z
" transform="scale(0.015625)"/>
     </defs>
     <use xlink:href="#DejaVuSans-Bold-54"/>
     <use xlink:href="#DejaVuSans-Bold-6f" x="54.962891"/>
     <use xlink:href="#DejaVuSans-Bold-6b" x="123.664062"/>
     <use xlink:href="#DejaVuSans-Bold-65" x="187.542969"/>
     <use xlink:href="#DejaVuSans-Bold-6e" x="255.365234"/>
     <use xlink:href="#DejaVuSans-Bold-20" x="326.556641"/>
     <use xlink:href="#DejaVuSans-Bold-45" x="361.371094"/>
     <use xlink:href="#DejaVuSans-Bold-66" x="429.681641"/>
     <use xlink:href="#DejaVuSans-Bold-66" x="473.1875"/>
     <use xlink:href="#DejaVuSans-Bold-69" x="516.693359"/>
     <use xlink:href="#DejaVuSans-Bold-63" x="550.970703"/>
     <use xlink:href="#DejaVuSans-Bold-69" x="610.248047"/>
     <use xlink:href="#DejaVuSans-Bold-65" x="644.525391"/>
     <use xlink:href="#DejaVuSans-Bold-6e" x="712.347656"/>
     <use xlink:href="#DejaVuSans-Bold-63" x="783.539062"/>
     <use xlink:href="#DejaVuSans-Bold-79" x="842.816406"/>
     <use xlink:href="#DejaVuSans-Bold-3a" x="908.001953"/>
     <use xlink:href="#DejaVuSans-Bold-20" x="947.992188"/>
     <use xlink:href="#DejaVuSans-Bold-49" x="982.806641"/>
     <use xlink:href="#DejaVuSans-Bold-6e" x="1020.013672"/>
     <use xlink:href="#DejaVuSans-Bold-70" x="1091.205078"/>
     <use xlink:href="#DejaVuSans-Bold-75" x="1162.787109"/>
     <use xlink:href="#DejaVuSans-Bold-74" x="1233.978516"/>
     <use xlink:href="#DejaVuSans-Bold-20" x="1281.78125"/>
     <use xlink:href="#DejaVuSans-Bold-76" x="1316.595703"/>
     <use xlink:href="#DejaVuSans-Bold-73" x="1381.78125"/>
     <use xlink:href="#DejaVuSans-Bold-20" x="1441.302734"/>
     <use xlink:href="#DejaVuSans-Bold-4f" x="1476.117188"/>
     <use xlink:href="#DejaVuSans-Bold-75" x="1561.126953"/>
     <use xlink:href="#DejaVuSans-Bold-74" x="1632.318359"/>
     <use xlink:href="#DejaVuSans-Bold-70" x="1680.121094"/>
     <use xlink:href="#DejaVuSans-Bold-75" x="1751.703125"/>
     <use xlink:href="#DejaVuSans-Bold-74" x="1822.894531"/>
    </g>
   </g>
   <g id="legend_1">
    <g id="patch_8">
     <path d="M 78.71375 119.4125 
L 167.9075 119.4125 
Q 170.3075 119.4125 170.3075 117.0125 
L 170.3075 47.7575 
Q 170.3075 45.3575 167.9075 45.3575 
L 78.71375 45.3575 
Q 76.31375 45.3575 76.31375 47.7575 
L 76.31375 117.0125 
Q 76.31375 119.4125 78.71375 119.4125 
z
" style="fill: #ffffff; opacity: 0.9; stroke: #cccccc; stroke-linejoin: miter"/>
    </g>
    <g id="PathCollection_4">
     <defs>
      <path id="mb639b9b18d" d="M 0 8.291562 
C 2.198948 8.291562 4.308129 7.417911 5.86302 5.86302 
C 7.417911 4.308129 8.291562 2.198948 8.291562 0 
C 8.291562 -2.198948 7.417911 -4.308129 5.86302 -5.86302 
C 4.308129 -7.417911 2.198948 -8.291562 0 -8.291562 
C -2.198948 -8.291562 -4.308129 -7.417911 -5.86302 -5.86302 
C -7.417911 -4.308129 -8.291562 -2.198948 -8.291562 0 
C -8.291562 2.198948 -7.417911 4.308129 -5.86302 5.86302 
C -4.308129 7.417911 -2.198948 8.291562 0 8.291562 
z
" style="stroke: #000000; stroke-opacity: 0.6; stroke-width: 1.5"/>
     </defs>
     <g>
      <use xlink:href="#mb639b9b18d" x="93.11375" y="56.125625" style="fill: #1f77b4; fill-opacity: 0.6; stroke: #000000; stroke-opacity: 0.6; stroke-width: 1.5"/>
     </g>
    </g>
    <g id="text_17">
     <!-- baes -->
     <g transform="translate(114.71375 59.275625) scale(0.12 -0.12)">
      <use xlink:href="#DejaVuSans-62"/>
      <use xlink:href="#DejaVuSans-61" x="63.476562"/>
      <use xlink:href="#DejaVuSans-65" x="124.755859"/>
      <use xlink:href="#DejaVuSans-73" x="186.279297"/>
     </g>
    </g>
    <g id="PathCollection_5">
     <defs>
      <path id="m75b3dce61b" d="M -8.291562 8.291562 
L 8.291562 8.291562 
L 8.291562 -8.291562 
L -8.291562 -8.291562 
z
" style="stroke: #000000; stroke-opacity: 0.6; stroke-width: 1.5"/>
     </defs>
     <g>
      <use xlink:href="#m75b3dce61b" x="93.11375" y="73.739375" style="fill: #ff7f0e; fill-opacity: 0.6; stroke: #000000; stroke-opacity: 0.6; stroke-width: 1.5"/>
     </g>
    </g>
    <g id="text_18">
     <!-- chatdev -->
     <g transform="translate(114.71375 76.889375) scale(0.12 -0.12)">
      <defs>
       <path id="DejaVuSans-68" d="M 3513 2113 
L 3513 0 
L 2938 0 
L 2938 2094 
Q 2938 2591 2744 2837 
Q 2550 3084 2163 3084 
Q 1697 3084 1428 2787 
Q 1159 2491 1159 1978 
L 1159 0 
L 581 0 
L 581 4863 
L 1159 4863 
L 1159 2956 
Q 1366 3272 1645 3428 
Q 1925 3584 2291 3584 
Q 2894 3584 3203 3211 
Q 3513 2838 3513 2113 
z
" transform="scale(0.015625)"/>
       <path id="DejaVuSans-64" d="M 2906 2969 
L 2906 4863 
L 3481 4863 
L 3481 0 
L 2906 0 
L 2906 525 
Q 2725 213 2448 61 
Q 2172 -91 1784 -91 
Q 1150 -91 751 415 
Q 353 922 353 1747 
Q 353 2572 751 3078 
Q 1150 3584 1784 3584 
Q 2172 3584 2448 3432 
Q 2725 3281 2906 2969 
z
M 947 1747 
Q 947 1113 1208 752 
Q 1469 391 1925 391 
Q 2381 391 2643 752 
Q 2906 1113 2906 1747 
Q 2906 2381 2643 2742 
Q 2381 3103 1925 3103 
Q 1469 3103 1208 2742 
Q 947 2381 947 1747 
z
" transform="scale(0.015625)"/>
      </defs>
      <use xlink:href="#DejaVuSans-63"/>
      <use xlink:href="#DejaVuSans-68" x="54.980469"/>
      <use xlink:href="#DejaVuSans-61" x="118.359375"/>
      <use xlink:href="#DejaVuSans-74" x="179.638672"/>
      <use xlink:href="#DejaVuSans-64" x="218.847656"/>
      <use xlink:href="#DejaVuSans-65" x="282.324219"/>
      <use xlink:href="#DejaVuSans-76" x="343.847656"/>
     </g>
    </g>
    <g id="PathCollection_6">
     <defs>
      <path id="m6760818c35" d="M 0 -8.291562 
L -8.291562 8.291562 
L 8.291562 8.291562 
z
" style="stroke: #000000; stroke-opacity: 0.6; stroke-width: 1.5"/>
     </defs>
     <g>
      <use xlink:href="#m6760818c35" x="93.11375" y="91.353125" style="fill: #2ca02c; fill-opacity: 0.6; stroke: #000000; stroke-opacity: 0.6; stroke-width: 1.5"/>
     </g>
    </g>
    <g id="text_19">
     <!-- ghspec -->
     <g transform="translate(114.71375 94.503125) scale(0.12 -0.12)">
      <defs>
       <path id="DejaVuSans-67" d="M 2906 1791 
Q 2906 2416 2648 2759 
Q 2391 3103 1925 3103 
Q 1463 3103 1205 2759 
Q 947 2416 947 1791 
Q 947 1169 1205 825 
Q 1463 481 1925 481 
Q 2391 481 2648 825 
Q 2906 1169 2906 1791 
z
M 3481 434 
Q 3481 -459 3084 -895 
Q 2688 -1331 1869 -1331 
Q 1566 -1331 1297 -1286 
Q 1028 -1241 775 -1147 
L 775 -588 
Q 1028 -725 1275 -790 
Q 1522 -856 1778 -856 
Q 2344 -856 2625 -561 
Q 2906 -266 2906 331 
L 2906 616 
Q 2728 306 2450 153 
Q 2172 0 1784 0 
Q 1141 0 747 490 
Q 353 981 353 1791 
Q 353 2603 747 3093 
Q 1141 3584 1784 3584 
Q 2172 3584 2450 3431 
Q 2728 3278 2906 2969 
L 2906 3500 
L 3481 3500 
L 3481 434 
z
" transform="scale(0.015625)"/>
      </defs>
      <use xlink:href="#DejaVuSans-67"/>
      <use xlink:href="#DejaVuSans-68" x="63.476562"/>
      <use xlink:href="#DejaVuSans-73" x="126.855469"/>
      <use xlink:href="#DejaVuSans-70" x="178.955078"/>
      <use xlink:href="#DejaVuSans-65" x="242.431641"/>
      <use xlink:href="#DejaVuSans-63" x="303.955078"/>
     </g>
    </g>
    <g id="line2d_29">
     <path d="M 81.11375 107.916875 
L 93.11375 107.916875 
L 105.11375 107.916875 
" style="fill: none; stroke-dasharray: 1,1.65; stroke-dashoffset: 0; stroke: #000000; stroke-opacity: 0.3"/>
    </g>
    <g id="text_20">
     <!-- 1:1 ratio -->
     <g transform="translate(114.71375 112.116875) scale(0.12 -0.12)">
      <use xlink:href="#DejaVuSans-31"/>
      <use xlink:href="#DejaVuSans-3a" x="63.623047"/>
      <use xlink:href="#DejaVuSans-31" x="97.314453"/>
      <use xlink:href="#DejaVuSans-20" x="160.9375"/>
      <use xlink:href="#DejaVuSans-72" x="192.724609"/>
      <use xlink:href="#DejaVuSans-61" x="233.837891"/>
      <use xlink:href="#DejaVuSans-74" x="295.117188"/>
      <use xlink:href="#DejaVuSans-69" x="334.326172"/>
      <use xlink:href="#DejaVuSans-6f" x="362.109375"/>
     </g>
    </g>
   </g>
  </g>
 </g>
 <defs>
  <clipPath id="p10eb15fc0c">
   <rect x="70.31375" y="39.3575" width="779.11" height="487.4"/>
  </clipPath>
 </defs>
</svg>
