<?xml version="1.0" encoding="utf-8" standalone="no"?>
<!DOCTYPE svg PUBLIC "-//W3C//DTD SVG 1.1//EN"
  "http://www.w3.org/Graphics/SVG/1.1/DTD/svg11.dtd">
<svg xmlns:xlink="http://www.w3.org/1999/xlink" width="856.62375pt" height="568.574375pt" viewBox="0 0 856.62375 568.574375" xmlns="http://www.w3.org/2000/svg" version="1.1">
 <metadata>
  <rdf:RDF xmlns:dc="http://purl.org/dc/elements/1.1/" xmlns:cc="http://creativecommons.org/ns#" xmlns:rdf="http://www.w3.org/1999/02/22-rdf-syntax-ns#">
   <cc:Work>
    <dc:type rdf:resource="http://purl.org/dc/dcmitype/StillImage"/>
    <dc:date>2025-10-18T05:43:54.352826</dc:date>
    <dc:format>image/svg+xml</dc:format>
    <dc:creator>
     <cc:Agent>
      <dc:title>Matplotlib v3.8.0, https://matplotlib.org/</dc:title>
     </cc:Agent>
    </dc:creator>
   </cc:Work>
  </rdf:RDF>
 </metadata>
 <defs>
  <style type="text/css">*{stroke-linejoin: round; stroke-linecap: butt}</style>
 </defs>
 <g id="figure_1">
  <g id="patch_1">
   <path d="M 0 568.574375 
L 856.62375 568.574375 
L 856.62375 0 
L 0 0 
z
" style="fill: #ffffff"/>
  </g>
  <g id="axes_1">
   <g id="patch_2">
    <path d="M 70.31375 526.7575 
L 849.42375 526.7575 
L 849.42375 39.3575 
L 70.31375 39.3575 
z
" style="fill: #ffffff"/>
   </g>
   <g id="PathCollection_1">
    <path d="M 171.64609 500.042385 
C 173.397352 500.042385 175.077122 499.346602 176.315451 498.108273 
C 177.55378 496.869944 178.249564 495.190174 178.249564 493.438912 
C 178.249564 491.68765 177.55378 490.00788 176.315451 488.769551 
C 175.077122 487.531222 173.397352 486.835439 171.64609 486.835439 
C 169.894829 486.835439 168.215058 487.531222 166.97673 488.769551 
C 165.738401 490.00788 165.042617 491.68765 165.042617 493.438912 
C 165.042617 495.190174 165.738401 496.869944 166.97673 498.108273 
C 168.215058 499.346602 169.894829 500.042385 171.64609 500.042385 
z
" clip-path="url(#pb0c36069b9)" style="fill: #1f77b4; fill-opacity: 0.6; stroke: #000000; stroke-opacity: 0.6; stroke-width: 1.5"/>
    <path d="M 184.682974 496.686482 
C 186.547654 496.686482 188.336211 495.945637 189.654739 494.62711 
C 190.973266 493.308583 191.714111 491.520025 191.714111 489.655346 
C 191.714111 487.790667 190.973266 486.002109 189.654739 484.683582 
C 188.336211 483.365054 186.547654 482.62421 184.682974 482.62421 
C 182.818295 482.62421 181.029737 483.365054 179.71121 484.683582 
C 178.392683 486.002109 177.651838 487.790667 177.651838 489.655346 
C 177.651838 491.520025 178.392683 493.308583 179.71121 494.62711 
C 181.029737 495.945637 182.818295 496.686482 184.682974 496.686482 
z
" clip-path="url(#pb0c36069b9)" style="fill: #1f77b4; fill-opacity: 0.6; stroke: #000000; stroke-opacity: 0.6; stroke-width: 1.5"/>
    <path d="M 159.89139 501.661084 
C 161.475685 501.661084 162.995305 501.031637 164.11557 499.911371 
C 165.235836 498.791105 165.865283 497.271486 165.865283 495.687191 
C 165.865283 494.102896 165.235836 492.583277 164.11557 491.463011 
C 162.995305 490.342746 161.475685 489.713299 159.89139 489.713299 
C 158.307096 489.713299 156.787476 490.342746 155.667211 491.463011 
C 154.546945 492.583277 153.917498 494.102896 153.917498 495.687191 
C 153.917498 497.271486 154.546945 498.791105 155.667211 499.911371 
C 156.787476 501.031637 158.307096 501.661084 159.89139 501.661084 
z
" clip-path="url(#pb0c36069b9)" style="fill: #1f77b4; fill-opacity: 0.6; stroke: #000000; stroke-opacity: 0.6; stroke-width: 1.5"/>
    <path d="M 179.715518 497.79889 
C 181.375735 497.79889 182.968176 497.13928 184.142127 495.965329 
C 185.316077 494.791379 185.975688 493.198937 185.975688 491.538721 
C 185.975688 489.878505 185.316077 488.286063 184.142127 487.112113 
C 182.968176 485.938163 181.375735 485.278552 179.715518 485.278552 
C 178.055302 485.278552 176.46286 485.938163 175.28891 487.112113 
C 174.11496 488.286063 173.455349 489.878505 173.455349 491.538721 
C 173.455349 493.198937 174.11496 494.791379 175.28891 495.965329 
C 176.46286 497.13928 178.055302 497.79889 179.715518 497.79889 
z
" clip-path="url(#pb0c36069b9)" style="fill: #1f77b4; fill-opacity: 0.6; stroke: #000000; stroke-opacity: 0.6; stroke-width: 1.5"/>
    <path d="M 174.559901 499.065018 
C 176.076044 499.065018 177.530293 498.462648 178.602368 497.390573 
C 179.674443 496.318499 180.276812 494.864249 180.276812 493.348106 
C 180.276812 491.831964 179.674443 490.377714 178.602368 489.30564 
C 177.530293 488.233565 176.076044 487.631195 174.559901 487.631195 
C 173.043758 487.631195 171.589509 488.233565 170.517434 489.30564 
C 169.44536 490.377714 168.84299 491.831964 168.84299 493.348106 
C 168.84299 494.864249 169.44536 496.318499 170.517434 497.390573 
C 171.589509 498.462648 173.043758 499.065018 174.559901 499.065018 
z
" clip-path="url(#pb0c36069b9)" style="fill: #1f77b4; fill-opacity: 0.6; stroke: #000000; stroke-opacity: 0.6; stroke-width: 1.5"/>
    <path d="M 186.715115 499.135549 
C 188.851119 499.135549 190.899925 498.286905 192.410308 496.776523 
C 193.920691 495.26614 194.769334 493.217334 194.769334 491.08133 
C 194.769334 488.945326 193.920691 486.89652 192.410308 485.386137 
C 190.899925 483.875755 188.851119 483.027111 186.715115 483.027111 
C 184.579112 483.027111 182.530306 483.875755 181.019923 485.386137 
C 179.50954 486.89652 178.660897 488.945326 178.660897 491.08133 
C 178.660897 493.217334 179.50954 495.26614 181.019923 496.776523 
C 182.530306 498.286905 184.579112 499.135549 186.715115 499.135549 
z
" clip-path="url(#pb0c36069b9)" style="fill: #1f77b4; fill-opacity: 0.6; stroke: #000000; stroke-opacity: 0.6; stroke-width: 1.5"/>
    <path d="M 174.559901 499.211714 
C 176.086852 499.211714 177.551469 498.605049 178.631187 497.525332 
C 179.710904 496.445614 180.317568 494.980998 180.317568 493.454046 
C 180.317568 491.927095 179.710904 490.462478 178.631187 489.382761 
C 177.551469 488.303043 176.086852 487.696379 174.559901 487.696379 
C 173.03295 487.696379 171.568333 488.303043 170.488615 489.382761 
C 169.408898 490.462478 168.802234 491.927095 168.802234 493.454046 
C 168.802234 494.980998 169.408898 496.445614 170.488615 497.525332 
C 171.568333 498.605049 173.03295 499.211714 174.559901 499.211714 
z
" clip-path="url(#pb0c36069b9)" style="fill: #1f77b4; fill-opacity: 0.6; stroke: #000000; stroke-opacity: 0.6; stroke-width: 1.5"/>
    <path d="M 179.715518 498.471647 
C 181.562625 498.471647 183.334328 497.737784 184.64043 496.431682 
C 185.946531 495.12558 186.680395 493.353878 186.680395 491.506771 
C 186.680395 489.659664 185.946531 487.887961 184.64043 486.58186 
C 183.334328 485.275758 181.562625 484.541895 179.715518 484.541895 
C 177.868412 484.541895 176.096709 485.275758 174.790607 486.58186 
C 173.484505 487.887961 172.750642 489.659664 172.750642 491.506771 
C 172.750642 493.353878 173.484505 495.12558 174.790607 496.431682 
C 176.096709 497.737784 177.868412 498.471647 179.715518 498.471647 
z
" clip-path="url(#pb0c36069b9)" style="fill: #1f77b4; fill-opacity: 0.6; stroke: #000000; stroke-opacity: 0.6; stroke-width: 1.5"/>
    <path d="M 171.64609 498.318206 
C 172.887025 498.318206 174.077301 497.825177 174.954774 496.947704 
C 175.832247 496.070231 176.325275 494.879955 176.325275 493.639021 
C 176.325275 492.398086 175.832247 491.20781 174.954774 490.330337 
C 174.077301 489.452864 172.887025 488.959835 171.64609 488.959835 
C 170.405156 488.959835 169.21488 489.452864 168.337407 490.330337 
C 167.459934 491.20781 166.966905 492.398086 166.966905 493.639021 
C 166.966905 494.879955 167.459934 496.070231 168.337407 496.947704 
C 169.21488 497.825177 170.405156 498.318206 171.64609 498.318206 
z
" clip-path="url(#pb0c36069b9)" style="fill: #1f77b4; fill-opacity: 0.6; stroke: #000000; stroke-opacity: 0.6; stroke-width: 1.5"/>
    <path d="M 149.977982 500.02915 
C 150.96314 500.02915 151.90808 499.637743 152.604692 498.941131 
C 153.301303 498.24452 153.69271 497.29958 153.69271 496.314422 
C 153.69271 495.329265 153.301303 494.384325 152.604692 493.687713 
C 151.90808 492.991102 150.96314 492.599695 149.977982 492.599695 
C 148.992825 492.599695 148.047885 492.991102 147.351273 493.687713 
C 146.654662 494.384325 146.263255 495.329265 146.263255 496.314422 
C 146.263255 497.29958 146.654662 498.24452 147.351273 498.941131 
C 148.047885 499.637743 148.992825 500.02915 149.977982 500.02915 
z
" clip-path="url(#pb0c36069b9)" style="fill: #1f77b4; fill-opacity: 0.6; stroke: #000000; stroke-opacity: 0.6; stroke-width: 1.5"/>
    <path d="M 179.715518 497.071294 
C 181.179652 497.071294 182.584016 496.489587 183.619315 495.454288 
C 184.654613 494.41899 185.23632 493.014626 185.23632 491.550492 
C 185.23632 490.086358 184.654613 488.681995 183.619315 487.646696 
C 182.584016 486.611397 181.179652 486.02969 179.715518 486.02969 
C 178.251385 486.02969 176.847021 486.611397 175.811722 487.646696 
C 174.776423 488.681995 174.194717 490.086358 174.194717 491.550492 
C 174.194717 493.014626 174.776423 494.41899 175.811722 495.454288 
C 176.847021 496.489587 178.251385 497.071294 179.715518 497.071294 
z
" clip-path="url(#pb0c36069b9)" style="fill: #1f77b4; fill-opacity: 0.6; stroke: #000000; stroke-opacity: 0.6; stroke-width: 1.5"/>
    <path d="M 174.559901 497.231731 
C 175.572458 497.231731 176.543679 496.829438 177.259665 496.113452 
C 177.975651 495.397466 178.377944 494.426245 178.377944 493.413688 
C 178.377944 492.401132 177.975651 491.42991 177.259665 490.713924 
C 176.543679 489.997939 175.572458 489.595646 174.559901 489.595646 
C 173.547344 489.595646 172.576123 489.997939 171.860137 490.713924 
C 171.144151 491.42991 170.741858 492.401132 170.741858 493.413688 
C 170.741858 494.426245 171.144151 495.397466 171.860137 496.113452 
C 172.576123 496.829438 173.547344 497.231731 174.559901 497.231731 
z
" clip-path="url(#pb0c36069b9)" style="fill: #1f77b4; fill-opacity: 0.6; stroke: #000000; stroke-opacity: 0.6; stroke-width: 1.5"/>
    <path d="M 174.559901 497.72267 
C 175.677237 497.72267 176.748959 497.278748 177.539035 496.488672 
C 178.32911 495.698597 178.773033 494.626874 178.773033 493.509539 
C 178.773033 492.392203 178.32911 491.32048 177.539035 490.530405 
C 176.748959 489.740329 175.677237 489.296407 174.559901 489.296407 
C 173.442566 489.296407 172.370843 489.740329 171.580767 490.530405 
C 170.790692 491.32048 170.34677 492.392203 170.34677 493.509539 
C 170.34677 494.626874 170.790692 495.698597 171.580767 496.488672 
C 172.370843 497.278748 173.442566 497.72267 174.559901 497.72267 
z
" clip-path="url(#pb0c36069b9)" style="fill: #1f77b4; fill-opacity: 0.6; stroke: #000000; stroke-opacity: 0.6; stroke-width: 1.5"/>
    <path d="M 159.89139 499.764664 
C 160.964721 499.764664 161.994236 499.338225 162.753196 498.579265 
C 163.512155 497.820305 163.938594 496.790791 163.938594 495.71746 
C 163.938594 494.644129 163.512155 493.614614 162.753196 492.855654 
C 161.994236 492.096695 160.964721 491.670256 159.89139 491.670256 
C 158.818059 491.670256 157.788545 492.096695 157.029585 492.855654 
C 156.270625 493.614614 155.844186 494.644129 155.844186 495.71746 
C 155.844186 496.790791 156.270625 497.820305 157.029585 498.579265 
C 157.788545 499.338225 158.818059 499.764664 159.89139 499.764664 
z
" clip-path="url(#pb0c36069b9)" style="fill: #1f77b4; fill-opacity: 0.6; stroke: #000000; stroke-opacity: 0.6; stroke-width: 1.5"/>
    <path d="M 179.527357 496.753163 
C 180.907121 496.753163 182.23056 496.204977 183.206201 495.229336 
C 184.181841 494.253695 184.730028 492.930256 184.730028 491.550492 
C 184.730028 490.170728 184.181841 488.847289 183.206201 487.871648 
C 182.23056 486.896008 180.907121 486.347822 179.527357 486.347822 
C 178.147593 486.347822 176.824154 486.896008 175.848513 487.871648 
C 174.872873 488.847289 174.324687 490.170728 174.324687 491.550492 
C 174.324687 492.930256 174.872873 494.253695 175.848513 495.229336 
C 176.824154 496.204977 178.147593 496.753163 179.527357 496.753163 
z
" clip-path="url(#pb0c36069b9)" style="fill: #1f77b4; fill-opacity: 0.6; stroke: #000000; stroke-opacity: 0.6; stroke-width: 1.5"/>
    <path d="M 189.628926 495.102505 
C 190.713639 495.102505 191.754071 494.671544 192.521078 493.904537 
C 193.288086 493.137529 193.719047 492.097098 193.719047 491.012385 
C 193.719047 489.927672 193.288086 488.887241 192.521078 488.120233 
C 191.754071 487.353225 190.713639 486.922265 189.628926 486.922265 
C 188.544214 486.922265 187.503782 487.353225 186.736774 488.120233 
C 185.969767 488.887241 185.538806 489.927672 185.538806 491.012385 
C 185.538806 492.097098 185.969767 493.137529 186.736774 493.904537 
C 187.503782 494.671544 188.544214 495.102505 189.628926 495.102505 
z
" clip-path="url(#pb0c36069b9)" style="fill: #1f77b4; fill-opacity: 0.6; stroke: #000000; stroke-opacity: 0.6; stroke-width: 1.5"/>
    <path d="M 174.559901 497.870777 
C 175.743719 497.870777 176.879209 497.400441 177.716295 496.563356 
C 178.55338 495.72627 179.023716 494.590779 179.023716 493.406962 
C 179.023716 492.223144 178.55338 491.087654 177.716295 490.250568 
C 176.879209 489.413483 175.743719 488.943147 174.559901 488.943147 
C 173.376084 488.943147 172.240593 489.413483 171.403507 490.250568 
C 170.566422 491.087654 170.096086 492.223144 170.096086 493.406962 
C 170.096086 494.590779 170.566422 495.72627 171.403507 496.563356 
C 172.240593 497.400441 173.376084 497.870777 174.559901 497.870777 
z
" clip-path="url(#pb0c36069b9)" style="fill: #1f77b4; fill-opacity: 0.6; stroke: #000000; stroke-opacity: 0.6; stroke-width: 1.5"/>
    <path d="M 164.646493 499.026707 
C 166.04812 499.026707 167.39253 498.469834 168.38363 497.478734 
C 169.37473 496.487634 169.931603 495.143225 169.931603 493.741597 
C 169.931603 492.33997 169.37473 490.995561 168.38363 490.004461 
C 167.39253 489.01336 166.04812 488.456488 164.646493 488.456488 
C 163.244866 488.456488 161.900457 489.01336 160.909356 490.004461 
C 159.918256 490.995561 159.361384 492.33997 159.361384 493.741597 
C 159.361384 495.143225 159.918256 496.487634 160.909356 497.478734 
C 161.900457 498.469834 163.244866 499.026707 164.646493 499.026707 
z
" clip-path="url(#pb0c36069b9)" style="fill: #1f77b4; fill-opacity: 0.6; stroke: #000000; stroke-opacity: 0.6; stroke-width: 1.5"/>
    <path d="M 174.559901 498.355623 
C 175.859368 498.355623 177.105788 497.839339 178.02465 496.920477 
C 178.943513 496.001615 179.459796 494.755195 179.459796 493.455728 
C 179.459796 492.15626 178.943513 490.909841 178.02465 489.990979 
C 177.105788 489.072116 175.859368 488.555833 174.559901 488.555833 
C 173.260434 488.555833 172.014014 489.072116 171.095152 489.990979 
C 170.17629 490.909841 169.660006 492.15626 169.660006 493.455728 
C 169.660006 494.755195 170.17629 496.001615 171.095152 496.920477 
C 172.014014 497.839339 173.260434 498.355623 174.559901 498.355623 
z
" clip-path="url(#pb0c36069b9)" style="fill: #1f77b4; fill-opacity: 0.6; stroke: #000000; stroke-opacity: 0.6; stroke-width: 1.5"/>
    <path d="M 179.715518 496.4501 
C 181.069317 496.4501 182.367849 495.91223 183.32513 494.95495 
C 184.28241 493.99767 184.82028 492.699137 184.82028 491.345339 
C 184.82028 489.99154 184.28241 488.693008 183.32513 487.735727 
C 182.367849 486.778447 181.069317 486.240578 179.715518 486.240578 
C 178.36172 486.240578 177.063187 486.778447 176.105907 487.735727 
C 175.148627 488.693008 174.610757 489.99154 174.610757 491.345339 
C 174.610757 492.699137 175.148627 493.99767 176.105907 494.95495 
C 177.063187 495.91223 178.36172 496.4501 179.715518 496.4501 
z
" clip-path="url(#pb0c36069b9)" style="fill: #1f77b4; fill-opacity: 0.6; stroke: #000000; stroke-opacity: 0.6; stroke-width: 1.5"/>
    <path d="M 159.89139 501.80819 
C 161.492846 501.80819 163.028926 501.171925 164.161326 500.039525 
C 165.293726 498.907124 165.929992 497.371045 165.929992 495.769589 
C 165.929992 494.168133 165.293726 492.632053 164.161326 491.499653 
C 163.028926 490.367253 161.492846 489.730988 159.89139 489.730988 
C 158.289935 489.730988 156.753855 490.367253 155.621455 491.499653 
C 154.489054 492.632053 153.852789 494.168133 153.852789 495.769589 
C 153.852789 497.371045 154.489054 498.907124 155.621455 500.039525 
C 156.753855 501.171925 158.289935 501.80819 159.89139 501.80819 
z
" clip-path="url(#pb0c36069b9)" style="fill: #1f77b4; fill-opacity: 0.6; stroke: #000000; stroke-opacity: 0.6; stroke-width: 1.5"/>
    <path d="M 159.89139 501.500775 
C 161.444766 501.500775 162.934728 500.883613 164.033131 499.78521 
C 165.131533 498.686808 165.748696 497.196845 165.748696 495.64347 
C 165.748696 494.090094 165.131533 492.600132 164.033131 491.50173 
C 162.934728 490.403327 161.444766 489.786164 159.89139 489.786164 
C 158.338015 489.786164 156.848052 490.403327 155.74965 491.50173 
C 154.651248 492.600132 154.034085 494.090094 154.034085 495.64347 
C 154.034085 497.196845 154.651248 498.686808 155.74965 499.78521 
C 156.848052 500.883613 158.338015 501.500775 159.89139 501.500775 
z
" clip-path="url(#pb0c36069b9)" style="fill: #1f77b4; fill-opacity: 0.6; stroke: #000000; stroke-opacity: 0.6; stroke-width: 1.5"/>
    <path d="M 164.646493 500.41067 
C 166.383489 500.41067 168.049575 499.720554 169.277816 498.492313 
C 170.506058 497.264072 171.196173 495.597985 171.196173 493.86099 
C 171.196173 492.123994 170.506058 490.457908 169.277816 489.229667 
C 168.049575 488.001425 166.383489 487.31131 164.646493 487.31131 
C 162.909498 487.31131 161.243411 488.001425 160.01517 489.229667 
C 158.786929 490.457908 158.096813 492.123994 158.096813 493.86099 
C 158.096813 495.597985 158.786929 497.264072 160.01517 498.492313 
C 161.243411 499.720554 162.909498 500.41067 164.646493 500.41067 
z
" clip-path="url(#pb0c36069b9)" style="fill: #1f77b4; fill-opacity: 0.6; stroke: #000000; stroke-opacity: 0.6; stroke-width: 1.5"/>
    <path d="M 164.84003 505.199399 
C 167.805091 505.199399 170.64911 504.021368 172.745724 501.924753 
C 174.842339 499.828138 176.02037 496.98412 176.02037 494.019059 
C 176.02037 491.053998 174.842339 488.209979 172.745724 486.113365 
C 170.64911 484.01675 167.805091 482.838719 164.84003 482.838719 
C 161.87497 482.838719 159.030951 484.01675 156.934336 486.113365 
C 154.837722 488.209979 153.65969 491.053998 153.65969 494.019059 
C 153.65969 496.98412 154.837722 499.828138 156.934336 501.924753 
C 159.030951 504.021368 161.87497 505.199399 164.84003 505.199399 
z
" clip-path="url(#pb0c36069b9)" style="fill: #1f77b4; fill-opacity: 0.6; stroke: #000000; stroke-opacity: 0.6; stroke-width: 1.5"/>
    <path d="M 174.559901 500.931292 
C 176.544228 500.931292 178.447549 500.142911 179.85068 498.73978 
C 181.253811 497.336649 182.042192 495.433328 182.042192 493.449002 
C 182.042192 491.464675 181.253811 489.561354 179.85068 488.158223 
C 178.447549 486.755092 176.544228 485.966711 174.559901 485.966711 
C 172.575574 485.966711 170.672253 486.755092 169.269122 488.158223 
C 167.865992 489.561354 167.07761 491.464675 167.07761 493.449002 
C 167.07761 495.433328 167.865992 497.336649 169.269122 498.73978 
C 170.672253 500.142911 172.575574 500.931292 174.559901 500.931292 
z
" clip-path="url(#pb0c36069b9)" style="fill: #1f77b4; fill-opacity: 0.6; stroke: #000000; stroke-opacity: 0.6; stroke-width: 1.5"/>
    <path d="M 174.559901 500.59387 
C 176.480608 500.59387 178.322906 499.830765 179.681051 498.47262 
C 181.039196 497.114475 181.802301 495.272177 181.802301 493.35147 
C 181.802301 491.430763 181.039196 489.588464 179.681051 488.230319 
C 178.322906 486.872175 176.480608 486.10907 174.559901 486.10907 
C 172.639194 486.10907 170.796896 486.872175 169.438751 488.230319 
C 168.080606 489.588464 167.317501 491.430763 167.317501 493.35147 
C 167.317501 495.272177 168.080606 497.114475 169.438751 498.47262 
C 170.796896 499.830765 172.639194 500.59387 174.559901 500.59387 
z
" clip-path="url(#pb0c36069b9)" style="fill: #1f77b4; fill-opacity: 0.6; stroke: #000000; stroke-opacity: 0.6; stroke-width: 1.5"/>
    <path d="M 174.559901 498.985726 
C 176.019338 498.985726 177.419197 498.405886 178.451175 497.373908 
C 179.483153 496.34193 180.062994 494.942071 180.062994 493.482633 
C 180.062994 492.023196 179.483153 490.623337 178.451175 489.591359 
C 177.419197 488.559381 176.019338 487.97954 174.559901 487.97954 
C 173.100464 487.97954 171.700605 488.559381 170.668627 489.591359 
C 169.636649 490.623337 169.056808 492.023196 169.056808 493.482633 
C 169.056808 494.942071 169.636649 496.34193 170.668627 497.373908 
C 171.700605 498.405886 173.100464 498.985726 174.559901 498.985726 
z
" clip-path="url(#pb0c36069b9)" style="fill: #1f77b4; fill-opacity: 0.6; stroke: #000000; stroke-opacity: 0.6; stroke-width: 1.5"/>
    <path d="M 159.89139 501.910794 
C 161.467434 501.910794 162.979138 501.284625 164.093569 500.170194 
C 165.208 499.055764 165.834168 497.544059 165.834168 495.968016 
C 165.834168 494.391973 165.208 492.880268 164.093569 491.765837 
C 162.979138 490.651407 161.467434 490.025238 159.89139 490.025238 
C 158.315347 490.025238 156.803643 490.651407 155.689212 491.765837 
C 154.574781 492.880268 153.948613 494.391973 153.948613 495.968016 
C 153.948613 497.544059 154.574781 499.055764 155.689212 500.170194 
C 156.803643 501.284625 158.315347 501.910794 159.89139 501.910794 
z
" clip-path="url(#pb0c36069b9)" style="fill: #1f77b4; fill-opacity: 0.6; stroke: #000000; stroke-opacity: 0.6; stroke-width: 1.5"/>
    <path d="M 159.89139 500.895243 
C 161.265447 500.895243 162.58341 500.349325 163.555015 499.377721 
C 164.526619 498.406116 165.072537 497.088153 165.072537 495.714096 
C 165.072537 494.34004 164.526619 493.022077 163.555015 492.050472 
C 162.58341 491.078868 161.265447 490.53295 159.89139 490.53295 
C 158.517334 490.53295 157.199371 491.078868 156.227766 492.050472 
C 155.256162 493.022077 154.710244 494.34004 154.710244 495.714096 
C 154.710244 497.088153 155.256162 498.406116 156.227766 499.377721 
C 157.199371 500.349325 158.517334 500.895243 159.89139 500.895243 
z
" clip-path="url(#pb0c36069b9)" style="fill: #1f77b4; fill-opacity: 0.6; stroke: #000000; stroke-opacity: 0.6; stroke-width: 1.5"/>
    <path d="M 189.628926 495.692319 
C 190.902615 495.692319 192.124307 495.186278 193.024941 494.285644 
C 193.925575 493.38501 194.431616 492.163318 194.431616 490.889629 
C 194.431616 489.615941 193.925575 488.394248 193.024941 487.493615 
C 192.124307 486.592981 190.902615 486.086939 189.628926 486.086939 
C 188.355238 486.086939 187.133545 486.592981 186.232912 487.493615 
C 185.332278 488.394248 184.826236 489.615941 184.826236 490.889629 
C 184.826236 492.163318 185.332278 493.38501 186.232912 494.285644 
C 187.133545 495.186278 188.355238 495.692319 189.628926 495.692319 
z
" clip-path="url(#pb0c36069b9)" style="fill: #1f77b4; fill-opacity: 0.6; stroke: #000000; stroke-opacity: 0.6; stroke-width: 1.5"/>
    <path d="M 164.646493 499.021591 
C 165.97095 499.021591 167.241339 498.495379 168.177872 497.558846 
C 169.114405 496.622313 169.640617 495.351924 169.640617 494.027467 
C 169.640617 492.70301 169.114405 491.43262 168.177872 490.496088 
C 167.241339 489.559555 165.97095 489.033343 164.646493 489.033343 
C 163.322036 489.033343 162.051647 489.559555 161.115114 490.496088 
C 160.178581 491.43262 159.652369 492.70301 159.652369 494.027467 
C 159.652369 495.351924 160.178581 496.622313 161.115114 497.558846 
C 162.051647 498.495379 163.322036 499.021591 164.646493 499.021591 
z
" clip-path="url(#pb0c36069b9)" style="fill: #1f77b4; fill-opacity: 0.6; stroke: #000000; stroke-opacity: 0.6; stroke-width: 1.5"/>
    <path d="M 174.559901 497.72882 
C 175.654786 497.72882 176.704974 497.293818 177.479175 496.519618 
C 178.253375 495.745417 178.688377 494.695229 178.688377 493.600344 
C 178.688377 492.50546 178.253375 491.455271 177.479175 490.681071 
C 176.704974 489.90687 175.654786 489.471868 174.559901 489.471868 
C 173.465016 489.471868 172.414828 489.90687 171.640628 490.681071 
C 170.866427 491.455271 170.431425 492.50546 170.431425 493.600344 
C 170.431425 494.695229 170.866427 495.745417 171.640628 496.519618 
C 172.414828 497.293818 173.465016 497.72882 174.559901 497.72882 
z
" clip-path="url(#pb0c36069b9)" style="fill: #1f77b4; fill-opacity: 0.6; stroke: #000000; stroke-opacity: 0.6; stroke-width: 1.5"/>
    <path d="M 174.559901 497.611868 
C 175.704935 497.611868 176.803225 497.156941 177.612885 496.34728 
C 178.422546 495.537619 178.877473 494.439329 178.877473 493.294296 
C 178.877473 492.149262 178.422546 491.050972 177.612885 490.241311 
C 176.803225 489.43165 175.704935 488.976724 174.559901 488.976724 
C 173.414868 488.976724 172.316578 489.43165 171.506917 490.241311 
C 170.697256 491.050972 170.242329 492.149262 170.242329 493.294296 
C 170.242329 494.439329 170.697256 495.537619 171.506917 496.34728 
C 172.316578 497.156941 173.414868 497.611868 174.559901 497.611868 
z
" clip-path="url(#pb0c36069b9)" style="fill: #1f77b4; fill-opacity: 0.6; stroke: #000000; stroke-opacity: 0.6; stroke-width: 1.5"/>
    <path d="M 174.559901 496.850537 
C 175.51596 496.850537 176.43299 496.470691 177.109026 495.794655 
C 177.785062 495.118619 178.164909 494.201589 178.164909 493.24553 
C 178.164909 492.289471 177.785062 491.37244 177.109026 490.696404 
C 176.43299 490.020369 175.51596 489.640522 174.559901 489.640522 
C 173.603842 489.640522 172.686812 490.020369 172.010776 490.696404 
C 171.33474 491.37244 170.954893 492.289471 170.954893 493.24553 
C 170.954893 494.201589 171.33474 495.118619 172.010776 495.794655 
C 172.686812 496.470691 173.603842 496.850537 174.559901 496.850537 
z
" clip-path="url(#pb0c36069b9)" style="fill: #1f77b4; fill-opacity: 0.6; stroke: #000000; stroke-opacity: 0.6; stroke-width: 1.5"/>
    <path d="M 174.559901 496.814695 
C 175.497536 496.814695 176.396893 496.442169 177.059901 495.779161 
C 177.722909 495.116154 178.095435 494.216796 178.095435 493.279161 
C 178.095435 492.341527 177.722909 491.442169 177.059901 490.779161 
C 176.396893 490.116154 175.497536 489.743628 174.559901 489.743628 
C 173.622266 489.743628 172.722909 490.116154 172.059901 490.779161 
C 171.396893 491.442169 171.024367 492.341527 171.024367 493.279161 
C 171.024367 494.216796 171.396893 495.116154 172.059901 495.779161 
C 172.722909 496.442169 173.622266 496.814695 174.559901 496.814695 
z
" clip-path="url(#pb0c36069b9)" style="fill: #1f77b4; fill-opacity: 0.6; stroke: #000000; stroke-opacity: 0.6; stroke-width: 1.5"/>
   </g>
   <g id="PathCollection_2">
    <path d="M 689.926866 384.773634 
L 708.869085 384.773634 
L 708.869085 365.831414 
L 689.926866 365.831414 
z
" clip-path="url(#pb0c36069b9)" style="fill: #ff7f0e; fill-opacity: 0.6; stroke: #000000; stroke-opacity: 0.6; stroke-width: 1.5"/>
    <path d="M 735.282512 377.691587 
L 752.416925 377.691587 
L 752.416925 360.557175 
L 735.282512 360.557175 
z
" clip-path="url(#pb0c36069b9)" style="fill: #ff7f0e; fill-opacity: 0.6; stroke: #000000; stroke-opacity: 0.6; stroke-width: 1.5"/>
    <path d="M 756.565853 363.20132 
L 778.926532 363.20132 
L 778.926532 340.840641 
L 756.565853 340.840641 
z
" clip-path="url(#pb0c36069b9)" style="fill: #ff7f0e; fill-opacity: 0.6; stroke: #000000; stroke-opacity: 0.6; stroke-width: 1.5"/>
    <path d="M 735.196905 371.183804 
L 752.997127 371.183804 
L 752.997127 353.383583 
L 735.196905 353.383583 
z
" clip-path="url(#pb0c36069b9)" style="fill: #ff7f0e; fill-opacity: 0.6; stroke: #000000; stroke-opacity: 0.6; stroke-width: 1.5"/>
    <path d="M 765.620111 362.390638 
L 783.995117 362.390638 
L 783.995117 344.015632 
L 765.620111 344.015632 
z
" clip-path="url(#pb0c36069b9)" style="fill: #ff7f0e; fill-opacity: 0.6; stroke: #000000; stroke-opacity: 0.6; stroke-width: 1.5"/>
    <path d="M 629.774385 390.198017 
L 645.345888 390.198017 
L 645.345888 374.626514 
L 629.774385 374.626514 
z
" clip-path="url(#pb0c36069b9)" style="fill: #ff7f0e; fill-opacity: 0.6; stroke: #000000; stroke-opacity: 0.6; stroke-width: 1.5"/>
    <path d="M 688.692103 379.525066 
L 706.829843 379.525066 
L 706.829843 361.387327 
L 688.692103 361.387327 
z
" clip-path="url(#pb0c36069b9)" style="fill: #ff7f0e; fill-opacity: 0.6; stroke: #000000; stroke-opacity: 0.6; stroke-width: 1.5"/>
    <path d="M 684.929635 385.467072 
L 696.517852 385.467072 
L 696.517852 373.878855 
L 684.929635 373.878855 
z
" clip-path="url(#pb0c36069b9)" style="fill: #ff7f0e; fill-opacity: 0.6; stroke: #000000; stroke-opacity: 0.6; stroke-width: 1.5"/>
    <path d="M 685.390838 378.277374 
L 695.631942 378.277374 
L 695.631942 368.03627 
L 685.390838 368.03627 
z
" clip-path="url(#pb0c36069b9)" style="fill: #ff7f0e; fill-opacity: 0.6; stroke: #000000; stroke-opacity: 0.6; stroke-width: 1.5"/>
    <path d="M 762.629856 357.373847 
L 779.82987 357.373847 
L 779.82987 340.173833 
L 762.629856 340.173833 
z
" clip-path="url(#pb0c36069b9)" style="fill: #ff7f0e; fill-opacity: 0.6; stroke: #000000; stroke-opacity: 0.6; stroke-width: 1.5"/>
    <path d="M 768.185897 350.57003 
L 780.82184 350.57003 
L 780.82184 337.934086 
L 768.185897 337.934086 
z
" clip-path="url(#pb0c36069b9)" style="fill: #ff7f0e; fill-opacity: 0.6; stroke: #000000; stroke-opacity: 0.6; stroke-width: 1.5"/>
    <path d="M 679.458037 381.946469 
L 699.317561 381.946469 
L 699.317561 362.086946 
L 679.458037 362.086946 
z
" clip-path="url(#pb0c36069b9)" style="fill: #ff7f0e; fill-opacity: 0.6; stroke: #000000; stroke-opacity: 0.6; stroke-width: 1.5"/>
    <path d="M 651.430173 375.910972 
L 660.940645 375.910972 
L 660.940645 366.4005 
L 651.430173 366.4005 
z
" clip-path="url(#pb0c36069b9)" style="fill: #ff7f0e; fill-opacity: 0.6; stroke: #000000; stroke-opacity: 0.6; stroke-width: 1.5"/>
    <path d="M 718.707901 382.838549 
L 725.778969 382.838549 
L 725.778969 375.767481 
L 718.707901 375.767481 
z
" clip-path="url(#pb0c36069b9)" style="fill: #ff7f0e; fill-opacity: 0.6; stroke: #000000; stroke-opacity: 0.6; stroke-width: 1.5"/>
    <path d="M 714.11949 383.276563 
L 725.14725 383.276563 
L 725.14725 372.248803 
L 714.11949 372.248803 
z
" clip-path="url(#pb0c36069b9)" style="fill: #ff7f0e; fill-opacity: 0.6; stroke: #000000; stroke-opacity: 0.6; stroke-width: 1.5"/>
    <path d="M 794.374765 385.798881 
L 805.210705 385.798881 
L 805.210705 374.962941 
L 794.374765 374.962941 
z
" clip-path="url(#pb0c36069b9)" style="fill: #ff7f0e; fill-opacity: 0.6; stroke: #000000; stroke-opacity: 0.6; stroke-width: 1.5"/>
    <path d="M 805.964699 361.07321 
L 822.054619 361.07321 
L 822.054619 344.98329 
L 805.964699 344.98329 
z
" clip-path="url(#pb0c36069b9)" style="fill: #ff7f0e; fill-opacity: 0.6; stroke: #000000; stroke-opacity: 0.6; stroke-width: 1.5"/>
    <path d="M 757.783108 374.488442 
L 774.601929 374.488442 
L 774.601929 357.66962 
L 757.783108 357.66962 
z
" clip-path="url(#pb0c36069b9)" style="fill: #ff7f0e; fill-opacity: 0.6; stroke: #000000; stroke-opacity: 0.6; stroke-width: 1.5"/>
    <path d="M 640.703855 403.22123 
L 654.834597 403.22123 
L 654.834597 389.090488 
L 640.703855 389.090488 
z
" clip-path="url(#pb0c36069b9)" style="fill: #ff7f0e; fill-opacity: 0.6; stroke: #000000; stroke-opacity: 0.6; stroke-width: 1.5"/>
    <path d="M 574.677838 406.573737 
L 594.867866 406.573737 
L 594.867866 386.38371 
L 574.677838 386.38371 
z
" clip-path="url(#pb0c36069b9)" style="fill: #ff7f0e; fill-opacity: 0.6; stroke: #000000; stroke-opacity: 0.6; stroke-width: 1.5"/>
    <path d="M 703.013901 386.941019 
L 721.431111 386.941019 
L 721.431111 368.52381 
L 703.013901 368.52381 
z
" clip-path="url(#pb0c36069b9)" style="fill: #ff7f0e; fill-opacity: 0.6; stroke: #000000; stroke-opacity: 0.6; stroke-width: 1.5"/>
    <path d="M 768.79998 373.882629 
L 786.492341 373.882629 
L 786.492341 356.190268 
L 768.79998 356.190268 
z
" clip-path="url(#pb0c36069b9)" style="fill: #ff7f0e; fill-opacity: 0.6; stroke: #000000; stroke-opacity: 0.6; stroke-width: 1.5"/>
    <path d="M 624.272625 390.740759 
L 639.412822 390.740759 
L 639.412822 375.600562 
L 624.272625 375.600562 
z
" clip-path="url(#pb0c36069b9)" style="fill: #ff7f0e; fill-opacity: 0.6; stroke: #000000; stroke-opacity: 0.6; stroke-width: 1.5"/>
    <path d="M 717.865004 379.63992 
L 730.938821 379.63992 
L 730.938821 366.566103 
L 717.865004 366.566103 
z
" clip-path="url(#pb0c36069b9)" style="fill: #ff7f0e; fill-opacity: 0.6; stroke: #000000; stroke-opacity: 0.6; stroke-width: 1.5"/>
    <path d="M 679.293599 385.11966 
L 692.890981 385.11966 
L 692.890981 371.522278 
L 679.293599 371.522278 
z
" clip-path="url(#pb0c36069b9)" style="fill: #ff7f0e; fill-opacity: 0.6; stroke: #000000; stroke-opacity: 0.6; stroke-width: 1.5"/>
    <path d="M 727.636672 383.596104 
L 738.257568 383.596104 
L 738.257568 372.975208 
L 727.636672 372.975208 
z
" clip-path="url(#pb0c36069b9)" style="fill: #ff7f0e; fill-opacity: 0.6; stroke: #000000; stroke-opacity: 0.6; stroke-width: 1.5"/>
    <path d="M 672.486632 384.576314 
L 682.69355 384.576314 
L 682.69355 374.369396 
L 672.486632 374.369396 
z
" clip-path="url(#pb0c36069b9)" style="fill: #ff7f0e; fill-opacity: 0.6; stroke: #000000; stroke-opacity: 0.6; stroke-width: 1.5"/>
    <path d="M 776.439854 360.770251 
L 790.238908 360.770251 
L 790.238908 346.971197 
L 776.439854 346.971197 
z
" clip-path="url(#pb0c36069b9)" style="fill: #ff7f0e; fill-opacity: 0.6; stroke: #000000; stroke-opacity: 0.6; stroke-width: 1.5"/>
    <path d="M 757.747203 353.764985 
L 771.465974 353.764985 
L 771.465974 340.046214 
L 757.747203 340.046214 
z
" clip-path="url(#pb0c36069b9)" style="fill: #ff7f0e; fill-opacity: 0.6; stroke: #000000; stroke-opacity: 0.6; stroke-width: 1.5"/>
    <path d="M 688.368767 387.39591 
L 696.637655 387.39591 
L 696.637655 379.127022 
L 688.368767 379.127022 
z
" clip-path="url(#pb0c36069b9)" style="fill: #ff7f0e; fill-opacity: 0.6; stroke: #000000; stroke-opacity: 0.6; stroke-width: 1.5"/>
    <path d="M 657.009417 375.213683 
L 666.177983 375.213683 
L 666.177983 366.045117 
L 657.009417 366.045117 
z
" clip-path="url(#pb0c36069b9)" style="fill: #ff7f0e; fill-opacity: 0.6; stroke: #000000; stroke-opacity: 0.6; stroke-width: 1.5"/>
   </g>
   <g id="PathCollection_3">
    <path d="M 230.752904 464.881322 
L 221.950574 482.485982 
L 239.555233 482.485982 
z
" clip-path="url(#pb0c36069b9)" style="fill: #2ca02c; fill-opacity: 0.6; stroke: #000000; stroke-opacity: 0.6; stroke-width: 1.5"/>
    <path d="M 242.846294 439.394863 
L 233.122098 458.843255 
L 252.57049 458.843255 
z
" clip-path="url(#pb0c36069b9)" style="fill: #2ca02c; fill-opacity: 0.6; stroke: #000000; stroke-opacity: 0.6; stroke-width: 1.5"/>
    <path d="M 229.118589 462.899596 
L 221.120919 478.894936 
L 237.116259 478.894936 
z
" clip-path="url(#pb0c36069b9)" style="fill: #2ca02c; fill-opacity: 0.6; stroke: #000000; stroke-opacity: 0.6; stroke-width: 1.5"/>
    <path d="M 268.196985 454.068921 
L 259.389801 471.68329 
L 277.00417 471.68329 
z
" clip-path="url(#pb0c36069b9)" style="fill: #2ca02c; fill-opacity: 0.6; stroke: #000000; stroke-opacity: 0.6; stroke-width: 1.5"/>
    <path d="M 256.055211 442.105035 
L 246.481815 461.251828 
L 265.628607 461.251828 
z
" clip-path="url(#pb0c36069b9)" style="fill: #2ca02c; fill-opacity: 0.6; stroke: #000000; stroke-opacity: 0.6; stroke-width: 1.5"/>
    <path d="M 259.745859 448.165575 
L 249.123262 469.41077 
L 270.368456 469.41077 
z
" clip-path="url(#pb0c36069b9)" style="fill: #2ca02c; fill-opacity: 0.6; stroke: #000000; stroke-opacity: 0.6; stroke-width: 1.5"/>
    <path d="M 231.97864 453.903427 
L 223.52389 470.812927 
L 240.433389 470.812927 
z
" clip-path="url(#pb0c36069b9)" style="fill: #2ca02c; fill-opacity: 0.6; stroke: #000000; stroke-opacity: 0.6; stroke-width: 1.5"/>
    <path d="M 249.117438 457.248901 
L 241.028393 473.426991 
L 257.206483 473.426991 
z
" clip-path="url(#pb0c36069b9)" style="fill: #2ca02c; fill-opacity: 0.6; stroke: #000000; stroke-opacity: 0.6; stroke-width: 1.5"/>
    <path d="M 299.998918 445.535251 
L 290.912965 463.707159 
L 309.084872 463.707159 
z
" clip-path="url(#pb0c36069b9)" style="fill: #2ca02c; fill-opacity: 0.6; stroke: #000000; stroke-opacity: 0.6; stroke-width: 1.5"/>
    <path d="M 253.617179 446.80413 
L 245.108973 463.820542 
L 262.125385 463.820542 
z
" clip-path="url(#pb0c36069b9)" style="fill: #2ca02c; fill-opacity: 0.6; stroke: #000000; stroke-opacity: 0.6; stroke-width: 1.5"/>
    <path d="M 233.043094 447.780853 
L 224.36477 465.137501 
L 241.721419 465.137501 
z
" clip-path="url(#pb0c36069b9)" style="fill: #2ca02c; fill-opacity: 0.6; stroke: #000000; stroke-opacity: 0.6; stroke-width: 1.5"/>
    <path d="M 259.501249 450.352636 
L 251.274229 466.806676 
L 267.728269 466.806676 
z
" clip-path="url(#pb0c36069b9)" style="fill: #2ca02c; fill-opacity: 0.6; stroke: #000000; stroke-opacity: 0.6; stroke-width: 1.5"/>
    <path d="M 266.256237 447.453439 
L 257.053753 465.858407 
L 275.458721 465.858407 
z
" clip-path="url(#pb0c36069b9)" style="fill: #2ca02c; fill-opacity: 0.6; stroke: #000000; stroke-opacity: 0.6; stroke-width: 1.5"/>
    <path d="M 243.709147 457.190394 
L 235.766748 473.075191 
L 251.651546 473.075191 
z
" clip-path="url(#pb0c36069b9)" style="fill: #2ca02c; fill-opacity: 0.6; stroke: #000000; stroke-opacity: 0.6; stroke-width: 1.5"/>
    <path d="M 180.056897 480.931749 
L 174.062512 492.920518 
L 186.051281 492.920518 
z
" clip-path="url(#pb0c36069b9)" style="fill: #2ca02c; fill-opacity: 0.6; stroke: #000000; stroke-opacity: 0.6; stroke-width: 1.5"/>
    <path d="M 234.478496 449.11956 
L 225.798655 466.479241 
L 243.158336 466.479241 
z
" clip-path="url(#pb0c36069b9)" style="fill: #2ca02c; fill-opacity: 0.6; stroke: #000000; stroke-opacity: 0.6; stroke-width: 1.5"/>
    <path d="M 208.431608 466.499521 
L 199.915662 483.531413 
L 216.947553 483.531413 
z
" clip-path="url(#pb0c36069b9)" style="fill: #2ca02c; fill-opacity: 0.6; stroke: #000000; stroke-opacity: 0.6; stroke-width: 1.5"/>
    <path d="M 251.163019 442.898046 
L 240.561478 464.101129 
L 261.764561 464.101129 
z
" clip-path="url(#pb0c36069b9)" style="fill: #2ca02c; fill-opacity: 0.6; stroke: #000000; stroke-opacity: 0.6; stroke-width: 1.5"/>
    <path d="M 212.114191 455.658635 
L 202.988122 473.910774 
L 221.240261 473.910774 
z
" clip-path="url(#pb0c36069b9)" style="fill: #2ca02c; fill-opacity: 0.6; stroke: #000000; stroke-opacity: 0.6; stroke-width: 1.5"/>
    <path d="M 288.252283 435.14897 
L 277.071943 457.509649 
L 299.432623 457.509649 
z
" clip-path="url(#pb0c36069b9)" style="fill: #2ca02c; fill-opacity: 0.6; stroke: #000000; stroke-opacity: 0.6; stroke-width: 1.5"/>
    <path d="M 286.905586 446.204291 
L 276.943295 466.128872 
L 296.867877 466.128872 
z
" clip-path="url(#pb0c36069b9)" style="fill: #2ca02c; fill-opacity: 0.6; stroke: #000000; stroke-opacity: 0.6; stroke-width: 1.5"/>
    <path d="M 223.473753 454.502812 
L 214.589257 472.271803 
L 232.358248 472.271803 
z
" clip-path="url(#pb0c36069b9)" style="fill: #2ca02c; fill-opacity: 0.6; stroke: #000000; stroke-opacity: 0.6; stroke-width: 1.5"/>
    <path d="M 199.878336 465.788664 
L 192.316302 480.912732 
L 207.44037 480.912732 
z
" clip-path="url(#pb0c36069b9)" style="fill: #2ca02c; fill-opacity: 0.6; stroke: #000000; stroke-opacity: 0.6; stroke-width: 1.5"/>
    <path d="M 183.019092 479.423556 
L 176.599455 492.262829 
L 189.438728 492.262829 
z
" clip-path="url(#pb0c36069b9)" style="fill: #2ca02c; fill-opacity: 0.6; stroke: #000000; stroke-opacity: 0.6; stroke-width: 1.5"/>
    <path d="M 112.864527 498.921845 
L 109.196275 506.25835 
L 116.532779 506.25835 
z
" clip-path="url(#pb0c36069b9)" style="fill: #2ca02c; fill-opacity: 0.6; stroke: #000000; stroke-opacity: 0.6; stroke-width: 1.5"/>
    <path d="M 217.998261 449.775813 
L 209.441611 466.889113 
L 226.554911 466.889113 
z
" clip-path="url(#pb0c36069b9)" style="fill: #2ca02c; fill-opacity: 0.6; stroke: #000000; stroke-opacity: 0.6; stroke-width: 1.5"/>
    <path d="M 120.796866 498.592128 
L 117.261332 505.663195 
L 124.3324 505.663195 
z
" clip-path="url(#pb0c36069b9)" style="fill: #2ca02c; fill-opacity: 0.6; stroke: #000000; stroke-opacity: 0.6; stroke-width: 1.5"/>
    <path d="M 271.691408 445.154905 
L 263.318139 461.901444 
L 280.064677 461.901444 
z
" clip-path="url(#pb0c36069b9)" style="fill: #2ca02c; fill-opacity: 0.6; stroke: #000000; stroke-opacity: 0.6; stroke-width: 1.5"/>
   </g>
   <g id="matplotlib.axis_1">
    <g id="xtick_1">
     <g id="line2d_1">
      <path d="M 105.727841 526.7575 
L 105.727841 39.3575 
" clip-path="url(#pb0c36069b9)" style="fill: none; stroke-dasharray: 2.96,1.28; stroke-dashoffset: 0; stroke: #b0b0b0; stroke-opacity: 0.3; stroke-width: 0.8"/>
     </g>
     <g id="line2d_2">
      <defs>
       <path id="md617aad82d" d="M 0 0 
L 0 3.5 
" style="stroke: #000000; stroke-width: 0.8"/>
      </defs>
      <g>
       <use xlink:href="#md617aad82d" x="105.727841" y="526.7575" style="stroke: #000000; stroke-width: 0.8"/>
      </g>
     </g>
     <g id="text_1">
      <!-- 0 -->
      <g transform="translate(102.546591 541.355937) scale(0.1 -0.1)">
       <defs>
        <path id="DejaVuSans-30" d="M 2034 4250 
Q 1547 4250 1301 3770 
Q 1056 3291 1056 2328 
Q 1056 1369 1301 889 
Q 1547 409 2034 409 
Q 2525 409 2770 889 
Q 3016 1369 3016 2328 
Q 3016 3291 2770 3770 
Q 2525 4250 2034 4250 
z
M 2034 4750 
Q 2819 4750 3233 4129 
Q 3647 3509 3647 2328 
Q 3647 1150 3233 529 
Q 2819 -91 2034 -91 
Q 1250 -91 836 529 
Q 422 1150 422 2328 
Q 422 3509 836 4129 
Q 1250 4750 2034 4750 
z
" transform="scale(0.015625)"/>
       </defs>
       <use xlink:href="#DejaVuSans-30"/>
      </g>
     </g>
    </g>
    <g id="xtick_2">
     <g id="line2d_3">
      <path d="M 240.128708 526.7575 
L 240.128708 39.3575 
" clip-path="url(#pb0c36069b9)" style="fill: none; stroke-dasharray: 2.96,1.28; stroke-dashoffset: 0; stroke: #b0b0b0; stroke-opacity: 0.3; stroke-width: 0.8"/>
     </g>
     <g id="line2d_4">
      <g>
       <use xlink:href="#md617aad82d" x="240.128708" y="526.7575" style="stroke: #000000; stroke-width: 0.8"/>
      </g>
     </g>
     <g id="text_2">
      <!-- 50000 -->
      <g transform="translate(224.222458 541.355937) scale(0.1 -0.1)">
       <defs>
        <path id="DejaVuSans-35" d="M 691 4666 
L 3169 4666 
L 3169 4134 
L 1269 4134 
L 1269 2991 
Q 1406 3038 1543 3061 
Q 1681 3084 1819 3084 
Q 2600 3084 3056 2656 
Q 3513 2228 3513 1497 
Q 3513 744 3044 326 
Q 2575 -91 1722 -91 
Q 1428 -91 1123 -41 
Q 819 9 494 109 
L 494 744 
Q 775 591 1075 516 
Q 1375 441 1709 441 
Q 2250 441 2565 725 
Q 2881 1009 2881 1497 
Q 2881 1984 2565 2268 
Q 2250 2553 1709 2553 
Q 1456 2553 1204 2497 
Q 953 2441 691 2322 
L 691 4666 
z
" transform="scale(0.015625)"/>
       </defs>
       <use xlink:href="#DejaVuSans-35"/>
       <use xlink:href="#DejaVuSans-30" x="63.623047"/>
       <use xlink:href="#DejaVuSans-30" x="127.246094"/>
       <use xlink:href="#DejaVuSans-30" x="190.869141"/>
       <use xlink:href="#DejaVuSans-30" x="254.492188"/>
      </g>
     </g>
    </g>
    <g id="xtick_3">
     <g id="line2d_5">
      <path d="M 374.529575 526.7575 
L 374.529575 39.3575 
" clip-path="url(#pb0c36069b9)" style="fill: none; stroke-dasharray: 2.96,1.28; stroke-dashoffset: 0; stroke: #b0b0b0; stroke-opacity: 0.3; stroke-width: 0.8"/>
     </g>
     <g id="line2d_6">
      <g>
       <use xlink:href="#md617aad82d" x="374.529575" y="526.7575" style="stroke: #000000; stroke-width: 0.8"/>
      </g>
     </g>
     <g id="text_3">
      <!-- 100000 -->
      <g transform="translate(355.442075 541.355937) scale(0.1 -0.1)">
       <defs>
        <path id="DejaVuSans-31" d="M 794 531 
L 1825 531 
L 1825 4091 
L 703 3866 
L 703 4441 
L 1819 4666 
L 2450 4666 
L 2450 531 
L 3481 531 
L 3481 0 
L 794 0 
L 794 531 
z
" transform="scale(0.015625)"/>
       </defs>
       <use xlink:href="#DejaVuSans-31"/>
       <use xlink:href="#DejaVuSans-30" x="63.623047"/>
       <use xlink:href="#DejaVuSans-30" x="127.246094"/>
       <use xlink:href="#DejaVuSans-30" x="190.869141"/>
       <use xlink:href="#DejaVuSans-30" x="254.492188"/>
       <use xlink:href="#DejaVuSans-30" x="318.115234"/>
      </g>
     </g>
    </g>
    <g id="xtick_4">
     <g id="line2d_7">
      <path d="M 508.930443 526.7575 
L 508.930443 39.3575 
" clip-path="url(#pb0c36069b9)" style="fill: none; stroke-dasharray: 2.96,1.28; stroke-dashoffset: 0; stroke: #b0b0b0; stroke-opacity: 0.3; stroke-width: 0.8"/>
     </g>
     <g id="line2d_8">
      <g>
       <use xlink:href="#md617aad82d" x="508.930443" y="526.7575" style="stroke: #000000; stroke-width: 0.8"/>
      </g>
     </g>
     <g id="text_4">
      <!-- 150000 -->
      <g transform="translate(489.842943 541.355937) scale(0.1 -0.1)">
       <use xlink:href="#DejaVuSans-31"/>
       <use xlink:href="#DejaVuSans-35" x="63.623047"/>
       <use xlink:href="#DejaVuSans-30" x="127.246094"/>
       <use xlink:href="#DejaVuSans-30" x="190.869141"/>
       <use xlink:href="#DejaVuSans-30" x="254.492188"/>
       <use xlink:href="#DejaVuSans-30" x="318.115234"/>
      </g>
     </g>
    </g>
    <g id="xtick_5">
     <g id="line2d_9">
      <path d="M 643.33131 526.7575 
L 643.33131 39.3575 
" clip-path="url(#pb0c36069b9)" style="fill: none; stroke-dasharray: 2.96,1.28; stroke-dashoffset: 0; stroke: #b0b0b0; stroke-opacity: 0.3; stroke-width: 0.8"/>
     </g>
     <g id="line2d_10">
      <g>
       <use xlink:href="#md617aad82d" x="643.33131" y="526.7575" style="stroke: #000000; stroke-width: 0.8"/>
      </g>
     </g>
     <g id="text_5">
      <!-- 200000 -->
      <g transform="translate(624.24381 541.355937) scale(0.1 -0.1)">
       <defs>
        <path id="DejaVuSans-32" d="M 1228 531 
L 3431 531 
L 3431 0 
L 469 0 
L 469 531 
Q 828 903 1448 1529 
Q 2069 2156 2228 2338 
Q 2531 2678 2651 2914 
Q 2772 3150 2772 3378 
Q 2772 3750 2511 3984 
Q 2250 4219 1831 4219 
Q 1534 4219 1204 4116 
Q 875 4013 500 3803 
L 500 4441 
Q 881 4594 1212 4672 
Q 1544 4750 1819 4750 
Q 2544 4750 2975 4387 
Q 3406 4025 3406 3419 
Q 3406 3131 3298 2873 
Q 3191 2616 2906 2266 
Q 2828 2175 2409 1742 
Q 1991 1309 1228 531 
z
" transform="scale(0.015625)"/>
       </defs>
       <use xlink:href="#DejaVuSans-32"/>
       <use xlink:href="#DejaVuSans-30" x="63.623047"/>
       <use xlink:href="#DejaVuSans-30" x="127.246094"/>
       <use xlink:href="#DejaVuSans-30" x="190.869141"/>
       <use xlink:href="#DejaVuSans-30" x="254.492188"/>
       <use xlink:href="#DejaVuSans-30" x="318.115234"/>
      </g>
     </g>
    </g>
    <g id="xtick_6">
     <g id="line2d_11">
      <path d="M 777.732177 526.7575 
L 777.732177 39.3575 
" clip-path="url(#pb0c36069b9)" style="fill: none; stroke-dasharray: 2.96,1.28; stroke-dashoffset: 0; stroke: #b0b0b0; stroke-opacity: 0.3; stroke-width: 0.8"/>
     </g>
     <g id="line2d_12">
      <g>
       <use xlink:href="#md617aad82d" x="777.732177" y="526.7575" style="stroke: #000000; stroke-width: 0.8"/>
      </g>
     </g>
     <g id="text_6">
      <!-- 250000 -->
      <g transform="translate(758.644677 541.355937) scale(0.1 -0.1)">
       <use xlink:href="#DejaVuSans-32"/>
       <use xlink:href="#DejaVuSans-35" x="63.623047"/>
       <use xlink:href="#DejaVuSans-30" x="127.246094"/>
       <use xlink:href="#DejaVuSans-30" x="190.869141"/>
       <use xlink:href="#DejaVuSans-30" x="254.492188"/>
       <use xlink:href="#DejaVuSans-30" x="318.115234"/>
      </g>
     </g>
    </g>
    <g id="text_7">
     <!-- Input Tokens (TOK_IN) -->
     <g transform="translate(372.531719 558.073437) scale(0.14 -0.14)">
      <defs>
       <path id="DejaVuSans-Bold-49" d="M 588 4666 
L 1791 4666 
L 1791 0 
L 588 0 
L 588 4666 
z
" transform="scale(0.015625)"/>
       <path id="DejaVuSans-Bold-6e" d="M 4056 2131 
L 4056 0 
L 2931 0 
L 2931 347 
L 2931 1631 
Q 2931 2084 2911 2256 
Q 2891 2428 2841 2509 
Q 2775 2619 2662 2680 
Q 2550 2741 2406 2741 
Q 2056 2741 1856 2470 
Q 1656 2200 1656 1722 
L 1656 0 
L 538 0 
L 538 3500 
L 1656 3500 
L 1656 2988 
Q 1909 3294 2193 3439 
Q 2478 3584 2822 3584 
Q 3428 3584 3742 3212 
Q 4056 2841 4056 2131 
z
" transform="scale(0.015625)"/>
       <path id="DejaVuSans-Bold-70" d="M 1656 506 
L 1656 -1331 
L 538 -1331 
L 538 3500 
L 1656 3500 
L 1656 2988 
Q 1888 3294 2169 3439 
Q 2450 3584 2816 3584 
Q 3463 3584 3878 3070 
Q 4294 2556 4294 1747 
Q 4294 938 3878 423 
Q 3463 -91 2816 -91 
Q 2450 -91 2169 54 
Q 1888 200 1656 506 
z
M 2400 2772 
Q 2041 2772 1848 2508 
Q 1656 2244 1656 1747 
Q 1656 1250 1848 986 
Q 2041 722 2400 722 
Q 2759 722 2948 984 
Q 3138 1247 3138 1747 
Q 3138 2247 2948 2509 
Q 2759 2772 2400 2772 
z
" transform="scale(0.015625)"/>
       <path id="DejaVuSans-Bold-75" d="M 500 1363 
L 500 3500 
L 1625 3500 
L 1625 3150 
Q 1625 2866 1622 2436 
Q 1619 2006 1619 1863 
Q 1619 1441 1641 1255 
Q 1663 1069 1716 984 
Q 1784 875 1895 815 
Q 2006 756 2150 756 
Q 2500 756 2700 1025 
Q 2900 1294 2900 1772 
L 2900 3500 
L 4019 3500 
L 4019 0 
L 2900 0 
L 2900 506 
Q 2647 200 2364 54 
Q 2081 -91 1741 -91 
Q 1134 -91 817 281 
Q 500 653 500 1363 
z
" transform="scale(0.015625)"/>
       <path id="DejaVuSans-Bold-74" d="M 1759 4494 
L 1759 3500 
L 2913 3500 
L 2913 2700 
L 1759 2700 
L 1759 1216 
Q 1759 972 1856 886 
Q 1953 800 2241 800 
L 2816 800 
L 2816 0 
L 1856 0 
Q 1194 0 917 276 
Q 641 553 641 1216 
L 641 2700 
L 84 2700 
L 84 3500 
L 641 3500 
L 641 4494 
L 1759 4494 
z
" transform="scale(0.015625)"/>
       <path id="DejaVuSans-Bold-20" transform="scale(0.015625)"/>
       <path id="DejaVuSans-Bold-54" d="M 31 4666 
L 4331 4666 
L 4331 3756 
L 2784 3756 
L 2784 0 
L 1581 0 
L 1581 3756 
L 31 3756 
L 31 4666 
z
" transform="scale(0.015625)"/>
       <path id="DejaVuSans-Bold-6f" d="M 2203 2784 
Q 1831 2784 1636 2517 
Q 1441 2250 1441 1747 
Q 1441 1244 1636 976 
Q 1831 709 2203 709 
Q 2569 709 2762 976 
Q 2956 1244 2956 1747 
Q 2956 2250 2762 2517 
Q 2569 2784 2203 2784 
z
M 2203 3584 
Q 3106 3584 3614 3096 
Q 4122 2609 4122 1747 
Q 4122 884 3614 396 
Q 3106 -91 2203 -91 
Q 1297 -91 786 396 
Q 275 884 275 1747 
Q 275 2609 786 3096 
Q 1297 3584 2203 3584 
z
" transform="scale(0.015625)"/>
       <path id="DejaVuSans-Bold-6b" d="M 538 4863 
L 1656 4863 
L 1656 2216 
L 2944 3500 
L 4244 3500 
L 2534 1894 
L 4378 0 
L 3022 0 
L 1656 1459 
L 1656 0 
L 538 0 
L 538 4863 
z
" transform="scale(0.015625)"/>
       <path id="DejaVuSans-Bold-65" d="M 4031 1759 
L 4031 1441 
L 1416 1441 
Q 1456 1047 1700 850 
Q 1944 653 2381 653 
Q 2734 653 3104 758 
Q 3475 863 3866 1075 
L 3866 213 
Q 3469 63 3072 -14 
Q 2675 -91 2278 -91 
Q 1328 -91 801 392 
Q 275 875 275 1747 
Q 275 2603 792 3093 
Q 1309 3584 2216 3584 
Q 3041 3584 3536 3087 
Q 4031 2591 4031 1759 
z
M 2881 2131 
Q 2881 2450 2695 2645 
Q 2509 2841 2209 2841 
Q 1884 2841 1681 2658 
Q 1478 2475 1428 2131 
L 2881 2131 
z
" transform="scale(0.015625)"/>
       <path id="DejaVuSans-Bold-73" d="M 3272 3391 
L 3272 2541 
Q 2913 2691 2578 2766 
Q 2244 2841 1947 2841 
Q 1628 2841 1473 2761 
Q 1319 2681 1319 2516 
Q 1319 2381 1436 2309 
Q 1553 2238 1856 2203 
L 2053 2175 
Q 2913 2066 3209 1816 
Q 3506 1566 3506 1031 
Q 3506 472 3093 190 
Q 2681 -91 1863 -91 
Q 1516 -91 1145 -36 
Q 775 19 384 128 
L 384 978 
Q 719 816 1070 734 
Q 1422 653 1784 653 
Q 2113 653 2278 743 
Q 2444 834 2444 1013 
Q 2444 1163 2330 1236 
Q 2216 1309 1875 1350 
L 1678 1375 
Q 931 1469 631 1722 
Q 331 1975 331 2491 
Q 331 3047 712 3315 
Q 1094 3584 1881 3584 
Q 2191 3584 2531 3537 
Q 2872 3491 3272 3391 
z
" transform="scale(0.015625)"/>
       <path id="DejaVuSans-Bold-28" d="M 2413 -844 
L 1484 -844 
Q 1006 -72 778 623 
Q 550 1319 550 2003 
Q 550 2688 779 3389 
Q 1009 4091 1484 4856 
L 2413 4856 
Q 2013 4116 1813 3408 
Q 1613 2700 1613 2009 
Q 1613 1319 1811 609 
Q 2009 -100 2413 -844 
z
" transform="scale(0.015625)"/>
       <path id="DejaVuSans-Bold-4f" d="M 2719 3878 
Q 2169 3878 1866 3472 
Q 1563 3066 1563 2328 
Q 1563 1594 1866 1187 
Q 2169 781 2719 781 
Q 3272 781 3575 1187 
Q 3878 1594 3878 2328 
Q 3878 3066 3575 3472 
Q 3272 3878 2719 3878 
z
M 2719 4750 
Q 3844 4750 4481 4106 
Q 5119 3463 5119 2328 
Q 5119 1197 4481 553 
Q 3844 -91 2719 -91 
Q 1597 -91 958 553 
Q 319 1197 319 2328 
Q 319 3463 958 4106 
Q 1597 4750 2719 4750 
z
" transform="scale(0.015625)"/>
       <path id="DejaVuSans-Bold-4b" d="M 588 4666 
L 1791 4666 
L 1791 2963 
L 3525 4666 
L 4922 4666 
L 2675 2456 
L 5153 0 
L 3647 0 
L 1791 1838 
L 1791 0 
L 588 0 
L 588 4666 
z
" transform="scale(0.015625)"/>
       <path id="DejaVuSans-Bold-5f" d="M 3200 -916 
L 3200 -1509 
L 0 -1509 
L 0 -916 
L 3200 -916 
z
" transform="scale(0.015625)"/>
       <path id="DejaVuSans-Bold-4e" d="M 588 4666 
L 1931 4666 
L 3628 1466 
L 3628 4666 
L 4769 4666 
L 4769 0 
L 3425 0 
L 1728 3200 
L 1728 0 
L 588 0 
L 588 4666 
z
" transform="scale(0.015625)"/>
       <path id="DejaVuSans-Bold-29" d="M 513 -844 
Q 913 -100 1113 609 
Q 1313 1319 1313 2009 
Q 1313 2700 1113 3408 
Q 913 4116 513 4856 
L 1441 4856 
Q 1916 4091 2145 3389 
Q 2375 2688 2375 2003 
Q 2375 1319 2147 623 
Q 1919 -72 1441 -844 
L 513 -844 
z
" transform="scale(0.015625)"/>
      </defs>
      <use xlink:href="#DejaVuSans-Bold-49"/>
      <use xlink:href="#DejaVuSans-Bold-6e" x="37.207031"/>
      <use xlink:href="#DejaVuSans-Bold-70" x="108.398438"/>
      <use xlink:href="#DejaVuSans-Bold-75" x="179.980469"/>
      <use xlink:href="#DejaVuSans-Bold-74" x="251.171875"/>
      <use xlink:href="#DejaVuSans-Bold-20" x="298.974609"/>
      <use xlink:href="#DejaVuSans-Bold-54" x="333.789062"/>
      <use xlink:href="#DejaVuSans-Bold-6f" x="388.751953"/>
      <use xlink:href="#DejaVuSans-Bold-6b" x="457.453125"/>
      <use xlink:href="#DejaVuSans-Bold-65" x="521.332031"/>
      <use xlink:href="#DejaVuSans-Bold-6e" x="589.154297"/>
      <use xlink:href="#DejaVuSans-Bold-73" x="660.345703"/>
      <use xlink:href="#DejaVuSans-Bold-20" x="719.867188"/>
      <use xlink:href="#DejaVuSans-Bold-28" x="754.681641"/>
      <use xlink:href="#DejaVuSans-Bold-54" x="800.384766"/>
      <use xlink:href="#DejaVuSans-Bold-4f" x="868.597656"/>
      <use xlink:href="#DejaVuSans-Bold-4b" x="953.607422"/>
      <use xlink:href="#DejaVuSans-Bold-5f" x="1031.097656"/>
      <use xlink:href="#DejaVuSans-Bold-49" x="1081.097656"/>
      <use xlink:href="#DejaVuSans-Bold-4e" x="1118.304688"/>
      <use xlink:href="#DejaVuSans-Bold-29" x="1201.996094"/>
     </g>
    </g>
   </g>
   <g id="matplotlib.axis_2">
    <g id="ytick_1">
     <g id="line2d_13">
      <path d="M 70.31375 504.602955 
L 849.42375 504.602955 
" clip-path="url(#pb0c36069b9)" style="fill: none; stroke-dasharray: 2.96,1.28; stroke-dashoffset: 0; stroke: #b0b0b0; stroke-opacity: 0.3; stroke-width: 0.8"/>
     </g>
     <g id="line2d_14">
      <defs>
       <path id="m2354443c48" d="M 0 0 
L -3.5 0 
" style="stroke: #000000; stroke-width: 0.8"/>
      </defs>
      <g>
       <use xlink:href="#m2354443c48" x="70.31375" y="504.602955" style="stroke: #000000; stroke-width: 0.8"/>
      </g>
     </g>
     <g id="text_8">
      <!-- 0 -->
      <g transform="translate(56.95125 508.402173) scale(0.1 -0.1)">
       <use xlink:href="#DejaVuSans-30"/>
      </g>
     </g>
    </g>
    <g id="ytick_2">
     <g id="line2d_15">
      <path d="M 70.31375 420.523707 
L 849.42375 420.523707 
" clip-path="url(#pb0c36069b9)" style="fill: none; stroke-dasharray: 2.96,1.28; stroke-dashoffset: 0; stroke: #b0b0b0; stroke-opacity: 0.3; stroke-width: 0.8"/>
     </g>
     <g id="line2d_16">
      <g>
       <use xlink:href="#m2354443c48" x="70.31375" y="420.523707" style="stroke: #000000; stroke-width: 0.8"/>
      </g>
     </g>
     <g id="text_9">
      <!-- 50000 -->
      <g transform="translate(31.50125 424.322926) scale(0.1 -0.1)">
       <use xlink:href="#DejaVuSans-35"/>
       <use xlink:href="#DejaVuSans-30" x="63.623047"/>
       <use xlink:href="#DejaVuSans-30" x="127.246094"/>
       <use xlink:href="#DejaVuSans-30" x="190.869141"/>
       <use xlink:href="#DejaVuSans-30" x="254.492188"/>
      </g>
     </g>
    </g>
    <g id="ytick_3">
     <g id="line2d_17">
      <path d="M 70.31375 336.444459 
L 849.42375 336.444459 
" clip-path="url(#pb0c36069b9)" style="fill: none; stroke-dasharray: 2.96,1.28; stroke-dashoffset: 0; stroke: #b0b0b0; stroke-opacity: 0.3; stroke-width: 0.8"/>
     </g>
     <g id="line2d_18">
      <g>
       <use xlink:href="#m2354443c48" x="70.31375" y="336.444459" style="stroke: #000000; stroke-width: 0.8"/>
      </g>
     </g>
     <g id="text_10">
      <!-- 100000 -->
      <g transform="translate(25.13875 340.243678) scale(0.1 -0.1)">
       <use xlink:href="#DejaVuSans-31"/>
       <use xlink:href="#DejaVuSans-30" x="63.623047"/>
       <use xlink:href="#DejaVuSans-30" x="127.246094"/>
       <use xlink:href="#DejaVuSans-30" x="190.869141"/>
       <use xlink:href="#DejaVuSans-30" x="254.492188"/>
       <use xlink:href="#DejaVuSans-30" x="318.115234"/>
      </g>
     </g>
    </g>
    <g id="ytick_4">
     <g id="line2d_19">
      <path d="M 70.31375 252.365211 
L 849.42375 252.365211 
" clip-path="url(#pb0c36069b9)" style="fill: none; stroke-dasharray: 2.96,1.28; stroke-dashoffset: 0; stroke: #b0b0b0; stroke-opacity: 0.3; stroke-width: 0.8"/>
     </g>
     <g id="line2d_20">
      <g>
       <use xlink:href="#m2354443c48" x="70.31375" y="252.365211" style="stroke: #000000; stroke-width: 0.8"/>
      </g>
     </g>
     <g id="text_11">
      <!-- 150000 -->
      <g transform="translate(25.13875 256.16443) scale(0.1 -0.1)">
       <use xlink:href="#DejaVuSans-31"/>
       <use xlink:href="#DejaVuSans-35" x="63.623047"/>
       <use xlink:href="#DejaVuSans-30" x="127.246094"/>
       <use xlink:href="#DejaVuSans-30" x="190.869141"/>
       <use xlink:href="#DejaVuSans-30" x="254.492188"/>
       <use xlink:href="#DejaVuSans-30" x="318.115234"/>
      </g>
     </g>
    </g>
    <g id="ytick_5">
     <g id="line2d_21">
      <path d="M 70.31375 168.285964 
L 849.42375 168.285964 
" clip-path="url(#pb0c36069b9)" style="fill: none; stroke-dasharray: 2.96,1.28; stroke-dashoffset: 0; stroke: #b0b0b0; stroke-opacity: 0.3; stroke-width: 0.8"/>
     </g>
     <g id="line2d_22">
      <g>
       <use xlink:href="#m2354443c48" x="70.31375" y="168.285964" style="stroke: #000000; stroke-width: 0.8"/>
      </g>
     </g>
     <g id="text_12">
      <!-- 200000 -->
      <g transform="translate(25.13875 172.085182) scale(0.1 -0.1)">
       <use xlink:href="#DejaVuSans-32"/>
       <use xlink:href="#DejaVuSans-30" x="63.623047"/>
       <use xlink:href="#DejaVuSans-30" x="127.246094"/>
       <use xlink:href="#DejaVuSans-30" x="190.869141"/>
       <use xlink:href="#DejaVuSans-30" x="254.492188"/>
       <use xlink:href="#DejaVuSans-30" x="318.115234"/>
      </g>
     </g>
    </g>
    <g id="ytick_6">
     <g id="line2d_23">
      <path d="M 70.31375 84.206716 
L 849.42375 84.206716 
" clip-path="url(#pb0c36069b9)" style="fill: none; stroke-dasharray: 2.96,1.28; stroke-dashoffset: 0; stroke: #b0b0b0; stroke-opacity: 0.3; stroke-width: 0.8"/>
     </g>
     <g id="line2d_24">
      <g>
       <use xlink:href="#m2354443c48" x="70.31375" y="84.206716" style="stroke: #000000; stroke-width: 0.8"/>
      </g>
     </g>
     <g id="text_13">
      <!-- 250000 -->
      <g transform="translate(25.13875 88.005935) scale(0.1 -0.1)">
       <use xlink:href="#DejaVuSans-32"/>
       <use xlink:href="#DejaVuSans-35" x="63.623047"/>
       <use xlink:href="#DejaVuSans-30" x="127.246094"/>
       <use xlink:href="#DejaVuSans-30" x="190.869141"/>
       <use xlink:href="#DejaVuSans-30" x="254.492188"/>
       <use xlink:href="#DejaVuSans-30" x="318.115234"/>
      </g>
     </g>
    </g>
    <g id="text_14">
     <!-- Output Tokens (TOK_OUT) -->
     <g transform="translate(17.837813 385.035469) rotate(-90) scale(0.14 -0.14)">
      <defs>
       <path id="DejaVuSans-Bold-55" d="M 588 4666 
L 1791 4666 
L 1791 1869 
Q 1791 1291 1980 1042 
Q 2169 794 2597 794 
Q 3028 794 3217 1042 
Q 3406 1291 3406 1869 
L 3406 4666 
L 4609 4666 
L 4609 1869 
Q 4609 878 4112 393 
Q 3616 -91 2597 -91 
Q 1581 -91 1084 393 
Q 588 878 588 1869 
L 588 4666 
z
" transform="scale(0.015625)"/>
      </defs>
      <use xlink:href="#DejaVuSans-Bold-4f"/>
      <use xlink:href="#DejaVuSans-Bold-75" x="85.009766"/>
      <use xlink:href="#DejaVuSans-Bold-74" x="156.201172"/>
      <use xlink:href="#DejaVuSans-Bold-70" x="204.003906"/>
      <use xlink:href="#DejaVuSans-Bold-75" x="275.585938"/>
      <use xlink:href="#DejaVuSans-Bold-74" x="346.777344"/>
      <use xlink:href="#DejaVuSans-Bold-20" x="394.580078"/>
      <use xlink:href="#DejaVuSans-Bold-54" x="429.394531"/>
      <use xlink:href="#DejaVuSans-Bold-6f" x="484.357422"/>
      <use xlink:href="#DejaVuSans-Bold-6b" x="553.058594"/>
      <use xlink:href="#DejaVuSans-Bold-65" x="616.9375"/>
      <use xlink:href="#DejaVuSans-Bold-6e" x="684.759766"/>
      <use xlink:href="#DejaVuSans-Bold-73" x="755.951172"/>
      <use xlink:href="#DejaVuSans-Bold-20" x="815.472656"/>
      <use xlink:href="#DejaVuSans-Bold-28" x="850.287109"/>
      <use xlink:href="#DejaVuSans-Bold-54" x="895.990234"/>
      <use xlink:href="#DejaVuSans-Bold-4f" x="964.203125"/>
      <use xlink:href="#DejaVuSans-Bold-4b" x="1049.212891"/>
      <use xlink:href="#DejaVuSans-Bold-5f" x="1126.703125"/>
      <use xlink:href="#DejaVuSans-Bold-4f" x="1176.703125"/>
      <use xlink:href="#DejaVuSans-Bold-55" x="1261.712891"/>
      <use xlink:href="#DejaVuSans-Bold-54" x="1342.914062"/>
      <use xlink:href="#DejaVuSans-Bold-29" x="1411.126953"/>
     </g>
    </g>
   </g>
   <g id="line2d_25">
    <path d="M 149.977982 497.071661 
L 150.378497 497.005184 
L 150.779012 496.938706 
L 151.179526 496.872229 
L 151.580041 496.805752 
L 151.980555 496.739275 
L 152.38107 496.672797 
L 152.781585 496.60632 
L 153.182099 496.539843 
L 153.582614 496.473366 
L 153.983128 496.406889 
L 154.383643 496.340411 
L 154.784157 496.273934 
L 155.184672 496.207457 
L 155.585187 496.14098 
L 155.985701 496.074502 
L 156.386216 496.008025 
L 156.78673 495.941548 
L 157.187245 495.875071 
L 157.58776 495.808593 
L 157.988274 495.742116 
L 158.388789 495.675639 
L 158.789303 495.609162 
L 159.189818 495.542685 
L 159.590332 495.476207 
L 159.990847 495.40973 
L 160.391362 495.343253 
L 160.791876 495.276776 
L 161.192391 495.210298 
L 161.592905 495.143821 
L 161.99342 495.077344 
L 162.393935 495.010867 
L 162.794449 494.944389 
L 163.194964 494.877912 
L 163.595478 494.811435 
L 163.995993 494.744958 
L 164.396507 494.678481 
L 164.797022 494.612003 
L 165.197537 494.545526 
L 165.598051 494.479049 
L 165.998566 494.412572 
L 166.39908 494.346094 
L 166.799595 494.279617 
L 167.20011 494.21314 
L 167.600624 494.146663 
L 168.001139 494.080185 
L 168.401653 494.013708 
L 168.802168 493.947231 
L 169.202682 493.880754 
L 169.603197 493.814277 
L 170.003712 493.747799 
L 170.404226 493.681322 
L 170.804741 493.614845 
L 171.205255 493.548368 
L 171.60577 493.48189 
L 172.006285 493.415413 
L 172.406799 493.348936 
L 172.807314 493.282459 
L 173.207828 493.215981 
L 173.608343 493.149504 
L 174.008857 493.083027 
L 174.409372 493.01655 
L 174.809887 492.950073 
L 175.210401 492.883595 
L 175.610916 492.817118 
L 176.01143 492.750641 
L 176.411945 492.684164 
L 176.81246 492.617686 
L 177.212974 492.551209 
L 177.613489 492.484732 
L 178.014003 492.418255 
L 178.414518 492.351777 
L 178.815033 492.2853 
L 179.215547 492.218823 
L 179.616062 492.152346 
L 180.016576 492.085869 
L 180.417091 492.019391 
L 180.817605 491.952914 
L 181.21812 491.886437 
L 181.618635 491.81996 
L 182.019149 491.753482 
L 182.419664 491.687005 
L 182.820178 491.620528 
L 183.220693 491.554051 
L 183.621208 491.487573 
L 184.021722 491.421096 
L 184.422237 491.354619 
L 184.822751 491.288142 
L 185.223266 491.221665 
L 185.62378 491.155187 
L 186.024295 491.08871 
L 186.42481 491.022233 
L 186.825324 490.955756 
L 187.225839 490.889278 
L 187.626353 490.822801 
L 188.026868 490.756324 
L 188.427383 490.689847 
L 188.827897 490.623369 
L 189.228412 490.556892 
L 189.628926 490.490415 
" clip-path="url(#pb0c36069b9)" style="fill: none; stroke-dasharray: 7.4,3.2; stroke-dashoffset: 0; stroke: #1f77b4; stroke-opacity: 0.5; stroke-width: 2"/>
   </g>
   <g id="line2d_26">
    <path d="M 584.772852 395.335804 
L 587.088375 394.90606 
L 589.403899 394.476316 
L 591.719422 394.046572 
L 594.034945 393.616827 
L 596.350468 393.187083 
L 598.665992 392.757339 
L 600.981515 392.327595 
L 603.297038 391.89785 
L 605.612562 391.468106 
L 607.928085 391.038362 
L 610.243608 390.608618 
L 612.559132 390.178873 
L 614.874655 389.749129 
L 617.190178 389.319385 
L 619.505702 388.889641 
L 621.821225 388.459897 
L 624.136748 388.030152 
L 626.452271 387.600408 
L 628.767795 387.170664 
L 631.083318 386.74092 
L 633.398841 386.311175 
L 635.714365 385.881431 
L 638.029888 385.451687 
L 640.345411 385.021943 
L 642.660935 384.592198 
L 644.976458 384.162454 
L 647.291981 383.73271 
L 649.607504 383.302966 
L 651.923028 382.873221 
L 654.238551 382.443477 
L 656.554074 382.013733 
L 658.869598 381.583989 
L 661.185121 381.154244 
L 663.500644 380.7245 
L 665.816168 380.294756 
L 668.131691 379.865012 
L 670.447214 379.435267 
L 672.762738 379.005523 
L 675.078261 378.575779 
L 677.393784 378.146035 
L 679.709307 377.71629 
L 682.024831 377.286546 
L 684.340354 376.856802 
L 686.655877 376.427058 
L 688.971401 375.997313 
L 691.286924 375.567569 
L 693.602447 375.137825 
L 695.917971 374.708081 
L 698.233494 374.278336 
L 700.549017 373.848592 
L 702.86454 373.418848 
L 705.180064 372.989104 
L 707.495587 372.559359 
L 709.81111 372.129615 
L 712.126634 371.699871 
L 714.442157 371.270127 
L 716.75768 370.840382 
L 719.073204 370.410638 
L 721.388727 369.980894 
L 723.70425 369.55115 
L 726.019774 369.121405 
L 728.335297 368.691661 
L 730.65082 368.261917 
L 732.966343 367.832173 
L 735.281867 367.402428 
L 737.59739 366.972684 
L 739.912913 366.54294 
L 742.228437 366.113196 
L 744.54396 365.683451 
L 746.859483 365.253707 
L 749.175007 364.823963 
L 751.49053 364.394219 
L 753.806053 363.964475 
L 756.121576 363.53473 
L 758.4371 363.104986 
L 760.752623 362.675242 
L 763.068146 362.245498 
L 765.38367 361.815753 
L 767.699193 361.386009 
L 770.014716 360.956265 
L 772.33024 360.526521 
L 774.645763 360.096776 
L 776.961286 359.667032 
L 779.27681 359.237288 
L 781.592333 358.807544 
L 783.907856 358.377799 
L 786.223379 357.948055 
L 788.538903 357.518311 
L 790.854426 357.088567 
L 793.169949 356.658822 
L 795.485473 356.229078 
L 797.800996 355.799334 
L 800.116519 355.36959 
L 802.432043 354.939845 
L 804.747566 354.510101 
L 807.063089 354.080357 
L 809.378612 353.650613 
L 811.694136 353.220868 
L 814.009659 352.791124 
" clip-path="url(#pb0c36069b9)" style="fill: none; stroke-dasharray: 7.4,3.2; stroke-dashoffset: 0; stroke: #ff7f0e; stroke-opacity: 0.5; stroke-width: 2"/>
   </g>
   <g id="line2d_27">
    <path d="M 112.864527 500.665795 
L 114.754773 500.103789 
L 116.64502 499.541783 
L 118.535266 498.979777 
L 120.425512 498.417772 
L 122.315759 497.855766 
L 124.206005 497.29376 
L 126.096252 496.731754 
L 127.986498 496.169748 
L 129.876744 495.607743 
L 131.766991 495.045737 
L 133.657237 494.483731 
L 135.547484 493.921725 
L 137.43773 493.359719 
L 139.327976 492.797714 
L 141.218223 492.235708 
L 143.108469 491.673702 
L 144.998715 491.111696 
L 146.888962 490.54969 
L 148.779208 489.987685 
L 150.669455 489.425679 
L 152.559701 488.863673 
L 154.449947 488.301667 
L 156.340194 487.739661 
L 158.23044 487.177656 
L 160.120686 486.61565 
L 162.010933 486.053644 
L 163.901179 485.491638 
L 165.791426 484.929632 
L 167.681672 484.367627 
L 169.571918 483.805621 
L 171.462165 483.243615 
L 173.352411 482.681609 
L 175.242657 482.119603 
L 177.132904 481.557598 
L 179.02315 480.995592 
L 180.913397 480.433586 
L 182.803643 479.87158 
L 184.693889 479.309575 
L 186.584136 478.747569 
L 188.474382 478.185563 
L 190.364628 477.623557 
L 192.254875 477.061551 
L 194.145121 476.499546 
L 196.035368 475.93754 
L 197.925614 475.375534 
L 199.81586 474.813528 
L 201.706107 474.251522 
L 203.596353 473.689517 
L 205.4866 473.127511 
L 207.376846 472.565505 
L 209.267092 472.003499 
L 211.157339 471.441493 
L 213.047585 470.879488 
L 214.937831 470.317482 
L 216.828078 469.755476 
L 218.718324 469.19347 
L 220.608571 468.631464 
L 222.498817 468.069459 
L 224.389063 467.507453 
L 226.27931 466.945447 
L 228.169556 466.383441 
L 230.059802 465.821435 
L 231.950049 465.25943 
L 233.840295 464.697424 
L 235.730542 464.135418 
L 237.620788 463.573412 
L 239.511034 463.011406 
L 241.401281 462.449401 
L 243.291527 461.887395 
L 245.181773 461.325389 
L 247.07202 460.763383 
L 248.962266 460.201377 
L 250.852513 459.639372 
L 252.742759 459.077366 
L 254.633005 458.51536 
L 256.523252 457.953354 
L 258.413498 457.391348 
L 260.303744 456.829343 
L 262.193991 456.267337 
L 264.084237 455.705331 
L 265.974484 455.143325 
L 267.86473 454.581319 
L 269.754976 454.019314 
L 271.645223 453.457308 
L 273.535469 452.895302 
L 275.425716 452.333296 
L 277.315962 451.77129 
L 279.206208 451.209285 
L 281.096455 450.647279 
L 282.986701 450.085273 
L 284.876947 449.523267 
L 286.767194 448.961262 
L 288.65744 448.399256 
L 290.547687 447.83725 
L 292.437933 447.275244 
L 294.328179 446.713238 
L 296.218426 446.151233 
L 298.108672 445.589227 
L 299.998918 445.027221 
" clip-path="url(#pb0c36069b9)" style="fill: none; stroke-dasharray: 7.4,3.2; stroke-dashoffset: 0; stroke: #2ca02c; stroke-opacity: 0.5; stroke-width: 2"/>
   </g>
   <g id="line2d_28">
    <path d="M 105.727841 504.602955 
L 814.009659 61.512045 
" clip-path="url(#pb0c36069b9)" style="fill: none; stroke-dasharray: 1,1.65; stroke-dashoffset: 0; stroke: #000000; stroke-opacity: 0.3"/>
   </g>
   <g id="patch_3">
    <path d="M 70.31375 526.7575 
L 70.31375 39.3575 
" style="fill: none; stroke: #000000; stroke-width: 0.8; stroke-linejoin: miter; stroke-linecap: square"/>
   </g>
   <g id="patch_4">
    <path d="M 849.42375 526.7575 
L 849.42375 39.3575 
" style="fill: none; stroke: #000000; stroke-width: 0.8; stroke-linejoin: miter; stroke-linecap: square"/>
   </g>
   <g id="patch_5">
    <path d="M 70.31375 526.7575 
L 849.42375 526.7575 
" style="fill: none; stroke: #000000; stroke-width: 0.8; stroke-linejoin: miter; stroke-linecap: square"/>
   </g>
   <g id="patch_6">
    <path d="M 70.31375 39.3575 
L 849.42375 39.3575 
" style="fill: none; stroke: #000000; stroke-width: 0.8; stroke-linejoin: miter; stroke-linecap: square"/>
   </g>
   <g id="text_15">
    <g id="patch_7">
     <path d="M 632.919363 521.5095 
L 833.84155 521.5095 
Q 838.34155 521.5095 838.34155 517.0095 
L 838.34155 488.143125 
Q 838.34155 483.643125 833.84155 483.643125 
L 632.919363 483.643125 
Q 628.419363 483.643125 628.419363 488.143125 
L 628.419363 517.0095 
Q 628.419363 521.5095 632.919363 521.5095 
z
" style="fill: #ffffe0; opacity: 0.5; stroke: #000000; stroke-linejoin: miter"/>
    </g>
    <!-- Marker size  Execution time -->
    <g style="opacity: 0.7" transform="translate(702.922487 494.981719) scale(0.09 -0.09)">
     <defs>
      <path id="DejaVuSans-4d" d="M 628 4666 
L 1569 4666 
L 2759 1491 
L 3956 4666 
L 4897 4666 
L 4897 0 
L 4281 0 
L 4281 4097 
L 3078 897 
L 2444 897 
L 1241 4097 
L 1241 0 
L 628 0 
L 628 4666 
z
" transform="scale(0.015625)"/>
      <path id="DejaVuSans-61" d="M 2194 1759 
Q 1497 1759 1228 1600 
Q 959 1441 959 1056 
Q 959 750 1161 570 
Q 1363 391 1709 391 
Q 2188 391 2477 730 
Q 2766 1069 2766 1631 
L 2766 1759 
L 2194 1759 
z
M 3341 1997 
L 3341 0 
L 2766 0 
L 2766 531 
Q 2569 213 2275 61 
Q 1981 -91 1556 -91 
Q 1019 -91 701 211 
Q 384 513 384 1019 
Q 384 1609 779 1909 
Q 1175 2209 1959 2209 
L 2766 2209 
L 2766 2266 
Q 2766 2663 2505 2880 
Q 2244 3097 1772 3097 
Q 1472 3097 1187 3025 
Q 903 2953 641 2809 
L 641 3341 
Q 956 3463 1253 3523 
Q 1550 3584 1831 3584 
Q 2591 3584 2966 3190 
Q 3341 2797 3341 1997 
z
" transform="scale(0.015625)"/>
      <path id="DejaVuSans-72" d="M 2631 2963 
Q 2534 3019 2420 3045 
Q 2306 3072 2169 3072 
Q 1681 3072 1420 2755 
Q 1159 2438 1159 1844 
L 1159 0 
L 581 0 
L 581 3500 
L 1159 3500 
L 1159 2956 
Q 1341 3275 1631 3429 
Q 1922 3584 2338 3584 
Q 2397 3584 2469 3576 
Q 2541 3569 2628 3553 
L 2631 2963 
z
" transform="scale(0.015625)"/>
      <path id="DejaVuSans-6b" d="M 581 4863 
L 1159 4863 
L 1159 1991 
L 2875 3500 
L 3609 3500 
L 1753 1863 
L 3688 0 
L 2938 0 
L 1159 1709 
L 1159 0 
L 581 0 
L 581 4863 
z
" transform="scale(0.015625)"/>
      <path id="DejaVuSans-65" d="M 3597 1894 
L 3597 1613 
L 953 1613 
Q 991 1019 1311 708 
Q 1631 397 2203 397 
Q 2534 397 2845 478 
Q 3156 559 3463 722 
L 3463 178 
Q 3153 47 2828 -22 
Q 2503 -91 2169 -91 
Q 1331 -91 842 396 
Q 353 884 353 1716 
Q 353 2575 817 3079 
Q 1281 3584 2069 3584 
Q 2775 3584 3186 3129 
Q 3597 2675 3597 1894 
z
M 3022 2063 
Q 3016 2534 2758 2815 
Q 2500 3097 2075 3097 
Q 1594 3097 1305 2825 
Q 1016 2553 972 2059 
L 3022 2063 
z
" transform="scale(0.015625)"/>
      <path id="DejaVuSans-20" transform="scale(0.015625)"/>
      <path id="DejaVuSans-73" d="M 2834 3397 
L 2834 2853 
Q 2591 2978 2328 3040 
Q 2066 3103 1784 3103 
Q 1356 3103 1142 2972 
Q 928 2841 928 2578 
Q 928 2378 1081 2264 
Q 1234 2150 1697 2047 
L 1894 2003 
Q 2506 1872 2764 1633 
Q 3022 1394 3022 966 
Q 3022 478 2636 193 
Q 2250 -91 1575 -91 
Q 1294 -91 989 -36 
Q 684 19 347 128 
L 347 722 
Q 666 556 975 473 
Q 1284 391 1588 391 
Q 1994 391 2212 530 
Q 2431 669 2431 922 
Q 2431 1156 2273 1281 
Q 2116 1406 1581 1522 
L 1381 1569 
Q 847 1681 609 1914 
Q 372 2147 372 2553 
Q 372 3047 722 3315 
Q 1072 3584 1716 3584 
Q 2034 3584 2315 3537 
Q 2597 3491 2834 3397 
z
" transform="scale(0.015625)"/>
      <path id="DejaVuSans-69" d="M 603 3500 
L 1178 3500 
L 1178 0 
L 603 0 
L 603 3500 
z
M 603 4863 
L 1178 4863 
L 1178 4134 
L 603 4134 
L 603 4863 
z
" transform="scale(0.015625)"/>
      <path id="DejaVuSans-7a" d="M 353 3500 
L 3084 3500 
L 3084 2975 
L 922 459 
L 3084 459 
L 3084 0 
L 275 0 
L 275 525 
L 2438 3041 
L 353 3041 
L 353 3500 
z
" transform="scale(0.015625)"/>
      <path id="DejaVuSans-221d" d="M 1647 1134 
Q 2163 1134 2472 1884 
Q 2075 2703 1647 2703 
Q 1334 2703 1175 2478 
Q 1006 2238 1006 1919 
Q 1006 1569 1175 1353 
Q 1350 1134 1647 1134 
z
M 3884 1128 
L 3884 716 
L 3644 716 
Q 3416 716 3247 809 
Q 3078 894 2916 1091 
Q 2819 1203 2666 1466 
Q 2456 1091 2272 925 
Q 2044 725 1681 725 
Q 1259 725 981 1041 
Q 688 1372 688 1919 
Q 688 2444 981 2800 
Q 1241 3116 1688 3116 
Q 1916 3116 2084 3022 
Q 2281 2919 2416 2741 
Q 2541 2581 2666 2366 
Q 2875 2741 3059 2906 
Q 3288 3106 3650 3106 
L 3884 3106 
L 3884 2697 
L 3684 2697 
Q 3222 2697 2859 1947 
Q 3256 1128 3684 1128 
L 3884 1128 
z
" transform="scale(0.015625)"/>
      <path id="DejaVuSans-45" d="M 628 4666 
L 3578 4666 
L 3578 4134 
L 1259 4134 
L 1259 2753 
L 3481 2753 
L 3481 2222 
L 1259 2222 
L 1259 531 
L 3634 531 
L 3634 0 
L 628 0 
L 628 4666 
z
" transform="scale(0.015625)"/>
      <path id="DejaVuSans-78" d="M 3513 3500 
L 2247 1797 
L 3578 0 
L 2900 0 
L 1881 1375 
L 863 0 
L 184 0 
L 1544 1831 
L 300 3500 
L 978 3500 
L 1906 2253 
L 2834 3500 
L 3513 3500 
z
" transform="scale(0.015625)"/>
      <path id="DejaVuSans-63" d="M 3122 3366 
L 3122 2828 
Q 2878 2963 2633 3030 
Q 2388 3097 2138 3097 
Q 1578 3097 1268 2742 
Q 959 2388 959 1747 
Q 959 1106 1268 751 
Q 1578 397 2138 397 
Q 2388 397 2633 464 
Q 2878 531 3122 666 
L 3122 134 
Q 2881 22 2623 -34 
Q 2366 -91 2075 -91 
Q 1284 -91 818 406 
Q 353 903 353 1747 
Q 353 2603 823 3093 
Q 1294 3584 2113 3584 
Q 2378 3584 2631 3529 
Q 2884 3475 3122 3366 
z
" transform="scale(0.015625)"/>
      <path id="DejaVuSans-75" d="M 544 1381 
L 544 3500 
L 1119 3500 
L 1119 1403 
Q 1119 906 1312 657 
Q 1506 409 1894 409 
Q 2359 409 2629 706 
Q 2900 1003 2900 1516 
L 2900 3500 
L 3475 3500 
L 3475 0 
L 2900 0 
L 2900 538 
Q 2691 219 2414 64 
Q 2138 -91 1772 -91 
Q 1169 -91 856 284 
Q 544 659 544 1381 
z
M 1991 3584 
L 1991 3584 
z
" transform="scale(0.015625)"/>
      <path id="DejaVuSans-74" d="M 1172 4494 
L 1172 3500 
L 2356 3500 
L 2356 3053 
L 1172 3053 
L 1172 1153 
Q 1172 725 1289 603 
Q 1406 481 1766 481 
L 2356 481 
L 2356 0 
L 1766 0 
Q 1100 0 847 248 
Q 594 497 594 1153 
L 594 3053 
L 172 3053 
L 172 3500 
L 594 3500 
L 594 4494 
L 1172 4494 
z
" transform="scale(0.015625)"/>
      <path id="DejaVuSans-6f" d="M 1959 3097 
Q 1497 3097 1228 2736 
Q 959 2375 959 1747 
Q 959 1119 1226 758 
Q 1494 397 1959 397 
Q 2419 397 2687 759 
Q 2956 1122 2956 1747 
Q 2956 2369 2687 2733 
Q 2419 3097 1959 3097 
z
M 1959 3584 
Q 2709 3584 3137 3096 
Q 3566 2609 3566 1747 
Q 3566 888 3137 398 
Q 2709 -91 1959 -91 
Q 1206 -91 779 398 
Q 353 888 353 1747 
Q 353 2609 779 3096 
Q 1206 3584 1959 3584 
z
" transform="scale(0.015625)"/>
      <path id="DejaVuSans-6e" d="M 3513 2113 
L 3513 0 
L 2938 0 
L 2938 2094 
Q 2938 2591 2744 2837 
Q 2550 3084 2163 3084 
Q 1697 3084 1428 2787 
Q 1159 2491 1159 1978 
L 1159 0 
L 581 0 
L 581 3500 
L 1159 3500 
L 1159 2956 
Q 1366 3272 1645 3428 
Q 1925 3584 2291 3584 
Q 2894 3584 3203 3211 
Q 3513 2838 3513 2113 
z
" transform="scale(0.015625)"/>
      <path id="DejaVuSans-6d" d="M 3328 2828 
Q 3544 3216 3844 3400 
Q 4144 3584 4550 3584 
Q 5097 3584 5394 3201 
Q 5691 2819 5691 2113 
L 5691 0 
L 5113 0 
L 5113 2094 
Q 5113 2597 4934 2840 
Q 4756 3084 4391 3084 
Q 3944 3084 3684 2787 
Q 3425 2491 3425 1978 
L 3425 0 
L 2847 0 
L 2847 2094 
Q 2847 2600 2669 2842 
Q 2491 3084 2119 3084 
Q 1678 3084 1418 2786 
Q 1159 2488 1159 1978 
L 1159 0 
L 581 0 
L 581 3500 
L 1159 3500 
L 1159 2956 
Q 1356 3278 1631 3431 
Q 1906 3584 2284 3584 
Q 2666 3584 2933 3390 
Q 3200 3197 3328 2828 
z
" transform="scale(0.015625)"/>
     </defs>
     <use xlink:href="#DejaVuSans-4d"/>
     <use xlink:href="#DejaVuSans-61" x="86.279297"/>
     <use xlink:href="#DejaVuSans-72" x="147.558594"/>
     <use xlink:href="#DejaVuSans-6b" x="188.671875"/>
     <use xlink:href="#DejaVuSans-65" x="242.957031"/>
     <use xlink:href="#DejaVuSans-72" x="304.480469"/>
     <use xlink:href="#DejaVuSans-20" x="345.59375"/>
     <use xlink:href="#DejaVuSans-73" x="377.380859"/>
     <use xlink:href="#DejaVuSans-69" x="429.480469"/>
     <use xlink:href="#DejaVuSans-7a" x="457.263672"/>
     <use xlink:href="#DejaVuSans-65" x="509.753906"/>
     <use xlink:href="#DejaVuSans-20" x="571.277344"/>
     <use xlink:href="#DejaVuSans-221d" x="603.064453"/>
     <use xlink:href="#DejaVuSans-20" x="674.5"/>
     <use xlink:href="#DejaVuSans-45" x="706.287109"/>
     <use xlink:href="#DejaVuSans-78" x="769.470703"/>
     <use xlink:href="#DejaVuSans-65" x="825.525391"/>
     <use xlink:href="#DejaVuSans-63" x="887.048828"/>
     <use xlink:href="#DejaVuSans-75" x="942.029297"/>
     <use xlink:href="#DejaVuSans-74" x="1005.408203"/>
     <use xlink:href="#DejaVuSans-69" x="1044.617188"/>
     <use xlink:href="#DejaVuSans-6f" x="1072.400391"/>
     <use xlink:href="#DejaVuSans-6e" x="1133.582031"/>
     <use xlink:href="#DejaVuSans-20" x="1196.960938"/>
     <use xlink:href="#DejaVuSans-74" x="1228.748047"/>
     <use xlink:href="#DejaVuSans-69" x="1267.957031"/>
     <use xlink:href="#DejaVuSans-6d" x="1295.740234"/>
     <use xlink:href="#DejaVuSans-65" x="1393.152344"/>
    </g>
    <!-- Points above 1:1 line = More verbose output -->
    <g style="opacity: 0.7" transform="translate(632.919363 505.05975) scale(0.09 -0.09)">
     <defs>
      <path id="DejaVuSans-50" d="M 1259 4147 
L 1259 2394 
L 2053 2394 
Q 2494 2394 2734 2622 
Q 2975 2850 2975 3272 
Q 2975 3691 2734 3919 
Q 2494 4147 2053 4147 
L 1259 4147 
z
M 628 4666 
L 2053 4666 
Q 2838 4666 3239 4311 
Q 3641 3956 3641 3272 
Q 3641 2581 3239 2228 
Q 2838 1875 2053 1875 
L 1259 1875 
L 1259 0 
L 628 0 
L 628 4666 
z
" transform="scale(0.015625)"/>
      <path id="DejaVuSans-62" d="M 3116 1747 
Q 3116 2381 2855 2742 
Q 2594 3103 2138 3103 
Q 1681 3103 1420 2742 
Q 1159 2381 1159 1747 
Q 1159 1113 1420 752 
Q 1681 391 2138 391 
Q 2594 391 2855 752 
Q 3116 1113 3116 1747 
z
M 1159 2969 
Q 1341 3281 1617 3432 
Q 1894 3584 2278 3584 
Q 2916 3584 3314 3078 
Q 3713 2572 3713 1747 
Q 3713 922 3314 415 
Q 2916 -91 2278 -91 
Q 1894 -91 1617 61 
Q 1341 213 1159 525 
L 1159 0 
L 581 0 
L 581 4863 
L 1159 4863 
L 1159 2969 
z
" transform="scale(0.015625)"/>
      <path id="DejaVuSans-76" d="M 191 3500 
L 800 3500 
L 1894 563 
L 2988 3500 
L 3597 3500 
L 2284 0 
L 1503 0 
L 191 3500 
z
" transform="scale(0.015625)"/>
      <path id="DejaVuSans-3a" d="M 750 794 
L 1409 794 
L 1409 0 
L 750 0 
L 750 794 
z
M 750 3309 
L 1409 3309 
L 1409 2516 
L 750 2516 
L 750 3309 
z
" transform="scale(0.015625)"/>
      <path id="DejaVuSans-6c" d="M 603 4863 
L 1178 4863 
L 1178 0 
L 603 0 
L 603 4863 
z
" transform="scale(0.015625)"/>
      <path id="DejaVuSans-3d" d="M 678 2906 
L 4684 2906 
L 4684 2381 
L 678 2381 
L 678 2906 
z
M 678 1631 
L 4684 1631 
L 4684 1100 
L 678 1100 
L 678 1631 
z
" transform="scale(0.015625)"/>
      <path id="DejaVuSans-70" d="M 1159 525 
L 1159 -1331 
L 581 -1331 
L 581 3500 
L 1159 3500 
L 1159 2969 
Q 1341 3281 1617 3432 
Q 1894 3584 2278 3584 
Q 2916 3584 3314 3078 
Q 3713 2572 3713 1747 
Q 3713 922 3314 415 
Q 2916 -91 2278 -91 
Q 1894 -91 1617 61 
Q 1341 213 1159 525 
z
M 3116 1747 
Q 3116 2381 2855 2742 
Q 2594 3103 2138 3103 
Q 1681 3103 1420 2742 
Q 1159 2381 1159 1747 
Q 1159 1113 1420 752 
Q 1681 391 2138 391 
Q 2594 391 2855 752 
Q 3116 1113 3116 1747 
z
" transform="scale(0.015625)"/>
     </defs>
     <use xlink:href="#DejaVuSans-50"/>
     <use xlink:href="#DejaVuSans-6f" x="56.677734"/>
     <use xlink:href="#DejaVuSans-69" x="117.859375"/>
     <use xlink:href="#DejaVuSans-6e" x="145.642578"/>
     <use xlink:href="#DejaVuSans-74" x="209.021484"/>
     <use xlink:href="#DejaVuSans-73" x="248.230469"/>
     <use xlink:href="#DejaVuSans-20" x="300.330078"/>
     <use xlink:href="#DejaVuSans-61" x="332.117188"/>
     <use xlink:href="#DejaVuSans-62" x="393.396484"/>
     <use xlink:href="#DejaVuSans-6f" x="456.873047"/>
     <use xlink:href="#DejaVuSans-76" x="518.054688"/>
     <use xlink:href="#DejaVuSans-65" x="577.234375"/>
     <use xlink:href="#DejaVuSans-20" x="638.757812"/>
     <use xlink:href="#DejaVuSans-31" x="670.544922"/>
     <use xlink:href="#DejaVuSans-3a" x="734.167969"/>
     <use xlink:href="#DejaVuSans-31" x="767.859375"/>
     <use xlink:href="#DejaVuSans-20" x="831.482422"/>
     <use xlink:href="#DejaVuSans-6c" x="863.269531"/>
     <use xlink:href="#DejaVuSans-69" x="891.052734"/>
     <use xlink:href="#DejaVuSans-6e" x="918.835938"/>
     <use xlink:href="#DejaVuSans-65" x="982.214844"/>
     <use xlink:href="#DejaVuSans-20" x="1043.738281"/>
     <use xlink:href="#DejaVuSans-3d" x="1075.525391"/>
     <use xlink:href="#DejaVuSans-20" x="1159.314453"/>
     <use xlink:href="#DejaVuSans-4d" x="1191.101562"/>
     <use xlink:href="#DejaVuSans-6f" x="1277.380859"/>
     <use xlink:href="#DejaVuSans-72" x="1338.5625"/>
     <use xlink:href="#DejaVuSans-65" x="1377.425781"/>
     <use xlink:href="#DejaVuSans-20" x="1438.949219"/>
     <use xlink:href="#DejaVuSans-76" x="1470.736328"/>
     <use xlink:href="#DejaVuSans-65" x="1529.916016"/>
     <use xlink:href="#DejaVuSans-72" x="1591.439453"/>
     <use xlink:href="#DejaVuSans-62" x="1632.552734"/>
     <use xlink:href="#DejaVuSans-6f" x="1696.029297"/>
     <use xlink:href="#DejaVuSans-73" x="1757.210938"/>
     <use xlink:href="#DejaVuSans-65" x="1809.310547"/>
     <use xlink:href="#DejaVuSans-20" x="1870.833984"/>
     <use xlink:href="#DejaVuSans-6f" x="1902.621094"/>
     <use xlink:href="#DejaVuSans-75" x="1963.802734"/>
     <use xlink:href="#DejaVuSans-74" x="2027.181641"/>
     <use xlink:href="#DejaVuSans-70" x="2066.390625"/>
     <use xlink:href="#DejaVuSans-75" x="2129.867188"/>
     <use xlink:href="#DejaVuSans-74" x="2193.246094"/>
    </g>
    <!-- Points below 1:1 line = Concise output -->
    <g style="opacity: 0.7" transform="translate(659.909519 515.137781) scale(0.09 -0.09)">
     <defs>
      <path id="DejaVuSans-77" d="M 269 3500 
L 844 3500 
L 1563 769 
L 2278 3500 
L 2956 3500 
L 3675 769 
L 4391 3500 
L 4966 3500 
L 4050 0 
L 3372 0 
L 2619 2869 
L 1863 0 
L 1184 0 
L 269 3500 
z
" transform="scale(0.015625)"/>
      <path id="DejaVuSans-43" d="M 4122 4306 
L 4122 3641 
Q 3803 3938 3442 4084 
Q 3081 4231 2675 4231 
Q 1875 4231 1450 3742 
Q 1025 3253 1025 2328 
Q 1025 1406 1450 917 
Q 1875 428 2675 428 
Q 3081 428 3442 575 
Q 3803 722 4122 1019 
L 4122 359 
Q 3791 134 3420 21 
Q 3050 -91 2638 -91 
Q 1578 -91 968 557 
Q 359 1206 359 2328 
Q 359 3453 968 4101 
Q 1578 4750 2638 4750 
Q 3056 4750 3426 4639 
Q 3797 4528 4122 4306 
z
" transform="scale(0.015625)"/>
     </defs>
     <use xlink:href="#DejaVuSans-50"/>
     <use xlink:href="#DejaVuSans-6f" x="56.677734"/>
     <use xlink:href="#DejaVuSans-69" x="117.859375"/>
     <use xlink:href="#DejaVuSans-6e" x="145.642578"/>
     <use xlink:href="#DejaVuSans-74" x="209.021484"/>
     <use xlink:href="#DejaVuSans-73" x="248.230469"/>
     <use xlink:href="#DejaVuSans-20" x="300.330078"/>
     <use xlink:href="#DejaVuSans-62" x="332.117188"/>
     <use xlink:href="#DejaVuSans-65" x="395.59375"/>
     <use xlink:href="#DejaVuSans-6c" x="457.117188"/>
     <use xlink:href="#DejaVuSans-6f" x="484.900391"/>
     <use xlink:href="#DejaVuSans-77" x="546.082031"/>
     <use xlink:href="#DejaVuSans-20" x="627.869141"/>
     <use xlink:href="#DejaVuSans-31" x="659.65625"/>
     <use xlink:href="#DejaVuSans-3a" x="723.279297"/>
     <use xlink:href="#DejaVuSans-31" x="756.970703"/>
     <use xlink:href="#DejaVuSans-20" x="820.59375"/>
     <use xlink:href="#DejaVuSans-6c" x="852.380859"/>
     <use xlink:href="#DejaVuSans-69" x="880.164062"/>
     <use xlink:href="#DejaVuSans-6e" x="907.947266"/>
     <use xlink:href="#DejaVuSans-65" x="971.326172"/>
     <use xlink:href="#DejaVuSans-20" x="1032.849609"/>
     <use xlink:href="#DejaVuSans-3d" x="1064.636719"/>
     <use xlink:href="#DejaVuSans-20" x="1148.425781"/>
     <use xlink:href="#DejaVuSans-43" x="1180.212891"/>
     <use xlink:href="#DejaVuSans-6f" x="1250.037109"/>
     <use xlink:href="#DejaVuSans-6e" x="1311.21875"/>
     <use xlink:href="#DejaVuSans-63" x="1374.597656"/>
     <use xlink:href="#DejaVuSans-69" x="1429.578125"/>
     <use xlink:href="#DejaVuSans-73" x="1457.361328"/>
     <use xlink:href="#DejaVuSans-65" x="1509.460938"/>
     <use xlink:href="#DejaVuSans-20" x="1570.984375"/>
     <use xlink:href="#DejaVuSans-6f" x="1602.771484"/>
     <use xlink:href="#DejaVuSans-75" x="1663.953125"/>
     <use xlink:href="#DejaVuSans-74" x="1727.332031"/>
     <use xlink:href="#DejaVuSans-70" x="1766.541016"/>
     <use xlink:href="#DejaVuSans-75" x="1830.017578"/>
     <use xlink:href="#DejaVuSans-74" x="1893.396484"/>
    </g>
   </g>
   <g id="text_16">
    <!-- Token Efficiency: Input vs Output -->
    <g transform="translate(310.21625 19.3575) scale(0.16 -0.16)">
     <defs>
      <path id="DejaVuSans-Bold-45" d="M 588 4666 
L 3834 4666 
L 3834 3756 
L 1791 3756 
L 1791 2888 
L 3713 2888 
L 3713 1978 
L 1791 1978 
L 1791 909 
L 3903 909 
L 3903 0 
L 588 0 
L 588 4666 
z
" transform="scale(0.015625)"/>
      <path id="DejaVuSans-Bold-66" d="M 2841 4863 
L 2841 4128 
L 2222 4128 
Q 1984 4128 1890 4042 
Q 1797 3956 1797 3744 
L 1797 3500 
L 2753 3500 
L 2753 2700 
L 1797 2700 
L 1797 0 
L 678 0 
L 678 2700 
L 122 2700 
L 122 3500 
L 678 3500 
L 678 3744 
Q 678 4316 997 4589 
Q 1316 4863 1984 4863 
L 2841 4863 
z
" transform="scale(0.015625)"/>
      <path id="DejaVuSans-Bold-69" d="M 538 3500 
L 1656 3500 
L 1656 0 
L 538 0 
L 538 3500 
z
M 538 4863 
L 1656 4863 
L 1656 3950 
L 538 3950 
L 538 4863 
z
" transform="scale(0.015625)"/>
      <path id="DejaVuSans-Bold-63" d="M 3366 3391 
L 3366 2478 
Q 3138 2634 2908 2709 
Q 2678 2784 2431 2784 
Q 1963 2784 1702 2511 
Q 1441 2238 1441 1747 
Q 1441 1256 1702 982 
Q 1963 709 2431 709 
Q 2694 709 2930 787 
Q 3166 866 3366 1019 
L 3366 103 
Q 3103 6 2833 -42 
Q 2563 -91 2291 -91 
Q 1344 -91 809 395 
Q 275 881 275 1747 
Q 275 2613 809 3098 
Q 1344 3584 2291 3584 
Q 2566 3584 2833 3536 
Q 3100 3488 3366 3391 
z
" transform="scale(0.015625)"/>
      <path id="DejaVuSans-Bold-79" d="M 78 3500 
L 1197 3500 
L 2138 1125 
L 2938 3500 
L 4056 3500 
L 2584 -331 
Q 2363 -916 2067 -1148 
Q 1772 -1381 1288 -1381 
L 641 -1381 
L 641 -647 
L 991 -647 
Q 1275 -647 1404 -556 
Q 1534 -466 1606 -231 
L 1638 -134 
L 78 3500 
z
" transform="scale(0.015625)"/>
      <path id="DejaVuSans-Bold-3a" d="M 716 3500 
L 1844 3500 
L 1844 2291 
L 716 2291 
L 716 3500 
z
M 716 1209 
L 1844 1209 
L 1844 0 
L 716 0 
L 716 1209 
z
" transform="scale(0.015625)"/>
      <path id="DejaVuSans-Bold-76" d="M 97 3500 
L 1216 3500 
L 2088 1081 
L 2956 3500 
L 4078 3500 
L 2700 0 
L 1472 0 
L 97 3500 
z
" transform="scale(0.015625)"/>
     </defs>
     <use xlink:href="#DejaVuSans-Bold-54"/>
     <use xlink:href="#DejaVuSans-Bold-6f" x="54.962891"/>
     <use xlink:href="#DejaVuSans-Bold-6b" x="123.664062"/>
     <use xlink:href="#DejaVuSans-Bold-65" x="187.542969"/>
     <use xlink:href="#DejaVuSans-Bold-6e" x="255.365234"/>
     <use xlink:href="#DejaVuSans-Bold-20" x="326.556641"/>
     <use xlink:href="#DejaVuSans-Bold-45" x="361.371094"/>
     <use xlink:href="#DejaVuSans-Bold-66" x="429.681641"/>
     <use xlink:href="#DejaVuSans-Bold-66" x="473.1875"/>
     <use xlink:href="#DejaVuSans-Bold-69" x="516.693359"/>
     <use xlink:href="#DejaVuSans-Bold-63" x="550.970703"/>
     <use xlink:href="#DejaVuSans-Bold-69" x="610.248047"/>
     <use xlink:href="#DejaVuSans-Bold-65" x="644.525391"/>
     <use xlink:href="#DejaVuSans-Bold-6e" x="712.347656"/>
     <use xlink:href="#DejaVuSans-Bold-63" x="783.539062"/>
     <use xlink:href="#DejaVuSans-Bold-79" x="842.816406"/>
     <use xlink:href="#DejaVuSans-Bold-3a" x="908.001953"/>
     <use xlink:href="#DejaVuSans-Bold-20" x="947.992188"/>
     <use xlink:href="#DejaVuSans-Bold-49" x="982.806641"/>
     <use xlink:href="#DejaVuSans-Bold-6e" x="1020.013672"/>
     <use xlink:href="#DejaVuSans-Bold-70" x="1091.205078"/>
     <use xlink:href="#DejaVuSans-Bold-75" x="1162.787109"/>
     <use xlink:href="#DejaVuSans-Bold-74" x="1233.978516"/>
     <use xlink:href="#DejaVuSans-Bold-20" x="1281.78125"/>
     <use xlink:href="#DejaVuSans-Bold-76" x="1316.595703"/>
     <use xlink:href="#DejaVuSans-Bold-73" x="1381.78125"/>
     <use xlink:href="#DejaVuSans-Bold-20" x="1441.302734"/>
     <use xlink:href="#DejaVuSans-Bold-4f" x="1476.117188"/>
     <use xlink:href="#DejaVuSans-Bold-75" x="1561.126953"/>
     <use xlink:href="#DejaVuSans-Bold-74" x="1632.318359"/>
     <use xlink:href="#DejaVuSans-Bold-70" x="1680.121094"/>
     <use xlink:href="#DejaVuSans-Bold-75" x="1751.703125"/>
     <use xlink:href="#DejaVuSans-Bold-74" x="1822.894531"/>
    </g>
   </g>
   <g id="legend_1">
    <g id="patch_8">
     <path d="M 78.71375 119.4125 
L 167.9075 119.4125 
Q 170.3075 119.4125 170.3075 117.0125 
L 170.3075 47.7575 
Q 170.3075 45.3575 167.9075 45.3575 
L 78.71375 45.3575 
Q 76.31375 45.3575 76.31375 47.7575 
L 76.31375 117.0125 
Q 76.31375 119.4125 78.71375 119.4125 
z
" style="fill: #ffffff; opacity: 0.9; stroke: #cccccc; stroke-linejoin: miter"/>
    </g>
    <g id="PathCollection_4">
     <defs>
      <path id="m747f80ec69" d="M 0 8.291562 
C 2.198948 8.291562 4.308129 7.417911 5.86302 5.86302 
C 7.417911 4.308129 8.291562 2.198948 8.291562 0 
C 8.291562 -2.198948 7.417911 -4.308129 5.86302 -5.86302 
C 4.308129 -7.417911 2.198948 -8.291562 0 -8.291562 
C -2.198948 -8.291562 -4.308129 -7.417911 -5.86302 -5.86302 
C -7.417911 -4.308129 -8.291562 -2.198948 -8.291562 0 
C -8.291562 2.198948 -7.417911 4.308129 -5.86302 5.86302 
C -4.308129 7.417911 -2.198948 8.291562 0 8.291562 
z
" style="stroke: #000000; stroke-opacity: 0.6; stroke-width: 1.5"/>
     </defs>
     <g>
      <use xlink:href="#m747f80ec69" x="93.11375" y="56.125625" style="fill: #1f77b4; fill-opacity: 0.6; stroke: #000000; stroke-opacity: 0.6; stroke-width: 1.5"/>
     </g>
    </g>
    <g id="text_17">
     <!-- baes -->
     <g transform="translate(114.71375 59.275625) scale(0.12 -0.12)">
      <use xlink:href="#DejaVuSans-62"/>
      <use xlink:href="#DejaVuSans-61" x="63.476562"/>
      <use xlink:href="#DejaVuSans-65" x="124.755859"/>
      <use xlink:href="#DejaVuSans-73" x="186.279297"/>
     </g>
    </g>
    <g id="PathCollection_5">
     <defs>
      <path id="md9a105de98" d="M -8.291562 8.291562 
L 8.291562 8.291562 
L 8.291562 -8.291562 
L -8.291562 -8.291562 
z
" style="stroke: #000000; stroke-opacity: 0.6; stroke-width: 1.5"/>
     </defs>
     <g>
      <use xlink:href="#md9a105de98" x="93.11375" y="73.739375" style="fill: #ff7f0e; fill-opacity: 0.6; stroke: #000000; stroke-opacity: 0.6; stroke-width: 1.5"/>
     </g>
    </g>
    <g id="text_18">
     <!-- chatdev -->
     <g transform="translate(114.71375 76.889375) scale(0.12 -0.12)">
      <defs>
       <path id="DejaVuSans-68" d="M 3513 2113 
L 3513 0 
L 2938 0 
L 2938 2094 
Q 2938 2591 2744 2837 
Q 2550 3084 2163 3084 
Q 1697 3084 1428 2787 
Q 1159 2491 1159 1978 
L 1159 0 
L 581 0 
L 581 4863 
L 1159 4863 
L 1159 2956 
Q 1366 3272 1645 3428 
Q 1925 3584 2291 3584 
Q 2894 3584 3203 3211 
Q 3513 2838 3513 2113 
z
" transform="scale(0.015625)"/>
       <path id="DejaVuSans-64" d="M 2906 2969 
L 2906 4863 
L 3481 4863 
L 3481 0 
L 2906 0 
L 2906 525 
Q 2725 213 2448 61 
Q 2172 -91 1784 -91 
Q 1150 -91 751 415 
Q 353 922 353 1747 
Q 353 2572 751 3078 
Q 1150 3584 1784 3584 
Q 2172 3584 2448 3432 
Q 2725 3281 2906 2969 
z
M 947 1747 
Q 947 1113 1208 752 
Q 1469 391 1925 391 
Q 2381 391 2643 752 
Q 2906 1113 2906 1747 
Q 2906 2381 2643 2742 
Q 2381 3103 1925 3103 
Q 1469 3103 1208 2742 
Q 947 2381 947 1747 
z
" transform="scale(0.015625)"/>
      </defs>
      <use xlink:href="#DejaVuSans-63"/>
      <use xlink:href="#DejaVuSans-68" x="54.980469"/>
      <use xlink:href="#DejaVuSans-61" x="118.359375"/>
      <use xlink:href="#DejaVuSans-74" x="179.638672"/>
      <use xlink:href="#DejaVuSans-64" x="218.847656"/>
      <use xlink:href="#DejaVuSans-65" x="282.324219"/>
      <use xlink:href="#DejaVuSans-76" x="343.847656"/>
     </g>
    </g>
    <g id="PathCollection_6">
     <defs>
      <path id="md259589f9e" d="M 0 -8.291562 
L -8.291562 8.291562 
L 8.291562 8.291562 
z
" style="stroke: #000000; stroke-opacity: 0.6; stroke-width: 1.5"/>
     </defs>
     <g>
      <use xlink:href="#md259589f9e" x="93.11375" y="91.353125" style="fill: #2ca02c; fill-opacity: 0.6; stroke: #000000; stroke-opacity: 0.6; stroke-width: 1.5"/>
     </g>
    </g>
    <g id="text_19">
     <!-- ghspec -->
     <g transform="translate(114.71375 94.503125) scale(0.12 -0.12)">
      <defs>
       <path id="DejaVuSans-67" d="M 2906 1791 
Q 2906 2416 2648 2759 
Q 2391 3103 1925 3103 
Q 1463 3103 1205 2759 
Q 947 2416 947 1791 
Q 947 1169 1205 825 
Q 1463 481 1925 481 
Q 2391 481 2648 825 
Q 2906 1169 2906 1791 
z
M 3481 434 
Q 3481 -459 3084 -895 
Q 2688 -1331 1869 -1331 
Q 1566 -1331 1297 -1286 
Q 1028 -1241 775 -1147 
L 775 -588 
Q 1028 -725 1275 -790 
Q 1522 -856 1778 -856 
Q 2344 -856 2625 -561 
Q 2906 -266 2906 331 
L 2906 616 
Q 2728 306 2450 153 
Q 2172 0 1784 0 
Q 1141 0 747 490 
Q 353 981 353 1791 
Q 353 2603 747 3093 
Q 1141 3584 1784 3584 
Q 2172 3584 2450 3431 
Q 2728 3278 2906 2969 
L 2906 3500 
L 3481 3500 
L 3481 434 
z
" transform="scale(0.015625)"/>
      </defs>
      <use xlink:href="#DejaVuSans-67"/>
      <use xlink:href="#DejaVuSans-68" x="63.476562"/>
      <use xlink:href="#DejaVuSans-73" x="126.855469"/>
      <use xlink:href="#DejaVuSans-70" x="178.955078"/>
      <use xlink:href="#DejaVuSans-65" x="242.431641"/>
      <use xlink:href="#DejaVuSans-63" x="303.955078"/>
     </g>
    </g>
    <g id="line2d_29">
     <path d="M 81.11375 107.916875 
L 93.11375 107.916875 
L 105.11375 107.916875 
" style="fill: none; stroke-dasharray: 1,1.65; stroke-dashoffset: 0; stroke: #000000; stroke-opacity: 0.3"/>
    </g>
    <g id="text_20">
     <!-- 1:1 ratio -->
     <g transform="translate(114.71375 112.116875) scale(0.12 -0.12)">
      <use xlink:href="#DejaVuSans-31"/>
      <use xlink:href="#DejaVuSans-3a" x="63.623047"/>
      <use xlink:href="#DejaVuSans-31" x="97.314453"/>
      <use xlink:href="#DejaVuSans-20" x="160.9375"/>
      <use xlink:href="#DejaVuSans-72" x="192.724609"/>
      <use xlink:href="#DejaVuSans-61" x="233.837891"/>
      <use xlink:href="#DejaVuSans-74" x="295.117188"/>
      <use xlink:href="#DejaVuSans-69" x="334.326172"/>
      <use xlink:href="#DejaVuSans-6f" x="362.109375"/>
     </g>
    </g>
   </g>
  </g>
 </g>
 <defs>
  <clipPath id="pb0c36069b9">
   <rect x="70.31375" y="39.3575" width="779.11" height="487.4"/>
  </clipPath>
 </defs>
</svg>
